<?xml version="1.0" encoding="utf-8"?>
<!-- Generator: Adobe Illustrator 26.0.3, SVG Export Plug-In . SVG Version: 6.00 Build 0)  -->
<svg version="1.1" id="Layer_1" xmlns="http://www.w3.org/2000/svg" xmlns:xlink="http://www.w3.org/1999/xlink" x="0px" y="0px"
	 viewBox="0 0 1280.72 2000" style="enable-background:new 0 0 1280.72 2000;" xml:space="preserve">
<style type="text/css">
	.st0{fill:#2C2E2F;}
	.st1{fill:#D48A35;}
	.st2{fill:none;stroke:#D48A35;stroke-width:1.5;stroke-miterlimit:10;}
	.st3{fill:none;stroke:#D48A35;stroke-miterlimit:10;}
	.st4{fill:#D48A35;stroke:#D48A35;stroke-width:1.5;stroke-miterlimit:10;}
	.st5{fill:#FFFFFF;stroke:#D48A35;stroke-width:1.5;stroke-miterlimit:10;}
	.st6{fill:#2B2E2E;stroke:#FFFFFF;stroke-width:1.5;stroke-miterlimit:10;}
	.st7{fill:none;stroke:#FFFFFF;stroke-width:1.5;stroke-miterlimit:10;}
	.st8{fill:none;stroke:#FFFFFF;stroke-width:4;stroke-miterlimit:10;}
	.st9{fill:#FFFFFF;stroke:#FFFFFF;stroke-width:0.75;stroke-miterlimit:10;}
	.st10{fill:none;stroke:#FFFFFF;stroke-width:3;stroke-linecap:round;stroke-miterlimit:10;}
	.st11{fill:none;stroke:#FFFFFF;stroke-width:3;stroke-miterlimit:10;}
	.st12{fill:none;stroke:#FFFFFF;stroke-width:1.5;stroke-linecap:round;stroke-miterlimit:10;}
	.st13{fill:#FFFFFF;}
</style>
<rect class="st0" width="1280" height="2000"/>
<g>
	<g>
		<path class="st1" d="M51.2,1904.7c-5.3,0-10.25-1.07-14.85-3.22c-4.6-2.15-8.65-5.09-12.15-8.83c-3.5-3.74-6.23-8.06-8.18-12.95
			c-1.95-4.89-2.92-10.13-2.92-15.72c0-7.49,1.65-14.22,4.95-20.21c3.3-5.99,7.82-10.75,13.58-14.3c5.75-3.54,12.23-5.32,19.42-5.32
			c6.8,0,12.85,1.58,18.15,4.72c5.3,3.15,9.25,7.48,11.85,12.98l-4.95,1.8c-2.4-4.6-5.88-8.2-10.43-10.8
			c-4.55-2.6-9.58-3.9-15.07-3.9c-6,0-11.45,1.55-16.35,4.64c-4.9,3.09-8.8,7.29-11.7,12.57c-2.9,5.29-4.35,11.22-4.35,17.81
			c0,6.49,1.47,12.48,4.42,17.96c2.95,5.49,6.9,9.85,11.85,13.1c4.95,3.24,10.37,4.86,16.27,4.86c3.9,0,7.7-0.72,11.4-2.17
			c3.7-1.45,6.9-3.35,9.6-5.7c2.7-2.35,4.45-4.88,5.25-7.58l5.1,1.5c-1.2,3.6-3.38,6.83-6.52,9.67c-3.15,2.85-6.83,5.08-11.03,6.67
			C60.35,1903.9,55.89,1904.7,51.2,1904.7z"/>
		<path class="st1" d="M209.59,1904.7c-5.3,0-10.25-1.05-14.85-3.14c-4.6-2.1-8.6-5.02-12-8.76c-3.4-3.74-6.05-8.03-7.95-12.88
			c-1.9-4.84-2.85-9.96-2.85-15.35c0-5.59,0.98-10.8,2.92-15.64c1.95-4.84,4.62-9.13,8.02-12.88c3.4-3.74,7.4-6.66,12-8.76
			c4.6-2.1,9.45-3.15,14.55-3.15c5.2,0,10.07,1.05,14.62,3.15c4.55,2.09,8.55,5.02,12,8.76c3.45,3.74,6.15,8.04,8.1,12.88
			c1.95,4.84,2.92,10.06,2.92,15.64c0,5.39-0.95,10.5-2.85,15.35c-1.9,4.84-4.57,9.13-8.02,12.88s-7.45,6.66-12,8.76
			C219.66,1903.65,214.79,1904.7,209.59,1904.7z M177.04,1864.73c0,6.49,1.45,12.4,4.35,17.74c2.9,5.34,6.8,9.58,11.7,12.72
			c4.9,3.14,10.3,4.71,16.2,4.71c6,0,11.45-1.6,16.35-4.79c4.9-3.19,8.82-7.51,11.78-12.95c2.95-5.44,4.42-11.4,4.42-17.89
			c0-6.38-1.48-12.27-4.42-17.66c-2.95-5.39-6.88-9.68-11.78-12.87c-4.9-3.19-10.3-4.79-16.2-4.79c-5.8,0-11.18,1.65-16.12,4.94
			c-4.95,3.29-8.9,7.63-11.85,13.02C178.51,1852.31,177.04,1858.24,177.04,1864.73z"/>
		<path class="st1" d="M405.63,1903.2h-5.1v-43.41c0-10.58-1.53-18.36-4.57-23.35c-3.05-4.99-7.88-7.49-14.48-7.49
			c-4.7,0-9.3,1.12-13.8,3.37s-8.43,5.29-11.77,9.13c-3.35,3.84-5.77,8.21-7.27,13.09v48.66h-5.1v-77.85h4.95v19.46
			c2.1-4.09,4.92-7.69,8.48-10.78c3.55-3.09,7.52-5.51,11.92-7.26c4.4-1.75,8.9-2.62,13.5-2.62c4.1,0,7.62,0.75,10.58,2.25
			c2.95,1.5,5.35,3.69,7.2,6.59c1.85,2.89,3.23,6.54,4.12,10.93c0.9,4.39,1.35,9.48,1.35,15.27V1903.2z"/>
		<path class="st1" d="M509.88,1903.2v-73.5h-11.1v-4.5h11.1v-2.85c0-6.3,0.85-11.7,2.55-16.2c1.7-4.5,4.15-7.95,7.35-10.35
			c3.2-2.4,7-3.6,11.4-3.6c2.9,0,5.72,0.48,8.48,1.42c2.75,0.95,4.88,2.17,6.38,3.67l-2.55,3.45c-1.3-1.2-3-2.15-5.1-2.85
			c-2.1-0.7-4.3-1.05-6.6-1.05c-5.4,0-9.55,2.17-12.45,6.52c-2.9,4.35-4.35,10.68-4.35,18.98v2.85h22.8v4.5h-22.8v73.5H509.88z"/>
		<path class="st1" d="M630.62,1806.3v-12.6h5.1v12.6H630.62z M630.62,1903.2v-78h5.1v78H630.62z"/>
		<path class="st1" d="M769.52,1904.7c-5.3,0-10.25-1.12-14.85-3.38c-4.6-2.25-8.55-5.3-11.85-9.15c-3.3-3.85-5.88-8.15-7.72-12.9
			c-1.85-4.75-2.78-9.62-2.78-14.62c0-5.3,0.88-10.37,2.62-15.23c1.75-4.85,4.25-9.17,7.5-12.97c3.25-3.8,7.07-6.8,11.48-9
			c4.4-2.2,9.3-3.3,14.7-3.3c6.9,0,12.92,1.85,18.07,5.55c5.15,3.7,9.53,8.15,13.12,13.35v-17.7h4.8v80.29
			c0,6.89-1.65,12.66-4.95,17.3c-3.3,4.64-7.68,8.09-13.12,10.34c-5.45,2.25-11.28,3.37-17.48,3.37c-9.1,0-16.27-1.7-21.52-5.1
			c-5.25-3.4-9.43-7.8-12.53-13.2l3.9-2.1c3.1,5.5,7.37,9.53,12.83,12.08c5.45,2.55,11.22,3.83,17.32,3.83c5.6,0,10.7-1,15.3-2.98
			c4.6-1.99,8.27-4.95,11.02-8.88c2.75-3.93,4.12-8.78,4.12-14.55v-18.29c-3.2,5.1-7.53,9.25-12.97,12.45
			C781.09,1903.1,775.42,1904.7,769.52,1904.7z M770.42,1900.05c3.5,0,6.9-0.65,10.2-1.95c3.3-1.3,6.35-3.05,9.15-5.25
			c2.8-2.2,5.05-4.62,6.75-7.28c1.7-2.65,2.7-5.33,3-8.03v-26.85c-1.6-4.3-4-8.07-7.2-11.33c-3.2-3.25-6.8-5.8-10.8-7.65
			c-4-1.85-8.15-2.78-12.45-2.78c-4.9,0-9.33,1.05-13.27,3.15c-3.95,2.1-7.28,4.88-9.98,8.32c-2.7,3.45-4.75,7.3-6.15,11.55
			c-1.4,4.25-2.1,8.47-2.1,12.67c0,4.7,0.83,9.18,2.48,13.42c1.65,4.25,4,8.05,7.05,11.4c3.05,3.35,6.55,5.95,10.5,7.8
			C761.54,1899.13,765.82,1900.05,770.42,1900.05z"/>
		<path class="st1" d="M905.87,1869.67v-44.32h5.1v43.71c0,10.38,1.72,18.11,5.17,23.21s8.67,7.63,15.67,7.63
			c4.7,0,9.23-1.05,13.58-3.14c4.35-2.09,8.17-5.06,11.48-8.9c3.3-3.84,5.7-8.21,7.2-13.1v-49.41h5.1v70.06c0,1,0.25,1.8,0.75,2.4
			c0.5,0.6,1.15,0.9,1.95,0.9v4.5c-0.7,0-1.28,0-1.73,0s-0.83-0.05-1.12-0.15c-1.3-0.3-2.38-1.02-3.22-2.17
			c-0.85-1.15-1.28-2.47-1.28-3.97l-0.15-12.87c-3.4,6.39-8.1,11.43-14.1,15.12c-6,3.69-12.5,5.54-19.5,5.54
			c-8.2,0-14.4-2.94-18.6-8.83C907.96,1889.98,905.87,1881.25,905.87,1869.67z"/>
		<path class="st1" d="M1106.41,1830c-7.1,0.3-13.33,2.58-18.67,6.83c-5.35,4.25-9.08,10.03-11.17,17.33v49.05h-5.1v-77.85h4.95
			V1845c2.7-5.5,6.32-10,10.88-13.5c4.55-3.5,9.32-5.55,14.33-6.15c1-0.1,1.92-0.15,2.78-0.15c0.85,0,1.52,0,2.02,0V1830z"/>
		<path class="st1" d="M1231.21,1904.7c-5.2,0-10.12-1.08-14.77-3.22c-4.65-2.15-8.7-5.1-12.15-8.85s-6.15-8.1-8.1-13.05
			c-1.95-4.95-2.93-10.22-2.93-15.83c0-7.27,1.65-13.9,4.95-19.87s7.77-10.76,13.42-14.35c5.65-3.59,11.97-5.38,18.98-5.38
			c7.2,0,13.62,1.82,19.27,5.46c5.65,3.64,10.17,8.47,13.58,14.5c3.4,6.03,5.1,12.73,5.1,20.11c0,0.4,0,0.8,0,1.2
			s-0.05,0.8-0.15,1.2h-69.9c0.5,6.3,2.27,12,5.33,17.1c3.05,5.1,7,9.15,11.85,12.15c4.85,3,10.12,4.5,15.82,4.5
			c5.7,0,11.05-1.47,16.05-4.43c5-2.95,8.55-6.72,10.65-11.32l4.65,1.2c-1.5,3.6-3.85,6.85-7.05,9.75c-3.2,2.9-6.93,5.15-11.18,6.75
			C1240.38,1903.9,1235.91,1904.7,1231.21,1904.7z M1198.36,1862.25h65.1c-0.4-6.57-2.08-12.37-5.02-17.4
			c-2.95-5.03-6.83-8.99-11.62-11.87c-4.8-2.89-10.15-4.33-16.05-4.33c-5.8,0-11.08,1.44-15.82,4.33
			c-4.75,2.89-8.6,6.87-11.55,11.95C1200.43,1850.01,1198.75,1855.78,1198.36,1862.25z"/>
	</g>
</g>
<g id="Casa_contadino">
	<polygon class="st2" points="670.92,934.41 756.92,884.41 756.92,781.41 670.92,791.41 	"/>
	<polyline class="st2" points="741.73,893.47 741.83,859.41 724.92,869.16 724.81,903.5 	"/>
	<polyline class="st2" points="670.92,934.41 636.92,914.41 636.92,841.41 585.92,813.41 585.92,744.41 670.92,791.41 	"/>
	<polyline class="st2" points="741.92,893.41 737.06,890.66 737.2,862.08 	"/>
	<line class="st2" x1="736.92" y1="890.41" x2="724.81" y2="897.16"/>
	<polyline class="st2" points="630.73,918.47 630.83,878.41 590.92,902.16 590.81,941.5 	"/>
	<polyline class="st2" points="630.92,918.41 626.06,915.66 626.2,881.08 	"/>
	<line class="st3" x1="625.92" y1="915.41" x2="590.92" y2="936.41"/>
	<line class="st3" x1="625.92" y1="912.41" x2="590.92" y2="933.41"/>
	<line class="st3" x1="625.92" y1="909.41" x2="590.92" y2="930.41"/>
	<line class="st3" x1="625.92" y1="906.41" x2="590.92" y2="927.41"/>
	<line class="st3" x1="625.92" y1="903.41" x2="590.92" y2="924.41"/>
	<line class="st3" x1="625.92" y1="900.41" x2="590.92" y2="921.41"/>
	<line class="st3" x1="625.92" y1="897.41" x2="590.92" y2="918.41"/>
	<line class="st3" x1="625.92" y1="894.41" x2="590.92" y2="915.41"/>
	<line class="st3" x1="625.92" y1="891.41" x2="590.92" y2="912.41"/>
	<line class="st3" x1="625.92" y1="888.41" x2="590.92" y2="909.41"/>
	<line class="st3" x1="625.92" y1="885.41" x2="590.92" y2="906.41"/>
	<line class="st3" x1="625.92" y1="882.41" x2="590.92" y2="903.41"/>
	<polygon class="st2" points="714.23,848.93 741.23,833.07 740.92,804.9 713.92,820.75 	"/>
	<polyline class="st2" points="741.17,833 736.92,830.41 736.92,807.3 	"/>
	<polyline class="st2" points="694.17,859.61 689.92,857.03 689.92,830.91 	"/>
	<line class="st2" x1="736.92" y1="830.41" x2="714.17" y2="843.54"/>
	<line class="st2" x1="689.92" y1="857.41" x2="682.92" y2="861.41"/>
	<polygon class="st4" points="710.97,822.16 743.82,803.28 743.77,798.66 710.92,817.55 	"/>
	<polygon class="st4" points="678.97,839.16 697.82,828.28 697.77,823.66 678.92,834.55 	"/>
	<line class="st5" x1="724.76" y1="837.43" x2="724.76" y2="814.32"/>
	<polyline class="st2" points="636.92,914.41 582.42,946.91 582.42,886.91 636.42,841.91 636.92,912 	"/>
	<polyline class="st2" points="582.92,887.41 535.92,860.41 535.92,921.41 581.92,947.41 	"/>
	<polyline class="st2" points="756.92,781.41 671.92,734.41 585.92,744.41 	"/>
	<line class="st2" x1="585.92" y1="813.41" x2="535.92" y2="860.41"/>
	<polygon class="st2" points="682.65,866.49 693.94,860.06 694.2,830.33 682.9,836.77 	"/>
	<polyline class="st2" points="626.57,820.61 630.82,818.03 630.82,791.91 	"/>
	<line class="st2" x1="630.82" y1="818.41" x2="637.82" y2="822.41"/>
	<polygon class="st4" points="641.77,800.16 622.92,789.28 622.97,784.66 641.82,795.55 	"/>
	<polygon class="st2" points="638.09,827.49 626.8,821.06 626.54,791.33 637.84,797.77 	"/>
	<polyline class="st2" points="599.57,805.61 603.82,803.03 603.82,776.91 	"/>
	<line class="st2" x1="603.82" y1="803.41" x2="610.82" y2="807.41"/>
	<polygon class="st4" points="614.77,785.16 595.92,774.28 595.97,769.66 614.82,780.55 	"/>
	<polygon class="st2" points="611.09,812.49 599.8,806.06 599.54,776.33 610.84,782.77 	"/>
	<polygon class="st2" points="678.42,761.77 666.63,768.55 655.42,762.06 667.22,755.28 	"/>
	<polygon class="st1" points="673.85,761.82 666.74,765.91 659.99,762 667.1,757.91 	"/>
	<line class="st2" x1="678.92" y1="761.91" x2="678.92" y2="780.91"/>
	<polyline class="st2" points="654.92,761.91 654.92,775.91 654.92,775.41 666.63,781.55 678.92,780.41 	"/>
	<path class="st2" d="M774.92,853.41v26c0,0-2,2-4,1v-25"/>
	<path class="st2" d="M772.92,780.41c0,0,2,2,2,6s0,3,1,6s2,5,2,9s1,2,2,7s0,9,1,12s2,5,3,9s1,7-1,10c-2.77,4.16-3,8-5,10s-4,6-5,6
		s-5,0-6-2s-2-5-2-7s-1-1-1-3s-2-5-3-8s1-6,1-8s-1-5-1-8s-1-7,1-12s3-8,3-10s0-2,1-5s3-4,4-6S769.92,778.41,772.92,780.41z"/>
	<path class="st2" d="M764.92,812.41c0,0-2,4,0,8s3,8,1,11"/>
	<path class="st2" d="M778.92,823.41c0,0-1,3,1,6"/>
	<path class="st2" d="M770.92,789.41c0,0-2,2-1,6s0,7-3,9"/>
</g>
<g id="Granaio">
	<polyline class="st6" points="871,284.48 1051,180.48 1051,323.48 871,427.48 871.01,284.47 	"/>
	<polygon class="st6" points="769,368.48 871,427.48 871,283.48 860.01,202.47 816,135.48 789,166.48 769,226.48 	"/>
	<polyline class="st7" points="805.19,238.54 805.1,204.48 822,214.23 822.11,248.57 	"/>
	<line class="st7" x1="805.1" y1="238.48" x2="822" y2="248.23"/>
	<polyline class="st7" points="805,238.48 809.86,235.73 809.72,207.15 	"/>
	<line class="st7" x1="810" y1="235.48" x2="822.11" y2="242.23"/>
	<polyline class="st7" points="789.19,380.54 789.1,312.58 845,345.33 845,412.98 	"/>
	<path class="st7" d="M806.17,389.8"/>
	<path class="st7" d="M789.26,380.05"/>
	<polyline class="st7" points="789,380.48 793.86,377.73 794,315.98 	"/>
	<line class="st7" x1="794" y1="377.48" x2="845" y2="406.48"/>
	<line class="st7" x1="796.19" y1="316.74" x2="845" y2="403.98"/>
	<line class="st7" x1="794" y1="377.48" x2="838" y2="341.48"/>
	<polyline class="st7" points="994.81,355.54 994.9,287.58 939,320.33 939,387.98 	"/>
	<polyline class="st7" points="995,355.48 990.14,352.73 990,290.98 	"/>
	<line class="st7" x1="990" y1="352.48" x2="939" y2="381.48"/>
	<line class="st7" x1="987.81" y1="291.74" x2="939" y2="378.98"/>
	<line class="st7" x1="990" y1="352.48" x2="946" y2="316.48"/>
	<polyline class="st6" points="860.01,202.47 816,135.48 985.01,34.47 1036.01,97.47 1054.01,178.47 871.01,284.47 860.01,202.47 
		1036.01,97.47 	"/>
	<path class="st7" d="M1054.01,178.47"/>
	<polyline class="st7" points="1113.88,160.41 1083,142.48 1046,142.48 	"/>
	<polyline class="st7" points="769,235.48 744,249.48 744,391.48 852,453.48 1007,453.48 1176,355.48 1176,196.48 1141.24,176.29 	
		"/>
	<g>
		<path class="st7" d="M1088,211.48c-0.75-0.37-1.19,0.05-1.87,0.55c-0.66,0.49-1.56,1.31-2.13,2.45c0,0-2,1-2,4c0,0-2,2-1,5
			c0,0-1,1-1,4c0,0-2,2,0,5c0,0-1,2,1,4c0,0,3,3,5,6l8-6c0,0,1-2,0-4c0,0,1-2,0-5c0,0,0-3-1-4c0,0,0-3-1-5c0,0-1-3-2-4
			C1090,214.48,1089.54,212.24,1088,211.48z"/>
		<path class="st7" d="M1080.02,235.05l-4.02-1.57l-4,1c0,0-8,9-9,11v3l2-3l8-3l5,1c0,0,4,10,6,12v2"/>
		<path class="st7" d="M1084,253.48v-8l2-3l8-6l7-2h3c0,0,3,2,4,5l-5-2l-3,1l-3,9c0,0-1,4-1,5s-2,3-2,3l-1,1l-5,1v4"/>
		<path class="st7" d="M1086,274.48v-8l3-6c0,0,6-6,9-6s5,0,5,0l4,2l1,4l-3-2h-4l-3,4v7l-2,4l-3,4l-5,4v27h-3l-2-2l1-28l-4-7l-2-4
			l-3-7l-5-3h-3l-5,3l2-3l4-5c0,0,3-1,4-1s4,0,4,0l4,2c0,0,5,4,6,8"/>
		<path class="st7" d="M1087,279.48l3-5l2-6l1-5c0,0,3-2,3-3s2-3,2-3"/>
		<polyline class="st7" points="1072,255.48 1078,260.48 1081,264.48 1086,273.73 		"/>
		<polyline class="st7" points="1087,255.48 1092,253.48 1093,251.48 1094,247.48 1095,244.48 1096,240.48 1100,237.48 		"/>
		<path class="st7" d="M1082,229.48c0,0-1,1,0,4"/>
		<path class="st7" d="M1092,226.48c0,0,1,4-1,6"/>
		<path class="st7" d="M1085,219.48c0,0-2,1-1,5"/>
		<path class="st7" d="M1088,217.48c0,0,2,0,2,3"/>
		<path class="st7" d="M1085,232.48c0,0-1,2,0,4"/>
	</g>
	<g>
		<path class="st7" d="M1117,276.48c-0.75-0.37-1.19,0.05-1.87,0.55c-0.66,0.49-1.56,1.31-2.13,2.45c0,0-2,1-2,4c0,0-2,2-1,5
			c0,0-1,1-1,4c0,0-2,2,0,5c0,0-1,2,1,4c0,0,3,3,5,6l8-6c0,0,1-2,0-4c0,0,1-2,0-5c0,0,0-3-1-4c0,0,0-3-1-5c0,0-1-3-2-4
			C1119,279.48,1118.54,277.24,1117,276.48z"/>
		<path class="st6" d="M1025,341.48c-0.75-0.37-1.19,0.05-1.87,0.55c-0.66,0.49-1.56,1.31-2.13,2.45c0,0-2,1-2,4c0,0-2,2-1,5
			c0,0-1,1-1,4c0,0-2,2,0,5c0,0-1,2,1,4c0,0,3,3,5,6l8-6c0,0,1-2,0-4c0,0,1-2,0-5c0,0,0-3-1-4c0,0,0-3-1-5c0,0-1-3-2-4
			C1027,344.48,1026.54,342.24,1025,341.48z"/>
		<path class="st7" d="M1109.02,300.05l-4.02-1.57l-4,1c0,0-8,9-9,11v3l2-3l8-3l5,1c0,0,4,10,6,12v2"/>
		<path class="st7" d="M1113,318.48v-8l2-3l8-6l7-2h3c0,0,3,2,4,5l-5-2l-3,1l-3,9c0,0-1,4-1,5s-2,3-2,3l-1,1l-5,1v4"/>
		<path class="st7" d="M1115,339.48v-8l3-6c0,0,6-6,9-6s5,0,5,0l4,2l1,4l-3-2h-4l-3,4v7l-2,4l-3,4l-5,4v27h-3l-2-2l1-28l-4-7l-2-4
			l-3-7l-5-3h-3l-5,3l2-3l4-5c0,0,3-1,4-1s4,0,4,0l4,2c0,0,5,4,6,8"/>
		<path class="st7" d="M1116,344.48l3-5l2-6l1-5c0,0,3-2,3-3s2-3,2-3"/>
		<polyline class="st7" points="1101,320.48 1107,325.48 1110,329.48 1115,338.73 		"/>
		<polyline class="st7" points="1116,320.48 1121,318.48 1122,316.48 1123,312.48 1124,309.48 1125,305.48 1129,302.48 		"/>
		<path class="st7" d="M1111,294.48c0,0-1,1,0,4"/>
		<path class="st7" d="M1121,291.48c0,0,1,4-1,6"/>
		<path class="st7" d="M1114,284.48c0,0-2,1-1,5"/>
		<path class="st7" d="M1117,282.48c0,0,2,0,2,3"/>
		<path class="st7" d="M1114,297.48c0,0-1,2,0,4"/>
		<g>
			<path class="st7" d="M1021,383.48v-8l2-3l8-6l7-2h3c0,0,3,2,4,5l-5-2l-3,1l-3,9c0,0-1,4-1,5s-2,3-2,3l-1,1l-5,1v4"/>
			<path class="st7" d="M1023,404.48v-8l3-6c0,0,6-6,9-6s5,0,5,0l4,2l1,4l-3-2h-4l-3,4v7l-2,4l-3,4l-5,4v27h-3l-2-2l1-28l-4-7l-2-4
				l-3-7l-5-3h-3l-5,3l2-3l4-5c0,0,3-1,4-1s4,0,4,0l4,2c0,0,5,4,6,8"/>
			<path class="st7" d="M1024,409.48l3-5l2-6l1-5c0,0,3-2,3-3s2-3,2-3"/>
			<polyline class="st7" points="1009,385.48 1015,390.48 1018,394.48 1023,403.73 			"/>
			<polyline class="st7" points="1024,385.48 1029,383.48 1030,381.48 1031,377.48 1032,374.48 1033,370.48 1037,367.48 			"/>
			<path class="st7" d="M1017.02,365.05l-4.02-1.57l-4,1c0,0-8,9-9,11v3l2-3l8-3l5,1c0,0,4,10,6,12v2"/>
			<path class="st7" d="M1019,359.48c0,0-1,1,0,4"/>
			<path class="st7" d="M1029,356.48c0,0,1,4-1,6"/>
			<path class="st7" d="M1022,349.48c0,0-2,1-1,5"/>
			<path class="st7" d="M1025,347.48c0,0,2,0,2,3"/>
			<path class="st7" d="M1022,362.48c0,0-1,2,0,4"/>
		</g>
	</g>
	<g>
		<path class="st7" d="M1153,209.48c-0.75-0.37-1.19,0.05-1.87,0.55c-0.66,0.49-1.56,1.31-2.13,2.45c0,0-2,1-2,4c0,0-2,2-1,5
			c0,0-1,1-1,4c0,0-2,2,0,5c0,0-1,2,1,4c0,0,3,3,5,6l8-6c0,0,1-2,0-4c0,0,1-2,0-5c0,0,0-3-1-4c0,0,0-3-1-5c0,0-1-3-2-4
			C1155,212.48,1154.54,210.24,1153,209.48z"/>
		<path class="st7" d="M1145.02,233.05l-4.02-1.57l-4,1c0,0-8,9-9,11v3l2-3l8-3l5,1c0,0,4,10,6,12v2"/>
		<path class="st7" d="M1149,251.48v-8l2-3l8-6l7-2h3c0,0,3,2,4,5l-5-2l-3,1l-3,9c0,0-1,4-1,5s-2,3-2,3l-1,1l-5,1v4"/>
		<path class="st7" d="M1151,272.48v-8l3-6c0,0,6-6,9-6s5,0,5,0l4,2l1,4l-3-2h-4l-3,4v7l-2,4l-3,4l-5,4v27h-3l-2-2l1-28l-4-7l-2-4
			l-3-7l-5-3h-3l-5,3l2-3l4-5c0,0,3-1,4-1s4,0,4,0l4,2c0,0,5,4,6,8"/>
		<path class="st7" d="M1152,277.48l3-5l2-6l1-5c0,0,3-2,3-3s2-3,2-3"/>
		<polyline class="st7" points="1137,253.48 1143,258.48 1146,262.48 1151,271.73 		"/>
		<polyline class="st7" points="1152,253.48 1157,251.48 1158,249.48 1159,245.48 1160,242.48 1161,238.48 1165,235.48 		"/>
		<path class="st7" d="M1147,227.48c0,0-1,1,0,4"/>
		<path class="st7" d="M1157,224.48c0,0,1,4-1,6"/>
		<path class="st7" d="M1150,217.48c0,0-2,1-1,5"/>
		<path class="st7" d="M1153,215.48c0,0,2,0,2,3"/>
		<path class="st7" d="M1150,230.48c0,0-1,2,0,4"/>
	</g>
	<polygon class="st2" points="1108.19,140.73 1127.26,151.98 1146.81,140.73 1127.26,129.98 	"/>
	<polygon class="st1" points="1114.5,140.81 1127.34,148.38 1140.5,140.81 1127.34,133.57 	"/>
	<polyline class="st2" points="1147,140.48 1146.81,149.73 1127.26,160.98 1108.19,149.73 1108,140.48 	"/>
	<path class="st2" d="M1140.5,153.46v34.52c0,0-1,9-13,9s-13-9-13-9v-34.52"/>
	<path class="st2" d="M1119.01,194.78v11.7l1.99,3l5,2c0,0,2,0,3,0s5-2,5-2l2-2v-13"/>
	<path class="st2" d="M1139,210.48c0,0-3.59-1.24-5,3c-1,3-1,5-5,5"/>
	<path class="st2" d="M1111,202.48c0,0,4,1,5,6s7,5,7,5"/>
	<path class="st2" d="M1139,201.48c0,0,1,5-3,6"/>
</g>
<g id="Silos">
	<line class="st7" x1="179" y1="1145.47" x2="185" y2="1280.47"/>
	<path class="st7" d="M120.13,1375.39c-31.37-1.13-57.13-16.82-57.13-32.92l6-195"/>
	<path class="st7" d="M121,1298.47c1.44,0.05,2.03,0,3.5,0c26.83,0,49.58-8.8,57.5-20.99l34,28.99l-46,27L121,1298.47"/>
	<polyline class="st7" points="121,1298.47 119.25,1375.47 159,1399.47 216,1365.47 208.7,1310.76 	"/>
	<line class="st7" x1="159" y1="1399.47" x2="157.38" y2="1324.53"/>
	<path class="st7" d="M179,1147.47c0,12.7-24.62,23-55,23s-55-10.3-55-23c0,0,3-60,55-60S179,1147.47,179,1147.47z"/>
	<polyline class="st7" points="129.19,1381.53 129.1,1347.47 146,1357.22 146.11,1391.56 	"/>
	<polyline class="st7" points="129,1381.47 133.86,1378.72 133.72,1350.14 	"/>
	<line class="st7" x1="134" y1="1378.47" x2="146.11" y2="1385.22"/>
	<line class="st8" x1="59" y1="1151.47" x2="56" y2="1327.47"/>
	<line class="st8" x1="79.5" y1="1164.97" x2="76.5" y2="1340.97"/>
	<line class="st8" x1="58.26" y1="1194.74" x2="78.5" y2="1206.97"/>
	<line class="st8" x1="58.26" y1="1209.74" x2="78.5" y2="1221.97"/>
	<line class="st8" x1="58.26" y1="1224.74" x2="78.5" y2="1236.97"/>
	<line class="st8" x1="58.26" y1="1239.74" x2="78.5" y2="1251.97"/>
	<line class="st8" x1="58.26" y1="1254.74" x2="78.5" y2="1266.97"/>
	<line class="st8" x1="56.5" y1="1268.97" x2="78.5" y2="1281.97"/>
	<line class="st8" x1="56.5" y1="1283.97" x2="78.5" y2="1296.97"/>
	<line class="st8" x1="56.5" y1="1298.97" x2="77.5" y2="1310.97"/>
	<line class="st8" x1="56.5" y1="1313.97" x2="76.5" y2="1325.97"/>
	<line class="st8" x1="58.26" y1="1179.74" x2="78.5" y2="1191.97"/>
	<line class="st8" x1="58.26" y1="1164.74" x2="78.5" y2="1176.97"/>
	<path class="st7" d="M84,1129.47l8-13c0,0,5,6,12.5,5.5v17.5C104.5,1139.47,89,1140.47,84,1129.47z"/>
	<polygon class="st2" points="285.19,1155.72 304.26,1166.97 323.81,1155.72 304.26,1144.97 	"/>
	<polygon class="st1" points="291.5,1155.8 304.34,1163.37 317.5,1155.8 304.34,1148.56 	"/>
	<polyline class="st2" points="324,1155.47 323.81,1164.72 304.26,1175.97 285.19,1164.72 285,1155.47 	"/>
	<path class="st2" d="M317.5,1168.45v34.52c0,0-1,9-13,9s-13-9-13-9v-34.52"/>
	<path class="st2" d="M296.01,1209.77v11.7l1.99,3l5,2c0,0,2,0,3,0s5-2,5-2l2-2v-13"/>
	<path class="st2" d="M316,1225.47c0,0-3.59-1.24-5,3c-1,3-1,5-5,5"/>
	<path class="st2" d="M288,1217.47c0,0,4,1,5,6s7,5,7,5"/>
	<polyline class="st7" points="180.18,1171.95 247,1171.95 291.5,1196.62 	"/>
	<polyline class="st7" points="314.23,1209.74 337,1222.47 337,1300.47 397,1335.47 533,1335.47 624,1388.47 624,1427.47 
		438,1534.47 184,1534.47 16,1437.47 16,1244.47 57.5,1220.67 	"/>
	<path class="st7" d="M156.29,1427.35c1.97-3.02,2.94-5.03,5.94-5.07c3-0.03,4.07,5.95,4.07,5.95s3.98-2.04,5.95-4.07
		c1.98-2.02,5-0.06,4.02,1.96s-0.93,6.01,0.1,9c1.03,2.99,1.09,7.99-1.88,11.02c-2.97,3.03-5.98,2.07-5.98,2.07
		s-0.99,1.01-3.98,2.04c-2.99,1.03-5,0.06-5,0.06c-6.98,2.08-10.06-4.89-10.06-4.89l-1.06-4.99c0,0-0.04-4-0.07-6
		s-3.04-3.97-3.04-3.97l-0.03-3c0,0,1.97-3.02,4.98-2.06s6-0.07,8.07,5.91c0,0,5-0.06,6.06,4.93c1.06,4.99,3.07,5.97,3.09,7.97"/>
	<path class="st7" d="M159.54,1450.31c0,0-5.01-0.94-6.08-6.93"/>
	<path class="st7" d="M170.49,1445.19c0,0,2.98-2.03,2.91-8.03"/>
	<path class="st7" d="M166.3,1428.24c0,0-3.58-0.44-4.24,4.31"/>
	<path class="st7" d="M231.8,1383.5c1.97-3.02,2.94-5.03,5.94-5.07c3-0.03,4.07,5.95,4.07,5.95s3.98-2.04,5.95-4.07
		c1.98-2.02,5-0.06,4.02,1.96s-0.93,6.01,0.1,9c1.03,2.99,1.09,7.99-1.88,11.02c-2.97,3.03-5.98,2.07-5.98,2.07
		s-0.99,1.01-3.98,2.04c-2.99,1.03-5,0.06-5,0.06c-6.98,2.08-10.06-4.89-10.06-4.89l-1.06-4.99c0,0-0.04-4-0.07-6
		c-0.02-2-3.04-3.97-3.04-3.97l-0.03-3c0,0,1.97-3.02,4.98-2.06s6-0.07,8.07,5.91c0,0,5-0.06,6.06,4.93
		c1.06,4.99,3.07,5.97,3.09,7.97"/>
	<path class="st7" d="M235.06,1406.46c0,0-5.01-0.94-6.08-6.93"/>
	<path class="st7" d="M246,1401.34c0,0,2.98-2.03,2.91-8.03"/>
	<path class="st7" d="M241.81,1384.39c0,0-3.58-0.44-4.24,4.31"/>
	<path class="st7" d="M263.61,1366.14c1.97-3.02,2.94-5.03,5.94-5.07c3-0.03,4.07,5.95,4.07,5.95s3.98-2.04,5.95-4.07
		c1.98-2.02,5-0.06,4.02,1.95c-0.98,2.01-0.93,6.01,0.1,9c1.03,2.99,1.09,7.99-1.88,11.02s-5.98,2.07-5.98,2.07
		s-0.99,1.01-3.98,2.04c-2.99,1.03-5,0.06-5,0.06c-6.98,2.08-10.06-4.89-10.06-4.89l-1.06-4.99c0,0-0.04-4-0.07-6
		c-0.02-2-3.04-3.97-3.04-3.97l-0.03-3c0,0,1.97-3.02,4.98-2.06s6-0.07,8.07,5.91c0,0,5-0.06,6.06,4.93
		c1.06,4.99,3.07,5.97,3.09,7.97"/>
	<path class="st7" d="M266.87,1389.11c0,0-5.01-0.94-6.08-6.93"/>
	<path class="st7" d="M277.81,1383.98c0,0,2.98-2.03,2.91-8.03"/>
	<path class="st7" d="M273.62,1367.03c0,0-3.58-0.44-4.24,4.31"/>
	<path class="st7" d="M330.18,1327.39c1.97-3.02,2.94-5.03,5.94-5.07c3-0.03,4.07,5.95,4.07,5.95s3.98-2.04,5.95-4.07
		c1.98-2.02,5-0.06,4.02,1.96c-0.98,2.01-0.93,6.01,0.1,9c1.03,2.99,1.09,7.99-1.88,11.02c-2.97,3.03-5.98,2.07-5.98,2.07
		s-0.99,1.01-3.98,2.04c-2.99,1.03-5,0.06-5,0.06c-6.98,2.08-10.06-4.89-10.06-4.89l-1.06-4.99c0,0-0.04-4-0.07-6
		c-0.02-2-3.04-3.97-3.04-3.97l-0.03-3c0,0,1.97-3.02,4.98-2.06c3.01,0.97,6-0.07,8.07,5.91c0,0,5-0.06,6.06,4.93
		c1.06,4.99,3.07,5.97,3.09,7.97"/>
	<path class="st7" d="M333.44,1350.36c0,0-5.01-0.94-6.08-6.93"/>
	<path class="st7" d="M344.38,1345.23c0,0,2.98-2.03,2.91-8.03"/>
	<path class="st7" d="M340.19,1328.28c0,0-3.58-0.44-4.24,4.31"/>
	<path class="st7" d="M148.38,1435.6l-9.11,5.3l-26.66,14.94l-8.32,5.21c-4.31,2.7-4.16,9.02,0.27,11.51l13.02,7.32
		c2.06,1.16,4.57,1.14,6.62-0.03L365,1341.24c4.05-2.33,3.98-8.21-0.14-10.43l-15.16-8.2c-1.63-0.88-3.58-0.96-5.28-0.2l-5.37,2.39"
		/>
	<line class="st7" x1="165.38" y1="1425.22" x2="223.89" y2="1391.43"/>
	<line class="st7" x1="240.93" y1="1381.47" x2="256" y2="1372.47"/>
	<line class="st7" x1="322.24" y1="1334.26" x2="272.34" y2="1363.26"/>
	<path class="st7" d="M163.48,1468.75c1.97-3.02,2.94-5.03,5.94-5.07c3-0.03,4.07,5.95,4.07,5.95s3.98-2.04,5.95-4.07
		c1.98-2.02,5-0.06,4.02,1.96s-0.93,6.01,0.1,9c1.03,2.99,1.09,7.99-1.88,11.02c-2.97,3.03-5.98,2.07-5.98,2.07
		s-0.99,1.01-3.98,2.04c-2.99,1.03-5,0.06-5,0.06c-6.98,2.08-10.06-4.89-10.06-4.89l-1.06-4.99c0,0-0.04-4-0.07-6
		s-3.04-3.97-3.04-3.97l-0.03-3c0,0,1.97-3.02,4.98-2.06c3.01,0.97,6-0.07,8.07,5.91c0,0,5-0.06,6.06,4.93
		c1.06,4.99,3.07,5.97,3.09,7.97"/>
	<path class="st7" d="M166.74,1491.71c0,0-5.01-0.94-6.08-6.93"/>
	<path class="st7" d="M177.68,1486.59c0,0,2.98-2.03,2.91-8.03"/>
	<path class="st7" d="M173.49,1469.64c0,0-3.58-0.44-4.24,4.31"/>
	<path class="st7" d="M199.29,1451.35c1.97-3.02,2.94-5.03,5.94-5.07c3-0.03,4.07,5.95,4.07,5.95s3.98-2.04,5.95-4.07
		c1.98-2.02,5-0.06,4.02,1.96s-0.93,6.01,0.1,9c1.03,2.99,1.09,7.99-1.88,11.02c-2.97,3.03-5.98,2.07-5.98,2.07
		s-0.99,1.01-3.98,2.04c-2.99,1.03-5,0.06-5,0.06c-6.98,2.08-10.06-4.89-10.06-4.89l-1.06-4.99c0,0-0.04-4-0.07-6
		s-3.04-3.97-3.04-3.97l-0.03-3c0,0,1.97-3.02,4.98-2.06s6-0.07,8.07,5.91c0,0,5-0.06,6.06,4.93c1.06,4.99,3.07,5.97,3.09,7.97"/>
	<path class="st7" d="M202.54,1474.31c0,0-5.01-0.94-6.08-6.93"/>
	<path class="st7" d="M213.49,1469.19c0,0,2.98-2.03,2.91-8.03"/>
	<path class="st7" d="M209.3,1452.24c0,0-3.58-0.44-4.24,4.31"/>
	<path class="st7" d="M274.8,1407.5c1.97-3.02,2.94-5.03,5.94-5.07c3-0.03,4.07,5.95,4.07,5.95s3.98-2.04,5.95-4.07
		c1.98-2.02,5-0.06,4.02,1.96c-0.98,2.01-0.93,6.01,0.1,9c1.03,2.99,1.09,7.99-1.88,11.02c-2.97,3.03-5.98,2.07-5.98,2.07
		s-0.99,1.01-3.98,2.04c-2.99,1.03-5,0.06-5,0.06c-6.98,2.08-10.06-4.89-10.06-4.89l-1.06-4.99c0,0-0.04-4-0.07-6
		c-0.02-2-3.04-3.97-3.04-3.97l-0.03-3c0,0,1.97-3.02,4.98-2.06s6-0.07,8.07,5.91c0,0,5-0.06,6.06,4.93
		c1.06,4.99,3.07,5.97,3.09,7.97"/>
	<path class="st7" d="M278.06,1430.46c0,0-5.01-0.94-6.08-6.93"/>
	<path class="st7" d="M289,1425.34c0,0,2.98-2.03,2.91-8.03"/>
	<path class="st7" d="M284.81,1408.39c0,0-3.58-0.44-4.24,4.31"/>
	<path class="st7" d="M306.61,1390.14c1.97-3.02,2.94-5.03,5.94-5.07c3-0.03,4.07,5.95,4.07,5.95s3.98-2.04,5.95-4.07
		c1.98-2.02,5-0.06,4.02,1.95c-0.98,2.01-0.93,6.01,0.1,9c1.03,2.99,1.09,7.99-1.88,11.02s-5.98,2.07-5.98,2.07
		s-0.99,1.01-3.98,2.04c-2.99,1.03-5,0.06-5,0.06c-6.98,2.08-10.06-4.89-10.06-4.89l-1.06-4.99c0,0-0.04-4-0.07-6
		c-0.02-2-3.04-3.97-3.04-3.97l-0.03-3c0,0,1.97-3.02,4.98-2.06s6-0.07,8.07,5.91c0,0,5-0.06,6.06,4.93
		c1.06,4.99,3.07,5.97,3.09,7.97"/>
	<path class="st7" d="M309.87,1413.11c0,0-5.01-0.94-6.08-6.93"/>
	<path class="st7" d="M320.81,1407.98c0,0,2.98-2.03,2.91-8.03"/>
	<path class="st7" d="M316.62,1391.03c0,0-3.58-0.44-4.24,4.31"/>
	<path class="st7" d="M373.18,1351.39c1.97-3.02,2.94-5.03,5.94-5.07c3-0.03,4.07,5.95,4.07,5.95s3.98-2.04,5.95-4.07
		c1.98-2.02,5-0.06,4.02,1.96c-0.98,2.01-0.93,6.01,0.1,9c1.03,2.99,1.09,7.99-1.88,11.02c-2.97,3.03-5.98,2.07-5.98,2.07
		s-0.99,1.01-3.98,2.04c-2.99,1.03-5,0.06-5,0.06c-6.98,2.08-10.06-4.89-10.06-4.89l-1.06-4.99c0,0-0.04-4-0.07-6
		c-0.02-2-3.04-3.97-3.04-3.97l-0.03-3c0,0,1.97-3.02,4.98-2.06c3.01,0.97,6-0.07,8.07,5.91c0,0,5-0.06,6.06,4.93
		c1.06,4.99,3.07,5.97,3.09,7.97"/>
	<path class="st7" d="M376.44,1374.36c0,0-5.01-0.94-6.08-6.93"/>
	<path class="st7" d="M387.38,1369.23c0,0,2.98-2.03,2.91-8.03"/>
	<path class="st7" d="M155.6,1479.84l-8.32,5.21c-4.31,2.7-4.16,9.02,0.27,11.51l13.02,7.32c2.06,1.16,4.57,1.14,6.62-0.03
		L408,1365.24c4.05-2.33,3.98-8.21-0.14-10.43l-15.16-8.2c-1.63-0.88-3.58-0.96-5.28-0.2l-5.37,2.39"/>
	<line class="st7" x1="182.27" y1="1464.9" x2="191.38" y2="1459.6"/>
	<line class="st7" x1="208.38" y1="1449.22" x2="266.89" y2="1415.43"/>
	<line class="st7" x1="283.93" y1="1405.47" x2="299" y2="1396.47"/>
	<line class="st7" x1="365.24" y1="1358.26" x2="315.34" y2="1387.26"/>
	<path class="st7" d="M205.48,1492.75c1.97-3.02,2.94-5.03,5.94-5.07c3-0.03,4.07,5.95,4.07,5.95s3.98-2.04,5.95-4.07
		c1.98-2.02,5-0.06,4.02,1.96s-0.93,6.01,0.1,9c1.03,2.99,1.09,7.99-1.88,11.02c-2.97,3.03-5.98,2.07-5.98,2.07
		s-0.99,1.01-3.98,2.04c-2.99,1.03-5,0.06-5,0.06c-6.98,2.08-10.06-4.89-10.06-4.89l-1.06-4.99c0,0-0.04-4-0.07-6
		s-3.04-3.97-3.04-3.97l-0.03-3c0,0,1.97-3.02,4.98-2.06c3.01,0.97,6-0.07,8.07,5.91c0,0,5-0.06,6.06,4.93
		c1.06,4.99,3.07,5.97,3.09,7.97"/>
	<path class="st7" d="M208.74,1515.71c0,0-5.01-0.94-6.08-6.93"/>
	<path class="st7" d="M219.68,1510.59c0,0,2.98-2.03,2.91-8.03"/>
	<path class="st7" d="M215.49,1493.64c0,0-3.58-0.44-4.24,4.31"/>
	<path class="st7" d="M241.29,1475.35c1.97-3.02,2.94-5.03,5.94-5.07c3-0.03,4.07,5.95,4.07,5.95s3.98-2.04,5.95-4.07
		c1.98-2.02,5-0.06,4.02,1.96c-0.98,2.01-0.93,6.01,0.1,9c1.03,2.99,1.09,7.99-1.88,11.02c-2.97,3.03-5.98,2.07-5.98,2.07
		s-0.99,1.01-3.98,2.04c-2.99,1.03-5,0.06-5,0.06c-6.98,2.08-10.06-4.89-10.06-4.89l-1.06-4.99c0,0-0.04-4-0.07-6
		s-3.04-3.97-3.04-3.97l-0.03-3c0,0,1.97-3.02,4.98-2.06s6-0.07,8.07,5.91c0,0,5-0.06,6.06,4.93c1.06,4.99,3.07,5.97,3.09,7.97"/>
	<path class="st7" d="M244.54,1498.31c0,0-5.01-0.94-6.08-6.93"/>
	<path class="st7" d="M255.49,1493.19c0,0,2.98-2.03,2.91-8.03"/>
	<path class="st7" d="M251.3,1476.24c0,0-3.58-0.44-4.24,4.31"/>
	<path class="st7" d="M316.8,1431.5c1.97-3.02,2.94-5.03,5.94-5.07c3-0.03,4.07,5.95,4.07,5.95s3.98-2.04,5.95-4.07
		c1.98-2.02,5-0.06,4.02,1.96c-0.98,2.01-0.93,6.01,0.1,9c1.03,2.99,1.09,7.99-1.88,11.02c-2.97,3.03-5.98,2.07-5.98,2.07
		s-0.99,1.01-3.98,2.04c-2.99,1.03-5,0.06-5,0.06c-6.98,2.08-10.06-4.89-10.06-4.89l-1.06-4.99c0,0-0.04-4-0.07-6
		c-0.02-2-3.04-3.97-3.04-3.97l-0.03-3c0,0,1.97-3.02,4.98-2.06s6-0.07,8.07,5.91c0,0,5-0.06,6.06,4.93
		c1.06,4.99,3.07,5.97,3.09,7.97"/>
	<path class="st7" d="M320.06,1454.46c0,0-5.01-0.94-6.08-6.93"/>
	<path class="st7" d="M331,1449.34c0,0,2.98-2.03,2.91-8.03"/>
	<path class="st7" d="M326.81,1432.39c0,0-3.58-0.44-4.24,4.31"/>
	<path class="st7" d="M415.18,1375.39c1.97-3.02,2.94-5.03,5.94-5.07c3-0.03,4.07,5.95,4.07,5.95s3.98-2.04,5.95-4.07
		c1.98-2.02,5-0.06,4.02,1.96c-0.98,2.01-0.93,6.01,0.1,9c1.03,2.99,1.09,7.99-1.88,11.02c-2.97,3.03-5.98,2.07-5.98,2.07
		s-0.99,1.01-3.98,2.04c-2.99,1.03-5,0.06-5,0.06c-6.98,2.08-10.06-4.89-10.06-4.89l-1.06-4.99c0,0-0.04-4-0.07-6
		c-0.02-2-3.04-3.97-3.04-3.97l-0.03-3c0,0,1.97-3.02,4.98-2.06c3.01,0.97,6-0.07,8.07,5.91c0,0,5-0.06,6.06,4.93
		c1.06,4.99,3.07,5.97,3.09,7.97"/>
	<path class="st7" d="M418.44,1398.36c0,0-5.01-0.94-6.08-6.93"/>
	<path class="st7" d="M429.38,1393.23c0,0,2.98-2.03,2.91-8.03"/>
	<path class="st7" d="M197.6,1503.84l-8.32,5.21c-4.31,2.7-4.16,9.02,0.27,11.51l13.02,7.32c2.06,1.16,4.57,1.14,6.62-0.03
		L450,1389.24c4.05-2.33,3.98-8.21-0.14-10.43l-15.16-8.2c-1.63-0.88-3.58-0.96-5.28-0.2l-5.37,2.39"/>
	<line class="st7" x1="224.27" y1="1488.9" x2="233.38" y2="1483.6"/>
	<line class="st7" x1="250.38" y1="1473.22" x2="308.89" y2="1439.43"/>
	<path class="st7" d="M325.93,1429.47"/>
	<polyline class="st7" points="407.24,1382.26 357.34,1411.26 326,1429.47 	"/>
	<path class="st7" d="M301.48,1484.75c1.97-3.02,2.94-5.03,5.94-5.07c3-0.03,4.07,5.95,4.07,5.95s3.98-2.04,5.95-4.07
		c1.98-2.02,5-0.06,4.02,1.96c-0.98,2.01-0.93,6.01,0.1,9c1.03,2.99,1.09,7.99-1.88,11.02c-2.97,3.03-5.98,2.07-5.98,2.07
		s-0.99,1.01-3.98,2.04c-2.99,1.03-5,0.06-5,0.06c-6.98,2.08-10.06-4.89-10.06-4.89l-1.06-4.99c0,0-0.04-4-0.07-6
		s-3.04-3.97-3.04-3.97l-0.03-3c0,0,1.97-3.02,4.98-2.06c3.01,0.97,6-0.07,8.07,5.91c0,0,5-0.06,6.06,4.93
		c1.06,4.99,3.07,5.97,3.09,7.97"/>
	<path class="st7" d="M304.74,1507.71c0,0-5.01-0.94-6.08-6.93"/>
	<path class="st7" d="M315.68,1502.59c0,0,2.98-2.03,2.91-8.03"/>
	<path class="st7" d="M311.49,1485.64c0,0-3.58-0.44-4.24,4.31"/>
	<path class="st7" d="M337.29,1467.35c1.97-3.02,2.94-5.03,5.94-5.07c3-0.03,4.07,5.95,4.07,5.95s3.98-2.04,5.95-4.07
		c1.98-2.02,5-0.06,4.02,1.96c-0.98,2.01-0.93,6.01,0.1,9c1.03,2.99,1.09,7.99-1.88,11.02c-2.97,3.03-5.98,2.07-5.98,2.07
		s-0.99,1.01-3.98,2.04c-2.99,1.03-5,0.06-5,0.06c-6.98,2.08-10.06-4.89-10.06-4.89l-1.06-4.99c0,0-0.04-4-0.07-6
		c-0.02-2-3.04-3.97-3.04-3.97l-0.03-3c0,0,1.97-3.02,4.98-2.06s6-0.07,8.07,5.91c0,0,5-0.06,6.06,4.93
		c1.06,4.99,3.07,5.97,3.09,7.97"/>
	<path class="st7" d="M340.54,1490.31c0,0-5.01-0.94-6.08-6.93"/>
	<path class="st7" d="M351.49,1485.19c0,0,2.98-2.03,2.91-8.03"/>
	<path class="st7" d="M347.3,1468.24c0,0-3.58-0.44-4.24,4.31"/>
	<path class="st7" d="M412.8,1423.5c1.97-3.02,2.94-5.03,5.94-5.07c3-0.03,4.07,5.95,4.07,5.95s3.98-2.04,5.95-4.07
		c1.98-2.02,5-0.06,4.02,1.96c-0.98,2.01-0.93,6.01,0.1,9c1.03,2.99,1.09,7.99-1.88,11.02c-2.97,3.03-5.98,2.07-5.98,2.07
		s-0.99,1.01-3.98,2.04c-2.99,1.03-5,0.06-5,0.06c-6.98,2.08-10.06-4.89-10.06-4.89l-1.06-4.99c0,0-0.04-4-0.07-6
		c-0.02-2-3.04-3.97-3.04-3.97l-0.03-3c0,0,1.97-3.02,4.98-2.06s6-0.07,8.07,5.91c0,0,5-0.06,6.06,4.93
		c1.06,4.99,3.07,5.97,3.09,7.97"/>
	<path class="st7" d="M416.06,1446.46c0,0-5.01-0.94-6.08-6.93"/>
	<path class="st7" d="M427,1441.34c0,0,2.98-2.03,2.91-8.03"/>
	<path class="st7" d="M422.81,1424.39c0,0-3.58-0.44-4.24,4.31"/>
	<path class="st7" d="M444.61,1406.14c1.97-3.02,2.94-5.03,5.94-5.07c3-0.03,4.07,5.95,4.07,5.95s3.98-2.04,5.95-4.07
		c1.98-2.02,5-0.06,4.02,1.95c-0.98,2.01-0.93,6.01,0.1,9c1.03,2.99,1.09,7.99-1.88,11.02s-5.98,2.07-5.98,2.07
		s-0.99,1.01-3.98,2.04c-2.99,1.03-5,0.06-5,0.06c-6.98,2.08-10.06-4.89-10.06-4.89l-1.06-4.99c0,0-0.04-4-0.07-6
		c-0.02-2-3.04-3.97-3.04-3.97l-0.03-3c0,0,1.97-3.02,4.98-2.06s6-0.07,8.07,5.91c0,0,5-0.06,6.06,4.93
		c1.06,4.99,3.07,5.97,3.09,7.97"/>
	<path class="st7" d="M447.87,1429.11c0,0-5.01-0.94-6.08-6.93"/>
	<path class="st7" d="M458.81,1423.98c0,0,2.98-2.03,2.91-8.03"/>
	<path class="st7" d="M454.62,1407.03c0,0-3.58-0.44-4.24,4.31"/>
	<path class="st7" d="M511.18,1367.39c1.97-3.02,2.94-5.03,5.94-5.07c3-0.03,4.07,5.95,4.07,5.95s3.98-2.04,5.95-4.07
		c1.98-2.02,5-0.06,4.02,1.96s-0.93,6.01,0.1,9c1.03,2.99,1.09,7.99-1.88,11.02c-2.97,3.03-5.98,2.07-5.98,2.07
		s-0.99,1.01-3.98,2.04c-2.99,1.03-5,0.06-5,0.06c-6.98,2.08-10.06-4.89-10.06-4.89l-1.06-4.99c0,0-0.04-4-0.07-6
		c-0.02-2-3.04-3.97-3.04-3.97l-0.03-3c0,0,1.97-3.02,4.98-2.06c3.01,0.97,6-0.07,8.07,5.91c0,0,5-0.06,6.06,4.93
		c1.06,4.99,3.07,5.97,3.09,7.97"/>
	<path class="st7" d="M514.44,1390.36c0,0-5.01-0.94-6.08-6.93"/>
	<path class="st7" d="M525.38,1385.23c0,0,2.98-2.03,2.91-8.03"/>
	<path class="st7" d="M293.6,1495.84l-8.32,5.21c-4.31,2.7-4.16,9.02,0.27,11.51l13.02,7.32c2.06,1.16,4.57,1.14,6.62-0.03
		L546,1381.24c4.05-2.33,3.98-8.21-0.14-10.43l-15.16-8.2c-1.63-0.88-3.58-0.96-5.28-0.2l-5.37,2.39"/>
	<line class="st7" x1="320.27" y1="1480.9" x2="329.38" y2="1475.6"/>
	<line class="st7" x1="346.38" y1="1465.22" x2="404.89" y2="1431.43"/>
	<line class="st7" x1="421.93" y1="1421.47" x2="437" y2="1412.47"/>
	<line class="st7" x1="503.24" y1="1374.26" x2="453.34" y2="1403.26"/>
	<path class="st7" d="M359.48,1494.75c1.97-3.02,2.94-5.03,5.94-5.07c3-0.03,4.07,5.95,4.07,5.95s3.98-2.04,5.95-4.07
		c1.98-2.02,5-0.06,4.02,1.96c-0.98,2.01-0.93,6.01,0.1,9c1.03,2.99,1.09,7.99-1.88,11.02c-2.97,3.03-5.98,2.07-5.98,2.07
		s-0.99,1.01-3.98,2.04c-2.99,1.03-5,0.06-5,0.06c-6.98,2.08-10.06-4.89-10.06-4.89l-1.06-4.99c0,0-0.04-4-0.07-6
		s-3.04-3.97-3.04-3.97l-0.03-3c0,0,1.97-3.02,4.98-2.06c3.01,0.97,6-0.07,8.07,5.91c0,0,5-0.06,6.06,4.93
		c1.06,4.99,3.07,5.97,3.09,7.97"/>
	<path class="st7" d="M362.74,1517.71c0,0-5.01-0.94-6.08-6.93"/>
	<path class="st7" d="M373.68,1512.59c0,0,2.98-2.03,2.91-8.03"/>
	<path class="st7" d="M369.49,1495.64c0,0-3.58-0.44-4.24,4.31"/>
	<path class="st7" d="M395.29,1477.35c1.97-3.02,2.94-5.03,5.94-5.07c3-0.03,4.07,5.95,4.07,5.95s3.98-2.04,5.95-4.07
		c1.98-2.02,5-0.06,4.02,1.96c-0.98,2.01-0.93,6.01,0.1,9c1.03,2.99,1.09,7.99-1.88,11.02c-2.97,3.03-5.98,2.07-5.98,2.07
		s-0.99,1.01-3.98,2.04c-2.99,1.03-5,0.06-5,0.06c-6.98,2.08-10.06-4.89-10.06-4.89l-1.06-4.99c0,0-0.04-4-0.07-6
		c-0.02-2-3.04-3.97-3.04-3.97l-0.03-3c0,0,1.97-3.02,4.98-2.06s6-0.07,8.07,5.91c0,0,5-0.06,6.06,4.93
		c1.06,4.99,3.07,5.97,3.09,7.97"/>
	<path class="st7" d="M398.54,1500.31c0,0-5.01-0.94-6.08-6.93"/>
	<path class="st7" d="M409.49,1495.19c0,0,2.98-2.03,2.91-8.03"/>
	<path class="st7" d="M405.3,1478.24c0,0-3.58-0.44-4.24,4.31"/>
	<path class="st7" d="M470.8,1433.5c1.97-3.02,2.94-5.03,5.94-5.07c3-0.03,4.07,5.95,4.07,5.95s3.98-2.04,5.95-4.07
		c1.98-2.02,5-0.06,4.02,1.96c-0.98,2.01-0.93,6.01,0.1,9c1.03,2.99,1.09,7.99-1.88,11.02c-2.97,3.03-5.98,2.07-5.98,2.07
		s-0.99,1.01-3.98,2.04c-2.99,1.03-5,0.06-5,0.06c-6.98,2.08-10.06-4.89-10.06-4.89l-1.06-4.99c0,0-0.04-4-0.07-6
		c-0.02-2-3.04-3.97-3.04-3.97l-0.03-3c0,0,1.97-3.02,4.98-2.06s6-0.07,8.07,5.91c0,0,5-0.06,6.06,4.93
		c1.06,4.99,3.07,5.97,3.09,7.97"/>
	<path class="st7" d="M474.06,1456.46c0,0-5.01-0.94-6.08-6.93"/>
	<path class="st7" d="M485,1451.34c0,0,2.98-2.03,2.91-8.03"/>
	<path class="st7" d="M480.81,1434.39c0,0-3.58-0.44-4.24,4.31"/>
	<path class="st7" d="M502.61,1416.14c1.97-3.02,2.94-5.03,5.94-5.07c3-0.03,4.07,5.95,4.07,5.95s3.98-2.04,5.95-4.07
		c1.98-2.02,5-0.06,4.02,1.95c-0.98,2.01-0.93,6.01,0.1,9c1.03,2.99,1.09,7.99-1.88,11.02s-5.98,2.07-5.98,2.07
		s-0.99,1.01-3.98,2.04c-2.99,1.03-5,0.06-5,0.06c-6.98,2.08-10.06-4.89-10.06-4.89l-1.06-4.99c0,0-0.04-4-0.07-6
		c-0.02-2-3.04-3.97-3.04-3.97l-0.03-3c0,0,1.97-3.02,4.98-2.06s6-0.07,8.07,5.91c0,0,5-0.06,6.06,4.93
		c1.06,4.99,3.07,5.97,3.09,7.97"/>
	<path class="st7" d="M505.87,1439.11c0,0-5.01-0.94-6.08-6.93"/>
	<path class="st7" d="M516.81,1433.98c0,0,2.98-2.03,2.91-8.03"/>
	<path class="st7" d="M512.62,1417.03c0,0-3.58-0.44-4.24,4.31"/>
	<line class="st7" x1="378.27" y1="1490.9" x2="387.38" y2="1485.6"/>
	<line class="st7" x1="404.38" y1="1475.22" x2="462.89" y2="1441.43"/>
	<line class="st7" x1="479.93" y1="1431.47" x2="495" y2="1422.47"/>
	<path class="st7" d="M351.6,1505.84l-8.32,5.21c-4.31,2.7-4.16,9.02,0.27,11.51l13.02,7.32c2.06,1.16,4.57,1.14,6.62-0.03
		L604,1391.24c4.05-2.33,3.98-8.21-0.14-10.43l-15.16-8.2c-1.63-0.88-3.58-0.96-5.28-0.2l-5.42,3.07l-66.66,37.79"/>
</g>
<g id="Balle_di_fieno">
	<polygon class="st2" points="398.69,292.72 417.76,303.97 437.31,292.72 417.76,281.97 	"/>
	<polygon class="st1" points="405,292.8 417.84,300.37 431,292.8 417.84,285.56 	"/>
	<polyline class="st2" points="437.5,292.47 437.31,301.72 417.76,312.97 398.69,301.72 398.5,292.47 	"/>
	<path class="st2" d="M431,305.45v34.52c0,0-1,9-13,9s-13-9-13-9v-34.52"/>
	<path class="st2" d="M409.51,346.77v11.7l1.99,3l5,2c0,0,2,0,3,0s5-2,5-2l2-2v-13"/>
	<path class="st2" d="M429.5,362.47c0,0-3.59-1.24-5,3c-1,3-1,5-5,5"/>
	<path class="st2" d="M401.5,354.47c0,0,4,1,5,6s7,5,7,5"/>
	<path class="st7" d="M130.5,191.47l-2-10l-2,13l-4,1h-3l-2-4l-2,8l-4,6l-5,2l-3-1l-3,4l-4-2l-2-2l-2,4l-2,3h-3l-2,5l-2-7l-5,17
		l-3,5l-2,8l2,12l-2,13v24v19c0,0,2,14,1,24s2,23,2,23h10l-2,3h5l5,3h2v4h5v2l3,2h3h7l3,2h-4v3h11l-5,4h8v3l6,2h6l8,1l-6,3l6,1v3h6
		l3,5l-2,4h13l-2,3h7l-2,3h11l-1,3l3,3v2l5,2l13-6v-5l14-3l-1-3l13-3l4-2l2-10l6-1l18-2l8-5l9-4l-1-5v-5l7-1v-3h4l2-2h4l7-3l9-2l6-4
		l-5-4l6-1l8-2l9-7l16-1l-3-4l5-2v-6l16-1v-3l9-3l-1-7l1-32l2-11l-3-9l1-19l2-14l-3,5c0,0,0-15,0-16s5-31,5-31l-2,5l-2-6l-7-3l-3,3
		l-10-6l-2-7l-2,2l-2-4v6l-9-5l-2-4l-4-3h-6v-8l-4,4l-3-1l-5-2v-6l-3,2l-7-1l-2,1l-2-5l-4,2l-5,3l-6-4l-1-3l-3,4l-4,1h-8l-4,2l-1-5
		l-1-8l-4,11l-8,1l-7-2l-2-3l-3,5h-6l-2-1l-7-3l-1,5l-5-6l-4,4h-4l-6-1l-2-1l-5,7l-6,3l-1-8l-6,10l-3,3l-4,5l-6-7v7l-4,2l-3,3l-7-7
		l-1,7l-3,5l-3,5l-1-6l-3,7l-5,4l-1,3l-2-4l-2,4l-2,2"/>
	<path class="st7" d="M75.5,308.47l3,4l2-1l2,14l2-7l2,2l2,19l3-21l1,2l4-7v5l2,22v-16h3l1-2l2,14l4-11v8l3,4h3c0,0,2,25,2,26
		s2-18,2-18l2-9l3,2v3l2,16l1-19l2,8l2-3l2-2v-2l1,6l4-4l1-3l2,4v34l3-28l2,3v2l3-6l2,4v8l4-3l1,6l4-8l1,11l4-6l5,3l1-7l2,12l2-12
		l2,21l2-13l1,5l2,2l1,9l3-9l2,4h3c0,0-2,19-2,33"/>
	<line class="st7" x1="155.5" y1="369.47" x2="154.5" y2="392.47"/>
	<line class="st7" x1="168.5" y1="387.47" x2="168.5" y2="401.47"/>
	<line class="st7" x1="102.5" y1="341.47" x2="102.5" y2="356.47"/>
	<path class="st7" d="M231.7,394.47c0,0-1.2-17,0.8-23"/>
	<path class="st7" d="M208.5,398.47c0,0-1-13,0-25"/>
	<path class="st7" d="M193.5,375.47c0,0,8-8,8-12s0-3,0-3l2,7l3-3l2,1l6-6h3h1l5-5l7-2l17-13l2-3l3,1l4-1l4-3l1-4l5,3l3-4l2-1v-4
		l7,1l4-1l3,1c0,0,4-2,5-3s2-2,2-2l4,1l4-5l2-5l4-3h6l8-12v7c0,0,6-7,7-8s4-2,4-2l4-2h3l3-6l4,4l7-10v-3"/>
	<polyline class="st7" points="375.5,264.47 368.5,274.47 363.5,280.47 361.5,280.47 356.5,284.47 	"/>
	<polyline class="st7" points="78.5,274.47 86.5,273.47 79.5,280.47 85.5,279.47 84.5,281.47 100.5,274.47 82.5,288.47 94.5,284.47 
		103.5,279.47 95.5,291.47 111.5,282.47 100.5,292.47 94.5,296.47 	"/>
	<path class="st7" d="M97.5,300.47c0,0,13-7,20-11c0,0-7,8-10,14"/>
	<path class="st7" d="M116.5,300.47c0,0,10-7,19-9c0,0-15,11-19,17"/>
	<path class="st7" d="M122.5,306.47l22-7l-17,12l24-5c0,0-8,8-12,13"/>
	<path class="st7" d="M324.29,339.3c0,0-0.79-13.83,0.21-22.83"/>
	<path class="st7" d="M320.5,302.47c0,0,0,12-3,19"/>
	<path class="st7" d="M344.5,329.47c0,0,1-11,3-20"/>
	<path class="st7" d="M352.5,284.47c0,0-2,10-2,28"/>
	<path class="st7" d="M369.5,279.47c0,0,0,14-2,24"/>
	<path class="st7" d="M281.33,359.47c0,0,0.17-12,1.17-20"/>
	<path class="st7" d="M272.5,327.47c0,0-2,17-1,32"/>
	<path class="st7" d="M267.5,370.47c0,0,0-6,0-15"/>
	<path class="st7" d="M252.5,341.47c0,0,1,12-2,25"/>
	<path class="st7" d="M249.5,339.47c0,0,1,9-1,21"/>
	<path class="st7" d="M219.5,361.47c0,0-1,8-1,16"/>
	<polyline class="st7" points="73.5,273.58 63.5,279.47 63.5,353.47 240.5,456.47 526.5,456.47 576.5,427.47 576.5,382.47 
		513.5,346.47 437,346.47 430.18,342.56 	"/>
	<polyline class="st7" points="375.5,222.47 384.5,227.47 384.5,316.47 405,328.37 	"/>
	<path class="st7" d="M360.67,403.98c-1.28,17.46-12,31.89-26.05,37.23c-4.32,1.64-8.96,2.43-13.74,2.17
		c-20.31-1.07-35.42-20.44-33.75-43.27c1.22-16.64,11.01-30.53,24.11-36.42c0.57-0.26,1.14-0.5,1.73-0.72
		c4.39-1.7,9.1-2.52,13.96-2.26C347.23,361.78,362.34,381.15,360.67,403.98z"/>
	<g>
		<path class="st9" d="M339,439.97l2-2c14.22-5.4,22.64-20.01,23.86-36.7c0.84-11.54-2.75-22.77-9.85-30.83
			c-6.06-6.87-14.21-10.91-22.95-11.37c-4.61-0.24-9.17,0.5-13.55,2.19c-0.56,0.22-1.12,0.45-1.68,0.7l3.17-2.99
			c0.58-0.26,0.4,0.23,1,0c4.65-1.8,6.27-2.16,11.16-1.9c9.28,0.49,17.93,4.77,24.35,12.05c7.46,8.46,11.23,20.23,10.35,32.3
			C365.58,418.87,353.94,434.29,339,439.97z"/>
	</g>
	<g>
		<path class="st9" d="M353,432.97h-1c14.22-5.4,24.1-20.3,25.32-36.99c0.84-11.54-2.75-22.77-9.85-30.83
			c-6.06-6.87-14.21-10.91-22.95-11.37c-4.61-0.24-9.17,0.5-13.55,2.19c-0.56,0.22-3.41,0.75-3.96,1l3-2
			c0.58-0.26-0.36-0.63,0.24-0.86c4.65-1.8,9.48-2.59,14.38-2.33c9.28,0.49,17.93,4.77,24.35,12.05
			c7.46,8.46,11.23,20.23,10.35,32.3C378.04,413.59,367.94,427.29,353,432.97z"/>
	</g>
	<path class="st7" d="M311.96,363.27l23.02-10.59c3.91-1.3,8.43-1.89,12.69-1.67c20.31,1.07,35.42,20.44,33.75,43.27
		c-1.22,16.69-11.47,30.78-24.62,36.64l-21.46,9.99"/>
	<path class="st7" d="M334,372.97c0,0-13.12-5.91-24,2c-11,8-11.5,22.5-11.5,22.5"/>
	<path class="st7" d="M316.5,383.47c0,0-10,4-12,15s3,19,3,19"/>
	<path class="st7" d="M297.14,412.29c0,0,0.59,13.02,14.72,21.36"/>
	<path class="st7" d="M327.5,385.47c0,0,16,1,11,20"/>
	<path class="st7" d="M346.5,390.47c0,0,4,8-1,16"/>
	<path class="st7" d="M351.5,407.47c0,0,0,3-1,6"/>
	<path class="st7" d="M314.5,396.47c0,0-6.26,4.49-3,11c3,6,7,5,9,5"/>
	<path class="st7" d="M323.5,402.47c0,0,4-2,2-5s-5-2-6,1c-0.95,2.85-1,8,6,9"/>
	<line class="st7" x1="356.5" y1="377.47" x2="372.5" y2="368.47"/>
	<line class="st7" x1="334.5" y1="361.47" x2="350.5" y2="352.47"/>
	<line class="st7" x1="362.11" y1="389.14" x2="371.39" y2="383.29"/>
	<line class="st7" x1="350.11" y1="362.14" x2="359.39" y2="356.29"/>
	<line class="st7" x1="370.11" y1="397.14" x2="379.39" y2="391.29"/>
	<line class="st7" x1="359.11" y1="417.14" x2="368.39" y2="411.29"/>
	<path class="st7" d="M513.67,411.98c-1.28,17.46-12,31.89-26.05,37.23c-4.32,1.64-8.96,2.43-13.74,2.17
		c-20.31-1.07-35.42-20.44-33.75-43.27c1.22-16.64,11.01-30.53,24.11-36.42c0.57-0.26,1.14-0.5,1.73-0.72
		c4.39-1.7,9.1-2.52,13.96-2.26C500.23,369.78,515.34,389.15,513.67,411.98z"/>
	<g>
		<path class="st9" d="M493.16,447.5l-1.16-0.53c14.22-5.4,24.64-21.01,25.86-37.7c0.84-11.54-2.75-22.77-9.85-30.83
			c-6.06-6.87-14.21-10.91-22.95-11.37c-4.61-0.24-9.17,0.5-13.55,2.19c-0.56,0.22-1.12,0.45-1.68,0.7l-0.83-0.99
			c0.58-0.26,1.4-0.77,2-1c4.65-1.8,9.27-3.16,14.16-2.9c9.28,0.49,17.93,4.77,24.35,12.05c7.46,8.46,11.23,20.23,10.35,32.3
			C518.58,426.87,508.1,441.82,493.16,447.5z"/>
	</g>
	<g>
		<path class="st9" d="M505,441.97l-1-1c14.22-5.4,25.1-20.3,26.32-36.99c0.84-11.54-2.75-22.77-9.85-30.83
			c-6.06-6.87-14.21-10.91-22.95-11.37c-4.61-0.24-13.13,1.49-17.51,3.19c-0.56,0.22,1.55-1.25,1-1l0,0
			c0.58-0.26,1.64-1.63,2.24-1.86c4.65-1.8,9.48-2.59,14.38-2.33c9.28,0.49,17.93,4.77,24.35,12.05
			c7.46,8.46,11.23,20.23,10.35,32.3C531.04,421.59,519.94,436.29,505,441.97z"/>
	</g>
	<path class="st7" d="M464.96,371.27l23.02-10.59c3.91-1.3,8.43-1.89,12.69-1.67c20.31,1.07,35.42,20.44,33.75,43.27
		c-1.22,16.69-11.47,30.78-24.62,36.64l-21.46,9.99"/>
	<path class="st7" d="M487,380.97c0,0-13.12-5.91-24,2c-11,8-11.5,22.5-11.5,22.5"/>
	<path class="st7" d="M464.85,396.37c0,0-7.84,7.38-5.68,18.35c2.16,10.97,9.74,16.59,9.74,16.59"/>
	<path class="st7" d="M468.98,444.39c0,0,12.49,3.73,25.02-6.86"/>
	<path class="st7" d="M480.5,393.47c0,0,16,1,11,20"/>
	<path class="st7" d="M496.68,391.08c0,0,6.58,6.06,4.74,15.32"/>
	<path class="st7" d="M500.87,421.55c0,0-0.37,2.98-1.74,5.83"/>
	<path class="st7" d="M470.43,421.56c0,0,3.71,6.75,10.56,4.3c6.32-2.26,5.8-6.35,6.04-8.34"/>
	<path class="st7" d="M475.91,410.82c0,0,4.46,0.29,4.25-3.31s-3.31-4.25-5.69-2.16c-2.25,1.98-4.9,6.4,0.64,10.8"/>
	<line class="st7" x1="511.5" y1="393.47" x2="527.5" y2="384.47"/>
	<line class="st7" x1="501.7" y1="376.8" x2="517.3" y2="367.14"/>
	<line class="st7" x1="515.11" y1="378.14" x2="524.39" y2="372.29"/>
	<line class="st7" x1="492.11" y1="369.14" x2="501.39" y2="363.29"/>
	<line class="st7" x1="521.11" y1="405.14" x2="530.39" y2="399.29"/>
	<line class="st7" x1="512.11" y1="425.14" x2="521.39" y2="419.29"/>
	<path class="st7" d="M90.5,246.47c0,0,8-4,19-7c0,0-11,9-16,14c0,0,21-8,23-7"/>
	<path class="st7" d="M104.5,261.47l-2,5c0,0,26-12,31-15c0,0-15,13-17,16"/>
	<line class="st7" x1="145.5" y1="271.47" x2="151.5" y2="267.47"/>
	<path class="st7" d="M162.5,280.47c0,0,10-5,17-7l-9,8l13-6l-19,17c0,0,24-7,36-13c0,0-17,13-24,20"/>
	<path class="st7" d="M193.5,311.47c0,0,13-7,25-9c0,0-8,4-15,14c0,0,18-6,26-7s9-1,9-1s-5,4-10,13"/>
	<path class="st7" d="M234.5,327.47c0,0,9-5,16-11"/>
	<path class="st7" d="M94.5,217.47l8-1c0,0-5,7-8,12c0,0,11-6,17-10s9-5,9-5l-4,5l12-5c0,0-6,4-12,13c0,0,8-6,14-8c0,0-8,9-14,17"/>
	<path class="st7" d="M128.5,239.47c0,0,13-9,20-11c0,0-6,4-7,7l7-4c0,0-9,10-12,15"/>
	<path class="st7" d="M143.5,246.47c0,0,17-8,26-15c0,0-6,11-15,18c0,0,14-7,25-12c0,0-2,6-7,9"/>
	<path class="st7" d="M205.5,253.47c0,0-2,7-8,11c0,0,6-3,13-8c0,0-5,8-13,15c0,0,6-5,15-7l-4,3c0,0,5,0,11-1c0,0-10,4-11,7"/>
	<path class="st7" d="M225.5,275.47c0,0-5,6-9,8l11-4l-4,4l15-4c0,0-7,9-13,12c0,0,14-8,27-10c0,0-9,6-14,11c0,0,6,1,11-1l-4,3
		c0,0,9,0,20-5"/>
	<path class="st7" d="M273.5,292.47c0,0-5,9-15,13"/>
	<path class="st7" d="M271.5,300.47c0,0,9-3,16-4l-6,4l6-2l-10,10h5l-8,8c0,0,11-4,21-10c0,0-2,6-8,10"/>
	<path class="st7" d="M145.5,189.47l-5,6l8-3c0,0-4,8-10,11l15-4c0,0,2,2-8,8"/>
	<path class="st7" d="M162.5,203.47c0,0,2,2,11-2c0,0-3,9-11,13"/>
	<path class="st7" d="M181.5,214.47c0,0,4,0,9-2c0,0-5,8-14,12"/>
	<path class="st7" d="M190.5,218.47l7-2l-4,4h4l-4,2c0,0,9,1,15-3c0,0-4,9-15,14c0,0,14-3,22-9c0,0-2,9-9,13"/>
	<path class="st7" d="M218.5,237.47c0,0,6-2,16-8"/>
	<path class="st7" d="M265.5,263.47l10-4l6-3c0,0-4,13-14,18"/>
	<path class="st7" d="M275.5,275.47c0,0,2-3,9-8"/>
	<path class="st7" d="M291.5,269.47c0,0-5-1-12,5"/>
	<path class="st7" d="M301.5,271.47c0,0,2,6-7,10c0,0,8-1,14-5"/>
	<path class="st7" d="M305.5,281.47c0,0-2,6-7,8"/>
	<path class="st7" d="M323.5,281.47c0,0-7,7-15,13"/>
	<path class="st7" d="M155.5,179.47c0,0,20-8,38-12c0,0-11,4-19,12"/>
	<path class="st7" d="M186.5,179.47c0,0,11-5,22-6c0,0-8,3-17,13c0,0,8,0,15-3s5-3,13-4c0,0-5,3-11,10"/>
	<path class="st7" d="M211.5,191.47c0,0,4-5,12-7"/>
	<path class="st7" d="M213.5,200.47c0,0,13-1,25-7s16-6,16-6s-9,4-16,11l10-3l-6,5c0,0,8,2,15-2c0,0,1,2-6,6"/>
	<path class="st7" d="M269.5,199.47c0,0-2,6-12,10c0,0,9,1,14-2c0,0-5,7-15,9"/>
	<path class="st7" d="M262.5,218.47c0,0,11,0,17-6c0,0-2,5-8,8"/>
	<path class="st7" d="M269.5,226.47c0,0,7-1,15-4c0,0,0,1-5,4c0,0,12-5,22-6c0,0-11,3-18,11"/>
	<path class="st7" d="M290.5,233.47c0,0,6-7,23-11c0,0-7,5-17,15"/>
	<path class="st7" d="M301.5,240.47c0,0,8-9,25-11c0,0-7,4-13,10"/>
	<path class="st7" d="M331.5,237.47c0,0-3-1-8,5"/>
	<path class="st7" d="M235.5,171.47c0,0,3,3,9,0s12-7,21-7c0,0-10,3-15,11"/>
	<path class="st7" d="M256.5,175.47c0,0,11-5,23-6c0,0-4,0-9,6"/>
	<path class="st7" d="M279.5,176.47c0,0-7,5-8,5"/>
	<path class="st7" d="M279.5,181.47c0,0-5,4-10,6c0,0,11-1,23-6s19-5,19-5s-11,4-19,11"/>
	<path class="st7" d="M301.5,201.47c0,0,0,5,10,3s9-4,20-6c0,0-10,6-14,14"/>
	<path class="st7" d="M334.5,216.47c0,0,6,1,16-4c0,0-4,8-16,14"/>
	<path class="st7" d="M344.5,226.47c0,0,12-2,20-6"/>
</g>
<g id="Vitigno">
	<polygon class="st2" points="1087.94,1248.72 1107.01,1259.97 1126.56,1248.72 1107.01,1237.97 	"/>
	<polygon class="st1" points="1094.25,1248.8 1107.09,1256.37 1120.25,1248.8 1107.09,1241.56 	"/>
	<polyline class="st2" points="1126.75,1248.47 1126.56,1257.72 1107.01,1268.97 1087.94,1257.72 1087.75,1248.47 	"/>
	<path class="st2" d="M1120.25,1261.45v34.52c0,0-1,9-13,9s-13-9-13-9v-34.52"/>
	<path class="st2" d="M1098.76,1302.77v11.7l1.99,3l5,2c0,0,2,0,3,0s5-2,5-2l2-2v-13"/>
	<path class="st2" d="M1118.75,1318.47c0,0-3.59-1.24-5,3c-1,3-1,5-5,5"/>
	<path class="st2" d="M1090.75,1310.47c0,0,4,1,5,6s7,5,7,5"/>
	<g>
		<line class="st10" x1="1163.94" y1="1315.26" x2="882.93" y2="1478.08"/>
		<line class="st11" x1="891.31" y1="1473.23" x2="891.31" y2="1525.11"/>
		<line class="st11" x1="957.65" y1="1434.64" x2="957.65" y2="1486.52"/>
		<line class="st11" x1="1023.98" y1="1396.05" x2="1023.98" y2="1447.93"/>
		<line class="st11" x1="1090.31" y1="1357.45" x2="1090.31" y2="1409.33"/>
		<line class="st11" x1="1156.64" y1="1318.86" x2="1156.64" y2="1370.74"/>
		<path class="st12" d="M888.96,1523.91c0,0,8.44,0,8.44-7.24c0-7.24-6.09-7.04-6.09-7.04"/>
		<path class="st12" d="M890.17,1494.96c0,0,7.24,0,7.24-7.24c0-7.24-6.09-7.04-6.09-7.04"/>
		<path class="st12" d="M890.17,1495.16c0,0-8.44,0-8.44,7.24c0,7.24,6.09,7.04,6.09,7.04"/>
		<path class="st12" d="M890.17,1480.49c0,0-8.44-4.82-3.62-9.65c4.82-4.82,8.12,0.25,9.65,4.82c1.21,3.62,18.09,4.82,10.85-10.85"
			/>
		<path class="st12" d="M907.05,1463.6c0,0-1.21-7.24,4.82-10.85s10.79,2.3,10.79,2.3"/>
		<path class="st12" d="M938.41,1445.51c0,0-1.21-7.24,4.82-10.85c6.03-3.62,10.79,2.3,10.79,2.3"/>
		<path class="st12" d="M969.76,1427.42c0,0-1.21-7.24,4.82-10.85c6.03-3.62,10.79,2.3,10.79,2.3"/>
		<path class="st12" d="M1001.12,1409.33c0,0-1.21-7.24,4.82-10.85c6.03-3.62,10.79,2.3,10.79,2.3"/>
		<path class="st12" d="M1032.48,1391.24c0,0-1.21-7.24,4.82-10.85c6.03-3.62,10.79,2.3,10.79,2.3"/>
		<path class="st12" d="M1063.84,1373.15c0,0-1.21-7.24,4.82-10.85c6.03-3.62,10.79,2.3,10.79,2.3"/>
		<path class="st12" d="M1095.19,1355.06c0,0-1.21-7.24,4.82-10.85c6.03-3.62,10.79,2.3,10.79,2.3"/>
		<path class="st12" d="M1126.55,1336.97c0,0-1.21-7.24,4.82-10.85c6.03-3.62,10.79,2.3,10.79,2.3"/>
		<path class="st12" d="M1157.91,1318.88c0,0-1.21-7.24,4.82-10.85c6.03-3.62,10.79,2.3,10.79,2.3s6.09,9.76,0.06,16.99
			c-6.03,7.24-16.33,1.31-22.91,14.47c-6.03,12.06,5.97,13.27,5.97,13.27s10.91,2.41,9.71,12.06"/>
		<path class="st12" d="M938.19,1446.68c0,0,1.27,7.22-4.72,10.9s-10.81-2.2-10.81-2.2"/>
		<path class="st12" d="M970.75,1428.59c0,0,1.27,7.22-4.72,10.9s-10.81-2.2-10.81-2.2"/>
		<path class="st12" d="M1003.32,1410.5c0,0,1.27,7.22-4.72,10.9s-10.81-2.2-10.81-2.2"/>
		<path class="st12" d="M1032.26,1392.41c0,0,1.27,7.22-4.72,10.9c-6,3.67-10.81-2.2-10.81-2.2"/>
		<path class="st12" d="M1064.82,1374.32c0,0,1.27,7.22-4.72,10.9s-10.81-2.2-10.81-2.2"/>
		<path class="st12" d="M1094.97,1357.43c0,0,1.27,7.22-4.72,10.9s-10.81-2.2-10.81-2.2"/>
		<path class="st12" d="M1126.33,1338.14c0,0,1.27,7.22-4.72,10.9c-6,3.67-10.81-2.2-10.81-2.2"/>
		<path class="st12" d="M1157.69,1320.05c0,0,1.27,7.22-4.72,10.9s-10.81-2.2-10.81-2.2"/>
		<g>
			<path class="st13" d="M898.27,1455.84c3.3-1.3,6.05-1.2,6.05-1.2c-0.35-2.3,0.94-3.42,0.94-3.42c3.27,2.37,3.62,4.68,3.62,4.68
				l-1.51,5.47c0,0-1.48,1.8-5.5,2.17c0,0-0.54-1.62,0.94-3.42C902.81,1460.11,900.44,1458.64,898.27,1455.84"/>
		</g>
		<g>
			<path class="st13" d="M880.17,1488.4c3.3-1.3,6.05-1.2,6.05-1.2c-0.35-2.3,0.94-3.42,0.94-3.42c3.27,2.37,3.62,4.68,3.62,4.68
				l-1.51,5.47c0,0-1.48,1.8-5.5,2.17c0,0-0.54-1.62,0.94-3.42C884.72,1492.68,882.35,1491.21,880.17,1488.4"/>
		</g>
		<g>
			<path class="st13" d="M951.77,1426.05c3.12,1.69,4.82,3.86,4.82,3.86c1.54-1.75,3.22-1.48,3.22-1.48
				c0.29,4.03-1.24,5.78-1.24,5.78l-5.16,2.38c0,0-2.33,0.03-5.2-2.81c0,0,0.89-1.45,3.22-1.48
				C951.43,1432.29,951.02,1429.52,951.77,1426.05"/>
		</g>
		<g>
			<path class="st13" d="M985.17,1429.69c-1.44-3.25-1.45-6-1.45-6c-2.29,0.44-3.46-0.8-3.46-0.8c2.24-3.37,4.52-3.81,4.52-3.81
				l5.53,1.28c0,0,1.86,1.4,2.39,5.41c0,0-1.6,0.6-3.46-0.8C989.26,1424.96,987.89,1427.4,985.17,1429.69"/>
		</g>
		<g>
			<path class="st13" d="M1016.53,1413.57c-3.23-1.47-5.07-3.52-5.07-3.52c-1.42,1.85-3.12,1.7-3.12,1.7
				c-0.57-4,0.85-5.85,0.85-5.85l4.98-2.72c0,0,2.32-0.19,5.38,2.45c0,0-0.79,1.51-3.12,1.7
				C1016.45,1407.33,1017.04,1410.06,1016.53,1413.57"/>
		</g>
		<g>
			<path class="st13" d="M1096.13,1374.98c-3.23-1.47-5.07-3.52-5.07-3.52c-1.42,1.85-3.12,1.7-3.12,1.7
				c-0.57-4,0.85-5.85,0.85-5.85l4.98-2.72c0,0,2.32-0.19,5.38,2.45c0,0-0.79,1.51-3.12,1.7
				C1096.04,1368.73,1096.64,1371.46,1096.13,1374.98"/>
		</g>
		<g>
			<path class="st13" d="M1055.03,1365.47c3.28-1.36,6.03-1.3,6.03-1.3c-0.39-2.3,0.88-3.44,0.88-3.44c3.31,2.31,3.7,4.61,3.7,4.61
				l-1.41,5.5c0,0-1.44,1.83-5.46,2.26c0,0-0.56-1.61,0.88-3.44C1059.65,1369.67,1057.25,1368.24,1055.03,1365.47"/>
		</g>
		<g>
			<path class="st13" d="M1149.1,1312.41c3.28-1.36,6.03-1.3,6.03-1.3c-0.39-2.3,0.88-3.44,0.88-3.44c3.31,2.31,3.7,4.61,3.7,4.61
				l-1.41,5.5c0,0-1.44,1.83-5.46,2.26c0,0-0.56-1.61,0.88-3.44C1153.72,1316.6,1151.32,1315.17,1149.1,1312.41"/>
		</g>
		<g>
			<path class="st13" d="M1117.74,1328.08c3.28-1.36,6.03-1.3,6.03-1.3c-0.39-2.3,0.88-3.44,0.88-3.44c3.31,2.31,3.7,4.61,3.7,4.61
				l-1.41,5.5c0,0-1.44,1.83-5.46,2.26c0,0-0.56-1.61,0.88-3.44C1122.36,1332.28,1119.96,1330.85,1117.74,1328.08"/>
		</g>
		<g>
			<path class="st13" d="M1095.25,1335.61c3.14,1.66,4.85,3.82,4.85,3.82c1.52-1.76,3.21-1.51,3.21-1.51
				c0.33,4.03-1.2,5.79-1.2,5.79l-5.14,2.42c0,0-2.33,0.05-5.23-2.77c0,0,0.88-1.46,3.21-1.51
				C1094.96,1341.85,1094.53,1339.09,1095.25,1335.61"/>
		</g>
		<circle class="st13" cx="919.11" cy="1459.99" r="1.81"/>
		<circle class="st13" cx="922.73" cy="1458.78" r="1.81"/>
		<circle class="st13" cx="921.52" cy="1461.19" r="1.81"/>
		<circle class="st13" cx="920.32" cy="1463.6" r="1.81"/>
		<circle class="st13" cx="925.14" cy="1461.19" r="1.81"/>
		<circle class="st13" cx="926.35" cy="1458.78" r="1.81"/>
		<circle class="st13" cx="923.93" cy="1466.02" r="1.81"/>
		<circle class="st13" cx="923.93" cy="1463.6" r="1.81"/>
		<circle class="st13" cx="921.52" cy="1466.02" r="1.81"/>
		<circle class="st13" cx="922.73" cy="1468.43" r="1.81"/>
		<circle class="st13" cx="991.47" cy="1423.81" r="1.81"/>
		<circle class="st13" cx="995.09" cy="1422.6" r="1.81"/>
		<circle class="st13" cx="993.89" cy="1425.01" r="1.81"/>
		<circle class="st13" cx="992.68" cy="1427.42" r="1.81"/>
		<circle class="st13" cx="997.5" cy="1425.01" r="1.81"/>
		<circle class="st13" cx="998.71" cy="1422.6" r="1.81"/>
		<circle class="st13" cx="996.3" cy="1429.84" r="1.81"/>
		<circle class="st13" cx="996.3" cy="1427.42" r="1.81"/>
		<circle class="st13" cx="993.89" cy="1429.84" r="1.81"/>
		<circle class="st13" cx="995.09" cy="1432.25" r="1.81"/>
		<circle class="st13" cx="1104.84" cy="1349.03" r="1.81"/>
		<circle class="st13" cx="1108.46" cy="1347.82" r="1.81"/>
		<circle class="st13" cx="1107.25" cy="1350.24" r="1.81"/>
		<circle class="st13" cx="1106.05" cy="1352.65" r="1.81"/>
		<circle class="st13" cx="1110.87" cy="1350.24" r="1.81"/>
		<circle class="st13" cx="1112.08" cy="1347.82" r="1.81"/>
		<circle class="st13" cx="1109.67" cy="1355.06" r="1.81"/>
		<circle class="st13" cx="1109.67" cy="1352.65" r="1.81"/>
		<circle class="st13" cx="1107.25" cy="1355.06" r="1.81"/>
		<circle class="st13" cx="1108.46" cy="1357.47" r="1.81"/>
	</g>
	<g>
		<line class="st10" x1="1060.94" y1="1283.26" x2="779.93" y2="1446.08"/>
		<line class="st11" x1="788.31" y1="1441.23" x2="788.31" y2="1493.11"/>
		<line class="st11" x1="854.65" y1="1402.64" x2="854.65" y2="1454.52"/>
		<line class="st11" x1="920.98" y1="1364.05" x2="920.98" y2="1415.93"/>
		<line class="st11" x1="987.31" y1="1325.45" x2="987.31" y2="1377.33"/>
		<line class="st11" x1="1053.64" y1="1286.86" x2="1053.64" y2="1338.74"/>
		<path class="st12" d="M785.96,1491.91c0,0,8.44,0,8.44-7.24c0-7.24-6.09-7.04-6.09-7.04"/>
		<path class="st12" d="M787.17,1462.96c0,0,7.24,0,7.24-7.24c0-7.24-6.09-7.04-6.09-7.04"/>
		<path class="st12" d="M787.17,1463.16c0,0-8.44,0-8.44,7.24c0,7.24,6.09,7.04,6.09,7.04"/>
		<path class="st12" d="M787.17,1448.49c0,0-8.44-4.82-3.62-9.65c4.82-4.82,8.12,0.25,9.65,4.82c1.21,3.62,18.09,4.82,10.85-10.85"
			/>
		<path class="st12" d="M804.05,1431.6c0,0-1.21-7.24,4.82-10.85s10.79,2.3,10.79,2.3"/>
		<path class="st12" d="M835.41,1413.51c0,0-1.21-7.24,4.82-10.85c6.03-3.62,10.79,2.3,10.79,2.3"/>
		<path class="st12" d="M866.76,1395.42c0,0-1.21-7.24,4.82-10.85c6.03-3.62,10.79,2.3,10.79,2.3"/>
		<path class="st12" d="M898.12,1377.33c0,0-1.21-7.24,4.82-10.85c6.03-3.62,10.79,2.3,10.79,2.3"/>
		<path class="st12" d="M929.48,1359.24c0,0-1.21-7.24,4.82-10.85s10.79,2.3,10.79,2.3"/>
		<path class="st12" d="M960.84,1341.15c0,0-1.21-7.24,4.82-10.85c6.03-3.62,10.79,2.3,10.79,2.3"/>
		<path class="st12" d="M992.19,1323.06c0,0-1.21-7.24,4.82-10.85c6.03-3.62,10.79,2.3,10.79,2.3"/>
		<path class="st12" d="M1023.55,1304.97c0,0-1.21-7.24,4.82-10.85c6.03-3.62,10.79,2.3,10.79,2.3"/>
		<path class="st12" d="M1054.91,1286.88c0,0-1.21-7.24,4.82-10.85c6.03-3.62,10.79,2.3,10.79,2.3s6.09,9.76,0.06,16.99
			c-6.03,7.24-16.33,1.31-22.91,14.47c-6.03,12.06,5.97,13.27,5.97,13.27s10.91,2.41,9.71,12.06"/>
		<path class="st12" d="M835.19,1414.68c0,0,1.27,7.22-4.72,10.9s-10.81-2.2-10.81-2.2"/>
		<path class="st12" d="M867.75,1396.59c0,0,1.27,7.22-4.72,10.9s-10.81-2.2-10.81-2.2"/>
		<path class="st12" d="M900.32,1378.5c0,0,1.27,7.22-4.72,10.9s-10.81-2.2-10.81-2.2"/>
		<path class="st12" d="M929.26,1360.41c0,0,1.27,7.22-4.72,10.9c-6,3.67-10.81-2.2-10.81-2.2"/>
		<path class="st12" d="M961.82,1342.32c0,0,1.27,7.22-4.72,10.9c-6,3.67-10.81-2.2-10.81-2.2"/>
		<path class="st12" d="M991.97,1325.43c0,0,1.27,7.22-4.72,10.9s-10.81-2.2-10.81-2.2"/>
		<path class="st12" d="M1023.33,1306.14c0,0,1.27,7.22-4.72,10.9c-6,3.67-10.81-2.2-10.81-2.2"/>
		<path class="st12" d="M1054.69,1288.05c0,0,1.27,7.22-4.72,10.9s-10.81-2.2-10.81-2.2"/>
		<g>
			<path class="st13" d="M795.27,1423.84c3.3-1.3,6.05-1.2,6.05-1.2c-0.35-2.3,0.94-3.42,0.94-3.42c3.27,2.37,3.62,4.68,3.62,4.68
				l-1.51,5.47c0,0-1.48,1.8-5.5,2.17c0,0-0.54-1.62,0.94-3.42C799.81,1428.11,797.44,1426.64,795.27,1423.84"/>
		</g>
		<g>
			<path class="st13" d="M777.17,1456.4c3.3-1.3,6.05-1.2,6.05-1.2c-0.35-2.3,0.94-3.42,0.94-3.42c3.27,2.37,3.62,4.68,3.62,4.68
				l-1.51,5.47c0,0-1.48,1.8-5.5,2.17c0,0-0.54-1.62,0.94-3.42C781.72,1460.68,779.35,1459.21,777.17,1456.4"/>
		</g>
		<g>
			<path class="st13" d="M848.77,1394.05c3.12,1.69,4.82,3.86,4.82,3.86c1.54-1.75,3.22-1.48,3.22-1.48
				c0.29,4.03-1.24,5.78-1.24,5.78l-5.16,2.38c0,0-2.33,0.03-5.2-2.81c0,0,0.89-1.45,3.22-1.48
				C848.43,1400.29,848.02,1397.52,848.77,1394.05"/>
		</g>
		<g>
			<path class="st13" d="M882.17,1397.69c-1.44-3.25-1.45-6-1.45-6c-2.29,0.44-3.46-0.8-3.46-0.8c2.24-3.37,4.52-3.81,4.52-3.81
				l5.53,1.28c0,0,1.86,1.4,2.39,5.41c0,0-1.6,0.6-3.46-0.8C886.26,1392.96,884.89,1395.4,882.17,1397.69"/>
		</g>
		<g>
			<path class="st13" d="M913.53,1381.57c-3.23-1.47-5.07-3.52-5.07-3.52c-1.42,1.85-3.12,1.7-3.12,1.7c-0.57-4,0.85-5.85,0.85-5.85
				l4.98-2.72c0,0,2.32-0.19,5.38,2.45c0,0-0.79,1.51-3.12,1.7C913.45,1375.33,914.04,1378.06,913.53,1381.57"/>
		</g>
		<g>
			<path class="st13" d="M993.13,1342.98c-3.23-1.47-5.07-3.52-5.07-3.52c-1.42,1.85-3.12,1.7-3.12,1.7c-0.57-4,0.85-5.85,0.85-5.85
				l4.98-2.72c0,0,2.32-0.19,5.38,2.45c0,0-0.79,1.51-3.12,1.7C993.04,1336.73,993.64,1339.46,993.13,1342.98"/>
		</g>
		<g>
			<path class="st13" d="M952.03,1333.47c3.28-1.36,6.03-1.3,6.03-1.3c-0.39-2.3,0.88-3.44,0.88-3.44c3.31,2.31,3.7,4.61,3.7,4.61
				l-1.41,5.5c0,0-1.44,1.83-5.46,2.26c0,0-0.56-1.61,0.88-3.44C956.65,1337.67,954.25,1336.24,952.03,1333.47"/>
		</g>
		<g>
			<path class="st13" d="M1046.1,1280.41c3.28-1.36,6.03-1.3,6.03-1.3c-0.39-2.3,0.88-3.44,0.88-3.44c3.31,2.31,3.7,4.61,3.7,4.61
				l-1.41,5.5c0,0-1.44,1.83-5.46,2.26c0,0-0.56-1.61,0.88-3.44C1050.72,1284.6,1048.32,1283.17,1046.1,1280.41"/>
		</g>
		<g>
			<path class="st13" d="M1014.74,1296.08c3.28-1.36,6.03-1.3,6.03-1.3c-0.39-2.3,0.88-3.44,0.88-3.44c3.31,2.31,3.7,4.61,3.7,4.61
				l-1.41,5.5c0,0-1.44,1.83-5.46,2.26c0,0-0.56-1.61,0.88-3.44C1019.36,1300.28,1016.96,1298.85,1014.74,1296.08"/>
		</g>
		<g>
			<path class="st13" d="M992.25,1303.61c3.14,1.66,4.85,3.82,4.85,3.82c1.52-1.76,3.21-1.51,3.21-1.51c0.33,4.03-1.2,5.79-1.2,5.79
				l-5.14,2.42c0,0-2.33,0.05-5.23-2.77c0,0,0.88-1.46,3.21-1.51C991.96,1309.85,991.53,1307.09,992.25,1303.61"/>
		</g>
		<circle class="st13" cx="816.11" cy="1427.99" r="1.81"/>
		<circle class="st13" cx="819.73" cy="1426.78" r="1.81"/>
		<circle class="st13" cx="818.52" cy="1429.19" r="1.81"/>
		<circle class="st13" cx="817.32" cy="1431.6" r="1.81"/>
		<circle class="st13" cx="822.14" cy="1429.19" r="1.81"/>
		<circle class="st13" cx="823.35" cy="1426.78" r="1.81"/>
		<circle class="st13" cx="820.93" cy="1434.02" r="1.81"/>
		<circle class="st13" cx="820.93" cy="1431.6" r="1.81"/>
		<circle class="st13" cx="818.52" cy="1434.02" r="1.81"/>
		<circle class="st13" cx="819.73" cy="1436.43" r="1.81"/>
		<circle class="st13" cx="888.47" cy="1391.81" r="1.81"/>
		<circle class="st13" cx="892.09" cy="1390.6" r="1.81"/>
		<circle class="st13" cx="890.89" cy="1393.01" r="1.81"/>
		<circle class="st13" cx="889.68" cy="1395.42" r="1.81"/>
		<circle class="st13" cx="894.5" cy="1393.01" r="1.81"/>
		<circle class="st13" cx="895.71" cy="1390.6" r="1.81"/>
		<circle class="st13" cx="893.3" cy="1397.84" r="1.81"/>
		<circle class="st13" cx="893.3" cy="1395.42" r="1.81"/>
		<circle class="st13" cx="890.89" cy="1397.84" r="1.81"/>
		<circle class="st13" cx="892.09" cy="1400.25" r="1.81"/>
		<circle class="st13" cx="1001.84" cy="1317.03" r="1.81"/>
		<circle class="st13" cx="1005.46" cy="1315.82" r="1.81"/>
		<circle class="st13" cx="1004.25" cy="1318.24" r="1.81"/>
		<circle class="st13" cx="1003.05" cy="1320.65" r="1.81"/>
		<circle class="st13" cx="1007.87" cy="1318.24" r="1.81"/>
		<circle class="st13" cx="1009.08" cy="1315.82" r="1.81"/>
		<circle class="st13" cx="1006.67" cy="1323.06" r="1.81"/>
		<circle class="st13" cx="1006.67" cy="1320.65" r="1.81"/>
		<circle class="st13" cx="1004.25" cy="1323.06" r="1.81"/>
		<circle class="st13" cx="1005.46" cy="1325.47" r="1.81"/>
	</g>
	<g>
		<line class="st10" x1="1025.94" y1="1221.26" x2="744.93" y2="1384.08"/>
		<line class="st11" x1="753.31" y1="1379.23" x2="753.31" y2="1431.11"/>
		<line class="st11" x1="819.65" y1="1340.64" x2="819.65" y2="1392.52"/>
		<line class="st11" x1="885.98" y1="1302.05" x2="885.98" y2="1353.93"/>
		<line class="st11" x1="952.31" y1="1263.45" x2="952.31" y2="1315.33"/>
		<line class="st11" x1="1018.64" y1="1224.86" x2="1018.64" y2="1276.74"/>
		<path class="st12" d="M750.96,1429.91c0,0,8.44,0,8.44-7.24c0-7.24-6.09-7.04-6.09-7.04"/>
		<path class="st12" d="M752.17,1400.96c0,0,7.24,0,7.24-7.24c0-7.24-6.09-7.04-6.09-7.04"/>
		<path class="st12" d="M752.17,1401.16c0,0-8.44,0-8.44,7.24c0,7.24,6.09,7.04,6.09,7.04"/>
		<path class="st12" d="M752.17,1386.49c0,0-8.44-4.82-3.62-9.65c4.82-4.82,8.12,0.25,9.65,4.82c1.21,3.62,18.09,4.82,10.85-10.85"
			/>
		<path class="st12" d="M769.05,1369.6c0,0-1.21-7.24,4.82-10.85s10.79,2.3,10.79,2.3"/>
		<path class="st12" d="M800.41,1351.51c0,0-1.21-7.24,4.82-10.85c6.03-3.62,10.79,2.3,10.79,2.3"/>
		<path class="st12" d="M831.76,1333.42c0,0-1.21-7.24,4.82-10.85c6.03-3.62,10.79,2.3,10.79,2.3"/>
		<path class="st12" d="M863.12,1315.33c0,0-1.21-7.24,4.82-10.85c6.03-3.62,10.79,2.3,10.79,2.3"/>
		<path class="st12" d="M894.48,1297.24c0,0-1.21-7.24,4.82-10.85s10.79,2.3,10.79,2.3"/>
		<path class="st12" d="M925.84,1279.15c0,0-1.21-7.24,4.82-10.85c6.03-3.62,10.79,2.3,10.79,2.3"/>
		<path class="st12" d="M957.19,1261.06c0,0-1.21-7.24,4.82-10.85c6.03-3.62,10.79,2.3,10.79,2.3"/>
		<path class="st12" d="M988.55,1242.97c0,0-1.21-7.24,4.82-10.85s10.79,2.3,10.79,2.3"/>
		<path class="st12" d="M1019.91,1224.88c0,0-1.21-7.24,4.82-10.85c6.03-3.62,10.79,2.3,10.79,2.3s6.09,9.76,0.06,16.99
			c-6.03,7.24-16.33,1.31-22.91,14.47c-6.03,12.06,5.97,13.27,5.97,13.27s10.91,2.41,9.71,12.06"/>
		<path class="st12" d="M800.19,1352.68c0,0,1.27,7.22-4.72,10.9s-10.81-2.2-10.81-2.2"/>
		<path class="st12" d="M832.75,1334.59c0,0,1.27,7.22-4.72,10.9s-10.81-2.2-10.81-2.2"/>
		<path class="st12" d="M865.32,1316.5c0,0,1.27,7.22-4.72,10.9s-10.81-2.2-10.81-2.2"/>
		<path class="st12" d="M894.26,1298.41c0,0,1.27,7.22-4.72,10.9c-6,3.67-10.81-2.2-10.81-2.2"/>
		<path class="st12" d="M926.82,1280.32c0,0,1.27,7.22-4.72,10.9c-6,3.67-10.81-2.2-10.81-2.2"/>
		<path class="st12" d="M956.97,1263.43c0,0,1.27,7.22-4.72,10.9s-10.81-2.2-10.81-2.2"/>
		<path class="st12" d="M988.33,1244.14c0,0,1.27,7.22-4.72,10.9c-6,3.67-10.81-2.2-10.81-2.2"/>
		<path class="st12" d="M1019.69,1226.05c0,0,1.27,7.22-4.72,10.9s-10.81-2.2-10.81-2.2"/>
		<g>
			<path class="st13" d="M760.27,1361.84c3.3-1.3,6.05-1.2,6.05-1.2c-0.35-2.3,0.94-3.42,0.94-3.42c3.27,2.37,3.62,4.68,3.62,4.68
				l-1.51,5.47c0,0-1.48,1.8-5.5,2.17c0,0-0.54-1.62,0.94-3.42C764.81,1366.11,762.44,1364.64,760.27,1361.84"/>
		</g>
		<g>
			<path class="st13" d="M742.17,1394.4c3.3-1.3,6.05-1.2,6.05-1.2c-0.35-2.3,0.94-3.42,0.94-3.42c3.27,2.37,3.62,4.68,3.62,4.68
				l-1.51,5.47c0,0-1.48,1.8-5.5,2.17c0,0-0.54-1.62,0.94-3.42C746.72,1398.68,744.35,1397.21,742.17,1394.4"/>
		</g>
		<g>
			<path class="st13" d="M813.77,1332.05c3.12,1.69,4.82,3.86,4.82,3.86c1.54-1.75,3.22-1.48,3.22-1.48
				c0.29,4.03-1.24,5.78-1.24,5.78l-5.16,2.38c0,0-2.33,0.03-5.2-2.81c0,0,0.89-1.45,3.22-1.48
				C813.43,1338.29,813.02,1335.52,813.77,1332.05"/>
		</g>
		<g>
			<path class="st13" d="M847.17,1335.69c-1.44-3.25-1.45-6-1.45-6c-2.29,0.44-3.46-0.8-3.46-0.8c2.24-3.37,4.52-3.81,4.52-3.81
				l5.53,1.28c0,0,1.86,1.4,2.39,5.41c0,0-1.6,0.6-3.46-0.8C851.26,1330.96,849.89,1333.4,847.17,1335.69"/>
		</g>
		<g>
			<path class="st13" d="M878.53,1319.57c-3.23-1.47-5.07-3.52-5.07-3.52c-1.42,1.85-3.12,1.7-3.12,1.7c-0.57-4,0.85-5.85,0.85-5.85
				l4.98-2.72c0,0,2.32-0.19,5.38,2.45c0,0-0.79,1.51-3.12,1.7C878.45,1313.33,879.04,1316.06,878.53,1319.57"/>
		</g>
		<g>
			<path class="st13" d="M958.13,1280.98c-3.23-1.47-5.07-3.52-5.07-3.52c-1.42,1.85-3.12,1.7-3.12,1.7c-0.57-4,0.85-5.85,0.85-5.85
				l4.98-2.72c0,0,2.32-0.19,5.38,2.45c0,0-0.79,1.51-3.12,1.7C958.04,1274.73,958.64,1277.46,958.13,1280.98"/>
		</g>
		<g>
			<path class="st13" d="M917.03,1271.47c3.28-1.36,6.03-1.3,6.03-1.3c-0.39-2.3,0.88-3.44,0.88-3.44c3.31,2.31,3.7,4.61,3.7,4.61
				l-1.41,5.5c0,0-1.44,1.83-5.46,2.26c0,0-0.56-1.61,0.88-3.44C921.65,1275.67,919.25,1274.24,917.03,1271.47"/>
		</g>
		<g>
			<path class="st13" d="M1011.1,1218.41c3.28-1.36,6.03-1.3,6.03-1.3c-0.39-2.3,0.88-3.44,0.88-3.44c3.31,2.31,3.7,4.61,3.7,4.61
				l-1.41,5.5c0,0-1.44,1.83-5.46,2.26c0,0-0.56-1.61,0.88-3.44C1015.72,1222.6,1013.32,1221.17,1011.1,1218.41"/>
		</g>
		<g>
			<path class="st13" d="M979.74,1234.08c3.28-1.36,6.03-1.3,6.03-1.3c-0.39-2.3,0.88-3.44,0.88-3.44c3.31,2.31,3.7,4.61,3.7,4.61
				l-1.41,5.5c0,0-1.44,1.83-5.46,2.26c0,0-0.56-1.61,0.88-3.44C984.36,1238.28,981.96,1236.85,979.74,1234.08"/>
		</g>
		<g>
			<path class="st13" d="M957.25,1241.61c3.14,1.66,4.85,3.82,4.85,3.82c1.52-1.76,3.21-1.51,3.21-1.51c0.33,4.03-1.2,5.79-1.2,5.79
				l-5.14,2.42c0,0-2.33,0.05-5.23-2.77c0,0,0.88-1.46,3.21-1.51C956.96,1247.85,956.53,1245.09,957.25,1241.61"/>
		</g>
		<circle class="st13" cx="781.11" cy="1365.99" r="1.81"/>
		<circle class="st13" cx="784.73" cy="1364.78" r="1.81"/>
		<circle class="st13" cx="783.52" cy="1367.19" r="1.81"/>
		<circle class="st13" cx="782.32" cy="1369.6" r="1.81"/>
		<circle class="st13" cx="787.14" cy="1367.19" r="1.81"/>
		<circle class="st13" cx="788.35" cy="1364.78" r="1.81"/>
		<circle class="st13" cx="785.93" cy="1372.02" r="1.81"/>
		<circle class="st13" cx="785.93" cy="1369.6" r="1.81"/>
		<circle class="st13" cx="783.52" cy="1372.02" r="1.81"/>
		<circle class="st13" cx="784.73" cy="1374.43" r="1.81"/>
		<circle class="st13" cx="853.47" cy="1329.81" r="1.81"/>
		<circle class="st13" cx="857.09" cy="1328.6" r="1.81"/>
		<circle class="st13" cx="855.89" cy="1331.01" r="1.81"/>
		<circle class="st13" cx="854.68" cy="1333.42" r="1.81"/>
		<circle class="st13" cx="859.5" cy="1331.01" r="1.81"/>
		<circle class="st13" cx="860.71" cy="1328.6" r="1.81"/>
		<circle class="st13" cx="858.3" cy="1335.84" r="1.81"/>
		<circle class="st13" cx="858.3" cy="1333.42" r="1.81"/>
		<circle class="st13" cx="855.89" cy="1335.84" r="1.81"/>
		<circle class="st13" cx="857.09" cy="1338.25" r="1.81"/>
		<circle class="st13" cx="966.84" cy="1255.03" r="1.81"/>
		<circle class="st13" cx="970.46" cy="1253.82" r="1.81"/>
		<circle class="st13" cx="969.25" cy="1256.24" r="1.81"/>
		<circle class="st13" cx="968.05" cy="1258.65" r="1.81"/>
		<circle class="st13" cx="972.87" cy="1256.24" r="1.81"/>
		<circle class="st13" cx="974.08" cy="1253.82" r="1.81"/>
		<circle class="st13" cx="971.67" cy="1261.06" r="1.81"/>
		<circle class="st13" cx="971.67" cy="1258.65" r="1.81"/>
		<circle class="st13" cx="969.25" cy="1261.06" r="1.81"/>
		<circle class="st13" cx="970.46" cy="1263.47" r="1.81"/>
	</g>
	<polyline class="st7" points="1119.75,1298.47 1185.25,1335.97 1185.25,1469.97 1073.75,1534.47 839.75,1534.47 734.75,1473.47 
		734.75,1374.47 936.25,1258.97 1051.25,1258.97 1093.75,1283.47 	"/>
</g>
</svg>
