<?xml version="1.0" encoding="utf-8"?>
<!-- Generator: Adobe Illustrator 26.0.3, SVG Export Plug-In . SVG Version: 6.00 Build 0)  -->
<svg version="1.1" id="Livello_1" xmlns="http://www.w3.org/2000/svg" xmlns:xlink="http://www.w3.org/1999/xlink" x="0px" y="0px"
	 viewBox="0 0 1920 1344" style="enable-background:new 0 0 1920 1344;" xml:space="preserve">
<style type="text/css">
	.st0{fill:#2C2E2F;}
	.st1{display:none;}
	.st2{display:inline;fill:none;stroke:#3FA9F5;stroke-miterlimit:10;}
	.st3{fill:#C98340;}
	.st4{fill:none;stroke:#C98340;stroke-miterlimit:10;}
	.st5{fill:#C98340;stroke:#C98340;stroke-miterlimit:10;}
	.st6{fill:#FFFFFF;stroke:#C98340;stroke-miterlimit:10;}
	.st7{fill:#2B2E2E;stroke:#FFFFFF;stroke-miterlimit:10;}
	.st8{fill:none;stroke:#FFFFFF;stroke-miterlimit:10;}
	.st9{fill:none;stroke:#FFFFFF;stroke-width:4;stroke-miterlimit:10;}
	.st10{fill:#FFFFFF;}
	.st11{fill:none;stroke:#FFFFFF;stroke-width:3;stroke-linecap:round;stroke-miterlimit:10;}
	.st12{fill:none;stroke:#FFFFFF;stroke-width:3;stroke-miterlimit:10;}
	.st13{fill:none;stroke:#FFFFFF;stroke-linecap:round;stroke-miterlimit:10;}
</style>
<rect class="st0" width="1920" height="1344"/>
<g class="st1">
	<line class="st2" x1="-1627.12" y1="1121" x2="378.5" y2="-37.5"/>
	<line class="st2" x1="-1473.12" y1="1121" x2="532.5" y2="-37.5"/>
	<line class="st2" x1="-1319.12" y1="1121" x2="686.5" y2="-37.5"/>
	<line class="st2" x1="-1165.12" y1="1121" x2="840.5" y2="-37.5"/>
	<line class="st2" x1="-1011.12" y1="1121" x2="994.5" y2="-37.5"/>
	<line class="st2" x1="-857.12" y1="1121" x2="1148.5" y2="-37.5"/>
	<line class="st2" x1="-703.12" y1="1121" x2="1302.5" y2="-37.5"/>
	<line class="st2" x1="-549.12" y1="1121" x2="1456.5" y2="-37.5"/>
	<line class="st2" x1="-395.12" y1="1121" x2="1610.5" y2="-37.5"/>
	<line class="st2" x1="-241.12" y1="1121" x2="1764.5" y2="-37.5"/>
	<line class="st2" x1="-87.12" y1="1121" x2="1918.5" y2="-37.5"/>
	<line class="st2" x1="66.88" y1="1121" x2="2072.5" y2="-37.5"/>
	<line class="st2" x1="220.88" y1="1121" x2="2226.5" y2="-37.5"/>
	<line class="st2" x1="374.88" y1="1121" x2="2380.5" y2="-37.5"/>
	<line class="st2" x1="528.88" y1="1121" x2="2534.5" y2="-37.5"/>
	<line class="st2" x1="682.88" y1="1121" x2="2688.5" y2="-37.5"/>
	<line class="st2" x1="836.88" y1="1121" x2="2842.5" y2="-37.5"/>
	<line class="st2" x1="990.88" y1="1121" x2="2996.5" y2="-37.5"/>
	<line class="st2" x1="1144.88" y1="1121" x2="3150.5" y2="-37.5"/>
	<line class="st2" x1="1298.88" y1="1121" x2="3304.5" y2="-37.5"/>
	<line class="st2" x1="1452.88" y1="1121" x2="3458.5" y2="-37.5"/>
	<line class="st2" x1="1606.88" y1="1121" x2="3612.5" y2="-37.5"/>
	<line class="st2" x1="1760.88" y1="1121" x2="3766.5" y2="-37.5"/>
	<line class="st2" x1="-1551.12" y1="1121" x2="454.5" y2="-37.5"/>
	<line class="st2" x1="-1397.12" y1="1121" x2="608.5" y2="-37.5"/>
	<line class="st2" x1="-1243.12" y1="1121" x2="762.5" y2="-37.5"/>
	<line class="st2" x1="-1089.12" y1="1121" x2="916.5" y2="-37.5"/>
	<line class="st2" x1="-935.12" y1="1121" x2="1070.5" y2="-37.5"/>
	<line class="st2" x1="-781.12" y1="1121" x2="1224.5" y2="-37.5"/>
	<line class="st2" x1="-627.12" y1="1121" x2="1378.5" y2="-37.5"/>
	<line class="st2" x1="-473.12" y1="1121" x2="1532.5" y2="-37.5"/>
	<line class="st2" x1="-319.12" y1="1121" x2="1686.5" y2="-37.5"/>
	<line class="st2" x1="-165.12" y1="1121" x2="1840.5" y2="-37.5"/>
	<line class="st2" x1="-11.12" y1="1121" x2="1994.5" y2="-37.5"/>
	<line class="st2" x1="142.88" y1="1121" x2="2148.5" y2="-37.5"/>
	<line class="st2" x1="296.88" y1="1121" x2="2302.5" y2="-37.5"/>
	<line class="st2" x1="450.88" y1="1121" x2="2456.5" y2="-37.5"/>
	<line class="st2" x1="604.88" y1="1121" x2="2610.5" y2="-37.5"/>
	<line class="st2" x1="758.88" y1="1121" x2="2764.5" y2="-37.5"/>
	<line class="st2" x1="912.88" y1="1121" x2="2918.5" y2="-37.5"/>
	<line class="st2" x1="1066.88" y1="1121" x2="3072.5" y2="-37.5"/>
	<line class="st2" x1="1220.88" y1="1121" x2="3226.5" y2="-37.5"/>
	<line class="st2" x1="1374.88" y1="1121" x2="3380.5" y2="-37.5"/>
	<line class="st2" x1="1528.88" y1="1121" x2="3534.5" y2="-37.5"/>
	<line class="st2" x1="1682.88" y1="1121" x2="3688.5" y2="-37.5"/>
	<line class="st2" x1="1836.88" y1="1121" x2="3842.5" y2="-37.5"/>
	<line class="st2" x1="3756.5" y1="1122" x2="1750.88" y2="-36.5"/>
	<line class="st2" x1="3602.5" y1="1122" x2="1596.88" y2="-36.5"/>
	<line class="st2" x1="3448.5" y1="1122" x2="1442.88" y2="-36.5"/>
	<line class="st2" x1="3294.5" y1="1122" x2="1288.88" y2="-36.5"/>
	<line class="st2" x1="3140.5" y1="1122" x2="1134.88" y2="-36.5"/>
	<line class="st2" x1="2986.5" y1="1122" x2="980.88" y2="-36.5"/>
	<line class="st2" x1="2832.5" y1="1122" x2="826.88" y2="-36.5"/>
	<line class="st2" x1="2678.5" y1="1122" x2="672.88" y2="-36.5"/>
	<line class="st2" x1="2524.5" y1="1122" x2="518.88" y2="-36.5"/>
	<line class="st2" x1="2370.5" y1="1122" x2="364.88" y2="-36.5"/>
	<line class="st2" x1="2216.5" y1="1122" x2="210.88" y2="-36.5"/>
	<line class="st2" x1="2062.5" y1="1122" x2="56.88" y2="-36.5"/>
	<line class="st2" x1="1908.5" y1="1122" x2="-97.12" y2="-36.5"/>
	<line class="st2" x1="1754.5" y1="1122" x2="-251.12" y2="-36.5"/>
	<line class="st2" x1="1600.5" y1="1122" x2="-405.12" y2="-36.5"/>
	<line class="st2" x1="1446.5" y1="1122" x2="-559.12" y2="-36.5"/>
	<line class="st2" x1="1292.5" y1="1122" x2="-713.12" y2="-36.5"/>
	<line class="st2" x1="1138.5" y1="1122" x2="-867.12" y2="-36.5"/>
	<line class="st2" x1="984.5" y1="1122" x2="-1021.12" y2="-36.5"/>
	<line class="st2" x1="830.5" y1="1122" x2="-1175.12" y2="-36.5"/>
	<line class="st2" x1="676.5" y1="1122" x2="-1329.12" y2="-36.5"/>
	<line class="st2" x1="522.5" y1="1122" x2="-1483.12" y2="-36.5"/>
	<line class="st2" x1="368.5" y1="1122" x2="-1637.12" y2="-36.5"/>
	<line class="st2" x1="3680.5" y1="1122" x2="1674.88" y2="-36.5"/>
	<line class="st2" x1="3526.5" y1="1122" x2="1520.88" y2="-36.5"/>
	<line class="st2" x1="3372.5" y1="1122" x2="1366.88" y2="-36.5"/>
	<line class="st2" x1="3218.5" y1="1122" x2="1212.88" y2="-36.5"/>
	<line class="st2" x1="3064.5" y1="1122" x2="1058.88" y2="-36.5"/>
	<line class="st2" x1="2910.5" y1="1122" x2="904.88" y2="-36.5"/>
	<line class="st2" x1="2756.5" y1="1122" x2="750.88" y2="-36.5"/>
	<line class="st2" x1="2602.5" y1="1122" x2="596.88" y2="-36.5"/>
	<line class="st2" x1="2448.5" y1="1122" x2="442.88" y2="-36.5"/>
	<line class="st2" x1="2294.5" y1="1122" x2="288.88" y2="-36.5"/>
	<line class="st2" x1="2140.5" y1="1122" x2="134.88" y2="-36.5"/>
	<line class="st2" x1="1986.5" y1="1122" x2="-19.12" y2="-36.5"/>
	<line class="st2" x1="1832.5" y1="1122" x2="-173.12" y2="-36.5"/>
	<line class="st2" x1="1678.5" y1="1122" x2="-327.12" y2="-36.5"/>
	<line class="st2" x1="1524.5" y1="1122" x2="-481.12" y2="-36.5"/>
	<line class="st2" x1="1370.5" y1="1122" x2="-635.12" y2="-36.5"/>
	<line class="st2" x1="1216.5" y1="1122" x2="-789.12" y2="-36.5"/>
	<line class="st2" x1="1062.5" y1="1122" x2="-943.12" y2="-36.5"/>
	<line class="st2" x1="908.5" y1="1122" x2="-1097.12" y2="-36.5"/>
	<line class="st2" x1="754.5" y1="1122" x2="-1251.12" y2="-36.5"/>
	<line class="st2" x1="600.5" y1="1122" x2="-1405.12" y2="-36.5"/>
	<line class="st2" x1="446.5" y1="1122" x2="-1559.12" y2="-36.5"/>
	<line class="st2" x1="292.5" y1="1122" x2="-1713.12" y2="-36.5"/>
</g>
<g>
	<g>
		<path class="st3" d="M372.32,1248.62c-5.1,0-9.93-1.08-14.47-3.22c-4.55-2.15-8.58-5.1-12.08-8.85c-3.5-3.75-6.23-8.07-8.17-12.97
			c-1.95-4.9-2.93-10.15-2.93-15.75c0-7.5,1.65-14.25,4.95-20.25c3.3-6,7.8-10.75,13.5-14.25c5.7-3.5,12.05-5.25,19.05-5.25
			c6.5,0,12.35,1.53,17.55,4.58c5.2,3.05,9.1,7.33,11.7,12.82l-3,1.05c-2.5-4.8-6.15-8.57-10.95-11.33
			c-4.8-2.75-10.05-4.12-15.75-4.12c-6.3,0-12.03,1.63-17.18,4.88c-5.15,3.25-9.25,7.65-12.3,13.2c-3.05,5.55-4.58,11.77-4.58,18.67
			c0,6.8,1.55,13.08,4.65,18.83c3.1,5.75,7.25,10.35,12.45,13.8c5.2,3.45,10.9,5.17,17.1,5.17c4.1,0,8.1-0.77,12-2.33
			c3.9-1.55,7.27-3.57,10.12-6.08c2.85-2.5,4.67-5.15,5.48-7.95l3,0.9c-1.1,3.5-3.2,6.65-6.3,9.45c-3.1,2.8-6.73,5-10.88,6.6
			C381.15,1247.82,376.82,1248.62,372.32,1248.62z"/>
		<path class="st3" d="M530.72,1248.62c-5.1,0-9.9-1.05-14.4-3.15c-4.5-2.1-8.45-5.02-11.85-8.77c-3.4-3.75-6.05-8.05-7.95-12.9
			c-1.9-4.85-2.85-9.97-2.85-15.38c0-5.5,0.98-10.67,2.93-15.52c1.95-4.85,4.62-9.15,8.02-12.9c3.4-3.75,7.35-6.67,11.85-8.78
			c4.5-2.1,9.25-3.15,14.25-3.15c5,0,9.75,1.05,14.25,3.15c4.5,2.1,8.45,5.03,11.85,8.78c3.4,3.75,6.08,8.05,8.03,12.9
			c1.95,4.85,2.92,10.03,2.92,15.52c0,5.4-0.95,10.53-2.85,15.38c-1.9,4.85-4.57,9.15-8.02,12.9s-7.4,6.67-11.85,8.77
			C540.59,1247.58,535.82,1248.62,530.72,1248.62z M496.67,1208.72c0,6.7,1.52,12.85,4.58,18.45c3.05,5.6,7.15,10.08,12.3,13.42
			c5.15,3.35,10.82,5.03,17.02,5.03c6.2,0,11.9-1.7,17.1-5.1c5.2-3.4,9.35-7.95,12.45-13.65c3.1-5.7,4.65-11.9,4.65-18.6
			c0-6.7-1.55-12.88-4.65-18.53c-3.1-5.65-7.23-10.17-12.38-13.58c-5.15-3.4-10.83-5.1-17.02-5.1c-6.1,0-11.75,1.72-16.95,5.17
			c-5.2,3.45-9.35,8.03-12.45,13.72C498.22,1195.67,496.67,1201.93,496.67,1208.72z"/>
		<path class="st3" d="M726.01,1247.12h-3v-43.35c0-11.3-1.57-19.58-4.72-24.83c-3.15-5.25-8.23-7.88-15.23-7.88
			c-5,0-9.88,1.18-14.62,3.52c-4.75,2.35-8.88,5.55-12.38,9.6c-3.5,4.05-6,8.62-7.5,13.72v49.2h-3v-77.85h3v20.1
			c2.2-4.2,5.1-7.9,8.7-11.1c3.6-3.2,7.62-5.7,12.08-7.5c4.45-1.8,8.97-2.7,13.58-2.7c4,0,7.45,0.73,10.35,2.17
			c2.9,1.45,5.3,3.63,7.2,6.53c1.9,2.9,3.3,6.6,4.2,11.1c0.9,4.5,1.35,9.8,1.35,15.9V1247.12z"/>
		<path class="st3" d="M831.46,1247.12v-74.85h-11.25v-3h11.25v-3.15c0-6.3,0.82-11.7,2.47-16.2c1.65-4.5,4-7.92,7.05-10.27
			c3.05-2.35,6.72-3.53,11.02-3.53c2.9,0,5.67,0.48,8.33,1.42c2.65,0.95,4.62,2.17,5.92,3.67l-2.4,1.8c-1.2-1.2-2.88-2.18-5.02-2.93
			c-2.15-0.75-4.38-1.12-6.68-1.12c-5.7,0-10.08,2.33-13.12,6.98c-3.05,4.65-4.57,11.38-4.57,20.17v3.15h23.25v3h-23.25v74.85
			H831.46z"/>
		<path class="st3" d="M951.75,1149.17v-11.55h3v11.55H951.75z M951.75,1247.12v-77.85h3v77.85H951.75z"/>
		<path class="st3" d="M1090.05,1248.62c-5.4,0-10.4-1.15-15-3.45c-4.6-2.3-8.58-5.37-11.93-9.22c-3.35-3.85-5.95-8.15-7.8-12.9
			c-1.85-4.75-2.77-9.62-2.77-14.62c0-5.2,0.87-10.22,2.62-15.08c1.75-4.85,4.22-9.17,7.42-12.97c3.2-3.8,7.02-6.8,11.47-9
			c4.45-2.2,9.32-3.3,14.62-3.3c7.1,0,13.25,1.9,18.45,5.7c5.2,3.8,9.65,8.35,13.35,13.65v-18.15h3v81.15
			c0,6.8-1.63,12.45-4.88,16.95c-3.25,4.5-7.5,7.82-12.75,9.97c-5.25,2.15-10.83,3.23-16.72,3.23c-9.2,0-16.4-1.73-21.6-5.17
			c-5.2-3.45-9.25-7.93-12.15-13.43l2.85-0.9c3.2,5.8,7.58,10,13.12,12.6c5.55,2.6,11.48,3.9,17.78,3.9c5.7,0,10.92-1.03,15.67-3.08
			c4.75-2.05,8.55-5.1,11.4-9.15c2.85-4.05,4.27-9.03,4.27-14.92v-19.5c-3.3,5.2-7.72,9.45-13.27,12.75
			S1095.94,1248.62,1090.05,1248.62z M1090.05,1245.62c3.7,0,7.3-0.7,10.8-2.1c3.5-1.4,6.7-3.27,9.6-5.62
			c2.9-2.35,5.25-4.92,7.05-7.73c1.8-2.8,2.8-5.6,3-8.4v-28.05c-1.6-4.4-4.08-8.3-7.42-11.7c-3.35-3.4-7.12-6.08-11.33-8.03
			c-4.2-1.95-8.55-2.92-13.05-2.92c-5.2,0-9.88,1.1-14.02,3.3c-4.15,2.2-7.63,5.13-10.43,8.78c-2.8,3.65-4.95,7.68-6.45,12.07
			c-1.5,4.4-2.25,8.8-2.25,13.2c0,4.9,0.87,9.58,2.62,14.03c1.75,4.45,4.22,8.43,7.42,11.92c3.2,3.5,6.87,6.25,11.02,8.25
			C1080.77,1244.63,1085.25,1245.62,1090.05,1245.62z"/>
		<path class="st3" d="M1226.09,1212.92v-43.65h3v43.65c0,11,1.82,19.2,5.47,24.6c3.65,5.4,9.17,8.1,16.58,8.1
			c5,0,9.8-1.15,14.4-3.45c4.6-2.3,8.62-5.47,12.07-9.52c3.45-4.05,5.93-8.67,7.43-13.88v-49.5h3v71.85c0,0.9,0.22,1.63,0.67,2.17
			c0.45,0.55,1.02,0.83,1.72,0.83v3c-0.6,0-1.05-0.02-1.35-0.08c-0.3-0.05-0.55-0.12-0.75-0.22c-1-0.4-1.8-1.12-2.4-2.17
			c-0.6-1.05-0.9-2.22-0.9-3.53v-13.8c-3.4,6.5-8.15,11.68-14.25,15.52c-6.1,3.85-12.65,5.78-19.65,5.78c-8.2,0-14.43-3-18.67-9
			C1228.21,1233.62,1226.09,1224.73,1226.09,1212.92z"/>
		<path class="st3" d="M1424.99,1172.28c-7.3,0.3-13.65,2.73-19.05,7.27c-5.4,4.55-9.15,10.68-11.25,18.38v49.2h-3v-77.85h3v20.1
			c2.7-5.5,6.32-10.02,10.88-13.58c4.55-3.55,9.38-5.62,14.48-6.22c1-0.1,1.92-0.17,2.77-0.23c0.85-0.05,1.58-0.07,2.18-0.07
			V1172.28z"/>
		<path class="st3" d="M1550.23,1248.62c-5.1,0-9.93-1.08-14.48-3.22c-4.55-2.15-8.55-5.1-12-8.85s-6.15-8.1-8.1-13.05
			s-2.92-10.22-2.92-15.83c0-7.3,1.65-13.95,4.95-19.95c3.3-6,7.73-10.77,13.28-14.32c5.55-3.55,11.72-5.33,18.53-5.33
			c6.9,0,13.17,1.8,18.82,5.4c5.65,3.6,10.17,8.43,13.58,14.48c3.4,6.05,5.1,12.83,5.1,20.33c0,0.3,0,0.58,0,0.82
			c0,0.25,0,0.53,0,0.83h-71.25c0.5,6.7,2.35,12.75,5.55,18.15c3.2,5.4,7.35,9.67,12.45,12.83c5.1,3.15,10.65,4.72,16.65,4.72
			s11.6-1.52,16.8-4.58c5.2-3.05,8.9-6.97,11.1-11.77l2.85,0.75c-1.4,3.5-3.67,6.67-6.83,9.52c-3.15,2.85-6.82,5.08-11.02,6.67
			C1559.08,1247.82,1554.73,1248.62,1550.23,1248.62z M1515.73,1206.92h68.1c-0.4-7-2.15-13.17-5.25-18.52
			c-3.1-5.35-7.15-9.57-12.15-12.68c-5-3.1-10.6-4.65-16.8-4.65c-6.1,0-11.65,1.55-16.65,4.65c-5,3.1-9.03,7.35-12.08,12.75
			C1517.85,1193.88,1516.13,1200.03,1515.73,1206.92z"/>
	</g>
</g>
<g id="Casa_contadino">
	<polygon class="st4" points="970.67,555.8 1056.67,505.8 1056.67,402.8 970.67,412.8 	"/>
	<polyline class="st4" points="1041.48,514.87 1041.58,480.8 1024.67,490.55 1024.56,524.89 	"/>
	<polyline class="st4" points="970.67,555.8 936.67,535.8 936.67,462.8 885.67,434.8 885.67,365.8 970.67,412.8 	"/>
	<polyline class="st4" points="1041.67,514.8 1036.81,512.05 1036.95,483.47 	"/>
	<line class="st4" x1="1036.67" y1="511.8" x2="1024.56" y2="518.55"/>
	<polyline class="st4" points="930.48,539.87 930.58,499.8 890.67,523.55 890.56,562.89 	"/>
	<polyline class="st4" points="930.67,539.8 925.81,537.05 925.95,502.47 	"/>
	<line class="st4" x1="925.67" y1="536.8" x2="890.67" y2="557.8"/>
	<line class="st4" x1="925.67" y1="533.8" x2="890.67" y2="554.8"/>
	<line class="st4" x1="925.67" y1="530.8" x2="890.67" y2="551.8"/>
	<line class="st4" x1="925.67" y1="527.8" x2="890.67" y2="548.8"/>
	<line class="st4" x1="925.67" y1="524.8" x2="890.67" y2="545.8"/>
	<line class="st4" x1="925.67" y1="521.8" x2="890.67" y2="542.8"/>
	<line class="st4" x1="925.67" y1="518.8" x2="890.67" y2="539.8"/>
	<line class="st4" x1="925.67" y1="515.8" x2="890.67" y2="536.8"/>
	<line class="st4" x1="925.67" y1="512.8" x2="890.67" y2="533.8"/>
	<line class="st4" x1="925.67" y1="509.8" x2="890.67" y2="530.8"/>
	<line class="st4" x1="925.67" y1="506.8" x2="890.67" y2="527.8"/>
	<line class="st4" x1="925.67" y1="503.8" x2="890.67" y2="524.8"/>
	<polygon class="st4" points="1013.98,470.32 1040.98,454.47 1040.67,426.29 1013.67,442.14 	"/>
	<polyline class="st4" points="1040.92,454.39 1036.67,451.8 1036.67,428.69 	"/>
	<polyline class="st4" points="993.92,481 989.67,478.42 989.67,452.3 	"/>
	<line class="st4" x1="1036.67" y1="451.8" x2="1013.92" y2="464.93"/>
	<line class="st4" x1="989.67" y1="478.8" x2="982.67" y2="482.8"/>
	<polygon class="st5" points="1010.72,443.55 1043.57,424.67 1043.52,420.05 1010.67,438.94 	"/>
	<polygon class="st5" points="978.72,460.55 997.57,449.67 997.52,445.05 978.67,455.94 	"/>
	<line class="st6" x1="1024.51" y1="458.82" x2="1024.51" y2="435.71"/>
	<polyline class="st4" points="936.67,535.8 882.17,568.3 882.17,508.3 936.17,463.3 936.67,533.39 	"/>
	<polyline class="st4" points="882.67,508.8 835.67,481.8 835.67,542.8 881.67,568.8 	"/>
	<polyline class="st4" points="1056.67,402.8 971.67,355.8 885.67,365.8 	"/>
	<line class="st4" x1="885.67" y1="434.8" x2="835.67" y2="481.8"/>
	<polygon class="st4" points="982.4,487.88 993.69,481.45 993.95,451.73 982.65,458.16 	"/>
	<polyline class="st4" points="926.32,442 930.57,439.42 930.57,413.3 	"/>
	<line class="st4" x1="930.57" y1="439.8" x2="937.57" y2="443.8"/>
	<polygon class="st5" points="941.52,421.55 922.67,410.67 922.72,406.05 941.57,416.94 	"/>
	<polygon class="st4" points="937.84,448.88 926.55,442.45 926.29,412.73 937.59,419.16 	"/>
	<polyline class="st4" points="899.32,427 903.57,424.42 903.57,398.3 	"/>
	<line class="st4" x1="903.57" y1="424.8" x2="910.57" y2="428.8"/>
	<polygon class="st5" points="914.52,406.55 895.67,395.67 895.72,391.05 914.57,401.94 	"/>
	<polygon class="st4" points="910.84,433.88 899.55,427.45 899.29,397.73 910.59,404.16 	"/>
	<polygon class="st4" points="978.17,383.16 966.38,389.94 955.17,383.45 966.97,376.67 	"/>
	<polygon class="st3" points="973.6,383.21 966.49,387.3 959.74,383.39 966.85,379.3 	"/>
	<line class="st4" x1="978.67" y1="383.3" x2="978.67" y2="402.3"/>
	<polyline class="st4" points="954.67,383.3 954.67,397.3 954.67,396.8 966.38,402.94 978.67,401.8 	"/>
	<path class="st4" d="M1074.67,474.8v26c0,0-2,2-4,1v-25"/>
	<path class="st4" d="M1072.67,401.8c0,0,2,2,2,6s0,3,1,6s2,5,2,9s1,2,2,7s0,9,1,12s2,5,3,9s1,7-1,10c-2.77,4.16-3,8-5,10s-4,6-5,6
		s-5,0-6-2s-2-5-2-7s-1-1-1-3s-2-5-3-8s1-6,1-8s-1-5-1-8s-1-7,1-12s3-8,3-10s0-2,1-5s3-4,4-6S1069.67,399.8,1072.67,401.8z"/>
	<path class="st4" d="M1064.67,433.8c0,0-2,4,0,8s3,8,1,11"/>
	<path class="st4" d="M1078.67,444.8c0,0-1,3,1,6"/>
	<path class="st4" d="M1070.67,410.8c0,0-2,2-1,6s0,7-3,9"/>
</g>
<g id="Granaio">
	<polygon class="st7" points="1309,405.8 1411,464.8 1411,320.8 1400.01,239.79 1356,172.8 1329,203.8 1309,263.8 	"/>
	<polyline class="st8" points="1345.19,275.87 1345.1,241.8 1362,251.55 1362.11,285.89 	"/>
	<line class="st8" x1="1345.1" y1="275.8" x2="1362" y2="285.55"/>
	<polyline class="st8" points="1345,275.8 1349.86,273.05 1349.72,244.47 	"/>
	<line class="st8" x1="1350" y1="272.8" x2="1362.11" y2="279.55"/>
	<polyline class="st8" points="1329.19,417.87 1329.1,349.91 1385,382.66 1385,450.3 	"/>
	<path class="st8" d="M1346.17,427.13"/>
	<path class="st8" d="M1329.26,417.38"/>
	<polyline class="st8" points="1329,417.8 1333.86,415.05 1334,353.3 	"/>
	<line class="st8" x1="1334" y1="414.8" x2="1385" y2="443.8"/>
	<line class="st8" x1="1336.19" y1="354.07" x2="1385" y2="441.3"/>
	<line class="st8" x1="1334" y1="414.8" x2="1378" y2="378.8"/>
	<polyline class="st8" points="1534.81,392.87 1534.9,324.91 1479,357.66 1479,425.3 	"/>
	<polyline class="st8" points="1535,392.8 1530.14,390.05 1530,328.3 	"/>
	<line class="st8" x1="1530" y1="389.8" x2="1479" y2="418.8"/>
	<line class="st8" x1="1527.81" y1="329.07" x2="1479" y2="416.3"/>
	<line class="st8" x1="1530" y1="389.8" x2="1486" y2="353.8"/>
	<polyline class="st7" points="1411,321.8 1591,217.8 1591,360.8 1411,464.8 1411.01,321.79 	"/>
	<polyline class="st7" points="1400.01,239.79 1356,172.8 1525.01,71.79 1576.01,134.79 1594.01,215.79 1411.01,321.79 
		1400.01,239.79 1576.01,134.79 	"/>
	<path class="st8" d="M1594.01,215.79"/>
	<polyline class="st8" points="1653.88,197.73 1623,179.8 1586,179.8 	"/>
	<polyline class="st8" points="1309,272.8 1284,286.8 1284,428.8 1392,490.8 1547,490.8 1716,392.8 1716,233.8 1681.24,213.62 	"/>
	<g>
		<path class="st8" d="M1565,378.8c-0.75-0.37-1.19,0.05-1.87,0.55c-0.66,0.49-1.56,1.31-2.13,2.45c0,0-2,1-2,4c0,0-2,2-1,5
			c0,0-1,1-1,4c0,0-2,2,0,5c0,0-1,2,1,4c0,0,3,3,5,6l8-6c0,0,1-2,0-4c0,0,1-2,0-5c0,0,0-3-1-4c0,0,0-3-1-5c0,0-1-3-2-4
			C1567,381.8,1566.54,379.57,1565,378.8z"/>
		<path class="st8" d="M1557.02,402.38l-4.02-1.57l-4,1c0,0-8,9-9,11v3l2-3l8-3l5,1c0,0,4,10,6,12v2"/>
		<path class="st8" d="M1561,420.8v-8l2-3l8-6l7-2h3c0,0,3,2,4,5l-5-2l-3,1l-3,9c0,0-1,4-1,5s-2,3-2,3l-1,1l-5,1v4"/>
		<path class="st8" d="M1563,441.8v-8l3-6c0,0,6-6,9-6s5,0,5,0l4,2l1,4l-3-2h-4l-3,4v7l-2,4l-3,4l-5,4v27h-3l-2-2l1-28l-4-7l-2-4
			l-3-7l-5-3h-3l-5,3l2-3l4-5c0,0,3-1,4-1s4,0,4,0l4,2c0,0,5,4,6,8"/>
		<path class="st8" d="M1564,446.8l3-5l2-6l1-5c0,0,3-2,3-3s2-3,2-3"/>
		<polyline class="st8" points="1549,422.8 1555,427.8 1558,431.8 1563,441.05 		"/>
		<polyline class="st8" points="1564,422.8 1569,420.8 1570,418.8 1571,414.8 1572,411.8 1573,407.8 1577,404.8 		"/>
		<path class="st8" d="M1559,396.8c0,0-1,1,0,4"/>
		<path class="st8" d="M1569,393.8c0,0,1,4-1,6"/>
		<path class="st8" d="M1562,386.8c0,0-2,1-1,5"/>
		<path class="st8" d="M1565,384.8c0,0,2,0,2,3"/>
		<path class="st8" d="M1562,399.8c0,0-1,2,0,4"/>
	</g>
	<g>
		<path class="st8" d="M1628,248.8c-0.75-0.37-1.19,0.05-1.87,0.55c-0.66,0.49-1.56,1.31-2.13,2.45c0,0-2,1-2,4c0,0-2,2-1,5
			c0,0-1,1-1,4c0,0-2,2,0,5c0,0-1,2,1,4c0,0,3,3,5,6l8-6c0,0,1-2,0-4c0,0,1-2,0-5c0,0,0-3-1-4c0,0,0-3-1-5c0,0-1-3-2-4
			C1630,251.8,1629.54,249.57,1628,248.8z"/>
		<path class="st8" d="M1620.02,272.38l-4.02-1.57l-4,1c0,0-8,9-9,11v3l2-3l8-3l5,1c0,0,4,10,6,12v2"/>
		<path class="st8" d="M1624,290.8v-8l2-3l8-6l7-2h3c0,0,3,2,4,5l-5-2l-3,1l-3,9c0,0-1,4-1,5s-2,3-2,3l-1,1l-5,1v4"/>
		<path class="st8" d="M1626,311.8v-8l3-6c0,0,6-6,9-6s5,0,5,0l4,2l1,4l-3-2h-4l-3,4v7l-2,4l-3,4l-5,4v27h-3l-2-2l1-28l-4-7l-2-4
			l-3-7l-5-3h-3l-5,3l2-3l4-5c0,0,3-1,4-1s4,0,4,0l4,2c0,0,5,4,6,8"/>
		<path class="st8" d="M1627,316.8l3-5l2-6l1-5c0,0,3-2,3-3s2-3,2-3"/>
		<polyline class="st8" points="1612,292.8 1618,297.8 1621,301.8 1626,311.05 		"/>
		<polyline class="st8" points="1627,292.8 1632,290.8 1633,288.8 1634,284.8 1635,281.8 1636,277.8 1640,274.8 		"/>
		<path class="st8" d="M1622,266.8c0,0-1,1,0,4"/>
		<path class="st8" d="M1632,263.8c0,0,1,4-1,6"/>
		<path class="st8" d="M1625,256.8c0,0-2,1-1,5"/>
		<path class="st8" d="M1628,254.8c0,0,2,0,2,3"/>
		<path class="st8" d="M1625,269.8c0,0-1,2,0,4"/>
	</g>
	<g>
		<path class="st8" d="M1657,313.8c-0.75-0.37-1.19,0.05-1.87,0.55c-0.66,0.49-1.56,1.31-2.13,2.45c0,0-2,1-2,4c0,0-2,2-1,5
			c0,0-1,1-1,4c0,0-2,2,0,5c0,0-1,2,1,4c0,0,3,3,5,6l8-6c0,0,1-2,0-4c0,0,1-2,0-5c0,0,0-3-1-4c0,0,0-3-1-5c0,0-1-3-2-4
			C1659,316.8,1658.54,314.57,1657,313.8z"/>
		<path class="st8" d="M1649.02,337.38l-4.02-1.57l-4,1c0,0-8,9-9,11v3l2-3l8-3l5,1c0,0,4,10,6,12v2"/>
		<path class="st8" d="M1653,355.8v-8l2-3l8-6l7-2h3c0,0,3,2,4,5l-5-2l-3,1l-3,9c0,0-1,4-1,5s-2,3-2,3l-1,1l-5,1v4"/>
		<path class="st8" d="M1655,376.8v-8l3-6c0,0,6-6,9-6s5,0,5,0l4,2l1,4l-3-2h-4l-3,4v7l-2,4l-3,4l-5,4v27h-3l-2-2l1-28l-4-7l-2-4
			l-3-7l-5-3h-3l-5,3l2-3l4-5c0,0,3-1,4-1s4,0,4,0l4,2c0,0,5,4,6,8"/>
		<path class="st8" d="M1656,381.8l3-5l2-6l1-5c0,0,3-2,3-3s2-3,2-3"/>
		<polyline class="st8" points="1641,357.8 1647,362.8 1650,366.8 1655,376.05 		"/>
		<polyline class="st8" points="1656,357.8 1661,355.8 1662,353.8 1663,349.8 1664,346.8 1665,342.8 1669,339.8 		"/>
		<path class="st8" d="M1651,331.8c0,0-1,1,0,4"/>
		<path class="st8" d="M1661,328.8c0,0,1,4-1,6"/>
		<path class="st8" d="M1654,321.8c0,0-2,1-1,5"/>
		<path class="st8" d="M1657,319.8c0,0,2,0,2,3"/>
		<path class="st8" d="M1654,334.8c0,0-1,2,0,4"/>
	</g>
	<g>
		<path class="st8" d="M1693,246.8c-0.75-0.37-1.19,0.05-1.87,0.55c-0.66,0.49-1.56,1.31-2.13,2.45c0,0-2,1-2,4c0,0-2,2-1,5
			c0,0-1,1-1,4c0,0-2,2,0,5c0,0-1,2,1,4c0,0,3,3,5,6l8-6c0,0,1-2,0-4c0,0,1-2,0-5c0,0,0-3-1-4c0,0,0-3-1-5c0,0-1-3-2-4
			C1695,249.8,1694.54,247.57,1693,246.8z"/>
		<path class="st8" d="M1685.02,270.38l-4.02-1.57l-4,1c0,0-8,9-9,11v3l2-3l8-3l5,1c0,0,4,10,6,12v2"/>
		<path class="st8" d="M1689,288.8v-8l2-3l8-6l7-2h3c0,0,3,2,4,5l-5-2l-3,1l-3,9c0,0-1,4-1,5s-2,3-2,3l-1,1l-5,1v4"/>
		<path class="st8" d="M1691,309.8v-8l3-6c0,0,6-6,9-6s5,0,5,0l4,2l1,4l-3-2h-4l-3,4v7l-2,4l-3,4l-5,4v27h-3l-2-2l1-28l-4-7l-2-4
			l-3-7l-5-3h-3l-5,3l2-3l4-5c0,0,3-1,4-1s4,0,4,0l4,2c0,0,5,4,6,8"/>
		<path class="st8" d="M1692,314.8l3-5l2-6l1-5c0,0,3-2,3-3s2-3,2-3"/>
		<polyline class="st8" points="1677,290.8 1683,295.8 1686,299.8 1691,309.05 		"/>
		<polyline class="st8" points="1692,290.8 1697,288.8 1698,286.8 1699,282.8 1700,279.8 1701,275.8 1705,272.8 		"/>
		<path class="st8" d="M1687,264.8c0,0-1,1,0,4"/>
		<path class="st8" d="M1697,261.8c0,0,1,4-1,6"/>
		<path class="st8" d="M1690,254.8c0,0-2,1-1,5"/>
		<path class="st8" d="M1693,252.8c0,0,2,0,2,3"/>
		<path class="st8" d="M1690,267.8c0,0-1,2,0,4"/>
	</g>
	<polygon class="st4" points="1648.19,178.06 1667.26,189.3 1686.81,178.06 1667.26,167.3 	"/>
	<polygon class="st3" points="1654.5,178.14 1667.34,185.71 1680.5,178.14 1667.34,170.9 	"/>
	<polyline class="st4" points="1687,177.8 1686.81,187.06 1667.26,198.3 1648.19,187.06 1648,177.8 	"/>
	<path class="st4" d="M1680.5,190.78v34.52c0,0-1,9-13,9s-13-9-13-9v-34.52"/>
	<path class="st4" d="M1659.01,232.11v11.7l1.99,3l5,2c0,0,2,0,3,0s5-2,5-2l2-2v-13"/>
	<path class="st4" d="M1679,247.8c0,0-3.59-1.24-5,3c-1,3-1,5-5,5"/>
	<path class="st4" d="M1651,239.8c0,0,4,1,5,6s7,5,7,5"/>
	<path class="st4" d="M1679,238.8c0,0,1,5-3,6"/>
</g>
<g id="Silos">
	<line class="st8" x1="459" y1="584.8" x2="465" y2="719.8"/>
	<path class="st8" d="M400.13,814.72C368.76,813.6,343,797.91,343,781.8l6-195"/>
	<path class="st8" d="M401,737.8c1.44,0.05,2.03,0,3.5,0c26.83,0,49.58-8.8,57.5-20.99l34,28.99l-46,27L401,737.8"/>
	<polyline class="st8" points="401,737.8 399.25,814.8 439,838.8 496,804.8 488.7,750.09 	"/>
	<line class="st8" x1="439" y1="838.8" x2="437.38" y2="763.87"/>
	<path class="st8" d="M459,586.8c0,12.7-24.62,23-55,23s-55-10.3-55-23c0,0,3-60,55-60S459,586.8,459,586.8z"/>
	<polyline class="st8" points="409.19,820.87 409.1,786.8 426,796.55 426.11,830.89 	"/>
	<polyline class="st8" points="409,820.8 413.86,818.05 413.72,789.47 	"/>
	<line class="st8" x1="414" y1="817.8" x2="426.11" y2="824.55"/>
	<line class="st9" x1="339" y1="590.8" x2="336" y2="766.8"/>
	<line class="st9" x1="359.5" y1="604.3" x2="356.5" y2="780.3"/>
	<line class="st9" x1="338.26" y1="634.08" x2="358.5" y2="646.3"/>
	<line class="st9" x1="338.26" y1="649.08" x2="358.5" y2="661.3"/>
	<line class="st9" x1="338.26" y1="664.08" x2="358.5" y2="676.3"/>
	<line class="st9" x1="338.26" y1="679.08" x2="358.5" y2="691.3"/>
	<line class="st9" x1="338.26" y1="694.08" x2="358.5" y2="706.3"/>
	<line class="st9" x1="336.5" y1="708.3" x2="358.5" y2="721.3"/>
	<line class="st9" x1="336.5" y1="723.3" x2="358.5" y2="736.3"/>
	<line class="st9" x1="336.5" y1="738.3" x2="357.5" y2="750.3"/>
	<line class="st9" x1="336.5" y1="753.3" x2="356.5" y2="765.3"/>
	<line class="st9" x1="338.26" y1="619.08" x2="358.5" y2="631.3"/>
	<line class="st9" x1="338.26" y1="604.08" x2="358.5" y2="616.3"/>
	<path class="st8" d="M364,568.8l8-13c0,0,5,6,12.5,5.5v17.5C384.5,578.8,369,579.8,364,568.8z"/>
	<polygon class="st4" points="565.19,595.06 584.26,606.3 603.81,595.06 584.26,584.3 	"/>
	<polygon class="st3" points="571.5,595.14 584.34,602.71 597.5,595.14 584.34,587.9 	"/>
	<polyline class="st4" points="604,594.8 603.81,604.06 584.26,615.3 565.19,604.06 565,594.8 	"/>
	<path class="st4" d="M597.5,607.78v34.52c0,0-1,9-13,9s-13-9-13-9v-34.52"/>
	<path class="st4" d="M576.01,649.11v11.7l1.99,3l5,2c0,0,2,0,3,0s5-2,5-2l2-2v-13"/>
	<path class="st4" d="M596,664.8c0,0-3.59-1.24-5,3c-1,3-1,5-5,5"/>
	<path class="st4" d="M568,656.8c0,0,4,1,5,6s7,5,7,5"/>
	<polyline class="st8" points="460.18,611.28 527,611.28 571.5,635.95 	"/>
	<polyline class="st8" points="594.23,649.08 617,661.8 617,739.8 677,774.8 813,774.8 904,827.8 904,866.8 718,973.8 464,973.8 
		296,876.8 296,683.8 337.5,660.01 	"/>
	<path class="st8" d="M436.29,866.68c1.97-3.02,2.94-5.03,5.94-5.07c3-0.03,4.07,5.95,4.07,5.95s3.98-2.04,5.95-4.07
		c1.98-2.02,5-0.06,4.02,1.96c-0.98,2.01-0.93,6.01,0.1,9c1.03,2.99,1.09,7.99-1.88,11.02c-2.97,3.03-5.98,2.07-5.98,2.07
		s-0.99,1.01-3.98,2.04c-2.99,1.03-5,0.06-5,0.06c-6.98,2.08-10.06-4.89-10.06-4.89l-1.06-4.99c0,0-0.04-4-0.07-6
		c-0.02-2-3.04-3.97-3.04-3.97l-0.03-3c0,0,1.97-3.02,4.98-2.06c3.01,0.97,6-0.07,8.07,5.91c0,0,5-0.06,6.06,4.93
		c1.06,4.99,3.07,5.97,3.09,7.97"/>
	<path class="st8" d="M439.54,889.65c0,0-5.01-0.94-6.08-6.93"/>
	<path class="st8" d="M450.49,884.52c0,0,2.98-2.03,2.91-8.03"/>
	<path class="st8" d="M446.3,867.57c0,0-3.58-0.44-4.24,4.31"/>
	<path class="st8" d="M511.8,822.83c1.97-3.02,2.94-5.03,5.94-5.07s4.07,5.95,4.07,5.95s3.98-2.04,5.95-4.07s5-0.06,4.02,1.96
		c-0.98,2.01-0.93,6.01,0.1,9c1.03,2.99,1.09,7.99-1.88,11.02s-5.98,2.07-5.98,2.07s-0.99,1.01-3.98,2.04c-2.99,1.03-5,0.06-5,0.06
		c-6.98,2.08-10.06-4.89-10.06-4.89l-1.06-4.99c0,0-0.04-4-0.07-6c-0.02-2-3.04-3.97-3.04-3.97l-0.03-3c0,0,1.97-3.02,4.98-2.06
		s6-0.07,8.07,5.91c0,0,5-0.06,6.06,4.93s3.07,5.97,3.09,7.97"/>
	<path class="st8" d="M515.06,845.8c0,0-5.01-0.94-6.08-6.93"/>
	<path class="st8" d="M526,840.67c0,0,2.98-2.03,2.91-8.03"/>
	<path class="st8" d="M521.81,823.72c0,0-3.58-0.44-4.24,4.31"/>
	<path class="st8" d="M543.61,805.48c1.97-3.02,2.94-5.03,5.94-5.07s4.07,5.95,4.07,5.95s3.98-2.04,5.95-4.07
		c1.98-2.02,5-0.06,4.02,1.96c-0.98,2.01-0.93,6.01,0.1,9s1.09,7.99-1.88,11.02s-5.98,2.07-5.98,2.07s-0.99,1.01-3.98,2.04
		c-2.99,1.03-5,0.06-5,0.06c-6.98,2.08-10.06-4.89-10.06-4.89l-1.06-4.99c0,0-0.04-4-0.07-6c-0.02-2-3.04-3.97-3.04-3.97l-0.03-3
		c0,0,1.97-3.02,4.98-2.06c3.01,0.97,6-0.07,8.07,5.91c0,0,5-0.06,6.06,4.93c1.06,4.99,3.07,5.97,3.09,7.97"/>
	<path class="st8" d="M546.87,828.44c0,0-5.01-0.94-6.08-6.93"/>
	<path class="st8" d="M557.81,823.32c0,0,2.98-2.03,2.91-8.03"/>
	<path class="st8" d="M553.62,806.36c0,0-3.58-0.44-4.24,4.31"/>
	<path class="st8" d="M610.18,766.73c1.97-3.02,2.94-5.03,5.94-5.07s4.07,5.95,4.07,5.95s3.98-2.04,5.95-4.07
		c1.98-2.02,5-0.06,4.02,1.96c-0.98,2.01-0.93,6.01,0.1,9c1.03,2.99,1.09,7.99-1.88,11.02c-2.97,3.03-5.98,2.07-5.98,2.07
		s-0.99,1.01-3.98,2.04c-2.99,1.03-5,0.06-5,0.06c-6.98,2.08-10.06-4.89-10.06-4.89l-1.06-4.99c0,0-0.04-4-0.07-6
		c-0.02-2-3.04-3.97-3.04-3.97l-0.03-3c0,0,1.97-3.02,4.98-2.06c3.01,0.97,6-0.07,8.07,5.91c0,0,5-0.06,6.06,4.93
		s3.07,5.97,3.09,7.97"/>
	<path class="st8" d="M613.44,789.69c0,0-5.01-0.94-6.08-6.93"/>
	<path class="st8" d="M624.38,784.57c0,0,2.98-2.03,2.91-8.03"/>
	<path class="st8" d="M620.19,767.61c0,0-3.58-0.44-4.24,4.31"/>
	<path class="st8" d="M428.38,874.94l-9.11,5.3l-26.66,14.94l-8.32,5.21c-4.31,2.7-4.16,9.02,0.27,11.51l13.02,7.32
		c2.06,1.16,4.57,1.14,6.62-0.03L645,780.57c4.05-2.33,3.98-8.21-0.14-10.43l-15.16-8.2c-1.63-0.88-3.58-0.96-5.28-0.2l-5.37,2.39"
		/>
	<line class="st8" x1="445.38" y1="864.56" x2="503.89" y2="830.76"/>
	<line class="st8" x1="520.93" y1="820.8" x2="536" y2="811.8"/>
	<line class="st8" x1="602.24" y1="773.59" x2="552.34" y2="802.6"/>
	<path class="st8" d="M443.48,908.08c1.97-3.02,2.94-5.03,5.94-5.07c3-0.03,4.07,5.95,4.07,5.95s3.98-2.04,5.95-4.07
		c1.98-2.02,5-0.06,4.02,1.96c-0.98,2.01-0.93,6.01,0.1,9c1.03,2.99,1.09,7.99-1.88,11.02c-2.97,3.03-5.98,2.07-5.98,2.07
		s-0.99,1.01-3.98,2.04c-2.99,1.03-5,0.06-5,0.06c-6.98,2.08-10.06-4.89-10.06-4.89l-1.06-4.99c0,0-0.04-4-0.07-6
		s-3.04-3.97-3.04-3.97l-0.03-3c0,0,1.97-3.02,4.98-2.06s6-0.07,8.07,5.91c0,0,5-0.06,6.06,4.93s3.07,5.97,3.09,7.97"/>
	<path class="st8" d="M446.74,931.05c0,0-5.01-0.94-6.08-6.93"/>
	<path class="st8" d="M457.68,925.93c0,0,2.98-2.03,2.91-8.03"/>
	<path class="st8" d="M453.49,908.97c0,0-3.58-0.44-4.24,4.31"/>
	<path class="st8" d="M479.29,890.68c1.97-3.02,2.94-5.03,5.94-5.07c3-0.03,4.07,5.95,4.07,5.95s3.98-2.04,5.95-4.07
		c1.98-2.02,5-0.06,4.02,1.96c-0.98,2.01-0.93,6.01,0.1,9c1.03,2.99,1.09,7.99-1.88,11.02c-2.97,3.03-5.98,2.07-5.98,2.07
		s-0.99,1.01-3.98,2.04c-2.99,1.03-5,0.06-5,0.06c-6.98,2.08-10.06-4.89-10.06-4.89l-1.06-4.99c0,0-0.04-4-0.07-6
		c-0.02-2-3.04-3.97-3.04-3.97l-0.03-3c0,0,1.97-3.02,4.98-2.06c3.01,0.97,6-0.07,8.07,5.91c0,0,5-0.06,6.06,4.93
		c1.06,4.99,3.07,5.97,3.09,7.97"/>
	<path class="st8" d="M482.54,913.65c0,0-5.01-0.94-6.08-6.93"/>
	<path class="st8" d="M493.49,908.52c0,0,2.98-2.03,2.91-8.03"/>
	<path class="st8" d="M489.3,891.57c0,0-3.58-0.44-4.24,4.31"/>
	<path class="st8" d="M554.8,846.83c1.97-3.02,2.94-5.03,5.94-5.07s4.07,5.95,4.07,5.95s3.98-2.04,5.95-4.07s5-0.06,4.02,1.96
		c-0.98,2.01-0.93,6.01,0.1,9c1.03,2.99,1.09,7.99-1.88,11.02s-5.98,2.07-5.98,2.07s-0.99,1.01-3.98,2.04c-2.99,1.03-5,0.06-5,0.06
		c-6.98,2.08-10.06-4.89-10.06-4.89l-1.06-4.99c0,0-0.04-4-0.07-6c-0.02-2-3.04-3.97-3.04-3.97l-0.03-3c0,0,1.97-3.02,4.98-2.06
		c3.01,0.97,6-0.07,8.07,5.91c0,0,5-0.06,6.06,4.93s3.07,5.97,3.09,7.97"/>
	<path class="st8" d="M558.06,869.8c0,0-5.01-0.94-6.08-6.93"/>
	<path class="st8" d="M569,864.67c0,0,2.98-2.03,2.91-8.03"/>
	<path class="st8" d="M564.81,847.72c0,0-3.58-0.44-4.24,4.31"/>
	<path class="st8" d="M586.61,829.48c1.97-3.02,2.94-5.03,5.94-5.07s4.07,5.95,4.07,5.95s3.98-2.04,5.95-4.07
		c1.98-2.02,5-0.06,4.02,1.96c-0.98,2.01-0.93,6.01,0.1,9s1.09,7.99-1.88,11.02s-5.98,2.07-5.98,2.07s-0.99,1.01-3.98,2.04
		c-2.99,1.03-5,0.06-5,0.06c-6.98,2.08-10.06-4.89-10.06-4.89l-1.06-4.99c0,0-0.04-4-0.07-6c-0.02-2-3.04-3.97-3.04-3.97l-0.03-3
		c0,0,1.97-3.02,4.98-2.06c3.01,0.97,6-0.07,8.07,5.91c0,0,5-0.06,6.06,4.93c1.06,4.99,3.07,5.97,3.09,7.97"/>
	<path class="st8" d="M589.87,852.44c0,0-5.01-0.94-6.08-6.93"/>
	<path class="st8" d="M600.81,847.32c0,0,2.98-2.03,2.91-8.03"/>
	<path class="st8" d="M596.62,830.36c0,0-3.58-0.44-4.24,4.31"/>
	<path class="st8" d="M653.18,790.73c1.97-3.02,2.94-5.03,5.94-5.07s4.07,5.95,4.07,5.95s3.98-2.04,5.95-4.07
		c1.98-2.02,5-0.06,4.02,1.96c-0.98,2.01-0.93,6.01,0.1,9c1.03,2.99,1.09,7.99-1.88,11.02c-2.97,3.03-5.98,2.07-5.98,2.07
		s-0.99,1.01-3.98,2.04c-2.99,1.03-5,0.06-5,0.06c-6.98,2.08-10.06-4.89-10.06-4.89l-1.06-4.99c0,0-0.04-4-0.07-6
		c-0.02-2-3.04-3.97-3.04-3.97l-0.03-3c0,0,1.97-3.02,4.98-2.06c3.01,0.97,6-0.07,8.07,5.91c0,0,5-0.06,6.06,4.93
		s3.07,5.97,3.09,7.97"/>
	<path class="st8" d="M656.44,813.69c0,0-5.01-0.94-6.08-6.93"/>
	<path class="st8" d="M667.38,808.57c0,0,2.98-2.03,2.91-8.03"/>
	<path class="st8" d="M435.6,919.17l-8.32,5.21c-4.31,2.7-4.16,9.02,0.27,11.51l13.02,7.32c2.06,1.16,4.57,1.14,6.62-0.03
		L688,804.57c4.05-2.33,3.98-8.21-0.14-10.43l-15.16-8.2c-1.63-0.88-3.58-0.96-5.28-0.2l-5.37,2.39"/>
	<line class="st8" x1="462.27" y1="904.23" x2="471.38" y2="898.94"/>
	<line class="st8" x1="488.38" y1="888.56" x2="546.89" y2="854.76"/>
	<line class="st8" x1="563.93" y1="844.8" x2="579" y2="835.8"/>
	<line class="st8" x1="645.24" y1="797.59" x2="595.34" y2="826.6"/>
	<path class="st8" d="M485.48,932.08c1.97-3.02,2.94-5.03,5.94-5.07c3-0.03,4.07,5.95,4.07,5.95s3.98-2.04,5.95-4.07
		c1.98-2.02,5-0.06,4.02,1.96c-0.98,2.01-0.93,6.01,0.1,9c1.03,2.99,1.09,7.99-1.88,11.02c-2.97,3.03-5.98,2.07-5.98,2.07
		s-0.99,1.01-3.98,2.04c-2.99,1.03-5,0.06-5,0.06c-6.98,2.08-10.06-4.89-10.06-4.89l-1.06-4.99c0,0-0.04-4-0.07-6
		s-3.04-3.97-3.04-3.97l-0.03-3c0,0,1.97-3.02,4.98-2.06s6-0.07,8.07,5.91c0,0,5-0.06,6.06,4.93s3.07,5.97,3.09,7.97"/>
	<path class="st8" d="M488.74,955.05c0,0-5.01-0.94-6.08-6.93"/>
	<path class="st8" d="M499.68,949.93c0,0,2.98-2.03,2.91-8.03"/>
	<path class="st8" d="M495.49,932.97c0,0-3.58-0.44-4.24,4.31"/>
	<path class="st8" d="M521.29,914.68c1.97-3.02,2.94-5.03,5.94-5.07c3-0.03,4.07,5.95,4.07,5.95s3.98-2.04,5.95-4.07
		s5-0.06,4.02,1.96c-0.98,2.01-0.93,6.01,0.1,9c1.03,2.99,1.09,7.99-1.88,11.02c-2.97,3.03-5.98,2.07-5.98,2.07
		s-0.99,1.01-3.98,2.04c-2.99,1.03-5,0.06-5,0.06c-6.98,2.08-10.06-4.89-10.06-4.89l-1.06-4.99c0,0-0.04-4-0.07-6
		c-0.02-2-3.04-3.97-3.04-3.97l-0.03-3c0,0,1.97-3.02,4.98-2.06c3.01,0.97,6-0.07,8.07,5.91c0,0,5-0.06,6.06,4.93
		c1.06,4.99,3.07,5.97,3.09,7.97"/>
	<path class="st8" d="M524.54,937.65c0,0-5.01-0.94-6.08-6.93"/>
	<path class="st8" d="M535.49,932.52c0,0,2.98-2.03,2.91-8.03"/>
	<path class="st8" d="M531.3,915.57c0,0-3.58-0.44-4.24,4.31"/>
	<path class="st8" d="M596.8,870.83c1.97-3.02,2.94-5.03,5.94-5.07s4.07,5.95,4.07,5.95s3.98-2.04,5.95-4.07s5-0.06,4.02,1.96
		c-0.98,2.01-0.93,6.01,0.1,9c1.03,2.99,1.09,7.99-1.88,11.02s-5.98,2.07-5.98,2.07s-0.99,1.01-3.98,2.04c-2.99,1.03-5,0.06-5,0.06
		c-6.98,2.08-10.06-4.89-10.06-4.89l-1.06-4.99c0,0-0.04-4-0.07-6c-0.02-2-3.04-3.97-3.04-3.97l-0.03-3c0,0,1.97-3.02,4.98-2.06
		c3.01,0.97,6-0.07,8.07,5.91c0,0,5-0.06,6.06,4.93s3.07,5.97,3.09,7.97"/>
	<path class="st8" d="M600.06,893.8c0,0-5.01-0.94-6.08-6.93"/>
	<path class="st8" d="M611,888.67c0,0,2.98-2.03,2.91-8.03"/>
	<path class="st8" d="M606.81,871.72c0,0-3.58-0.44-4.24,4.31"/>
	<path class="st8" d="M695.18,814.73c1.97-3.02,2.94-5.03,5.94-5.07s4.07,5.95,4.07,5.95s3.98-2.04,5.95-4.07
		c1.98-2.02,5-0.06,4.02,1.96c-0.98,2.01-0.93,6.01,0.1,9c1.03,2.99,1.09,7.99-1.88,11.02c-2.97,3.03-5.98,2.07-5.98,2.07
		s-0.99,1.01-3.98,2.04c-2.99,1.03-5,0.06-5,0.06c-6.98,2.08-10.06-4.89-10.06-4.89l-1.06-4.99c0,0-0.04-4-0.07-6
		c-0.02-2-3.04-3.97-3.04-3.97l-0.03-3c0,0,1.97-3.02,4.98-2.06c3.01,0.97,6-0.07,8.07,5.91c0,0,5-0.06,6.06,4.93
		s3.07,5.97,3.09,7.97"/>
	<path class="st8" d="M698.44,837.69c0,0-5.01-0.94-6.08-6.93"/>
	<path class="st8" d="M709.38,832.57c0,0,2.98-2.03,2.91-8.03"/>
	<path class="st8" d="M477.6,943.17l-8.32,5.21c-4.31,2.7-4.16,9.02,0.27,11.51l13.02,7.32c2.06,1.16,4.57,1.14,6.62-0.03
		L730,828.57c4.05-2.33,3.98-8.21-0.14-10.43l-15.16-8.2c-1.63-0.88-3.58-0.96-5.28-0.2l-5.37,2.39"/>
	<line class="st8" x1="504.27" y1="928.23" x2="513.38" y2="922.94"/>
	<line class="st8" x1="530.38" y1="912.56" x2="588.89" y2="878.76"/>
	<path class="st8" d="M605.93,868.8"/>
	<polyline class="st8" points="687.24,821.59 637.34,850.6 606,868.8 	"/>
	<path class="st8" d="M581.48,924.08c1.97-3.02,2.94-5.03,5.94-5.07c3-0.03,4.07,5.95,4.07,5.95s3.98-2.04,5.95-4.07
		c1.98-2.02,5-0.06,4.02,1.96c-0.98,2.01-0.93,6.01,0.1,9c1.03,2.99,1.09,7.99-1.88,11.02c-2.97,3.03-5.98,2.07-5.98,2.07
		s-0.99,1.01-3.98,2.04c-2.99,1.03-5,0.06-5,0.06c-6.98,2.08-10.06-4.89-10.06-4.89l-1.06-4.99c0,0-0.04-4-0.07-6
		s-3.04-3.97-3.04-3.97l-0.03-3c0,0,1.97-3.02,4.98-2.06c3.01,0.97,6-0.07,8.07,5.91c0,0,5-0.06,6.06,4.93s3.07,5.97,3.09,7.97"/>
	<path class="st8" d="M584.74,947.05c0,0-5.01-0.94-6.08-6.93"/>
	<path class="st8" d="M595.68,941.93c0,0,2.98-2.03,2.91-8.03"/>
	<path class="st8" d="M591.49,924.97c0,0-3.58-0.44-4.24,4.31"/>
	<path class="st8" d="M617.29,906.68c1.97-3.02,2.94-5.03,5.94-5.07c3-0.03,4.07,5.95,4.07,5.95s3.98-2.04,5.95-4.07
		s5-0.06,4.02,1.96c-0.98,2.01-0.93,6.01,0.1,9c1.03,2.99,1.09,7.99-1.88,11.02c-2.97,3.03-5.98,2.07-5.98,2.07
		s-0.99,1.01-3.98,2.04c-2.99,1.03-5,0.06-5,0.06c-6.98,2.08-10.06-4.89-10.06-4.89l-1.06-4.99c0,0-0.04-4-0.07-6
		c-0.02-2-3.04-3.97-3.04-3.97l-0.03-3c0,0,1.97-3.02,4.98-2.06c3.01,0.97,6-0.07,8.07,5.91c0,0,5-0.06,6.06,4.93
		c1.06,4.99,3.07,5.97,3.09,7.97"/>
	<path class="st8" d="M620.54,929.65c0,0-5.01-0.94-6.08-6.93"/>
	<path class="st8" d="M631.49,924.52c0,0,2.98-2.03,2.91-8.03"/>
	<path class="st8" d="M627.3,907.57c0,0-3.58-0.44-4.24,4.31"/>
	<path class="st8" d="M692.8,862.83c1.97-3.02,2.94-5.03,5.94-5.07s4.07,5.95,4.07,5.95s3.98-2.04,5.95-4.07s5-0.06,4.02,1.96
		c-0.98,2.01-0.93,6.01,0.1,9c1.03,2.99,1.09,7.99-1.88,11.02s-5.98,2.07-5.98,2.07s-0.99,1.01-3.98,2.04c-2.99,1.03-5,0.06-5,0.06
		c-6.98,2.08-10.06-4.89-10.06-4.89l-1.06-4.99c0,0-0.04-4-0.07-6c-0.02-2-3.04-3.97-3.04-3.97l-0.03-3c0,0,1.97-3.02,4.98-2.06
		c3.01,0.97,6-0.07,8.07,5.91c0,0,5-0.06,6.06,4.93s3.07,5.97,3.09,7.97"/>
	<path class="st8" d="M696.06,885.8c0,0-5.01-0.94-6.08-6.93"/>
	<path class="st8" d="M707,880.67c0,0,2.98-2.03,2.91-8.03"/>
	<path class="st8" d="M702.81,863.72c0,0-3.58-0.44-4.24,4.31"/>
	<path class="st8" d="M724.61,845.48c1.97-3.02,2.94-5.03,5.94-5.07s4.07,5.95,4.07,5.95s3.98-2.04,5.95-4.07
		c1.98-2.02,5-0.06,4.02,1.96c-0.98,2.01-0.93,6.01,0.1,9s1.09,7.99-1.88,11.02s-5.98,2.07-5.98,2.07s-0.99,1.01-3.98,2.04
		c-2.99,1.03-5,0.06-5,0.06c-6.98,2.08-10.06-4.89-10.06-4.89l-1.06-4.99c0,0-0.04-4-0.07-6c-0.02-2-3.04-3.97-3.04-3.97l-0.03-3
		c0,0,1.97-3.02,4.98-2.06c3.01,0.97,6-0.07,8.07,5.91c0,0,5-0.06,6.06,4.93c1.06,4.99,3.07,5.97,3.09,7.97"/>
	<path class="st8" d="M727.87,868.44c0,0-5.01-0.94-6.08-6.93"/>
	<path class="st8" d="M738.81,863.32c0,0,2.98-2.03,2.91-8.03"/>
	<path class="st8" d="M734.62,846.36c0,0-3.58-0.44-4.24,4.31"/>
	<path class="st8" d="M791.18,806.73c1.97-3.02,2.94-5.03,5.94-5.07s4.07,5.95,4.07,5.95s3.98-2.04,5.95-4.07
		c1.98-2.02,5-0.06,4.02,1.96c-0.98,2.01-0.93,6.01,0.1,9c1.03,2.99,1.09,7.99-1.88,11.02c-2.97,3.03-5.98,2.07-5.98,2.07
		s-0.99,1.01-3.98,2.04c-2.99,1.03-5,0.06-5,0.06c-6.98,2.08-10.06-4.89-10.06-4.89l-1.06-4.99c0,0-0.04-4-0.07-6
		c-0.02-2-3.04-3.97-3.04-3.97l-0.03-3c0,0,1.97-3.02,4.98-2.06c3.01,0.97,6-0.07,8.07,5.91c0,0,5-0.06,6.06,4.93
		s3.07,5.97,3.09,7.97"/>
	<path class="st8" d="M794.44,829.69c0,0-5.01-0.94-6.08-6.93"/>
	<path class="st8" d="M805.38,824.57c0,0,2.98-2.03,2.91-8.03"/>
	<path class="st8" d="M573.6,935.17l-8.32,5.21c-4.31,2.7-4.16,9.02,0.27,11.51l13.02,7.32c2.06,1.16,4.57,1.14,6.62-0.03
		L826,820.57c4.05-2.33,3.98-8.21-0.14-10.43l-15.16-8.2c-1.63-0.88-3.58-0.96-5.28-0.2l-5.37,2.39"/>
	<line class="st8" x1="600.27" y1="920.23" x2="609.38" y2="914.94"/>
	<line class="st8" x1="626.38" y1="904.56" x2="684.89" y2="870.76"/>
	<line class="st8" x1="701.93" y1="860.8" x2="717" y2="851.8"/>
	<line class="st8" x1="783.24" y1="813.59" x2="733.34" y2="842.6"/>
	<path class="st8" d="M639.48,934.08c1.97-3.02,2.94-5.03,5.94-5.07c3-0.03,4.07,5.95,4.07,5.95s3.98-2.04,5.95-4.07
		c1.98-2.02,5-0.06,4.02,1.96c-0.98,2.01-0.93,6.01,0.1,9c1.03,2.99,1.09,7.99-1.88,11.02c-2.97,3.03-5.98,2.07-5.98,2.07
		s-0.99,1.01-3.98,2.04c-2.99,1.03-5,0.06-5,0.06c-6.98,2.08-10.06-4.89-10.06-4.89l-1.06-4.99c0,0-0.04-4-0.07-6
		s-3.04-3.97-3.04-3.97l-0.03-3c0,0,1.97-3.02,4.98-2.06c3.01,0.97,6-0.07,8.07,5.91c0,0,5-0.06,6.06,4.93s3.07,5.97,3.09,7.97"/>
	<path class="st8" d="M642.74,957.05c0,0-5.01-0.94-6.08-6.93"/>
	<path class="st8" d="M653.68,951.93c0,0,2.98-2.03,2.91-8.03"/>
	<path class="st8" d="M649.49,934.97c0,0-3.58-0.44-4.24,4.31"/>
	<path class="st8" d="M675.29,916.68c1.97-3.02,2.94-5.03,5.94-5.07c3-0.03,4.07,5.95,4.07,5.95s3.98-2.04,5.95-4.07
		s5-0.06,4.02,1.96c-0.98,2.01-0.93,6.01,0.1,9c1.03,2.99,1.09,7.99-1.88,11.02c-2.97,3.03-5.98,2.07-5.98,2.07
		s-0.99,1.01-3.98,2.04c-2.99,1.03-5,0.06-5,0.06c-6.98,2.08-10.06-4.89-10.06-4.89l-1.06-4.99c0,0-0.04-4-0.07-6
		c-0.02-2-3.04-3.97-3.04-3.97l-0.03-3c0,0,1.97-3.02,4.98-2.06c3.01,0.97,6-0.07,8.07,5.91c0,0,5-0.06,6.06,4.93
		c1.06,4.99,3.07,5.97,3.09,7.97"/>
	<path class="st8" d="M678.54,939.65c0,0-5.01-0.94-6.08-6.93"/>
	<path class="st8" d="M689.49,934.52c0,0,2.98-2.03,2.91-8.03"/>
	<path class="st8" d="M685.3,917.57c0,0-3.58-0.44-4.24,4.31"/>
	<path class="st8" d="M750.8,872.83c1.97-3.02,2.94-5.03,5.94-5.07s4.07,5.95,4.07,5.95s3.98-2.04,5.95-4.07s5-0.06,4.02,1.96
		c-0.98,2.01-0.93,6.01,0.1,9c1.03,2.99,1.09,7.99-1.88,11.02s-5.98,2.07-5.98,2.07s-0.99,1.01-3.98,2.04c-2.99,1.03-5,0.06-5,0.06
		c-6.98,2.08-10.06-4.89-10.06-4.89l-1.06-4.99c0,0-0.04-4-0.07-6c-0.02-2-3.04-3.97-3.04-3.97l-0.03-3c0,0,1.97-3.02,4.98-2.06
		c3.01,0.97,6-0.07,8.07,5.91c0,0,5-0.06,6.06,4.93s3.07,5.97,3.09,7.97"/>
	<path class="st8" d="M754.06,895.8c0,0-5.01-0.94-6.08-6.93"/>
	<path class="st8" d="M765,890.67c0,0,2.98-2.03,2.91-8.03"/>
	<path class="st8" d="M760.81,873.72c0,0-3.58-0.44-4.24,4.31"/>
	<path class="st8" d="M782.61,855.48c1.97-3.02,2.94-5.03,5.94-5.07s4.07,5.95,4.07,5.95s3.98-2.04,5.95-4.07
		c1.98-2.02,5-0.06,4.02,1.96c-0.98,2.01-0.93,6.01,0.1,9s1.09,7.99-1.88,11.02s-5.98,2.07-5.98,2.07s-0.99,1.01-3.98,2.04
		c-2.99,1.03-5,0.06-5,0.06c-6.98,2.08-10.06-4.89-10.06-4.89l-1.06-4.99c0,0-0.04-4-0.07-6c-0.02-2-3.04-3.97-3.04-3.97l-0.03-3
		c0,0,1.97-3.02,4.98-2.06c3.01,0.97,6-0.07,8.07,5.91c0,0,5-0.06,6.06,4.93c1.06,4.99,3.07,5.97,3.09,7.97"/>
	<path class="st8" d="M785.87,878.44c0,0-5.01-0.94-6.08-6.93"/>
	<path class="st8" d="M796.81,873.32c0,0,2.98-2.03,2.91-8.03"/>
	<path class="st8" d="M792.62,856.36c0,0-3.58-0.44-4.24,4.31"/>
	<line class="st8" x1="658.27" y1="930.23" x2="667.38" y2="924.94"/>
	<line class="st8" x1="684.38" y1="914.56" x2="742.89" y2="880.76"/>
	<line class="st8" x1="759.93" y1="870.8" x2="775" y2="861.8"/>
	<path class="st8" d="M631.6,945.17l-8.32,5.21c-4.31,2.7-4.16,9.02,0.27,11.51l13.02,7.32c2.06,1.16,4.57,1.14,6.62-0.03
		L884,830.57c4.05-2.33,3.98-8.21-0.14-10.43l-15.16-8.2c-1.63-0.88-3.58-0.96-5.28-0.2L858,814.8l-66.66,37.79"/>
</g>
<g id="Balle_di_fieno">
	<polygon class="st4" points="498.69,240.56 517.76,251.8 537.31,240.56 517.76,229.8 	"/>
	<polygon class="st3" points="505,240.64 517.84,248.21 531,240.64 517.84,233.4 	"/>
	<polyline class="st4" points="537.5,240.3 537.31,249.56 517.76,260.8 498.69,249.56 498.5,240.3 	"/>
	<path class="st4" d="M531,253.28v34.52c0,0-1,9-13,9s-13-9-13-9v-34.52"/>
	<path class="st4" d="M509.51,294.61v11.7l1.99,3l5,2c0,0,2,0,3,0s5-2,5-2l2-2v-13"/>
	<path class="st4" d="M529.5,310.3c0,0-3.59-1.24-5,3c-1,3-1,5-5,5"/>
	<path class="st4" d="M501.5,302.3c0,0,4,1,5,6s7,5,7,5"/>
	<path class="st8" d="M230.5,139.3l-2-10l-2,13l-4,1h-3l-2-4l-2,8l-4,6l-5,2l-3-1l-3,4l-4-2l-2-2l-2,4l-2,3h-3l-2,5l-2-7l-5,17l-3,5
		l-2,8l2,12l-2,13v24v19c0,0,2,14,1,24s2,23,2,23h10l-2,3h5l5,3h2v4h5v2l3,2h3h7l3,2h-4v3h11l-5,4h8v3l6,2h6l8,1l-6,3l6,1v3h6l3,5
		l-2,4h13l-2,3h7l-2,3h11l-1,3l3,3v2l5,2l13-6v-5l14-3l-1-3l13-3l4-2l2-10l6-1l18-2l8-5l9-4l-1-5v-5l7-1v-3h4l2-2h4l7-3l9-2l6-4
		l-5-4l6-1l8-2l9-7l16-1l-3-4l5-2v-6l16-1v-3l9-3l-1-7l1-32l2-11l-3-9l1-19l2-14l-3,5c0,0,0-15,0-16s5-31,5-31l-2,5l-2-6l-7-3l-3,3
		l-10-6l-2-7l-2,2l-2-4v6l-9-5l-2-4l-4-3h-6v-8l-4,4l-3-1l-5-2v-6l-3,2l-7-1l-2,1l-2-5l-4,2l-5,3l-6-4l-1-3l-3,4l-4,1h-8l-4,2l-1-5
		l-1-8l-4,11l-8,1l-7-2l-2-3l-3,5h-6l-2-1l-7-3l-1,5l-5-6l-4,4h-4l-6-1l-2-1l-5,7l-6,3l-1-8l-6,10l-3,3l-4,5l-6-7v7l-4,2l-3,3l-7-7
		l-1,7l-3,5l-3,5l-1-6l-3,7l-5,4l-1,3l-2-4l-2,4l-2,2"/>
	<path class="st8" d="M175.5,256.3l3,4l2-1l2,14l2-7l2,2l2,19l3-21l1,2l4-7v5l2,22v-16h3l1-2l2,14l4-11v8l3,4h3c0,0,2,25,2,26
		s2-18,2-18l2-9l3,2v3l2,16l1-19l2,8l2-3l2-2v-2l1,6l4-4l1-3l2,4v34l3-28l2,3v2l3-6l2,4v8l4-3l1,6l4-8l1,11l4-6l5,3l1-7l2,12l2-12
		l2,21l2-13l1,5l2,2l1,9l3-9l2,4h3c0,0-2,19-2,33"/>
	<line class="st8" x1="255.5" y1="317.3" x2="254.5" y2="340.3"/>
	<line class="st8" x1="268.5" y1="335.3" x2="268.5" y2="349.3"/>
	<line class="st8" x1="202.5" y1="289.3" x2="202.5" y2="304.3"/>
	<path class="st8" d="M331.7,342.3c0,0-1.2-17,0.8-23"/>
	<path class="st8" d="M308.5,346.3c0,0-1-13,0-25"/>
	<path class="st8" d="M293.5,323.3c0,0,8-8,8-12s0-3,0-3l2,7l3-3l2,1l6-6h3h1l5-5l7-2l17-13l2-3l3,1l4-1l4-3l1-4l5,3l3-4l2-1v-4l7,1
		l4-1l3,1c0,0,4-2,5-3s2-2,2-2l4,1l4-5l2-5l4-3h6l8-12v7c0,0,6-7,7-8s4-2,4-2l4-2h3l3-6l4,4l7-10v-3"/>
	<polyline class="st8" points="475.5,212.3 468.5,222.3 463.5,228.3 461.5,228.3 456.5,232.3 	"/>
	<polyline class="st8" points="178.5,222.3 186.5,221.3 179.5,228.3 185.5,227.3 184.5,229.3 200.5,222.3 182.5,236.3 194.5,232.3 
		203.5,227.3 195.5,239.3 211.5,230.3 200.5,240.3 194.5,244.3 	"/>
	<path class="st8" d="M197.5,248.3c0,0,13-7,20-11c0,0-7,8-10,14"/>
	<path class="st8" d="M216.5,248.3c0,0,10-7,19-9c0,0-15,11-19,17"/>
	<path class="st8" d="M222.5,254.3l22-7l-17,12l24-5c0,0-8,8-12,13"/>
	<path class="st8" d="M424.29,287.13c0,0-0.79-13.83,0.21-22.83"/>
	<path class="st8" d="M420.5,250.3c0,0,0,12-3,19"/>
	<path class="st8" d="M444.5,277.3c0,0,1-11,3-20"/>
	<path class="st8" d="M452.5,232.3c0,0-2,10-2,28"/>
	<path class="st8" d="M469.5,227.3c0,0,0,14-2,24"/>
	<path class="st8" d="M381.33,307.3c0,0,0.17-12,1.17-20"/>
	<path class="st8" d="M372.5,275.3c0,0-2,17-1,32"/>
	<path class="st8" d="M367.5,318.3c0,0,0-6,0-15"/>
	<path class="st8" d="M352.5,289.3c0,0,1,12-2,25"/>
	<path class="st8" d="M349.5,287.3c0,0,1,9-1,21"/>
	<path class="st8" d="M319.5,309.3c0,0-1,8-1,16"/>
	<polyline class="st8" points="173.5,221.42 163.5,227.3 163.5,301.3 340.5,404.3 626.5,404.3 676.5,375.3 676.5,330.3 613.5,294.3 
		537,294.3 530.18,290.39 	"/>
	<polyline class="st8" points="475.5,170.3 484.5,175.3 484.5,264.3 505,276.2 	"/>
	<path class="st8" d="M460.67,351.82c-1.28,17.46-12,31.89-26.05,37.23c-4.32,1.64-8.96,2.43-13.74,2.17
		c-20.31-1.07-35.42-20.44-33.75-43.27c1.22-16.64,11.01-30.53,24.11-36.42c0.57-0.26,1.14-0.5,1.73-0.72
		c4.39-1.7,9.1-2.52,13.96-2.26C447.23,309.61,462.34,328.99,460.67,351.82z"/>
	<g>
		<path class="st10" d="M439,387.8l2-2c14.22-5.4,22.64-20.01,23.86-36.7c0.84-11.54-2.75-22.77-9.85-30.83
			c-6.06-6.87-14.21-10.91-22.95-11.37c-4.61-0.24-9.17,0.5-13.55,2.19c-0.56,0.22-1.12,0.45-1.68,0.7l3.17-2.99
			c0.58-0.26,0.4,0.23,1,0c4.65-1.8,6.27-2.16,11.16-1.9c9.28,0.49,17.93,4.77,24.35,12.05c7.46,8.46,11.23,20.23,10.35,32.3
			C465.58,366.71,453.94,382.13,439,387.8z"/>
	</g>
	<g>
		<path class="st10" d="M453,380.8h-1c14.22-5.4,24.1-20.3,25.32-36.99c0.84-11.54-2.75-22.77-9.85-30.83
			c-6.06-6.87-14.21-10.91-22.95-11.37c-4.61-0.24-9.17,0.5-13.55,2.19c-0.56,0.22-3.41,0.75-3.96,1l3-2
			c0.58-0.26-0.36-0.63,0.24-0.86c4.65-1.8,9.48-2.59,14.38-2.33c9.28,0.49,17.93,4.77,24.35,12.05
			c7.46,8.46,11.23,20.23,10.35,32.3C478.04,361.42,467.94,375.13,453,380.8z"/>
	</g>
	<path class="st8" d="M411.96,311.11l23.02-10.59c3.91-1.3,8.43-1.89,12.69-1.67c20.31,1.07,35.42,20.44,33.75,43.27
		c-1.22,16.69-11.47,30.78-24.62,36.64l-21.46,9.99"/>
	<path class="st8" d="M434,320.8c0,0-13.12-5.91-24,2c-11,8-11.5,22.5-11.5,22.5"/>
	<path class="st8" d="M416.5,331.3c0,0-10,4-12,15s3,19,3,19"/>
	<path class="st8" d="M397.14,360.12c0,0,0.59,13.02,14.72,21.36"/>
	<path class="st8" d="M427.5,333.3c0,0,16,1,11,20"/>
	<path class="st8" d="M446.5,338.3c0,0,4,8-1,16"/>
	<path class="st8" d="M451.5,355.3c0,0,0,3-1,6"/>
	<path class="st8" d="M414.5,344.3c0,0-6.26,4.49-3,11c3,6,7,5,9,5"/>
	<path class="st8" d="M423.5,350.3c0,0,4-2,2-5s-5-2-6,1c-0.95,2.85-1,8,6,9"/>
	<line class="st8" x1="456.5" y1="325.3" x2="472.5" y2="316.3"/>
	<line class="st8" x1="434.5" y1="309.3" x2="450.5" y2="300.3"/>
	<line class="st8" x1="462.11" y1="336.98" x2="471.39" y2="331.13"/>
	<line class="st8" x1="450.11" y1="309.98" x2="459.39" y2="304.13"/>
	<line class="st8" x1="470.11" y1="344.98" x2="479.39" y2="339.13"/>
	<line class="st8" x1="459.11" y1="364.98" x2="468.39" y2="359.13"/>
	<path class="st8" d="M613.67,359.82c-1.28,17.46-12,31.89-26.05,37.23c-4.32,1.64-8.96,2.43-13.74,2.17
		c-20.31-1.07-35.42-20.44-33.75-43.27c1.22-16.64,11.01-30.53,24.11-36.42c0.57-0.26,1.14-0.5,1.73-0.72
		c4.39-1.7,9.1-2.52,13.96-2.26C600.23,317.61,615.34,336.99,613.67,359.82z"/>
	<g>
		<path class="st10" d="M593.16,395.34L592,394.8c14.22-5.4,24.64-21.01,25.86-37.7c0.84-11.54-2.75-22.77-9.85-30.83
			c-6.06-6.87-14.21-10.91-22.95-11.37c-4.61-0.24-9.17,0.5-13.55,2.19c-0.56,0.22-1.12,0.45-1.68,0.7L569,316.8
			c0.58-0.26,1.4-0.77,2-1c4.65-1.8,9.27-3.16,14.16-2.9c9.28,0.49,17.93,4.77,24.35,12.05c7.46,8.46,11.23,20.23,10.35,32.3
			C618.58,374.71,608.1,389.66,593.16,395.34z"/>
	</g>
	<g>
		<path class="st10" d="M605,389.8l-1-1c14.22-5.4,25.1-20.3,26.32-36.99c0.84-11.54-2.75-22.77-9.85-30.83
			c-6.06-6.87-14.21-10.91-22.95-11.37c-4.61-0.24-13.13,1.49-17.51,3.19c-0.56,0.22,1.55-1.25,1-1l0,0
			c0.58-0.26,1.64-1.63,2.24-1.86c4.65-1.8,9.48-2.59,14.38-2.33c9.28,0.49,17.93,4.77,24.35,12.05
			c7.46,8.46,11.23,20.23,10.35,32.3C631.04,369.42,619.94,384.13,605,389.8z"/>
	</g>
	<path class="st8" d="M564.96,319.11l23.02-10.59c3.91-1.3,8.43-1.89,12.69-1.67c20.31,1.07,35.42,20.44,33.75,43.27
		c-1.22,16.69-11.47,30.78-24.62,36.64l-21.46,9.99"/>
	<path class="st8" d="M587,328.8c0,0-13.12-5.91-24,2c-11,8-11.5,22.5-11.5,22.5"/>
	<path class="st8" d="M564.85,344.2c0,0-7.84,7.38-5.68,18.35c2.16,10.97,9.74,16.59,9.74,16.59"/>
	<path class="st8" d="M568.98,392.23c0,0,12.49,3.73,25.02-6.86"/>
	<path class="st8" d="M580.5,341.3c0,0,16,1,11,20"/>
	<path class="st8" d="M596.68,338.91c0,0,6.58,6.06,4.74,15.32"/>
	<path class="st8" d="M600.87,369.39c0,0-0.37,2.98-1.74,5.83"/>
	<path class="st8" d="M570.43,369.39c0,0,3.71,6.75,10.56,4.3c6.32-2.26,5.8-6.35,6.04-8.34"/>
	<path class="st8" d="M575.91,358.66c0,0,4.46,0.29,4.25-3.31c-0.21-3.6-3.31-4.25-5.69-2.16c-2.25,1.98-4.9,6.4,0.64,10.8"/>
	<line class="st8" x1="611.5" y1="341.3" x2="627.5" y2="332.3"/>
	<line class="st8" x1="601.7" y1="324.63" x2="617.3" y2="314.97"/>
	<line class="st8" x1="615.11" y1="325.98" x2="624.39" y2="320.13"/>
	<line class="st8" x1="592.11" y1="316.98" x2="601.39" y2="311.13"/>
	<line class="st8" x1="621.11" y1="352.98" x2="630.39" y2="347.13"/>
	<line class="st8" x1="612.11" y1="372.98" x2="621.39" y2="367.13"/>
	<path class="st8" d="M190.5,194.3c0,0,8-4,19-7c0,0-11,9-16,14c0,0,21-8,23-7"/>
	<path class="st8" d="M204.5,209.3l-2,5c0,0,26-12,31-15c0,0-15,13-17,16"/>
	<line class="st8" x1="245.5" y1="219.3" x2="251.5" y2="215.3"/>
	<path class="st8" d="M262.5,228.3c0,0,10-5,17-7l-9,8l13-6l-19,17c0,0,24-7,36-13c0,0-17,13-24,20"/>
	<path class="st8" d="M293.5,259.3c0,0,13-7,25-9c0,0-8,4-15,14c0,0,18-6,26-7s9-1,9-1s-5,4-10,13"/>
	<path class="st8" d="M334.5,275.3c0,0,9-5,16-11"/>
	<path class="st8" d="M194.5,165.3l8-1c0,0-5,7-8,12c0,0,11-6,17-10s9-5,9-5l-4,5l12-5c0,0-6,4-12,13c0,0,8-6,14-8c0,0-8,9-14,17"/>
	<path class="st8" d="M228.5,187.3c0,0,13-9,20-11c0,0-6,4-7,7l7-4c0,0-9,10-12,15"/>
	<path class="st8" d="M243.5,194.3c0,0,17-8,26-15c0,0-6,11-15,18c0,0,14-7,25-12c0,0-2,6-7,9"/>
	<path class="st8" d="M305.5,201.3c0,0-2,7-8,11c0,0,6-3,13-8c0,0-5,8-13,15c0,0,6-5,15-7l-4,3c0,0,5,0,11-1c0,0-10,4-11,7"/>
	<path class="st8" d="M325.5,223.3c0,0-5,6-9,8l11-4l-4,4l15-4c0,0-7,9-13,12c0,0,14-8,27-10c0,0-9,6-14,11c0,0,6,1,11-1l-4,3
		c0,0,9,0,20-5"/>
	<path class="st8" d="M373.5,240.3c0,0-5,9-15,13"/>
	<path class="st8" d="M371.5,248.3c0,0,9-3,16-4l-6,4l6-2l-10,10h5l-8,8c0,0,11-4,21-10c0,0-2,6-8,10"/>
	<path class="st8" d="M245.5,137.3l-5,6l8-3c0,0-4,8-10,11l15-4c0,0,2,2-8,8"/>
	<path class="st8" d="M262.5,151.3c0,0,2,2,11-2c0,0-3,9-11,13"/>
	<path class="st8" d="M281.5,162.3c0,0,4,0,9-2c0,0-5,8-14,12"/>
	<path class="st8" d="M290.5,166.3l7-2l-4,4h4l-4,2c0,0,9,1,15-3c0,0-4,9-15,14c0,0,14-3,22-9c0,0-2,9-9,13"/>
	<path class="st8" d="M318.5,185.3c0,0,6-2,16-8"/>
	<path class="st8" d="M365.5,211.3l10-4l6-3c0,0-4,13-14,18"/>
	<path class="st8" d="M375.5,223.3c0,0,2-3,9-8"/>
	<path class="st8" d="M391.5,217.3c0,0-5-1-12,5"/>
	<path class="st8" d="M401.5,219.3c0,0,2,6-7,10c0,0,8-1,14-5"/>
	<path class="st8" d="M405.5,229.3c0,0-2,6-7,8"/>
	<path class="st8" d="M423.5,229.3c0,0-7,7-15,13"/>
	<path class="st8" d="M255.5,127.3c0,0,20-8,38-12c0,0-11,4-19,12"/>
	<path class="st8" d="M286.5,127.3c0,0,11-5,22-6c0,0-8,3-17,13c0,0,8,0,15-3s5-3,13-4c0,0-5,3-11,10"/>
	<path class="st8" d="M311.5,139.3c0,0,4-5,12-7"/>
	<path class="st8" d="M313.5,148.3c0,0,13-1,25-7s16-6,16-6s-9,4-16,11l10-3l-6,5c0,0,8,2,15-2c0,0,1,2-6,6"/>
	<path class="st8" d="M369.5,147.3c0,0-2,6-12,10c0,0,9,1,14-2c0,0-5,7-15,9"/>
	<path class="st8" d="M362.5,166.3c0,0,11,0,17-6c0,0-2,5-8,8"/>
	<path class="st8" d="M369.5,174.3c0,0,7-1,15-4c0,0,0,1-5,4c0,0,12-5,22-6c0,0-11,3-18,11"/>
	<path class="st8" d="M390.5,181.3c0,0,6-7,23-11c0,0-7,5-17,15"/>
	<path class="st8" d="M401.5,188.3c0,0,8-9,25-11c0,0-7,4-13,10"/>
	<path class="st8" d="M431.5,185.3c0,0-3-1-8,5"/>
	<path class="st8" d="M335.5,119.3c0,0,3,3,9,0s12-7,21-7c0,0-10,3-15,11"/>
	<path class="st8" d="M356.5,123.3c0,0,11-5,23-6c0,0-4,0-9,6"/>
	<path class="st8" d="M379.5,124.3c0,0-7,5-8,5"/>
	<path class="st8" d="M379.5,129.3c0,0-5,4-10,6c0,0,11-1,23-6c12-5,19-5,19-5s-11,4-19,11"/>
	<path class="st8" d="M401.5,149.3c0,0,0,5,10,3s9-4,20-6c0,0-10,6-14,14"/>
	<path class="st8" d="M434.5,164.3c0,0,6,1,16-4c0,0-4,8-16,14"/>
	<path class="st8" d="M444.5,174.3c0,0,12-2,20-6"/>
</g>
<g id="Vitigno">
	<polygon class="st4" points="1447.94,683.06 1467.01,694.3 1486.56,683.06 1467.01,672.3 	"/>
	<polygon class="st3" points="1454.25,683.14 1467.09,690.71 1480.25,683.14 1467.09,675.9 	"/>
	<polyline class="st4" points="1486.75,682.8 1486.56,692.06 1467.01,703.3 1447.94,692.06 1447.75,682.8 	"/>
	<path class="st4" d="M1480.25,695.78v34.52c0,0-1,9-13,9s-13-9-13-9v-34.52"/>
	<path class="st4" d="M1458.76,737.11v11.7l1.99,3l5,2c0,0,2,0,3,0s5-2,5-2l2-2v-13"/>
	<path class="st4" d="M1478.75,752.8c0,0-3.59-1.24-5,3c-1,3-1,5-5,5"/>
	<path class="st4" d="M1450.75,744.8c0,0,4,1,5,6s7,5,7,5"/>
	<g>
		<line class="st11" x1="1523.94" y1="749.6" x2="1242.93" y2="912.41"/>
		<line class="st12" x1="1251.31" y1="907.57" x2="1251.31" y2="959.45"/>
		<line class="st12" x1="1317.65" y1="868.97" x2="1317.65" y2="920.85"/>
		<line class="st12" x1="1383.98" y1="830.38" x2="1383.98" y2="882.26"/>
		<line class="st12" x1="1450.31" y1="791.79" x2="1450.31" y2="843.67"/>
		<line class="st12" x1="1516.64" y1="753.19" x2="1516.64" y2="805.07"/>
		<path class="st13" d="M1248.96,958.24c0,0,8.44,0,8.44-7.24s-6.09-7.04-6.09-7.04"/>
		<path class="st13" d="M1250.17,929.3c0,0,7.24,0,7.24-7.24c0-7.24-6.09-7.04-6.09-7.04"/>
		<path class="st13" d="M1250.17,929.5c0,0-8.44,0-8.44,7.24s6.09,7.04,6.09,7.04"/>
		<path class="st13" d="M1250.17,914.82c0,0-8.44-4.82-3.62-9.65s8.12,0.25,9.65,4.82c1.21,3.62,18.09,4.82,10.85-10.85"/>
		<path class="st13" d="M1267.05,897.94c0,0-1.21-7.24,4.82-10.85c6.03-3.62,10.79,2.3,10.79,2.3"/>
		<path class="st13" d="M1298.41,879.85c0,0-1.21-7.24,4.82-10.85c6.03-3.62,10.79,2.3,10.79,2.3"/>
		<path class="st13" d="M1329.76,861.76c0,0-1.21-7.24,4.82-10.85c6.03-3.62,10.79,2.3,10.79,2.3"/>
		<path class="st13" d="M1361.12,843.67c0,0-1.21-7.24,4.82-10.85c6.03-3.62,10.79,2.3,10.79,2.3"/>
		<path class="st13" d="M1392.48,825.58c0,0-1.21-7.24,4.82-10.85c6.03-3.62,10.79,2.3,10.79,2.3"/>
		<path class="st13" d="M1423.84,807.49c0,0-1.21-7.24,4.82-10.85c6.03-3.62,10.79,2.3,10.79,2.3"/>
		<path class="st13" d="M1455.19,789.39c0,0-1.21-7.24,4.82-10.85c6.03-3.62,10.79,2.3,10.79,2.3"/>
		<path class="st13" d="M1486.55,771.3c0,0-1.21-7.24,4.82-10.85c6.03-3.62,10.79,2.3,10.79,2.3"/>
		<path class="st13" d="M1517.91,753.21c0,0-1.21-7.24,4.82-10.85c6.03-3.62,10.79,2.3,10.79,2.3s6.09,9.76,0.06,16.99
			c-6.03,7.24-16.33,1.31-22.91,14.47c-6.03,12.06,5.97,13.27,5.97,13.27s10.91,2.41,9.71,12.06"/>
		<path class="st13" d="M1298.19,881.02c0,0,1.27,7.22-4.72,10.9s-10.81-2.2-10.81-2.2"/>
		<path class="st13" d="M1330.75,862.93c0,0,1.27,7.22-4.72,10.9c-6,3.67-10.81-2.2-10.81-2.2"/>
		<path class="st13" d="M1363.32,844.84c0,0,1.27,7.22-4.72,10.9c-6,3.67-10.81-2.2-10.81-2.2"/>
		<path class="st13" d="M1392.26,826.74c0,0,1.27,7.22-4.72,10.9s-10.81-2.2-10.81-2.2"/>
		<path class="st13" d="M1424.82,808.65c0,0,1.27,7.22-4.72,10.9c-6,3.67-10.81-2.2-10.81-2.2"/>
		<path class="st13" d="M1454.97,791.77c0,0,1.27,7.22-4.72,10.9s-10.81-2.2-10.81-2.2"/>
		<path class="st13" d="M1486.33,772.47c0,0,1.27,7.22-4.72,10.9c-6,3.67-10.81-2.2-10.81-2.2"/>
		<path class="st13" d="M1517.69,754.38c0,0,1.27,7.22-4.72,10.9s-10.81-2.2-10.81-2.2"/>
		<g>
			<path class="st10" d="M1258.27,890.17c3.3-1.3,6.05-1.2,6.05-1.2c-0.35-2.3,0.94-3.42,0.94-3.42c3.27,2.37,3.62,4.68,3.62,4.68
				l-1.51,5.47c0,0-1.48,1.8-5.5,2.17c0,0-0.54-1.62,0.94-3.42C1262.81,894.45,1260.44,892.98,1258.27,890.17"/>
		</g>
		<g>
			<path class="st10" d="M1240.17,922.73c3.3-1.3,6.05-1.2,6.05-1.2c-0.35-2.3,0.94-3.42,0.94-3.42c3.27,2.37,3.62,4.68,3.62,4.68
				l-1.51,5.47c0,0-1.48,1.8-5.5,2.17c0,0-0.54-1.62,0.94-3.42C1244.72,927.01,1242.35,925.54,1240.17,922.73"/>
		</g>
		<g>
			<path class="st10" d="M1311.77,860.39c3.12,1.69,4.82,3.86,4.82,3.86c1.54-1.75,3.22-1.48,3.22-1.48
				c0.29,4.03-1.24,5.78-1.24,5.78l-5.16,2.38c0,0-2.33,0.03-5.2-2.81c0,0,0.89-1.45,3.22-1.48
				C1311.43,866.62,1311.02,863.86,1311.77,860.39"/>
		</g>
		<g>
			<path class="st10" d="M1345.17,864.02c-1.44-3.25-1.45-6-1.45-6c-2.29,0.44-3.46-0.8-3.46-0.8c2.24-3.37,4.52-3.81,4.52-3.81
				l5.53,1.28c0,0,1.86,1.4,2.39,5.41c0,0-1.6,0.6-3.46-0.8C1349.26,859.3,1347.89,861.73,1345.17,864.02"/>
		</g>
		<g>
			<path class="st10" d="M1376.53,847.9c-3.23-1.47-5.07-3.52-5.07-3.52c-1.42,1.85-3.12,1.7-3.12,1.7c-0.57-4,0.85-5.85,0.85-5.85
				l4.98-2.72c0,0,2.32-0.19,5.38,2.45c0,0-0.79,1.51-3.12,1.7C1376.45,841.66,1377.04,844.39,1376.53,847.9"/>
		</g>
		<g>
			<path class="st10" d="M1456.13,809.31c-3.23-1.47-5.07-3.52-5.07-3.52c-1.42,1.85-3.12,1.7-3.12,1.7c-0.57-4,0.85-5.85,0.85-5.85
				l4.98-2.72c0,0,2.32-0.19,5.38,2.45c0,0-0.79,1.51-3.12,1.7C1456.04,803.07,1456.64,805.8,1456.13,809.31"/>
		</g>
		<g>
			<path class="st10" d="M1415.03,799.81c3.28-1.36,6.03-1.3,6.03-1.3c-0.39-2.3,0.88-3.44,0.88-3.44c3.31,2.31,3.7,4.61,3.7,4.61
				l-1.41,5.5c0,0-1.44,1.83-5.46,2.26c0,0-0.56-1.61,0.88-3.44C1419.65,804,1417.25,802.57,1415.03,799.81"/>
		</g>
		<g>
			<path class="st10" d="M1509.1,746.74c3.28-1.36,6.03-1.3,6.03-1.3c-0.39-2.3,0.88-3.44,0.88-3.44c3.31,2.31,3.7,4.61,3.7,4.61
				l-1.41,5.5c0,0-1.44,1.83-5.46,2.26c0,0-0.56-1.61,0.88-3.44C1513.72,750.94,1511.32,749.51,1509.1,746.74"/>
		</g>
		<g>
			<path class="st10" d="M1477.74,762.42c3.28-1.36,6.03-1.3,6.03-1.3c-0.39-2.3,0.88-3.44,0.88-3.44c3.31,2.31,3.7,4.61,3.7,4.61
				l-1.41,5.5c0,0-1.44,1.83-5.46,2.26c0,0-0.56-1.61,0.88-3.44C1482.36,766.61,1479.96,765.19,1477.74,762.42"/>
		</g>
		<g>
			<path class="st10" d="M1455.25,769.95c3.14,1.66,4.85,3.82,4.85,3.82c1.52-1.76,3.21-1.51,3.21-1.51c0.33,4.03-1.2,5.79-1.2,5.79
				l-5.14,2.42c0,0-2.33,0.05-5.23-2.77c0,0,0.88-1.46,3.21-1.51C1454.96,776.19,1454.53,773.42,1455.25,769.95"/>
		</g>
		<circle class="st10" cx="1279.11" cy="894.32" r="1.81"/>
		<circle class="st10" cx="1282.73" cy="893.11" r="1.81"/>
		<circle class="st10" cx="1281.52" cy="895.53" r="1.81"/>
		<circle class="st10" cx="1280.32" cy="897.94" r="1.81"/>
		<circle class="st10" cx="1285.14" cy="895.53" r="1.81"/>
		<circle class="st10" cx="1286.35" cy="893.11" r="1.81"/>
		<circle class="st10" cx="1283.93" cy="900.35" r="1.81"/>
		<circle class="st10" cx="1283.93" cy="897.94" r="1.81"/>
		<circle class="st10" cx="1281.52" cy="900.35" r="1.81"/>
		<circle class="st10" cx="1282.73" cy="902.76" r="1.81"/>
		<circle class="st10" cx="1351.47" cy="858.14" r="1.81"/>
		<circle class="st10" cx="1355.09" cy="856.93" r="1.81"/>
		<circle class="st10" cx="1353.89" cy="859.35" r="1.81"/>
		<circle class="st10" cx="1352.68" cy="861.76" r="1.81"/>
		<circle class="st10" cx="1357.5" cy="859.35" r="1.81"/>
		<circle class="st10" cx="1358.71" cy="856.93" r="1.81"/>
		<circle class="st10" cx="1356.3" cy="864.17" r="1.81"/>
		<circle class="st10" cx="1356.3" cy="861.76" r="1.81"/>
		<circle class="st10" cx="1353.89" cy="864.17" r="1.81"/>
		<circle class="st10" cx="1355.09" cy="866.58" r="1.81"/>
		<circle class="st10" cx="1464.84" cy="783.36" r="1.81"/>
		<circle class="st10" cx="1468.46" cy="782.16" r="1.81"/>
		<circle class="st10" cx="1467.25" cy="784.57" r="1.81"/>
		<circle class="st10" cx="1466.05" cy="786.98" r="1.81"/>
		<circle class="st10" cx="1470.87" cy="784.57" r="1.81"/>
		<circle class="st10" cx="1472.08" cy="782.16" r="1.81"/>
		<circle class="st10" cx="1469.67" cy="789.39" r="1.81"/>
		<circle class="st10" cx="1469.67" cy="786.98" r="1.81"/>
		<circle class="st10" cx="1467.25" cy="789.39" r="1.81"/>
		<circle class="st10" cx="1468.46" cy="791.81" r="1.81"/>
	</g>
	<g>
		<line class="st11" x1="1420.94" y1="717.6" x2="1139.93" y2="880.41"/>
		<line class="st12" x1="1148.31" y1="875.57" x2="1148.31" y2="927.45"/>
		<line class="st12" x1="1214.65" y1="836.97" x2="1214.65" y2="888.85"/>
		<line class="st12" x1="1280.98" y1="798.38" x2="1280.98" y2="850.26"/>
		<line class="st12" x1="1347.31" y1="759.79" x2="1347.31" y2="811.67"/>
		<line class="st12" x1="1413.64" y1="721.19" x2="1413.64" y2="773.07"/>
		<path class="st13" d="M1145.96,926.24c0,0,8.44,0,8.44-7.24s-6.09-7.04-6.09-7.04"/>
		<path class="st13" d="M1147.17,897.3c0,0,7.24,0,7.24-7.24c0-7.24-6.09-7.04-6.09-7.04"/>
		<path class="st13" d="M1147.17,897.5c0,0-8.44,0-8.44,7.24s6.09,7.04,6.09,7.04"/>
		<path class="st13" d="M1147.17,882.82c0,0-8.44-4.82-3.62-9.65s8.12,0.25,9.65,4.82c1.21,3.62,18.09,4.82,10.85-10.85"/>
		<path class="st13" d="M1164.05,865.94c0,0-1.21-7.24,4.82-10.85c6.03-3.62,10.79,2.3,10.79,2.3"/>
		<path class="st13" d="M1195.41,847.85c0,0-1.21-7.24,4.82-10.85c6.03-3.62,10.79,2.3,10.79,2.3"/>
		<path class="st13" d="M1226.76,829.76c0,0-1.21-7.24,4.82-10.85c6.03-3.62,10.79,2.3,10.79,2.3"/>
		<path class="st13" d="M1258.12,811.67c0,0-1.21-7.24,4.82-10.85c6.03-3.62,10.79,2.3,10.79,2.3"/>
		<path class="st13" d="M1289.48,793.58c0,0-1.21-7.24,4.82-10.85c6.03-3.62,10.79,2.3,10.79,2.3"/>
		<path class="st13" d="M1320.84,775.49c0,0-1.21-7.24,4.82-10.85c6.03-3.62,10.79,2.3,10.79,2.3"/>
		<path class="st13" d="M1352.19,757.39c0,0-1.21-7.24,4.82-10.85c6.03-3.62,10.79,2.3,10.79,2.3"/>
		<path class="st13" d="M1383.55,739.3c0,0-1.21-7.24,4.82-10.85c6.03-3.62,10.79,2.3,10.79,2.3"/>
		<path class="st13" d="M1414.91,721.21c0,0-1.21-7.24,4.82-10.85c6.03-3.62,10.79,2.3,10.79,2.3s6.09,9.76,0.06,16.99
			c-6.03,7.24-16.33,1.31-22.91,14.47c-6.03,12.06,5.97,13.27,5.97,13.27s10.91,2.41,9.71,12.06"/>
		<path class="st13" d="M1195.19,849.02c0,0,1.27,7.22-4.72,10.9s-10.81-2.2-10.81-2.2"/>
		<path class="st13" d="M1227.75,830.93c0,0,1.27,7.22-4.72,10.9c-6,3.67-10.81-2.2-10.81-2.2"/>
		<path class="st13" d="M1260.32,812.84c0,0,1.27,7.22-4.72,10.9c-6,3.67-10.81-2.2-10.81-2.2"/>
		<path class="st13" d="M1289.26,794.74c0,0,1.27,7.22-4.72,10.9s-10.81-2.2-10.81-2.2"/>
		<path class="st13" d="M1321.82,776.65c0,0,1.27,7.22-4.72,10.9c-6,3.67-10.81-2.2-10.81-2.2"/>
		<path class="st13" d="M1351.97,759.77c0,0,1.27,7.22-4.72,10.9s-10.81-2.2-10.81-2.2"/>
		<path class="st13" d="M1383.33,740.47c0,0,1.27,7.22-4.72,10.9c-6,3.67-10.81-2.2-10.81-2.2"/>
		<path class="st13" d="M1414.69,722.38c0,0,1.27,7.22-4.72,10.9s-10.81-2.2-10.81-2.2"/>
		<g>
			<path class="st10" d="M1155.27,858.17c3.3-1.3,6.05-1.2,6.05-1.2c-0.35-2.3,0.94-3.42,0.94-3.42c3.27,2.37,3.62,4.68,3.62,4.68
				l-1.51,5.47c0,0-1.48,1.8-5.5,2.17c0,0-0.54-1.62,0.94-3.42C1159.81,862.45,1157.44,860.98,1155.27,858.17"/>
		</g>
		<g>
			<path class="st10" d="M1137.17,890.73c3.3-1.3,6.05-1.2,6.05-1.2c-0.35-2.3,0.94-3.42,0.94-3.42c3.27,2.37,3.62,4.68,3.62,4.68
				l-1.51,5.47c0,0-1.48,1.8-5.5,2.17c0,0-0.54-1.62,0.94-3.42C1141.72,895.01,1139.35,893.54,1137.17,890.73"/>
		</g>
		<g>
			<path class="st10" d="M1208.77,828.39c3.12,1.69,4.82,3.86,4.82,3.86c1.54-1.75,3.22-1.48,3.22-1.48
				c0.29,4.03-1.24,5.78-1.24,5.78l-5.16,2.38c0,0-2.33,0.03-5.2-2.81c0,0,0.89-1.45,3.22-1.48
				C1208.43,834.62,1208.02,831.86,1208.77,828.39"/>
		</g>
		<g>
			<path class="st10" d="M1242.17,832.02c-1.44-3.25-1.45-6-1.45-6c-2.29,0.44-3.46-0.8-3.46-0.8c2.24-3.37,4.52-3.81,4.52-3.81
				l5.53,1.28c0,0,1.86,1.4,2.39,5.41c0,0-1.6,0.6-3.46-0.8C1246.26,827.3,1244.89,829.73,1242.17,832.02"/>
		</g>
		<g>
			<path class="st10" d="M1273.53,815.9c-3.23-1.47-5.07-3.52-5.07-3.52c-1.42,1.85-3.12,1.7-3.12,1.7c-0.57-4,0.85-5.85,0.85-5.85
				l4.98-2.72c0,0,2.32-0.19,5.38,2.45c0,0-0.79,1.51-3.12,1.7C1273.45,809.66,1274.04,812.39,1273.53,815.9"/>
		</g>
		<g>
			<path class="st10" d="M1353.13,777.31c-3.23-1.47-5.07-3.52-5.07-3.52c-1.42,1.85-3.12,1.7-3.12,1.7c-0.57-4,0.85-5.85,0.85-5.85
				l4.98-2.72c0,0,2.32-0.19,5.38,2.45c0,0-0.79,1.51-3.12,1.7C1353.04,771.07,1353.64,773.8,1353.13,777.31"/>
		</g>
		<g>
			<path class="st10" d="M1312.03,767.81c3.28-1.36,6.03-1.3,6.03-1.3c-0.39-2.3,0.88-3.44,0.88-3.44c3.31,2.31,3.7,4.61,3.7,4.61
				l-1.41,5.5c0,0-1.44,1.83-5.46,2.26c0,0-0.56-1.61,0.88-3.44C1316.65,772,1314.25,770.57,1312.03,767.81"/>
		</g>
		<g>
			<path class="st10" d="M1406.1,714.74c3.28-1.36,6.03-1.3,6.03-1.3c-0.39-2.3,0.88-3.44,0.88-3.44c3.31,2.31,3.7,4.61,3.7,4.61
				l-1.41,5.5c0,0-1.44,1.83-5.46,2.26c0,0-0.56-1.61,0.88-3.44C1410.72,718.94,1408.32,717.51,1406.1,714.74"/>
		</g>
		<g>
			<path class="st10" d="M1374.74,730.42c3.28-1.36,6.03-1.3,6.03-1.3c-0.39-2.3,0.88-3.44,0.88-3.44c3.31,2.31,3.7,4.61,3.7,4.61
				l-1.41,5.5c0,0-1.44,1.83-5.46,2.26c0,0-0.56-1.61,0.88-3.44C1379.36,734.61,1376.96,733.19,1374.74,730.42"/>
		</g>
		<g>
			<path class="st10" d="M1352.25,737.95c3.14,1.66,4.85,3.82,4.85,3.82c1.52-1.76,3.21-1.51,3.21-1.51c0.33,4.03-1.2,5.79-1.2,5.79
				l-5.14,2.42c0,0-2.33,0.05-5.23-2.77c0,0,0.88-1.46,3.21-1.51C1351.96,744.19,1351.53,741.42,1352.25,737.95"/>
		</g>
		<circle class="st10" cx="1176.11" cy="862.32" r="1.81"/>
		<circle class="st10" cx="1179.73" cy="861.11" r="1.81"/>
		<circle class="st10" cx="1178.52" cy="863.53" r="1.81"/>
		<circle class="st10" cx="1177.32" cy="865.94" r="1.81"/>
		<circle class="st10" cx="1182.14" cy="863.53" r="1.81"/>
		<circle class="st10" cx="1183.35" cy="861.11" r="1.81"/>
		<circle class="st10" cx="1180.93" cy="868.35" r="1.81"/>
		<circle class="st10" cx="1180.93" cy="865.94" r="1.81"/>
		<circle class="st10" cx="1178.52" cy="868.35" r="1.81"/>
		<circle class="st10" cx="1179.73" cy="870.76" r="1.81"/>
		<circle class="st10" cx="1248.47" cy="826.14" r="1.81"/>
		<circle class="st10" cx="1252.09" cy="824.93" r="1.81"/>
		<circle class="st10" cx="1250.89" cy="827.35" r="1.81"/>
		<circle class="st10" cx="1249.68" cy="829.76" r="1.81"/>
		<circle class="st10" cx="1254.5" cy="827.35" r="1.81"/>
		<circle class="st10" cx="1255.71" cy="824.93" r="1.81"/>
		<circle class="st10" cx="1253.3" cy="832.17" r="1.81"/>
		<circle class="st10" cx="1253.3" cy="829.76" r="1.81"/>
		<circle class="st10" cx="1250.89" cy="832.17" r="1.81"/>
		<circle class="st10" cx="1252.09" cy="834.58" r="1.81"/>
		<circle class="st10" cx="1361.84" cy="751.36" r="1.81"/>
		<circle class="st10" cx="1365.46" cy="750.16" r="1.81"/>
		<circle class="st10" cx="1364.25" cy="752.57" r="1.81"/>
		<circle class="st10" cx="1363.05" cy="754.98" r="1.81"/>
		<circle class="st10" cx="1367.87" cy="752.57" r="1.81"/>
		<circle class="st10" cx="1369.08" cy="750.16" r="1.81"/>
		<circle class="st10" cx="1366.67" cy="757.39" r="1.81"/>
		<circle class="st10" cx="1366.67" cy="754.98" r="1.81"/>
		<circle class="st10" cx="1364.25" cy="757.39" r="1.81"/>
		<circle class="st10" cx="1365.46" cy="759.81" r="1.81"/>
	</g>
	<g>
		<line class="st11" x1="1385.94" y1="655.6" x2="1104.93" y2="818.41"/>
		<line class="st12" x1="1113.31" y1="813.57" x2="1113.31" y2="865.45"/>
		<line class="st12" x1="1179.65" y1="774.97" x2="1179.65" y2="826.85"/>
		<line class="st12" x1="1245.98" y1="736.38" x2="1245.98" y2="788.26"/>
		<line class="st12" x1="1312.31" y1="697.79" x2="1312.31" y2="749.67"/>
		<line class="st12" x1="1378.64" y1="659.19" x2="1378.64" y2="711.07"/>
		<path class="st13" d="M1110.96,864.24c0,0,8.44,0,8.44-7.24s-6.09-7.04-6.09-7.04"/>
		<path class="st13" d="M1112.17,835.3c0,0,7.24,0,7.24-7.24c0-7.24-6.09-7.04-6.09-7.04"/>
		<path class="st13" d="M1112.17,835.5c0,0-8.44,0-8.44,7.24s6.09,7.04,6.09,7.04"/>
		<path class="st13" d="M1112.17,820.82c0,0-8.44-4.82-3.62-9.65s8.12,0.25,9.65,4.82c1.21,3.62,18.09,4.82,10.85-10.85"/>
		<path class="st13" d="M1129.05,803.94c0,0-1.21-7.24,4.82-10.85c6.03-3.62,10.79,2.3,10.79,2.3"/>
		<path class="st13" d="M1160.41,785.85c0,0-1.21-7.24,4.82-10.85c6.03-3.62,10.79,2.3,10.79,2.3"/>
		<path class="st13" d="M1191.76,767.76c0,0-1.21-7.24,4.82-10.85c6.03-3.62,10.79,2.3,10.79,2.3"/>
		<path class="st13" d="M1223.12,749.67c0,0-1.21-7.24,4.82-10.85c6.03-3.62,10.79,2.3,10.79,2.3"/>
		<path class="st13" d="M1254.48,731.58c0,0-1.21-7.24,4.82-10.85c6.03-3.62,10.79,2.3,10.79,2.3"/>
		<path class="st13" d="M1285.84,713.49c0,0-1.21-7.24,4.82-10.85c6.03-3.62,10.79,2.3,10.79,2.3"/>
		<path class="st13" d="M1317.19,695.39c0,0-1.21-7.24,4.82-10.85c6.03-3.62,10.79,2.3,10.79,2.3"/>
		<path class="st13" d="M1348.55,677.3c0,0-1.21-7.24,4.82-10.85c6.03-3.62,10.79,2.3,10.79,2.3"/>
		<path class="st13" d="M1379.91,659.21c0,0-1.21-7.24,4.82-10.85c6.03-3.62,10.79,2.3,10.79,2.3s6.09,9.76,0.06,16.99
			c-6.03,7.24-16.33,1.31-22.91,14.47c-6.03,12.06,5.97,13.27,5.97,13.27s10.91,2.41,9.71,12.06"/>
		<path class="st13" d="M1160.19,787.02c0,0,1.27,7.22-4.72,10.9s-10.81-2.2-10.81-2.2"/>
		<path class="st13" d="M1192.75,768.93c0,0,1.27,7.22-4.72,10.9c-6,3.67-10.81-2.2-10.81-2.2"/>
		<path class="st13" d="M1225.32,750.84c0,0,1.27,7.22-4.72,10.9c-6,3.67-10.81-2.2-10.81-2.2"/>
		<path class="st13" d="M1254.26,732.74c0,0,1.27,7.22-4.72,10.9s-10.81-2.2-10.81-2.2"/>
		<path class="st13" d="M1286.82,714.65c0,0,1.27,7.22-4.72,10.9c-6,3.67-10.81-2.2-10.81-2.2"/>
		<path class="st13" d="M1316.97,697.77c0,0,1.27,7.22-4.72,10.9s-10.81-2.2-10.81-2.2"/>
		<path class="st13" d="M1348.33,678.47c0,0,1.27,7.22-4.72,10.9c-6,3.67-10.81-2.2-10.81-2.2"/>
		<path class="st13" d="M1379.69,660.38c0,0,1.27,7.22-4.72,10.9s-10.81-2.2-10.81-2.2"/>
		<g>
			<path class="st10" d="M1120.27,796.17c3.3-1.3,6.05-1.2,6.05-1.2c-0.35-2.3,0.94-3.42,0.94-3.42c3.27,2.37,3.62,4.68,3.62,4.68
				l-1.51,5.47c0,0-1.48,1.8-5.5,2.17c0,0-0.54-1.62,0.94-3.42C1124.81,800.45,1122.44,798.98,1120.27,796.17"/>
		</g>
		<g>
			<path class="st10" d="M1102.17,828.73c3.3-1.3,6.05-1.2,6.05-1.2c-0.35-2.3,0.94-3.42,0.94-3.42c3.27,2.37,3.62,4.68,3.62,4.68
				l-1.51,5.47c0,0-1.48,1.8-5.5,2.17c0,0-0.54-1.62,0.94-3.42C1106.72,833.01,1104.35,831.54,1102.17,828.73"/>
		</g>
		<g>
			<path class="st10" d="M1173.77,766.39c3.12,1.69,4.82,3.86,4.82,3.86c1.54-1.75,3.22-1.48,3.22-1.48
				c0.29,4.03-1.24,5.78-1.24,5.78l-5.16,2.38c0,0-2.33,0.03-5.2-2.81c0,0,0.89-1.45,3.22-1.48
				C1173.43,772.62,1173.02,769.86,1173.77,766.39"/>
		</g>
		<g>
			<path class="st10" d="M1207.17,770.02c-1.44-3.25-1.45-6-1.45-6c-2.29,0.44-3.46-0.8-3.46-0.8c2.24-3.37,4.52-3.81,4.52-3.81
				l5.53,1.28c0,0,1.86,1.4,2.39,5.41c0,0-1.6,0.6-3.46-0.8C1211.26,765.3,1209.89,767.73,1207.17,770.02"/>
		</g>
		<g>
			<path class="st10" d="M1238.53,753.9c-3.23-1.47-5.07-3.52-5.07-3.52c-1.42,1.85-3.12,1.7-3.12,1.7c-0.57-4,0.85-5.85,0.85-5.85
				l4.98-2.72c0,0,2.32-0.19,5.38,2.45c0,0-0.79,1.51-3.12,1.7C1238.45,747.66,1239.04,750.39,1238.53,753.9"/>
		</g>
		<g>
			<path class="st10" d="M1318.13,715.31c-3.23-1.47-5.07-3.52-5.07-3.52c-1.42,1.85-3.12,1.7-3.12,1.7c-0.57-4,0.85-5.85,0.85-5.85
				l4.98-2.72c0,0,2.32-0.19,5.38,2.45c0,0-0.79,1.51-3.12,1.7C1318.04,709.07,1318.64,711.8,1318.13,715.31"/>
		</g>
		<g>
			<path class="st10" d="M1277.03,705.81c3.28-1.36,6.03-1.3,6.03-1.3c-0.39-2.3,0.88-3.44,0.88-3.44c3.31,2.31,3.7,4.61,3.7,4.61
				l-1.41,5.5c0,0-1.44,1.83-5.46,2.26c0,0-0.56-1.61,0.88-3.44C1281.65,710,1279.25,708.57,1277.03,705.81"/>
		</g>
		<g>
			<path class="st10" d="M1371.1,652.74c3.28-1.36,6.03-1.3,6.03-1.3c-0.39-2.3,0.88-3.44,0.88-3.44c3.31,2.31,3.7,4.61,3.7,4.61
				l-1.41,5.5c0,0-1.44,1.83-5.46,2.26c0,0-0.56-1.61,0.88-3.44C1375.72,656.94,1373.32,655.51,1371.1,652.74"/>
		</g>
		<g>
			<path class="st10" d="M1339.74,668.42c3.28-1.36,6.03-1.3,6.03-1.3c-0.39-2.3,0.88-3.44,0.88-3.44c3.31,2.31,3.7,4.61,3.7,4.61
				l-1.41,5.5c0,0-1.44,1.83-5.46,2.26c0,0-0.56-1.61,0.88-3.44C1344.36,672.61,1341.96,671.19,1339.74,668.42"/>
		</g>
		<g>
			<path class="st10" d="M1317.25,675.95c3.14,1.66,4.85,3.82,4.85,3.82c1.52-1.76,3.21-1.51,3.21-1.51c0.33,4.03-1.2,5.79-1.2,5.79
				l-5.14,2.42c0,0-2.33,0.05-5.23-2.77c0,0,0.88-1.46,3.21-1.51C1316.96,682.19,1316.53,679.42,1317.25,675.95"/>
		</g>
		<circle class="st10" cx="1141.11" cy="800.32" r="1.81"/>
		<circle class="st10" cx="1144.73" cy="799.11" r="1.81"/>
		<circle class="st10" cx="1143.52" cy="801.53" r="1.81"/>
		<circle class="st10" cx="1142.32" cy="803.94" r="1.81"/>
		<circle class="st10" cx="1147.14" cy="801.53" r="1.81"/>
		<circle class="st10" cx="1148.35" cy="799.11" r="1.81"/>
		<circle class="st10" cx="1145.93" cy="806.35" r="1.81"/>
		<circle class="st10" cx="1145.93" cy="803.94" r="1.81"/>
		<circle class="st10" cx="1143.52" cy="806.35" r="1.81"/>
		<circle class="st10" cx="1144.73" cy="808.76" r="1.81"/>
		<circle class="st10" cx="1213.47" cy="764.14" r="1.81"/>
		<circle class="st10" cx="1217.09" cy="762.93" r="1.81"/>
		<circle class="st10" cx="1215.89" cy="765.35" r="1.81"/>
		<circle class="st10" cx="1214.68" cy="767.76" r="1.81"/>
		<circle class="st10" cx="1219.5" cy="765.35" r="1.81"/>
		<circle class="st10" cx="1220.71" cy="762.93" r="1.81"/>
		<circle class="st10" cx="1218.3" cy="770.17" r="1.81"/>
		<circle class="st10" cx="1218.3" cy="767.76" r="1.81"/>
		<circle class="st10" cx="1215.89" cy="770.17" r="1.81"/>
		<circle class="st10" cx="1217.09" cy="772.58" r="1.81"/>
		<circle class="st10" cx="1326.84" cy="689.36" r="1.81"/>
		<circle class="st10" cx="1330.46" cy="688.16" r="1.81"/>
		<circle class="st10" cx="1329.25" cy="690.57" r="1.81"/>
		<circle class="st10" cx="1328.05" cy="692.98" r="1.81"/>
		<circle class="st10" cx="1332.87" cy="690.57" r="1.81"/>
		<circle class="st10" cx="1334.08" cy="688.16" r="1.81"/>
		<circle class="st10" cx="1331.67" cy="695.39" r="1.81"/>
		<circle class="st10" cx="1331.67" cy="692.98" r="1.81"/>
		<circle class="st10" cx="1329.25" cy="695.39" r="1.81"/>
		<circle class="st10" cx="1330.46" cy="697.81" r="1.81"/>
	</g>
	<polyline class="st8" points="1479.75,732.8 1545.25,770.3 1545.25,904.3 1433.75,968.8 1199.75,968.8 1094.75,907.8 
		1094.75,808.8 1296.25,693.3 1411.25,693.3 1453.75,717.8 	"/>
</g>
</svg>
