<?xml version="1.0" encoding="utf-8"?>
<!-- Generator: Adobe Illustrator 26.0.3, SVG Export Plug-In . SVG Version: 6.00 Build 0)  -->
<svg version="1.1" id="Layer_1" xmlns="http://www.w3.org/2000/svg" xmlns:xlink="http://www.w3.org/1999/xlink" x="0px" y="0px"
	 viewBox="0 0 1280.72 2103.9" style="enable-background:new 0 0 1280.72 2103.9;" xml:space="preserve">
<style type="text/css">
	.st0{fill:#2C2E2F;}
	.st1{fill:#D48A35;}
	.st2{fill:none;stroke:#D48A35;stroke-miterlimit:10;}
	.st3{fill:#D48A35;stroke:#D48A35;stroke-miterlimit:10;}
	.st4{fill:#FFFFFF;stroke:#D48A35;stroke-miterlimit:10;}
	.st5{fill:#2B2E2E;stroke:#FFFFFF;stroke-miterlimit:10;}
	.st6{fill:none;stroke:#FFFFFF;stroke-miterlimit:10;}
	.st7{fill:none;stroke:#C98340;stroke-width:3;stroke-miterlimit:10;}
	.st8{fill:none;stroke:#FFFFFF;stroke-width:4;stroke-miterlimit:10;}
	.st9{fill:#FFFFFF;}
	.st10{fill:none;stroke:#FFFFFF;stroke-width:3;stroke-linecap:round;stroke-miterlimit:10;}
	.st11{fill:none;stroke:#FFFFFF;stroke-width:3;stroke-miterlimit:10;}
	.st12{fill:none;stroke:#FFFFFF;stroke-linecap:round;stroke-miterlimit:10;}
</style>
<rect class="st0" width="1280" height="2103.9"/>
<g>
	<g>
		<path class="st1" d="M173.29,2008.61c-5.4,0-10.45-1.07-15.15-3.21c-4.7-2.14-8.8-5.08-12.3-8.82c-3.5-3.74-6.23-8.04-8.17-12.93
			c-1.95-4.88-2.93-10.11-2.93-15.69c0-7.47,1.65-14.2,4.95-20.17s7.85-10.76,13.65-14.35c5.8-3.59,12.4-5.38,19.8-5.38
			c7.1,0,13.35,1.63,18.75,4.88c5.4,3.25,9.45,7.68,12.15,13.27l-7.35,2.4c-2.3-4.3-5.58-7.67-9.83-10.12
			c-4.25-2.45-8.92-3.67-14.02-3.67c-5.7,0-10.85,1.44-15.45,4.33c-4.6,2.89-8.28,6.84-11.03,11.87
			c-2.75,5.03-4.12,10.68-4.12,16.95c0,6.17,1.4,11.85,4.2,17.02c2.8,5.18,6.52,9.28,11.17,12.32c4.65,3.04,9.77,4.55,15.38,4.55
			c3.6,0,7.12-0.67,10.58-2.03c3.45-1.35,6.45-3.12,9-5.32c2.55-2.2,4.22-4.55,5.02-7.05l7.35,2.1c-1.3,3.7-3.55,6.97-6.75,9.83
			c-3.2,2.85-6.93,5.1-11.17,6.75C182.76,2007.78,178.19,2008.61,173.29,2008.61z"/>
		<path class="st1" d="M331.68,2008.61c-5.5,0-10.57-1.05-15.23-3.14c-4.65-2.09-8.68-5.01-12.07-8.74
			c-3.4-3.74-6.05-8.02-7.95-12.85c-1.9-4.83-2.85-9.94-2.85-15.32c0-5.58,0.95-10.78,2.85-15.62c1.9-4.83,4.58-9.12,8.02-12.85
			c3.45-3.74,7.5-6.67,12.15-8.82c4.65-2.14,9.67-3.21,15.07-3.21s10.4,1.07,15,3.21c4.6,2.14,8.65,5.08,12.15,8.82
			c3.5,3.74,6.2,8.02,8.1,12.85c1.9,4.83,2.85,10.04,2.85,15.62c0,5.38-0.95,10.49-2.85,15.32c-1.9,4.83-4.57,9.12-8.02,12.85
			c-3.45,3.74-7.5,6.65-12.15,8.74C342.11,2007.56,337.08,2008.61,331.68,2008.61z M301.08,1968.56c0,6.17,1.37,11.77,4.12,16.8
			c2.75,5.03,6.42,9.04,11.03,12.02c4.6,2.99,9.7,4.48,15.3,4.48c5.6,0,10.73-1.52,15.38-4.55c4.65-3.04,8.35-7.12,11.1-12.25
			c2.75-5.13,4.12-10.73,4.12-16.8c0-6.07-1.38-11.65-4.12-16.72c-2.75-5.08-6.43-9.13-11.02-12.17c-4.6-3.04-9.7-4.56-15.3-4.56
			c-5.6,0-10.73,1.54-15.38,4.63c-4.65,3.09-8.35,7.17-11.1,12.25C302.46,1956.76,301.08,1962.38,301.08,1968.56z"/>
		<path class="st1" d="M528.63,2007.11h-7.5v-43.32c0-9.96-1.43-17.25-4.28-21.88c-2.85-4.63-7.38-6.95-13.57-6.95
			c-4.4,0-8.73,1.05-12.98,3.14c-4.25,2.09-7.95,4.95-11.1,8.58s-5.43,7.74-6.82,12.31v48.12h-7.5v-77.85h7.05v18.67
			c2.1-3.98,4.9-7.45,8.4-10.39c3.5-2.94,7.4-5.25,11.7-6.95c4.3-1.69,8.75-2.54,13.35-2.54c4.3,0,7.92,0.77,10.88,2.32
			c2.95,1.54,5.35,3.76,7.2,6.65c1.85,2.89,3.17,6.48,3.98,10.76c0.8,4.28,1.2,9.17,1.2,14.64V2007.11z"/>
		<path class="st1" d="M692.13,2007.11h-7.5v-43.32c0-9.96-1.42-17.25-4.28-21.88c-2.85-4.63-7.38-6.95-13.58-6.95
			c-4.4,0-8.73,1.05-12.97,3.14c-4.25,2.09-7.95,4.95-11.1,8.58c-3.15,3.63-5.43,7.74-6.83,12.31v48.12h-7.5v-77.85h7.05v18.67
			c2.1-3.98,4.9-7.45,8.4-10.39c3.5-2.94,7.4-5.25,11.7-6.95c4.3-1.69,8.75-2.54,13.35-2.54c4.3,0,7.92,0.77,10.88,2.32
			c2.95,1.54,5.35,3.76,7.2,6.65c1.85,2.89,3.17,6.48,3.97,10.76c0.8,4.28,1.2,9.17,1.2,14.64V2007.11z"/>
		<path class="st1" d="M825.02,2008.61c-5.5,0-10.6-1.07-15.3-3.21c-4.7-2.14-8.77-5.08-12.22-8.82c-3.45-3.74-6.15-8.07-8.1-13
			c-1.95-4.93-2.92-10.14-2.92-15.62c0-7.37,1.65-14.05,4.95-20.02s7.85-10.78,13.65-14.42c5.8-3.64,12.3-5.46,19.5-5.46
			c7.4,0,13.95,1.84,19.65,5.53c5.7,3.69,10.22,8.55,13.58,14.58c3.35,6.03,5.03,12.63,5.03,19.8c0,0.6,0,1.2,0,1.8
			s-0.05,1.09-0.15,1.49h-68.4c0.4,5.87,2.05,11.2,4.95,15.97c2.9,4.78,6.62,8.53,11.17,11.27c4.55,2.74,9.53,4.1,14.93,4.1
			c5.4,0,10.5-1.4,15.3-4.2c4.8-2.8,8.15-6.4,10.05-10.8l6.6,1.8c-1.5,3.7-3.88,7-7.12,9.9c-3.25,2.9-7.05,5.17-11.4,6.83
			C834.4,2007.78,829.82,2008.61,825.02,2008.61z M793.97,1965.41h61.65c-0.4-6.07-2-11.44-4.8-16.12
			c-2.8-4.68-6.48-8.36-11.03-11.05c-4.55-2.69-9.58-4.03-15.08-4.03c-5.5,0-10.5,1.35-15,4.03c-4.5,2.69-8.15,6.37-10.95,11.05
			C795.97,1953.96,794.37,1959.34,793.97,1965.41z"/>
		<path class="st1" d="M989.57,2008.61c-5.4,0-10.45-1.07-15.15-3.21c-4.7-2.14-8.8-5.08-12.3-8.82c-3.5-3.74-6.23-8.04-8.18-12.93
			c-1.95-4.88-2.92-10.11-2.92-15.69c0-7.47,1.65-14.2,4.95-20.17s7.85-10.76,13.65-14.35c5.8-3.59,12.4-5.38,19.8-5.38
			c7.1,0,13.35,1.63,18.75,4.88c5.4,3.25,9.45,7.68,12.15,13.27l-7.35,2.4c-2.3-4.3-5.58-7.67-9.83-10.12
			c-4.25-2.45-8.92-3.67-14.02-3.67c-5.7,0-10.85,1.44-15.45,4.33c-4.6,2.89-8.28,6.84-11.03,11.87
			c-2.75,5.03-4.12,10.68-4.12,16.95c0,6.17,1.4,11.85,4.2,17.02c2.8,5.18,6.53,9.28,11.17,12.32c4.65,3.04,9.77,4.55,15.38,4.55
			c3.6,0,7.12-0.67,10.58-2.03c3.45-1.35,6.45-3.12,9-5.32c2.55-2.2,4.22-4.55,5.03-7.05l7.35,2.1c-1.3,3.7-3.55,6.97-6.75,9.83
			c-3.2,2.85-6.93,5.1-11.17,6.75C999.04,2007.78,994.46,2008.61,989.57,2008.61z"/>
		<path class="st1" d="M1150.06,2003.96c-0.5,0.2-1.5,0.7-3,1.5c-1.5,0.8-3.4,1.53-5.7,2.18c-2.3,0.65-4.85,0.97-7.65,0.97
			c-2.7,0-5.23-0.53-7.58-1.58c-2.35-1.05-4.23-2.64-5.62-4.75c-1.4-2.11-2.1-4.68-2.1-7.7v-59.16h-10.95v-6.15h10.95v-26.7h7.5
			v26.7h18.15v6.15h-18.15v57.39c0.2,2.92,1.25,5.11,3.15,6.57c1.9,1.46,4.1,2.19,6.6,2.19c3.1,0,5.8-0.53,8.1-1.58
			c2.3-1.05,3.65-1.72,4.05-2.03L1150.06,2003.96z"/>
	</g>
</g>
<g id="Casa_contadino">
	<polygon class="st2" points="670.92,1038.32 756.92,988.32 756.92,885.32 670.92,895.32 	"/>
	<polyline class="st2" points="741.73,997.38 741.83,963.32 724.92,973.07 724.81,1007.41 	"/>
	<polyline class="st2" points="670.92,1038.32 636.92,1018.32 636.92,945.32 585.92,917.32 585.92,848.32 670.92,895.32 	"/>
	<polyline class="st2" points="741.92,997.32 737.06,994.57 737.2,965.99 	"/>
	<line class="st2" x1="736.92" y1="994.32" x2="724.81" y2="1001.07"/>
	<polyline class="st2" points="630.73,1022.38 630.83,982.32 590.92,1006.07 590.81,1045.41 	"/>
	<polyline class="st2" points="630.92,1022.32 626.06,1019.57 626.2,984.99 	"/>
	<line class="st2" x1="625.92" y1="1019.32" x2="590.92" y2="1040.32"/>
	<line class="st2" x1="625.92" y1="1016.32" x2="590.92" y2="1037.32"/>
	<line class="st2" x1="625.92" y1="1013.32" x2="590.92" y2="1034.32"/>
	<line class="st2" x1="625.92" y1="1010.32" x2="590.92" y2="1031.32"/>
	<line class="st2" x1="625.92" y1="1007.32" x2="590.92" y2="1028.32"/>
	<line class="st2" x1="625.92" y1="1004.32" x2="590.92" y2="1025.32"/>
	<line class="st2" x1="625.92" y1="1001.32" x2="590.92" y2="1022.32"/>
	<line class="st2" x1="625.92" y1="998.32" x2="590.92" y2="1019.32"/>
	<line class="st2" x1="625.92" y1="995.32" x2="590.92" y2="1016.32"/>
	<line class="st2" x1="625.92" y1="992.32" x2="590.92" y2="1013.32"/>
	<line class="st2" x1="625.92" y1="989.32" x2="590.92" y2="1010.32"/>
	<line class="st2" x1="625.92" y1="986.32" x2="590.92" y2="1007.32"/>
	<polygon class="st2" points="714.23,952.83 741.23,936.98 740.92,908.8 713.92,924.66 	"/>
	<polyline class="st2" points="741.17,936.9 736.92,934.32 736.92,911.2 	"/>
	<polyline class="st2" points="694.17,963.52 689.92,960.93 689.92,934.82 	"/>
	<line class="st2" x1="736.92" y1="934.32" x2="714.17" y2="947.44"/>
	<line class="st2" x1="689.92" y1="961.32" x2="682.92" y2="965.32"/>
	<polygon class="st3" points="710.97,926.07 743.82,907.18 743.77,902.57 710.92,921.45 	"/>
	<polygon class="st3" points="678.97,943.07 697.82,932.18 697.77,927.57 678.92,938.45 	"/>
	<line class="st4" x1="724.76" y1="941.33" x2="724.76" y2="918.23"/>
	<polyline class="st2" points="636.92,1018.32 582.42,1050.82 582.42,990.82 636.42,945.82 636.92,1015.9 	"/>
	<polyline class="st2" points="582.92,991.32 535.92,964.32 535.92,1025.32 581.92,1051.32 	"/>
	<polyline class="st2" points="756.92,885.32 671.92,838.32 585.92,848.32 	"/>
	<line class="st2" x1="585.92" y1="917.32" x2="535.92" y2="964.32"/>
	<polygon class="st2" points="682.65,970.4 693.94,963.96 694.2,934.24 682.9,940.67 	"/>
	<polyline class="st2" points="626.57,924.52 630.82,921.93 630.82,895.82 	"/>
	<line class="st2" x1="630.82" y1="922.32" x2="637.82" y2="926.32"/>
	<polygon class="st3" points="641.77,904.07 622.92,893.18 622.97,888.57 641.82,899.45 	"/>
	<polygon class="st2" points="638.09,931.4 626.8,924.96 626.54,895.24 637.84,901.67 	"/>
	<polyline class="st2" points="599.57,909.52 603.82,906.93 603.82,880.82 	"/>
	<line class="st2" x1="603.82" y1="907.32" x2="610.82" y2="911.32"/>
	<polygon class="st3" points="614.77,889.07 595.92,878.18 595.97,873.57 614.82,884.45 	"/>
	<polygon class="st2" points="611.09,916.4 599.8,909.96 599.54,880.24 610.84,886.67 	"/>
	<polygon class="st2" points="678.42,865.67 666.63,872.45 655.42,865.96 667.22,859.18 	"/>
	<polygon class="st1" points="673.85,865.73 666.74,869.82 659.99,865.91 667.1,861.82 	"/>
	<line class="st2" x1="678.92" y1="865.82" x2="678.92" y2="884.82"/>
	<polyline class="st2" points="654.92,865.82 654.92,879.82 654.92,879.32 666.63,885.45 678.92,884.32 	"/>
	<path class="st2" d="M774.92,957.32v26c0,0-2,2-4,1v-25"/>
	<path class="st2" d="M772.92,884.32c0,0,2,2,2,6s0,3,1,6s2,5,2,9s1,2,2,7s0,9,1,12s2,5,3,9s1,7-1,10c-2.77,4.16-3,8-5,10s-4,6-5,6
		s-5,0-6-2s-2-5-2-7s-1-1-1-3s-2-5-3-8s1-6,1-8s-1-5-1-8s-1-7,1-12s3-8,3-10s0-2,1-5s3-4,4-6S769.92,882.32,772.92,884.32z"/>
	<path class="st2" d="M764.92,916.32c0,0-2,4,0,8s3,8,1,11"/>
	<path class="st2" d="M778.92,927.32c0,0-1,3,1,6"/>
	<path class="st2" d="M770.92,893.32c0,0-2,2-1,6s0,7-3,9"/>
</g>
<g id="Granaio">
	<polyline class="st5" points="871,388.38 1051,284.38 1051,427.38 871,531.38 871.01,388.37 	"/>
	<polygon class="st5" points="769,472.38 871,531.38 871,387.38 860.01,306.37 816,239.38 789,270.38 769,330.38 	"/>
	<polyline class="st6" points="805.19,342.44 805.1,308.38 822,318.13 822.11,352.47 	"/>
	<line class="st6" x1="805.1" y1="342.38" x2="822" y2="352.13"/>
	<polyline class="st6" points="805,342.38 809.86,339.63 809.72,311.05 	"/>
	<line class="st6" x1="810" y1="339.38" x2="822.11" y2="346.13"/>
	<polyline class="st6" points="789.19,484.44 789.1,416.49 845,449.24 845,516.88 	"/>
	<path class="st6" d="M806.17,493.71"/>
	<path class="st6" d="M789.26,483.96"/>
	<polyline class="st6" points="789,484.38 793.86,481.63 794,419.88 	"/>
	<line class="st6" x1="794" y1="481.38" x2="845" y2="510.38"/>
	<line class="st6" x1="796.19" y1="420.65" x2="845" y2="507.88"/>
	<line class="st6" x1="794" y1="481.38" x2="838" y2="445.38"/>
	<polyline class="st6" points="994.81,459.44 994.9,391.49 939,424.24 939,491.88 	"/>
	<polyline class="st6" points="995,459.38 990.14,456.63 990,394.88 	"/>
	<line class="st6" x1="990" y1="456.38" x2="939" y2="485.38"/>
	<line class="st6" x1="987.81" y1="395.65" x2="939" y2="482.88"/>
	<line class="st6" x1="990" y1="456.38" x2="946" y2="420.38"/>
	<polyline class="st5" points="860.01,306.37 816,239.38 985.01,138.37 1036.01,201.37 1054.01,282.37 871.01,388.37 860.01,306.37 
		1036.01,201.37 	"/>
	<path class="st6" d="M1054.01,282.37"/>
	<polyline class="st6" points="1113.88,264.31 1083,246.38 1046,246.38 	"/>
	<polyline class="st6" points="769,339.38 744,353.38 744,495.38 852,557.38 1007,557.38 1176,459.38 1176,300.38 1141.24,280.2 	
		"/>
	<g>
		<path class="st6" d="M1088,315.38c-0.75-0.37-1.19,0.05-1.87,0.55c-0.66,0.49-1.56,1.31-2.13,2.45c0,0-2,1-2,4c0,0-2,2-1,5
			c0,0-1,1-1,4c0,0-2,2,0,5c0,0-1,2,1,4c0,0,3,3,5,6l8-6c0,0,1-2,0-4c0,0,1-2,0-5c0,0,0-3-1-4c0,0,0-3-1-5c0,0-1-3-2-4
			C1090,318.38,1089.54,316.15,1088,315.38z"/>
		<path class="st6" d="M1080.02,338.96l-4.02-1.57l-4,1c0,0-8,9-9,11v3l2-3l8-3l5,1c0,0,4,10,6,12v2"/>
		<path class="st6" d="M1084,357.38v-8l2-3l8-6l7-2h3c0,0,3,2,4,5l-5-2l-3,1l-3,9c0,0-1,4-1,5s-2,3-2,3l-1,1l-5,1v4"/>
		<path class="st6" d="M1086,378.38v-8l3-6c0,0,6-6,9-6s5,0,5,0l4,2l1,4l-3-2h-4l-3,4v7l-2,4l-3,4l-5,4v27h-3l-2-2l1-28l-4-7l-2-4
			l-3-7l-5-3h-3l-5,3l2-3l4-5c0,0,3-1,4-1s4,0,4,0l4,2c0,0,5,4,6,8"/>
		<path class="st6" d="M1087,383.38l3-5l2-6l1-5c0,0,3-2,3-3s2-3,2-3"/>
		<polyline class="st6" points="1072,359.38 1078,364.38 1081,368.38 1086,377.63 		"/>
		<polyline class="st6" points="1087,359.38 1092,357.38 1093,355.38 1094,351.38 1095,348.38 1096,344.38 1100,341.38 		"/>
		<path class="st6" d="M1082,333.38c0,0-1,1,0,4"/>
		<path class="st6" d="M1092,330.38c0,0,1,4-1,6"/>
		<path class="st6" d="M1085,323.38c0,0-2,1-1,5"/>
		<path class="st6" d="M1088,321.38c0,0,2,0,2,3"/>
		<path class="st6" d="M1085,336.38c0,0-1,2,0,4"/>
		<g>
			<g>
				<g>
					<g>
						<path class="st7" d="M1120.51,340.28l-3.73-0.34c-12.57-1.14-17.44-4.92-21.61-16.9l-0.95-2.72"/>
						<path class="st7" d="M1108.12,356.59l-3.73-0.34c-12.57-1.14-17.44-4.92-21.61-16.9l-0.95-2.72"/>
						<path class="st7" d="M1095.73,372.91l-3.73-0.34c-12.57-1.14-17.44-4.93-21.61-16.9l-0.95-2.72"/>
						<path class="st7" d="M1083.34,389.22l-3.73-0.34c-12.57-1.14-17.44-4.92-21.61-16.9l-0.95-2.72"/>
					</g>
					<g>
						<path class="st7" d="M1072.18,403.92l-3.73-0.34c-12.57-1.14-17.44-4.92-21.61-16.9l-0.95-2.72"/>
						<path class="st7" d="M1059.79,420.23l-3.73-0.34c-12.57-1.14-17.44-4.92-21.61-16.9l-0.95-2.72"/>
						<path class="st7" d="M1047.4,436.55l-3.73-0.34c-12.57-1.14-17.44-4.93-21.61-16.9l-0.95-2.72"/>
						<path class="st7" d="M1035.01,452.86l-3.73-0.34c-12.57-1.14-17.44-4.93-21.61-16.9l-0.95-2.72"/>
					</g>
					<g>
						<path class="st7" d="M1023.85,467.56l-3.73-0.34c-12.57-1.14-17.44-4.92-21.61-16.9l-0.95-2.72"/>
						<path class="st7" d="M1011.46,483.87l-3.73-0.34c-12.57-1.14-17.44-4.92-21.61-16.9l-0.95-2.72"/>
						<path class="st7" d="M999.06,500.19l-3.73-0.34c-12.57-1.14-17.44-4.93-21.61-16.9l-0.95-2.72"/>
						<path class="st7" d="M986.67,516.5l-3.73-0.34c-12.57-1.14-17.44-4.93-21.61-16.9l-0.95-2.72"/>
					</g>
					<g>
						<path class="st7" d="M975.51,531.2l-3.73-0.34c-12.57-1.14-17.44-4.92-21.61-16.9l-0.95-2.72"/>
						<path class="st7" d="M963.12,547.51l-3.73-0.34c-12.57-1.14-17.44-4.92-21.61-16.9l-0.95-2.72"/>
						<path class="st7" d="M950.73,563.83l-3.73-0.34c-12.57-1.14-17.44-4.93-21.61-16.9l-0.95-2.72"/>
						<path class="st7" d="M938.34,580.14l-3.73-0.34c-12.57-1.14-17.44-4.93-21.61-16.9l-0.95-2.72"/>
					</g>
					<g>
						<path class="st7" d="M927.18,594.84l-3.73-0.34c-12.57-1.14-17.44-4.92-21.61-16.9l-0.95-2.72"/>
						<path class="st7" d="M914.79,611.15l-3.73-0.34c-12.57-1.14-17.44-4.92-21.61-16.9l-0.95-2.72"/>
						<path class="st7" d="M902.4,627.47l-3.73-0.34c-12.57-1.14-17.44-4.92-21.61-16.9l-0.95-2.72"/>
						<path class="st7" d="M890.01,643.78l-3.73-0.34c-12.57-1.14-17.44-4.93-21.61-16.9l-0.95-2.72"/>
					</g>
					<g>
						<path class="st7" d="M878.85,658.48l-3.73-0.34c-12.57-1.14-17.44-4.92-21.61-16.9l-0.95-2.72"/>
						<path class="st7" d="M866.46,674.79l-3.73-0.34c-12.57-1.14-17.44-4.92-21.61-16.9l-0.95-2.72"/>
						<path class="st7" d="M854.07,691.11l-3.73-0.34c-12.57-1.14-17.44-4.93-21.61-16.9l-0.95-2.72"/>
						<path class="st7" d="M841.68,707.42l-3.73-0.34c-12.57-1.14-17.44-4.93-21.61-16.9l-0.95-2.72"/>
					</g>
					<g>
						<path class="st7" d="M830.52,722.12l-3.73-0.34c-12.57-1.14-17.44-4.92-21.61-16.9l-0.95-2.72"/>
						<path class="st7" d="M818.13,738.43l-3.73-0.34c-12.57-1.14-17.44-4.92-21.61-16.9l-0.95-2.72"/>
						<path class="st7" d="M805.74,754.75l-3.73-0.34c-12.57-1.14-17.44-4.93-21.61-16.9l-0.95-2.72"/>
						<path class="st7" d="M793.35,771.06l-3.73-0.34c-12.57-1.14-17.44-4.92-21.61-16.9l-0.95-2.72"/>
					</g>
					<g>
						<path class="st7" d="M782.19,785.76l-3.73-0.34c-12.57-1.14-17.44-4.92-21.61-16.9l-0.95-2.72"/>
						<path class="st7" d="M769.8,802.07l-3.73-0.34c-12.57-1.14-17.44-4.92-21.61-16.9l-0.95-2.72"/>
						<path class="st7" d="M757.41,818.39l-3.73-0.34c-12.57-1.14-17.44-4.93-21.61-16.9l-0.95-2.72"/>
						<path class="st7" d="M745.02,834.7l-3.73-0.34c-12.57-1.14-17.44-4.92-21.61-16.9l-0.95-2.72"/>
					</g>
				</g>
			</g>
		</g>
	</g>
	<g>
		<path class="st6" d="M1117,380.38c-0.75-0.37-1.19,0.05-1.87,0.55c-0.66,0.49-1.56,1.31-2.13,2.45c0,0-2,1-2,4c0,0-2,2-1,5
			c0,0-1,1-1,4c0,0-2,2,0,5c0,0-1,2,1,4c0,0,3,3,5,6l8-6c0,0,1-2,0-4c0,0,1-2,0-5c0,0,0-3-1-4c0,0,0-3-1-5c0,0-1-3-2-4
			C1119,383.38,1118.54,381.15,1117,380.38z"/>
		<path class="st5" d="M1025,445.38c-0.75-0.37-1.19,0.05-1.87,0.55c-0.66,0.49-1.56,1.31-2.13,2.45c0,0-2,1-2,4c0,0-2,2-1,5
			c0,0-1,1-1,4c0,0-2,2,0,5c0,0-1,2,1,4c0,0,3,3,5,6l8-6c0,0,1-2,0-4c0,0,1-2,0-5c0,0,0-3-1-4c0,0,0-3-1-5c0,0-1-3-2-4
			C1027,448.38,1026.54,446.15,1025,445.38z"/>
		<path class="st6" d="M1109.02,403.96l-4.02-1.57l-4,1c0,0-8,9-9,11v3l2-3l8-3l5,1c0,0,4,10,6,12v2"/>
		<path class="st6" d="M1113,422.38v-8l2-3l8-6l7-2h3c0,0,3,2,4,5l-5-2l-3,1l-3,9c0,0-1,4-1,5s-2,3-2,3l-1,1l-5,1v4"/>
		<path class="st6" d="M1115,443.38v-8l3-6c0,0,6-6,9-6s5,0,5,0l4,2l1,4l-3-2h-4l-3,4v7l-2,4l-3,4l-5,4v27h-3l-2-2l1-28l-4-7l-2-4
			l-3-7l-5-3h-3l-5,3l2-3l4-5c0,0,3-1,4-1s4,0,4,0l4,2c0,0,5,4,6,8"/>
		<path class="st6" d="M1116,448.38l3-5l2-6l1-5c0,0,3-2,3-3s2-3,2-3"/>
		<polyline class="st6" points="1101,424.38 1107,429.38 1110,433.38 1115,442.63 		"/>
		<polyline class="st6" points="1116,424.38 1121,422.38 1122,420.38 1123,416.38 1124,413.38 1125,409.38 1129,406.38 		"/>
		<path class="st6" d="M1111,398.38c0,0-1,1,0,4"/>
		<path class="st6" d="M1121,395.38c0,0,1,4-1,6"/>
		<path class="st6" d="M1114,388.38c0,0-2,1-1,5"/>
		<path class="st6" d="M1117,386.38c0,0,2,0,2,3"/>
		<path class="st6" d="M1114,401.38c0,0-1,2,0,4"/>
		<g>
			<path class="st6" d="M1021,487.38v-8l2-3l8-6l7-2h3c0,0,3,2,4,5l-5-2l-3,1l-3,9c0,0-1,4-1,5s-2,3-2,3l-1,1l-5,1v4"/>
			<path class="st6" d="M1023,508.38v-8l3-6c0,0,6-6,9-6s5,0,5,0l4,2l1,4l-3-2h-4l-3,4v7l-2,4l-3,4l-5,4v27h-3l-2-2l1-28l-4-7l-2-4
				l-3-7l-5-3h-3l-5,3l2-3l4-5c0,0,3-1,4-1s4,0,4,0l4,2c0,0,5,4,6,8"/>
			<path class="st6" d="M1024,513.38l3-5l2-6l1-5c0,0,3-2,3-3s2-3,2-3"/>
			<polyline class="st6" points="1009,489.38 1015,494.38 1018,498.38 1023,507.63 			"/>
			<polyline class="st6" points="1024,489.38 1029,487.38 1030,485.38 1031,481.38 1032,478.38 1033,474.38 1037,471.38 			"/>
			<path class="st6" d="M1017.02,468.96l-4.02-1.57l-4,1c0,0-8,9-9,11v3l2-3l8-3l5,1c0,0,4,10,6,12v2"/>
			<path class="st6" d="M1019,463.38c0,0-1,1,0,4"/>
			<path class="st6" d="M1029,460.38c0,0,1,4-1,6"/>
			<path class="st6" d="M1022,453.38c0,0-2,1-1,5"/>
			<path class="st6" d="M1025,451.38c0,0,2,0,2,3"/>
			<path class="st6" d="M1022,466.38c0,0-1,2,0,4"/>
		</g>
	</g>
	<g>
		<path class="st6" d="M1153,313.38c-0.75-0.37-1.19,0.05-1.87,0.55c-0.66,0.49-1.56,1.31-2.13,2.45c0,0-2,1-2,4c0,0-2,2-1,5
			c0,0-1,1-1,4c0,0-2,2,0,5c0,0-1,2,1,4c0,0,3,3,5,6l8-6c0,0,1-2,0-4c0,0,1-2,0-5c0,0,0-3-1-4c0,0,0-3-1-5c0,0-1-3-2-4
			C1155,316.38,1154.54,314.15,1153,313.38z"/>
		<path class="st6" d="M1145.02,336.96l-4.02-1.57l-4,1c0,0-8,9-9,11v3l2-3l8-3l5,1c0,0,4,10,6,12v2"/>
		<path class="st6" d="M1149,355.38v-8l2-3l8-6l7-2h3c0,0,3,2,4,5l-5-2l-3,1l-3,9c0,0-1,4-1,5s-2,3-2,3l-1,1l-5,1v4"/>
		<path class="st6" d="M1151,376.38v-8l3-6c0,0,6-6,9-6s5,0,5,0l4,2l1,4l-3-2h-4l-3,4v7l-2,4l-3,4l-5,4v27h-3l-2-2l1-28l-4-7l-2-4
			l-3-7l-5-3h-3l-5,3l2-3l4-5c0,0,3-1,4-1s4,0,4,0l4,2c0,0,5,4,6,8"/>
		<path class="st6" d="M1152,381.38l3-5l2-6l1-5c0,0,3-2,3-3s2-3,2-3"/>
		<polyline class="st6" points="1137,357.38 1143,362.38 1146,366.38 1151,375.63 		"/>
		<polyline class="st6" points="1152,357.38 1157,355.38 1158,353.38 1159,349.38 1160,346.38 1161,342.38 1165,339.38 		"/>
		<path class="st6" d="M1147,331.38c0,0-1,1,0,4"/>
		<path class="st6" d="M1157,328.38c0,0,1,4-1,6"/>
		<path class="st6" d="M1150,321.38c0,0-2,1-1,5"/>
		<path class="st6" d="M1153,319.38c0,0,2,0,2,3"/>
		<path class="st6" d="M1150,334.38c0,0-1,2,0,4"/>
	</g>
	<polygon class="st2" points="1108.19,244.64 1127.26,255.88 1146.81,244.64 1127.26,233.88 	"/>
	<polygon class="st1" points="1114.5,244.72 1127.34,252.29 1140.5,244.72 1127.34,237.48 	"/>
	<polyline class="st2" points="1147,244.38 1146.81,253.64 1127.26,264.88 1108.19,253.64 1108,244.38 	"/>
	<path class="st2" d="M1140.5,257.36v34.52c0,0-1,9-13,9s-13-9-13-9v-34.52"/>
	<path class="st2" d="M1119.01,298.69v11.7l1.99,3l5,2c0,0,2,0,3,0s5-2,5-2l2-2v-13"/>
	<path class="st2" d="M1139,314.38c0,0-3.59-1.24-5,3c-1,3-1,5-5,5"/>
	<path class="st2" d="M1111,306.38c0,0,4,1,5,6s7,5,7,5"/>
	<path class="st2" d="M1139,305.38c0,0,1,5-3,6"/>
</g>
<g id="Silos">
	<line class="st6" x1="179" y1="1249.37" x2="185" y2="1384.37"/>
	<path class="st6" d="M120.13,1479.3c-31.37-1.13-57.13-16.82-57.13-32.92l6-195"/>
	<path class="st6" d="M121,1402.37c1.44,0.05,2.03,0,3.5,0c26.83,0,49.58-8.8,57.5-20.99l34,28.99l-46,27L121,1402.37"/>
	<polyline class="st6" points="121,1402.37 119.25,1479.37 159,1503.37 216,1469.37 208.7,1414.66 	"/>
	<line class="st6" x1="159" y1="1503.37" x2="157.38" y2="1428.44"/>
	<path class="st6" d="M179,1251.37c0,12.7-24.62,23-55,23s-55-10.3-55-23c0,0,3-60,55-60S179,1251.37,179,1251.37z"/>
	<polyline class="st6" points="129.19,1485.44 129.1,1451.37 146,1461.12 146.11,1495.46 	"/>
	<polyline class="st6" points="129,1485.37 133.86,1482.62 133.72,1454.04 	"/>
	<line class="st6" x1="134" y1="1482.37" x2="146.11" y2="1489.12"/>
	<line class="st8" x1="59" y1="1255.37" x2="56" y2="1431.37"/>
	<line class="st8" x1="79.5" y1="1268.87" x2="76.5" y2="1444.87"/>
	<line class="st8" x1="58.26" y1="1298.65" x2="78.5" y2="1310.87"/>
	<line class="st8" x1="58.26" y1="1313.65" x2="78.5" y2="1325.87"/>
	<line class="st8" x1="58.26" y1="1328.65" x2="78.5" y2="1340.87"/>
	<line class="st8" x1="58.26" y1="1343.65" x2="78.5" y2="1355.87"/>
	<line class="st8" x1="58.26" y1="1358.65" x2="78.5" y2="1370.87"/>
	<line class="st8" x1="56.5" y1="1372.87" x2="78.5" y2="1385.87"/>
	<line class="st8" x1="56.5" y1="1387.87" x2="78.5" y2="1400.87"/>
	<line class="st8" x1="56.5" y1="1402.87" x2="77.5" y2="1414.87"/>
	<line class="st8" x1="56.5" y1="1417.87" x2="76.5" y2="1429.87"/>
	<line class="st8" x1="58.26" y1="1283.65" x2="78.5" y2="1295.87"/>
	<line class="st8" x1="58.26" y1="1268.65" x2="78.5" y2="1280.87"/>
	<path class="st6" d="M84,1233.37l8-13c0,0,5,6,12.5,5.5v17.5C104.5,1243.37,89,1244.37,84,1233.37z"/>
	<polygon class="st2" points="285.19,1259.63 304.26,1270.87 323.81,1259.63 304.26,1248.87 	"/>
	<polygon class="st1" points="291.5,1259.71 304.34,1267.28 317.5,1259.71 304.34,1252.47 	"/>
	<polyline class="st2" points="324,1259.37 323.81,1268.63 304.26,1279.87 285.19,1268.63 285,1259.37 	"/>
	<path class="st2" d="M317.5,1272.35v34.52c0,0-1,9-13,9s-13-9-13-9v-34.52"/>
	<path class="st2" d="M296.01,1313.68v11.7l1.99,3l5,2c0,0,2,0,3,0s5-2,5-2l2-2v-13"/>
	<path class="st2" d="M316,1329.37c0,0-3.59-1.24-5,3c-1,3-1,5-5,5"/>
	<path class="st2" d="M288,1321.37c0,0,4,1,5,6s7,5,7,5"/>
	<polyline class="st6" points="180.18,1275.85 247,1275.85 291.5,1300.52 	"/>
	<polyline class="st6" points="314.23,1313.65 337,1326.37 337,1404.37 397,1439.37 533,1439.37 624,1492.37 624,1531.37 
		438,1638.37 184,1638.37 16,1541.37 16,1348.37 57.5,1324.58 	"/>
	<path class="st6" d="M156.29,1531.25c1.97-3.02,2.94-5.03,5.94-5.07c3-0.03,4.07,5.95,4.07,5.95s3.98-2.04,5.95-4.07
		c1.98-2.02,5-0.06,4.02,1.96s-0.93,6.01,0.1,9c1.03,2.99,1.09,7.99-1.88,11.02c-2.97,3.03-5.98,2.07-5.98,2.07
		s-0.99,1.01-3.98,2.04c-2.99,1.03-5,0.06-5,0.06c-6.98,2.08-10.06-4.89-10.06-4.89l-1.06-4.99c0,0-0.04-4-0.07-6
		s-3.04-3.97-3.04-3.97l-0.03-3c0,0,1.97-3.02,4.98-2.06c3.01,0.97,6-0.07,8.07,5.91c0,0,5-0.06,6.06,4.93
		c1.06,4.99,3.07,5.97,3.09,7.97"/>
	<path class="st6" d="M159.54,1554.22c0,0-5.01-0.94-6.08-6.93"/>
	<path class="st6" d="M170.49,1549.09c0,0,2.98-2.03,2.91-8.03"/>
	<path class="st6" d="M166.3,1532.14c0,0-3.58-0.44-4.24,4.31"/>
	<path class="st6" d="M231.8,1487.4c1.97-3.02,2.94-5.03,5.94-5.07c3-0.03,4.07,5.95,4.07,5.95s3.98-2.04,5.95-4.07
		c1.98-2.02,5-0.06,4.02,1.95c-0.98,2.01-0.93,6.01,0.1,9c1.03,2.99,1.09,7.99-1.88,11.02c-2.97,3.03-5.98,2.07-5.98,2.07
		s-0.99,1.01-3.98,2.04s-5,0.06-5,0.06c-6.98,2.08-10.06-4.89-10.06-4.89l-1.06-4.99c0,0-0.04-4-0.07-6c-0.02-2-3.04-3.97-3.04-3.97
		l-0.03-3c0,0,1.97-3.02,4.98-2.06s6-0.07,8.07,5.91c0,0,5-0.06,6.06,4.93s3.07,5.97,3.09,7.97"/>
	<path class="st6" d="M235.06,1510.37c0,0-5.01-0.94-6.08-6.93"/>
	<path class="st6" d="M246,1505.25c0,0,2.98-2.03,2.91-8.03"/>
	<path class="st6" d="M241.81,1488.29c0,0-3.58-0.44-4.24,4.31"/>
	<path class="st6" d="M263.61,1470.05c1.97-3.02,2.94-5.03,5.94-5.07c3-0.03,4.07,5.95,4.07,5.95s3.98-2.04,5.95-4.07
		c1.98-2.02,5-0.06,4.02,1.96c-0.98,2.01-0.93,6.01,0.1,9c1.03,2.99,1.09,7.99-1.88,11.02s-5.98,2.07-5.98,2.07
		s-0.99,1.01-3.98,2.04c-2.99,1.03-5,0.06-5,0.06c-6.98,2.08-10.06-4.89-10.06-4.89l-1.06-4.99c0,0-0.04-4-0.07-6
		c-0.02-2-3.04-3.97-3.04-3.97l-0.03-3c0,0,1.97-3.02,4.98-2.06s6-0.07,8.07,5.91c0,0,5-0.06,6.06,4.93s3.07,5.97,3.09,7.97"/>
	<path class="st6" d="M266.87,1493.01c0,0-5.01-0.94-6.08-6.93"/>
	<path class="st6" d="M277.81,1487.89c0,0,2.98-2.03,2.91-8.03"/>
	<path class="st6" d="M273.62,1470.93c0,0-3.58-0.44-4.24,4.31"/>
	<path class="st6" d="M330.18,1431.3c1.97-3.02,2.94-5.03,5.94-5.07c3-0.03,4.07,5.95,4.07,5.95s3.98-2.04,5.95-4.07
		c1.98-2.02,5-0.06,4.02,1.95c-0.98,2.01-0.93,6.01,0.1,9c1.03,2.99,1.09,7.99-1.88,11.02s-5.98,2.07-5.98,2.07
		s-0.99,1.01-3.98,2.04c-2.99,1.03-5,0.06-5,0.06c-6.98,2.08-10.06-4.89-10.06-4.89l-1.06-4.99c0,0-0.04-4-0.07-6
		c-0.02-2-3.04-3.97-3.04-3.97l-0.03-3c0,0,1.97-3.02,4.98-2.06s6-0.07,8.07,5.91c0,0,5-0.06,6.06,4.93
		c1.06,4.99,3.07,5.97,3.09,7.97"/>
	<path class="st6" d="M333.44,1454.26c0,0-5.01-0.94-6.08-6.93"/>
	<path class="st6" d="M344.38,1449.14c0,0,2.98-2.03,2.91-8.03"/>
	<path class="st6" d="M340.19,1432.19c0,0-3.58-0.44-4.24,4.31"/>
	<path class="st6" d="M148.38,1539.51l-9.11,5.3l-26.66,14.94l-8.32,5.21c-4.31,2.7-4.16,9.02,0.27,11.51l13.02,7.32
		c2.06,1.16,4.57,1.14,6.62-0.03L365,1445.14c4.05-2.33,3.98-8.21-0.14-10.43l-15.16-8.2c-1.63-0.88-3.58-0.96-5.28-0.2l-5.37,2.39"
		/>
	<line class="st6" x1="165.38" y1="1529.13" x2="223.89" y2="1495.33"/>
	<line class="st6" x1="240.93" y1="1485.37" x2="256" y2="1476.37"/>
	<line class="st6" x1="322.24" y1="1438.16" x2="272.34" y2="1467.17"/>
	<path class="st6" d="M163.48,1572.65c1.97-3.02,2.94-5.03,5.94-5.07c3-0.03,4.07,5.95,4.07,5.95s3.98-2.04,5.95-4.07
		c1.98-2.02,5-0.06,4.02,1.95c-0.98,2.01-0.93,6.01,0.1,9c1.03,2.99,1.09,7.99-1.88,11.02c-2.97,3.03-5.98,2.07-5.98,2.07
		s-0.99,1.01-3.98,2.04c-2.99,1.03-5,0.06-5,0.06c-6.98,2.08-10.06-4.89-10.06-4.89l-1.06-4.99c0,0-0.04-4-0.07-6
		s-3.04-3.97-3.04-3.97l-0.03-3c0,0,1.97-3.02,4.98-2.06s6-0.07,8.07,5.91c0,0,5-0.06,6.06,4.93c1.06,4.99,3.07,5.97,3.09,7.97"/>
	<path class="st6" d="M166.74,1595.62c0,0-5.01-0.94-6.08-6.93"/>
	<path class="st6" d="M177.68,1590.5c0,0,2.98-2.03,2.91-8.03"/>
	<path class="st6" d="M173.49,1573.54c0,0-3.58-0.44-4.24,4.31"/>
	<path class="st6" d="M199.29,1555.25c1.97-3.02,2.94-5.03,5.94-5.07c3-0.03,4.07,5.95,4.07,5.95s3.98-2.04,5.95-4.07
		c1.98-2.02,5-0.06,4.02,1.96s-0.93,6.01,0.1,9c1.03,2.99,1.09,7.99-1.88,11.02c-2.97,3.03-5.98,2.07-5.98,2.07
		s-0.99,1.01-3.98,2.04c-2.99,1.03-5,0.06-5,0.06c-6.98,2.08-10.06-4.89-10.06-4.89l-1.06-4.99c0,0-0.04-4-0.07-6
		s-3.04-3.97-3.04-3.97l-0.03-3c0,0,1.97-3.02,4.98-2.06c3.01,0.97,6-0.07,8.07,5.91c0,0,5-0.06,6.06,4.93
		c1.06,4.99,3.07,5.97,3.09,7.97"/>
	<path class="st6" d="M202.54,1578.22c0,0-5.01-0.94-6.08-6.93"/>
	<path class="st6" d="M213.49,1573.09c0,0,2.98-2.03,2.91-8.03"/>
	<path class="st6" d="M209.3,1556.14c0,0-3.58-0.44-4.24,4.31"/>
	<path class="st6" d="M274.8,1511.4c1.97-3.02,2.94-5.03,5.94-5.07c3-0.03,4.07,5.95,4.07,5.95s3.98-2.04,5.95-4.07
		c1.98-2.02,5-0.06,4.02,1.95c-0.98,2.01-0.93,6.01,0.1,9c1.03,2.99,1.09,7.99-1.88,11.02s-5.98,2.07-5.98,2.07
		s-0.99,1.01-3.98,2.04c-2.99,1.03-5,0.06-5,0.06c-6.98,2.08-10.06-4.89-10.06-4.89l-1.06-4.99c0,0-0.04-4-0.07-6
		c-0.02-2-3.04-3.97-3.04-3.97l-0.03-3c0,0,1.97-3.02,4.98-2.06s6-0.07,8.07,5.91c0,0,5-0.06,6.06,4.93s3.07,5.97,3.09,7.97"/>
	<path class="st6" d="M278.06,1534.37c0,0-5.01-0.94-6.08-6.93"/>
	<path class="st6" d="M289,1529.25c0,0,2.98-2.03,2.91-8.03"/>
	<path class="st6" d="M284.81,1512.29c0,0-3.58-0.44-4.24,4.31"/>
	<path class="st6" d="M306.61,1494.05c1.97-3.02,2.94-5.03,5.94-5.07c3-0.03,4.07,5.95,4.07,5.95s3.98-2.04,5.95-4.07
		c1.98-2.02,5-0.06,4.02,1.96c-0.98,2.01-0.93,6.01,0.1,9c1.03,2.99,1.09,7.99-1.88,11.02s-5.98,2.07-5.98,2.07
		s-0.99,1.01-3.98,2.04c-2.99,1.03-5,0.06-5,0.06c-6.98,2.08-10.06-4.89-10.06-4.89l-1.06-4.99c0,0-0.04-4-0.07-6
		c-0.02-2-3.04-3.97-3.04-3.97l-0.03-3c0,0,1.97-3.02,4.98-2.06s6-0.07,8.07,5.91c0,0,5-0.06,6.06,4.93s3.07,5.97,3.09,7.97"/>
	<path class="st6" d="M309.87,1517.01c0,0-5.01-0.94-6.08-6.93"/>
	<path class="st6" d="M320.81,1511.89c0,0,2.98-2.03,2.91-8.03"/>
	<path class="st6" d="M316.62,1494.93c0,0-3.58-0.44-4.24,4.31"/>
	<path class="st6" d="M373.18,1455.3c1.97-3.02,2.94-5.03,5.94-5.07c3-0.03,4.07,5.95,4.07,5.95s3.98-2.04,5.95-4.07
		c1.98-2.02,5-0.06,4.02,1.95c-0.98,2.01-0.93,6.01,0.1,9c1.03,2.99,1.09,7.99-1.88,11.02s-5.98,2.07-5.98,2.07
		s-0.99,1.01-3.98,2.04c-2.99,1.03-5,0.06-5,0.06c-6.98,2.08-10.06-4.89-10.06-4.89l-1.06-4.99c0,0-0.04-4-0.07-6
		c-0.02-2-3.04-3.97-3.04-3.97l-0.03-3c0,0,1.97-3.02,4.98-2.06s6-0.07,8.07,5.91c0,0,5-0.06,6.06,4.93
		c1.06,4.99,3.07,5.97,3.09,7.97"/>
	<path class="st6" d="M376.44,1478.26c0,0-5.01-0.94-6.08-6.93"/>
	<path class="st6" d="M387.38,1473.14c0,0,2.98-2.03,2.91-8.03"/>
	<path class="st6" d="M155.6,1583.74l-8.32,5.21c-4.31,2.7-4.16,9.02,0.27,11.51l13.02,7.32c2.06,1.16,4.57,1.14,6.62-0.03
		L408,1469.14c4.05-2.33,3.98-8.21-0.14-10.43l-15.16-8.2c-1.63-0.88-3.58-0.96-5.28-0.2l-5.37,2.39"/>
	<line class="st6" x1="182.27" y1="1568.8" x2="191.38" y2="1563.51"/>
	<line class="st6" x1="208.38" y1="1553.13" x2="266.89" y2="1519.33"/>
	<line class="st6" x1="283.93" y1="1509.37" x2="299" y2="1500.37"/>
	<line class="st6" x1="365.24" y1="1462.16" x2="315.34" y2="1491.17"/>
	<path class="st6" d="M205.48,1596.65c1.97-3.02,2.94-5.03,5.94-5.07c3-0.03,4.07,5.95,4.07,5.95s3.98-2.04,5.95-4.07
		c1.98-2.02,5-0.06,4.02,1.95c-0.98,2.01-0.93,6.01,0.1,9c1.03,2.99,1.09,7.99-1.88,11.02c-2.97,3.03-5.98,2.07-5.98,2.07
		s-0.99,1.01-3.98,2.04c-2.99,1.03-5,0.06-5,0.06c-6.98,2.08-10.06-4.89-10.06-4.89l-1.06-4.99c0,0-0.04-4-0.07-6
		s-3.04-3.97-3.04-3.97l-0.03-3c0,0,1.97-3.02,4.98-2.06s6-0.07,8.07,5.91c0,0,5-0.06,6.06,4.93c1.06,4.99,3.07,5.97,3.09,7.97"/>
	<path class="st6" d="M208.74,1619.62c0,0-5.01-0.94-6.08-6.93"/>
	<path class="st6" d="M219.68,1614.5c0,0,2.98-2.03,2.91-8.03"/>
	<path class="st6" d="M215.49,1597.54c0,0-3.58-0.44-4.24,4.31"/>
	<path class="st6" d="M241.29,1579.25c1.97-3.02,2.94-5.03,5.94-5.07c3-0.03,4.07,5.95,4.07,5.95s3.98-2.04,5.95-4.07
		c1.98-2.02,5-0.06,4.02,1.96c-0.98,2.01-0.93,6.01,0.1,9c1.03,2.99,1.09,7.99-1.88,11.02c-2.97,3.03-5.98,2.07-5.98,2.07
		s-0.99,1.01-3.98,2.04c-2.99,1.03-5,0.06-5,0.06c-6.98,2.08-10.06-4.89-10.06-4.89l-1.06-4.99c0,0-0.04-4-0.07-6
		s-3.04-3.97-3.04-3.97l-0.03-3c0,0,1.97-3.02,4.98-2.06c3.01,0.97,6-0.07,8.07,5.91c0,0,5-0.06,6.06,4.93
		c1.06,4.99,3.07,5.97,3.09,7.97"/>
	<path class="st6" d="M244.54,1602.22c0,0-5.01-0.94-6.08-6.93"/>
	<path class="st6" d="M255.49,1597.09c0,0,2.98-2.03,2.91-8.03"/>
	<path class="st6" d="M251.3,1580.14c0,0-3.58-0.44-4.24,4.31"/>
	<path class="st6" d="M316.8,1535.4c1.97-3.02,2.94-5.03,5.94-5.07c3-0.03,4.07,5.95,4.07,5.95s3.98-2.04,5.95-4.07
		c1.98-2.02,5-0.06,4.02,1.95c-0.98,2.01-0.93,6.01,0.1,9c1.03,2.99,1.09,7.99-1.88,11.02s-5.98,2.07-5.98,2.07
		s-0.99,1.01-3.98,2.04c-2.99,1.03-5,0.06-5,0.06c-6.98,2.08-10.06-4.89-10.06-4.89l-1.06-4.99c0,0-0.04-4-0.07-6
		c-0.02-2-3.04-3.97-3.04-3.97l-0.03-3c0,0,1.97-3.02,4.98-2.06s6-0.07,8.07,5.91c0,0,5-0.06,6.06,4.93s3.07,5.97,3.09,7.97"/>
	<path class="st6" d="M320.06,1558.37c0,0-5.01-0.94-6.08-6.93"/>
	<path class="st6" d="M331,1553.25c0,0,2.98-2.03,2.91-8.03"/>
	<path class="st6" d="M326.81,1536.29c0,0-3.58-0.44-4.24,4.31"/>
	<path class="st6" d="M415.18,1479.3c1.97-3.02,2.94-5.03,5.94-5.07c3-0.03,4.07,5.95,4.07,5.95s3.98-2.04,5.95-4.07
		c1.98-2.02,5-0.06,4.02,1.95c-0.98,2.01-0.93,6.01,0.1,9c1.03,2.99,1.09,7.99-1.88,11.02s-5.98,2.07-5.98,2.07
		s-0.99,1.01-3.98,2.04c-2.99,1.03-5,0.06-5,0.06c-6.98,2.08-10.06-4.89-10.06-4.89l-1.06-4.99c0,0-0.04-4-0.07-6
		c-0.02-2-3.04-3.97-3.04-3.97l-0.03-3c0,0,1.97-3.02,4.98-2.06s6-0.07,8.07,5.91c0,0,5-0.06,6.06,4.93
		c1.06,4.99,3.07,5.97,3.09,7.97"/>
	<path class="st6" d="M418.44,1502.26c0,0-5.01-0.94-6.08-6.93"/>
	<path class="st6" d="M429.38,1497.14c0,0,2.98-2.03,2.91-8.03"/>
	<path class="st6" d="M197.6,1607.74l-8.32,5.21c-4.31,2.7-4.16,9.02,0.27,11.51l13.02,7.32c2.06,1.16,4.57,1.14,6.62-0.03
		L450,1493.14c4.05-2.33,3.98-8.21-0.14-10.43l-15.16-8.2c-1.63-0.88-3.58-0.96-5.28-0.2l-5.37,2.39"/>
	<line class="st6" x1="224.27" y1="1592.8" x2="233.38" y2="1587.51"/>
	<line class="st6" x1="250.38" y1="1577.13" x2="308.89" y2="1543.33"/>
	<path class="st6" d="M325.93,1533.37"/>
	<polyline class="st6" points="407.24,1486.16 357.34,1515.17 326,1533.37 	"/>
	<path class="st6" d="M301.48,1588.65c1.97-3.02,2.94-5.03,5.94-5.07c3-0.03,4.07,5.95,4.07,5.95s3.98-2.04,5.95-4.07
		c1.98-2.02,5-0.06,4.02,1.95c-0.98,2.01-0.93,6.01,0.1,9c1.03,2.99,1.09,7.99-1.88,11.02s-5.98,2.07-5.98,2.07
		s-0.99,1.01-3.98,2.04c-2.99,1.03-5,0.06-5,0.06c-6.98,2.08-10.06-4.89-10.06-4.89l-1.06-4.99c0,0-0.04-4-0.07-6
		s-3.04-3.97-3.04-3.97l-0.03-3c0,0,1.97-3.02,4.98-2.06s6-0.07,8.07,5.91c0,0,5-0.06,6.06,4.93c1.06,4.99,3.07,5.97,3.09,7.97"/>
	<path class="st6" d="M304.74,1611.62c0,0-5.01-0.94-6.08-6.93"/>
	<path class="st6" d="M315.68,1606.5c0,0,2.98-2.03,2.91-8.03"/>
	<path class="st6" d="M311.49,1589.54c0,0-3.58-0.44-4.24,4.31"/>
	<path class="st6" d="M337.29,1571.25c1.97-3.02,2.94-5.03,5.94-5.07c3-0.03,4.07,5.95,4.07,5.95s3.98-2.04,5.95-4.07
		c1.98-2.02,5-0.06,4.02,1.96c-0.98,2.01-0.93,6.01,0.1,9c1.03,2.99,1.09,7.99-1.88,11.02c-2.97,3.03-5.98,2.07-5.98,2.07
		s-0.99,1.01-3.98,2.04c-2.99,1.03-5,0.06-5,0.06c-6.98,2.08-10.06-4.89-10.06-4.89l-1.06-4.99c0,0-0.04-4-0.07-6
		c-0.02-2-3.04-3.97-3.04-3.97l-0.03-3c0,0,1.97-3.02,4.98-2.06c3.01,0.97,6-0.07,8.07,5.91c0,0,5-0.06,6.06,4.93
		c1.06,4.99,3.07,5.97,3.09,7.97"/>
	<path class="st6" d="M340.54,1594.22c0,0-5.01-0.94-6.08-6.93"/>
	<path class="st6" d="M351.49,1589.09c0,0,2.98-2.03,2.91-8.03"/>
	<path class="st6" d="M347.3,1572.14c0,0-3.58-0.44-4.24,4.31"/>
	<path class="st6" d="M412.8,1527.4c1.97-3.02,2.94-5.03,5.94-5.07c3-0.03,4.07,5.95,4.07,5.95s3.98-2.04,5.95-4.07
		c1.98-2.02,5-0.06,4.02,1.95c-0.98,2.01-0.93,6.01,0.1,9c1.03,2.99,1.09,7.99-1.88,11.02s-5.98,2.07-5.98,2.07
		s-0.99,1.01-3.98,2.04c-2.99,1.03-5,0.06-5,0.06c-6.98,2.08-10.06-4.89-10.06-4.89l-1.06-4.99c0,0-0.04-4-0.07-6
		c-0.02-2-3.04-3.97-3.04-3.97l-0.03-3c0,0,1.97-3.02,4.98-2.06s6-0.07,8.07,5.91c0,0,5-0.06,6.06,4.93s3.07,5.97,3.09,7.97"/>
	<path class="st6" d="M416.06,1550.37c0,0-5.01-0.94-6.08-6.93"/>
	<path class="st6" d="M427,1545.25c0,0,2.98-2.03,2.91-8.03"/>
	<path class="st6" d="M422.81,1528.29c0,0-3.58-0.44-4.24,4.31"/>
	<path class="st6" d="M444.61,1510.05c1.97-3.02,2.94-5.03,5.94-5.07c3-0.03,4.07,5.95,4.07,5.95s3.98-2.04,5.95-4.07
		c1.98-2.02,5-0.06,4.02,1.96c-0.98,2.01-0.93,6.01,0.1,9c1.03,2.99,1.09,7.99-1.88,11.02s-5.98,2.07-5.98,2.07
		s-0.99,1.01-3.98,2.04c-2.99,1.03-5,0.06-5,0.06c-6.98,2.08-10.06-4.89-10.06-4.89l-1.06-4.99c0,0-0.04-4-0.07-6
		c-0.02-2-3.04-3.97-3.04-3.97l-0.03-3c0,0,1.97-3.02,4.98-2.06s6-0.07,8.07,5.91c0,0,5-0.06,6.06,4.93s3.07,5.97,3.09,7.97"/>
	<path class="st6" d="M447.87,1533.01c0,0-5.01-0.94-6.08-6.93"/>
	<path class="st6" d="M458.81,1527.89c0,0,2.98-2.03,2.91-8.03"/>
	<path class="st6" d="M454.62,1510.93c0,0-3.58-0.44-4.24,4.31"/>
	<path class="st6" d="M511.18,1471.3c1.97-3.02,2.94-5.03,5.94-5.07c3-0.03,4.07,5.95,4.07,5.95s3.98-2.04,5.95-4.07
		c1.98-2.02,5-0.06,4.02,1.95c-0.98,2.01-0.93,6.01,0.1,9c1.03,2.99,1.09,7.99-1.88,11.02s-5.98,2.07-5.98,2.07
		s-0.99,1.01-3.98,2.04c-2.99,1.03-5,0.06-5,0.06c-6.98,2.08-10.06-4.89-10.06-4.89l-1.06-4.99c0,0-0.04-4-0.07-6
		c-0.02-2-3.04-3.97-3.04-3.97l-0.03-3c0,0,1.97-3.02,4.98-2.06s6-0.07,8.07,5.91c0,0,5-0.06,6.06,4.93
		c1.06,4.99,3.07,5.97,3.09,7.97"/>
	<path class="st6" d="M514.44,1494.26c0,0-5.01-0.94-6.08-6.93"/>
	<path class="st6" d="M525.38,1489.14c0,0,2.98-2.03,2.91-8.03"/>
	<path class="st6" d="M293.6,1599.74l-8.32,5.21c-4.31,2.7-4.16,9.02,0.27,11.51l13.02,7.32c2.06,1.16,4.57,1.14,6.62-0.03
		L546,1485.14c4.05-2.33,3.98-8.21-0.14-10.43l-15.16-8.2c-1.63-0.88-3.58-0.96-5.28-0.2l-5.37,2.39"/>
	<line class="st6" x1="320.27" y1="1584.8" x2="329.38" y2="1579.51"/>
	<line class="st6" x1="346.38" y1="1569.13" x2="404.89" y2="1535.33"/>
	<line class="st6" x1="421.93" y1="1525.37" x2="437" y2="1516.37"/>
	<line class="st6" x1="503.24" y1="1478.16" x2="453.34" y2="1507.17"/>
	<path class="st6" d="M359.48,1598.65c1.97-3.02,2.94-5.03,5.94-5.07c3-0.03,4.07,5.95,4.07,5.95s3.98-2.04,5.95-4.07
		c1.98-2.02,5-0.06,4.02,1.95c-0.98,2.01-0.93,6.01,0.1,9c1.03,2.99,1.09,7.99-1.88,11.02s-5.98,2.07-5.98,2.07
		s-0.99,1.01-3.98,2.04c-2.99,1.03-5,0.06-5,0.06c-6.98,2.08-10.06-4.89-10.06-4.89l-1.06-4.99c0,0-0.04-4-0.07-6
		s-3.04-3.97-3.04-3.97l-0.03-3c0,0,1.97-3.02,4.98-2.06s6-0.07,8.07,5.91c0,0,5-0.06,6.06,4.93c1.06,4.99,3.07,5.97,3.09,7.97"/>
	<path class="st6" d="M362.74,1621.62c0,0-5.01-0.94-6.08-6.93"/>
	<path class="st6" d="M373.68,1616.5c0,0,2.98-2.03,2.91-8.03"/>
	<path class="st6" d="M369.49,1599.54c0,0-3.58-0.44-4.24,4.31"/>
	<path class="st6" d="M395.29,1581.25c1.97-3.02,2.94-5.03,5.94-5.07c3-0.03,4.07,5.95,4.07,5.95s3.98-2.04,5.95-4.07
		c1.98-2.02,5-0.06,4.02,1.96c-0.98,2.01-0.93,6.01,0.1,9c1.03,2.99,1.09,7.99-1.88,11.02c-2.97,3.03-5.98,2.07-5.98,2.07
		s-0.99,1.01-3.98,2.04c-2.99,1.03-5,0.06-5,0.06c-6.98,2.08-10.06-4.89-10.06-4.89l-1.06-4.99c0,0-0.04-4-0.07-6
		c-0.02-2-3.04-3.97-3.04-3.97l-0.03-3c0,0,1.97-3.02,4.98-2.06c3.01,0.97,6-0.07,8.07,5.91c0,0,5-0.06,6.06,4.93
		c1.06,4.99,3.07,5.97,3.09,7.97"/>
	<path class="st6" d="M398.54,1604.22c0,0-5.01-0.94-6.08-6.93"/>
	<path class="st6" d="M409.49,1599.09c0,0,2.98-2.03,2.91-8.03"/>
	<path class="st6" d="M405.3,1582.14c0,0-3.58-0.44-4.24,4.31"/>
	<path class="st6" d="M470.8,1537.4c1.97-3.02,2.94-5.03,5.94-5.07c3-0.03,4.07,5.95,4.07,5.95s3.98-2.04,5.95-4.07
		c1.98-2.02,5-0.06,4.02,1.95c-0.98,2.01-0.93,6.01,0.1,9c1.03,2.99,1.09,7.99-1.88,11.02s-5.98,2.07-5.98,2.07
		s-0.99,1.01-3.98,2.04c-2.99,1.03-5,0.06-5,0.06c-6.98,2.08-10.06-4.89-10.06-4.89l-1.06-4.99c0,0-0.04-4-0.07-6
		c-0.02-2-3.04-3.97-3.04-3.97l-0.03-3c0,0,1.97-3.02,4.98-2.06s6-0.07,8.07,5.91c0,0,5-0.06,6.06,4.93s3.07,5.97,3.09,7.97"/>
	<path class="st6" d="M474.06,1560.37c0,0-5.01-0.94-6.08-6.93"/>
	<path class="st6" d="M485,1555.25c0,0,2.98-2.03,2.91-8.03"/>
	<path class="st6" d="M480.81,1538.29c0,0-3.58-0.44-4.24,4.31"/>
	<path class="st6" d="M502.61,1520.05c1.97-3.02,2.94-5.03,5.94-5.07c3-0.03,4.07,5.95,4.07,5.95s3.98-2.04,5.95-4.07
		c1.98-2.02,5-0.06,4.02,1.96c-0.98,2.01-0.93,6.01,0.1,9s1.09,7.99-1.88,11.02s-5.98,2.07-5.98,2.07s-0.99,1.01-3.98,2.04
		c-2.99,1.03-5,0.06-5,0.06c-6.98,2.08-10.06-4.89-10.06-4.89l-1.06-4.99c0,0-0.04-4-0.07-6c-0.02-2-3.04-3.97-3.04-3.97l-0.03-3
		c0,0,1.97-3.02,4.98-2.06s6-0.07,8.07,5.91c0,0,5-0.06,6.06,4.93s3.07,5.97,3.09,7.97"/>
	<path class="st6" d="M505.87,1543.01c0,0-5.01-0.94-6.08-6.93"/>
	<path class="st6" d="M516.81,1537.89c0,0,2.98-2.03,2.91-8.03"/>
	<path class="st6" d="M512.62,1520.93c0,0-3.58-0.44-4.24,4.31"/>
	<line class="st6" x1="378.27" y1="1594.8" x2="387.38" y2="1589.51"/>
	<line class="st6" x1="404.38" y1="1579.13" x2="462.89" y2="1545.33"/>
	<line class="st6" x1="479.93" y1="1535.37" x2="495" y2="1526.37"/>
	<path class="st6" d="M351.6,1609.74l-8.32,5.21c-4.31,2.7-4.16,9.02,0.27,11.51l13.02,7.32c2.06,1.16,4.57,1.14,6.62-0.03
		L604,1495.14c4.05-2.33,3.98-8.21-0.14-10.43l-15.16-8.2c-1.63-0.88-3.58-0.96-5.28-0.2l-5.42,3.07l-66.66,37.79"/>
</g>
<g id="Balle_di_fieno">
	<polygon class="st2" points="398.69,396.63 417.76,407.87 437.31,396.63 417.76,385.87 	"/>
	<polygon class="st1" points="405,396.71 417.84,404.28 431,396.71 417.84,389.47 	"/>
	<polyline class="st2" points="437.5,396.37 437.31,405.63 417.76,416.87 398.69,405.63 398.5,396.37 	"/>
	<path class="st2" d="M431,409.35v34.52c0,0-1,9-13,9s-13-9-13-9v-34.52"/>
	<path class="st2" d="M409.51,450.68v11.7l1.99,3l5,2c0,0,2,0,3,0s5-2,5-2l2-2v-13"/>
	<path class="st2" d="M429.5,466.37c0,0-3.59-1.24-5,3c-1,3-1,5-5,5"/>
	<path class="st2" d="M401.5,458.37c0,0,4,1,5,6s7,5,7,5"/>
	<path class="st6" d="M130.5,295.37l-2-10l-2,13l-4,1h-3l-2-4l-2,8l-4,6l-5,2l-3-1l-3,4l-4-2l-2-2l-2,4l-2,3h-3l-2,5l-2-7l-5,17
		l-3,5l-2,8l2,12l-2,13v24v19c0,0,2,14,1,24s2,23,2,23h10l-2,3h5l5,3h2v4h5v2l3,2h3h7l3,2h-4v3h11l-5,4h8v3l6,2h6l8,1l-6,3l6,1v3h6
		l3,5l-2,4h13l-2,3h7l-2,3h11l-1,3l3,3v2l5,2l13-6v-5l14-3l-1-3l13-3l4-2l2-10l6-1l18-2l8-5l9-4l-1-5v-5l7-1v-3h4l2-2h4l7-3l9-2l6-4
		l-5-4l6-1l8-2l9-7l16-1l-3-4l5-2v-6l16-1v-3l9-3l-1-7l1-32l2-11l-3-9l1-19l2-14l-3,5c0,0,0-15,0-16s5-31,5-31l-2,5l-2-6l-7-3l-3,3
		l-10-6l-2-7l-2,2l-2-4v6l-9-5l-2-4l-4-3h-6v-8l-4,4l-3-1l-5-2v-6l-3,2l-7-1l-2,1l-2-5l-4,2l-5,3l-6-4l-1-3l-3,4l-4,1h-8l-4,2l-1-5
		l-1-8l-4,11l-8,1l-7-2l-2-3l-3,5h-6l-2-1l-7-3l-1,5l-5-6l-4,4h-4l-6-1l-2-1l-5,7l-6,3l-1-8l-6,10l-3,3l-4,5l-6-7v7l-4,2l-3,3l-7-7
		l-1,7l-3,5l-3,5l-1-6l-3,7l-5,4l-1,3l-2-4l-2,4l-2,2"/>
	<path class="st6" d="M75.5,412.37l3,4l2-1l2,14l2-7l2,2l2,19l3-21l1,2l4-7v5l2,22v-16h3l1-2l2,14l4-11v8l3,4h3c0,0,2,25,2,26
		s2-18,2-18l2-9l3,2v3l2,16l1-19l2,8l2-3l2-2v-2l1,6l4-4l1-3l2,4v34l3-28l2,3v2l3-6l2,4v8l4-3l1,6l4-8l1,11l4-6l5,3l1-7l2,12l2-12
		l2,21l2-13l1,5l2,2l1,9l3-9l2,4h3c0,0-2,19-2,33"/>
	<line class="st6" x1="155.5" y1="473.37" x2="154.5" y2="496.37"/>
	<line class="st6" x1="168.5" y1="491.37" x2="168.5" y2="505.37"/>
	<line class="st6" x1="102.5" y1="445.37" x2="102.5" y2="460.37"/>
	<path class="st6" d="M231.7,498.37c0,0-1.2-17,0.8-23"/>
	<path class="st6" d="M208.5,502.37c0,0-1-13,0-25"/>
	<path class="st6" d="M193.5,479.37c0,0,8-8,8-12s0-3,0-3l2,7l3-3l2,1l6-6h3h1l5-5l7-2l17-13l2-3l3,1l4-1l4-3l1-4l5,3l3-4l2-1v-4
		l7,1l4-1l3,1c0,0,4-2,5-3s2-2,2-2l4,1l4-5l2-5l4-3h6l8-12v7c0,0,6-7,7-8s4-2,4-2l4-2h3l3-6l4,4l7-10v-3"/>
	<polyline class="st6" points="375.5,368.37 368.5,378.37 363.5,384.37 361.5,384.37 356.5,388.37 	"/>
	<polyline class="st6" points="78.5,378.37 86.5,377.37 79.5,384.37 85.5,383.37 84.5,385.37 100.5,378.37 82.5,392.37 94.5,388.37 
		103.5,383.37 95.5,395.37 111.5,386.37 100.5,396.37 94.5,400.37 	"/>
	<path class="st6" d="M97.5,404.37c0,0,13-7,20-11c0,0-7,8-10,14"/>
	<path class="st6" d="M116.5,404.37c0,0,10-7,19-9c0,0-15,11-19,17"/>
	<path class="st6" d="M122.5,410.37l22-7l-17,12l24-5c0,0-8,8-12,13"/>
	<path class="st6" d="M324.29,443.2c0,0-0.79-13.83,0.21-22.83"/>
	<path class="st6" d="M320.5,406.37c0,0,0,12-3,19"/>
	<path class="st6" d="M344.5,433.37c0,0,1-11,3-20"/>
	<path class="st6" d="M352.5,388.37c0,0-2,10-2,28"/>
	<path class="st6" d="M369.5,383.37c0,0,0,14-2,24"/>
	<path class="st6" d="M281.33,463.37c0,0,0.17-12,1.17-20"/>
	<path class="st6" d="M272.5,431.37c0,0-2,17-1,32"/>
	<path class="st6" d="M267.5,474.37c0,0,0-6,0-15"/>
	<path class="st6" d="M252.5,445.37c0,0,1,12-2,25"/>
	<path class="st6" d="M249.5,443.37c0,0,1,9-1,21"/>
	<path class="st6" d="M219.5,465.37c0,0-1,8-1,16"/>
	<polyline class="st6" points="73.5,377.49 63.5,383.37 63.5,457.37 240.5,560.37 526.5,560.37 576.5,531.37 576.5,486.37 
		513.5,450.37 437,450.37 430.18,446.46 	"/>
	<polyline class="st6" points="375.5,326.37 384.5,331.37 384.5,420.37 405,432.27 	"/>
	<path class="st6" d="M360.67,507.89c-1.28,17.46-12,31.89-26.05,37.23c-4.32,1.64-8.96,2.43-13.74,2.17
		c-20.31-1.07-35.42-20.44-33.75-43.27c1.22-16.64,11.01-30.53,24.11-36.42c0.57-0.26,1.14-0.5,1.73-0.72
		c4.39-1.7,9.1-2.52,13.96-2.26C347.23,465.68,362.34,485.06,360.67,507.89z"/>
	<g>
		<path class="st9" d="M339,543.87l2-2c14.22-5.4,22.64-20.01,23.86-36.7c0.84-11.54-2.75-22.77-9.85-30.83
			c-6.06-6.87-14.21-10.91-22.95-11.37c-4.61-0.24-9.17,0.5-13.55,2.19c-0.56,0.22-1.12,0.45-1.68,0.7l3.17-2.99
			c0.58-0.26,0.4,0.23,1,0c4.65-1.8,6.27-2.16,11.16-1.9c9.28,0.49,17.93,4.77,24.35,12.05c7.46,8.46,11.23,20.23,10.35,32.3
			C365.58,522.78,353.94,538.2,339,543.87z"/>
	</g>
	<g>
		<path class="st9" d="M353,536.87h-1c14.22-5.4,24.1-20.3,25.32-36.99c0.84-11.54-2.75-22.77-9.85-30.83
			c-6.06-6.87-14.21-10.91-22.95-11.37c-4.61-0.24-9.17,0.5-13.55,2.19c-0.56,0.22-3.41,0.75-3.96,1l3-2
			c0.58-0.26-0.36-0.63,0.24-0.86c4.65-1.8,9.48-2.59,14.38-2.33c9.28,0.49,17.93,4.77,24.35,12.05
			c7.46,8.46,11.23,20.23,10.35,32.3C378.04,517.49,367.94,531.2,353,536.87z"/>
	</g>
	<path class="st6" d="M311.96,467.18l23.02-10.59c3.91-1.3,8.43-1.89,12.69-1.67c20.31,1.07,35.42,20.44,33.75,43.27
		c-1.22,16.69-11.47,30.78-24.62,36.64l-21.46,9.99"/>
	<path class="st6" d="M334,476.87c0,0-13.12-5.91-24,2c-11,8-11.5,22.5-11.5,22.5"/>
	<path class="st6" d="M316.5,487.37c0,0-10,4-12,15c-2,11,3,19,3,19"/>
	<path class="st6" d="M297.14,516.19c0,0,0.59,13.02,14.72,21.36"/>
	<path class="st6" d="M327.5,489.37c0,0,16,1,11,20"/>
	<path class="st6" d="M346.5,494.37c0,0,4,8-1,16"/>
	<path class="st6" d="M351.5,511.37c0,0,0,3-1,6"/>
	<path class="st6" d="M314.5,500.37c0,0-6.26,4.49-3,11c3,6,7,5,9,5"/>
	<path class="st6" d="M323.5,506.37c0,0,4-2,2-5s-5-2-6,1c-0.95,2.85-1,8,6,9"/>
	<line class="st6" x1="356.5" y1="481.37" x2="372.5" y2="472.37"/>
	<line class="st6" x1="334.5" y1="465.37" x2="350.5" y2="456.37"/>
	<line class="st6" x1="362.11" y1="493.05" x2="371.39" y2="487.2"/>
	<line class="st6" x1="350.11" y1="466.05" x2="359.39" y2="460.2"/>
	<line class="st6" x1="370.11" y1="501.05" x2="379.39" y2="495.2"/>
	<line class="st6" x1="359.11" y1="521.05" x2="368.39" y2="515.2"/>
	<path class="st6" d="M513.67,515.89c-1.28,17.46-12,31.89-26.05,37.23c-4.32,1.64-8.96,2.43-13.74,2.17
		c-20.31-1.07-35.42-20.44-33.75-43.27c1.22-16.64,11.01-30.53,24.11-36.42c0.57-0.26,1.14-0.5,1.73-0.72
		c4.39-1.7,9.1-2.52,13.96-2.26C500.23,473.68,515.34,493.06,513.67,515.89z"/>
	<g>
		<path class="st9" d="M493.16,551.41l-1.16-0.53c14.22-5.4,24.64-21.01,25.86-37.7c0.84-11.54-2.75-22.77-9.85-30.83
			c-6.06-6.87-14.21-10.91-22.95-11.37c-4.61-0.24-9.17,0.5-13.55,2.19c-0.56,0.22-1.12,0.45-1.68,0.7l-0.83-0.99
			c0.58-0.26,1.4-0.77,2-1c4.65-1.8,9.27-3.16,14.16-2.9c9.28,0.49,17.93,4.77,24.35,12.05c7.46,8.46,11.23,20.23,10.35,32.3
			C518.58,530.78,508.1,545.73,493.16,551.41z"/>
	</g>
	<g>
		<path class="st9" d="M505,545.87l-1-1c14.22-5.4,25.1-20.3,26.32-36.99c0.84-11.54-2.75-22.77-9.85-30.83
			c-6.06-6.87-14.21-10.91-22.95-11.37c-4.61-0.24-13.13,1.49-17.51,3.19c-0.56,0.22,1.55-1.25,1-1l0,0
			c0.58-0.26,1.64-1.63,2.24-1.86c4.65-1.8,9.48-2.59,14.38-2.33c9.28,0.49,17.93,4.77,24.35,12.05
			c7.46,8.46,11.23,20.23,10.35,32.3C531.04,525.49,519.94,540.2,505,545.87z"/>
	</g>
	<path class="st6" d="M464.96,475.18l23.02-10.59c3.91-1.3,8.43-1.89,12.69-1.67c20.31,1.07,35.42,20.44,33.75,43.27
		c-1.22,16.69-11.47,30.78-24.62,36.64l-21.46,9.99"/>
	<path class="st6" d="M487,484.87c0,0-13.12-5.91-24,2c-11,8-11.5,22.5-11.5,22.5"/>
	<path class="st6" d="M464.85,500.27c0,0-7.84,7.38-5.68,18.35c2.16,10.97,9.74,16.59,9.74,16.59"/>
	<path class="st6" d="M468.98,548.3c0,0,12.49,3.73,25.02-6.86"/>
	<path class="st6" d="M480.5,497.37c0,0,16,1,11,20"/>
	<path class="st6" d="M496.68,494.98c0,0,6.58,6.06,4.74,15.32"/>
	<path class="st6" d="M500.87,525.46c0,0-0.37,2.98-1.74,5.83"/>
	<path class="st6" d="M470.43,525.46c0,0,3.71,6.75,10.56,4.3c6.32-2.26,5.8-6.35,6.04-8.34"/>
	<path class="st6" d="M475.91,514.73c0,0,4.46,0.29,4.25-3.31s-3.31-4.25-5.69-2.16c-2.25,1.98-4.9,6.4,0.64,10.8"/>
	<line class="st6" x1="511.5" y1="497.37" x2="527.5" y2="488.37"/>
	<line class="st6" x1="501.7" y1="480.7" x2="517.3" y2="471.04"/>
	<line class="st6" x1="515.11" y1="482.05" x2="524.39" y2="476.2"/>
	<line class="st6" x1="492.11" y1="473.05" x2="501.39" y2="467.2"/>
	<line class="st6" x1="521.11" y1="509.05" x2="530.39" y2="503.2"/>
	<line class="st6" x1="512.11" y1="529.05" x2="521.39" y2="523.2"/>
	<path class="st6" d="M90.5,350.37c0,0,8-4,19-7c0,0-11,9-16,14c0,0,21-8,23-7"/>
	<path class="st6" d="M104.5,365.37l-2,5c0,0,26-12,31-15c0,0-15,13-17,16"/>
	<line class="st6" x1="145.5" y1="375.37" x2="151.5" y2="371.37"/>
	<path class="st6" d="M162.5,384.37c0,0,10-5,17-7l-9,8l13-6l-19,17c0,0,24-7,36-13c0,0-17,13-24,20"/>
	<path class="st6" d="M193.5,415.37c0,0,13-7,25-9c0,0-8,4-15,14c0,0,18-6,26-7s9-1,9-1s-5,4-10,13"/>
	<path class="st6" d="M234.5,431.37c0,0,9-5,16-11"/>
	<path class="st6" d="M94.5,321.37l8-1c0,0-5,7-8,12c0,0,11-6,17-10s9-5,9-5l-4,5l12-5c0,0-6,4-12,13c0,0,8-6,14-8c0,0-8,9-14,17"/>
	<path class="st6" d="M128.5,343.37c0,0,13-9,20-11c0,0-6,4-7,7l7-4c0,0-9,10-12,15"/>
	<path class="st6" d="M143.5,350.37c0,0,17-8,26-15c0,0-6,11-15,18c0,0,14-7,25-12c0,0-2,6-7,9"/>
	<path class="st6" d="M205.5,357.37c0,0-2,7-8,11c0,0,6-3,13-8c0,0-5,8-13,15c0,0,6-5,15-7l-4,3c0,0,5,0,11-1c0,0-10,4-11,7"/>
	<path class="st6" d="M225.5,379.37c0,0-5,6-9,8l11-4l-4,4l15-4c0,0-7,9-13,12c0,0,14-8,27-10c0,0-9,6-14,11c0,0,6,1,11-1l-4,3
		c0,0,9,0,20-5"/>
	<path class="st6" d="M273.5,396.37c0,0-5,9-15,13"/>
	<path class="st6" d="M271.5,404.37c0,0,9-3,16-4l-6,4l6-2l-10,10h5l-8,8c0,0,11-4,21-10c0,0-2,6-8,10"/>
	<path class="st6" d="M145.5,293.37l-5,6l8-3c0,0-4,8-10,11l15-4c0,0,2,2-8,8"/>
	<path class="st6" d="M162.5,307.37c0,0,2,2,11-2c0,0-3,9-11,13"/>
	<path class="st6" d="M181.5,318.37c0,0,4,0,9-2c0,0-5,8-14,12"/>
	<path class="st6" d="M190.5,322.37l7-2l-4,4h4l-4,2c0,0,9,1,15-3c0,0-4,9-15,14c0,0,14-3,22-9c0,0-2,9-9,13"/>
	<path class="st6" d="M218.5,341.37c0,0,6-2,16-8"/>
	<path class="st6" d="M265.5,367.37l10-4l6-3c0,0-4,13-14,18"/>
	<path class="st6" d="M275.5,379.37c0,0,2-3,9-8"/>
	<path class="st6" d="M291.5,373.37c0,0-5-1-12,5"/>
	<path class="st6" d="M301.5,375.37c0,0,2,6-7,10c0,0,8-1,14-5"/>
	<path class="st6" d="M305.5,385.37c0,0-2,6-7,8"/>
	<path class="st6" d="M323.5,385.37c0,0-7,7-15,13"/>
	<path class="st6" d="M155.5,283.37c0,0,20-8,38-12c0,0-11,4-19,12"/>
	<path class="st6" d="M186.5,283.37c0,0,11-5,22-6c0,0-8,3-17,13c0,0,8,0,15-3s5-3,13-4c0,0-5,3-11,10"/>
	<path class="st6" d="M211.5,295.37c0,0,4-5,12-7"/>
	<path class="st6" d="M213.5,304.37c0,0,13-1,25-7s16-6,16-6s-9,4-16,11l10-3l-6,5c0,0,8,2,15-2c0,0,1,2-6,6"/>
	<path class="st6" d="M269.5,303.37c0,0-2,6-12,10c0,0,9,1,14-2c0,0-5,7-15,9"/>
	<path class="st6" d="M262.5,322.37c0,0,11,0,17-6c0,0-2,5-8,8"/>
	<path class="st6" d="M269.5,330.37c0,0,7-1,15-4c0,0,0,1-5,4c0,0,12-5,22-6c0,0-11,3-18,11"/>
	<path class="st6" d="M290.5,337.37c0,0,6-7,23-11c0,0-7,5-17,15"/>
	<path class="st6" d="M301.5,344.37c0,0,8-9,25-11c0,0-7,4-13,10"/>
	<path class="st6" d="M331.5,341.37c0,0-3-1-8,5"/>
	<path class="st6" d="M235.5,275.37c0,0,3,3,9,0s12-7,21-7c0,0-10,3-15,11"/>
	<path class="st6" d="M256.5,279.37c0,0,11-5,23-6c0,0-4,0-9,6"/>
	<path class="st6" d="M279.5,280.37c0,0-7,5-8,5"/>
	<path class="st6" d="M279.5,285.37c0,0-5,4-10,6c0,0,11-1,23-6s19-5,19-5s-11,4-19,11"/>
	<path class="st6" d="M301.5,305.37c0,0,0,5,10,3s9-4,20-6c0,0-10,6-14,14"/>
	<path class="st6" d="M334.5,320.37c0,0,6,1,16-4c0,0-4,8-16,14"/>
	<path class="st6" d="M344.5,330.37c0,0,12-2,20-6"/>
</g>
<g id="Vitigno">
	<polygon class="st2" points="1087.94,1352.63 1107.01,1363.87 1126.56,1352.63 1107.01,1341.87 	"/>
	<polygon class="st1" points="1094.25,1352.71 1107.09,1360.28 1120.25,1352.71 1107.09,1345.47 	"/>
	<polyline class="st2" points="1126.75,1352.37 1126.56,1361.63 1107.01,1372.87 1087.94,1361.63 1087.75,1352.37 	"/>
	<path class="st2" d="M1120.25,1365.35v34.52c0,0-1,9-13,9s-13-9-13-9v-34.52"/>
	<path class="st2" d="M1098.76,1406.68v11.7l1.99,3l5,2c0,0,2,0,3,0s5-2,5-2l2-2v-13"/>
	<path class="st2" d="M1118.75,1422.37c0,0-3.59-1.24-5,3c-1,3-1,5-5,5"/>
	<path class="st2" d="M1090.75,1414.37c0,0,4,1,5,6s7,5,7,5"/>
	<g>
		<line class="st10" x1="1163.94" y1="1419.17" x2="882.93" y2="1581.98"/>
		<line class="st11" x1="891.31" y1="1577.14" x2="891.31" y2="1629.02"/>
		<line class="st11" x1="957.65" y1="1538.54" x2="957.65" y2="1590.42"/>
		<line class="st11" x1="1023.98" y1="1499.95" x2="1023.98" y2="1551.83"/>
		<line class="st11" x1="1090.31" y1="1461.36" x2="1090.31" y2="1513.24"/>
		<line class="st11" x1="1156.64" y1="1422.76" x2="1156.64" y2="1474.64"/>
		<path class="st12" d="M888.96,1627.81c0,0,8.44,0,8.44-7.24c0-7.24-6.09-7.04-6.09-7.04"/>
		<path class="st12" d="M890.17,1598.87c0,0,7.24,0,7.24-7.24c0-7.24-6.09-7.04-6.09-7.04"/>
		<path class="st12" d="M890.17,1599.07c0,0-8.44,0-8.44,7.24c0,7.24,6.09,7.04,6.09,7.04"/>
		<path class="st12" d="M890.17,1584.39c0,0-8.44-4.82-3.62-9.65c4.82-4.82,8.12,0.25,9.65,4.82c1.21,3.62,18.09,4.82,10.85-10.85"
			/>
		<path class="st12" d="M907.05,1567.51c0,0-1.21-7.24,4.82-10.85s10.79,2.3,10.79,2.3"/>
		<path class="st12" d="M938.41,1549.42c0,0-1.21-7.24,4.82-10.85c6.03-3.62,10.79,2.3,10.79,2.3"/>
		<path class="st12" d="M969.76,1531.33c0,0-1.21-7.24,4.82-10.85c6.03-3.62,10.79,2.3,10.79,2.3"/>
		<path class="st12" d="M1001.12,1513.24c0,0-1.21-7.24,4.82-10.85s10.79,2.3,10.79,2.3"/>
		<path class="st12" d="M1032.48,1495.15c0,0-1.21-7.24,4.82-10.85c6.03-3.62,10.79,2.3,10.79,2.3"/>
		<path class="st12" d="M1063.84,1477.06c0,0-1.21-7.24,4.82-10.85c6.03-3.62,10.79,2.3,10.79,2.3"/>
		<path class="st12" d="M1095.19,1458.97c0,0-1.21-7.24,4.82-10.85c6.03-3.62,10.79,2.3,10.79,2.3"/>
		<path class="st12" d="M1126.55,1440.87c0,0-1.21-7.24,4.82-10.85c6.03-3.62,10.79,2.3,10.79,2.3"/>
		<path class="st12" d="M1157.91,1422.78c0,0-1.21-7.24,4.82-10.85c6.03-3.62,10.79,2.3,10.79,2.3s6.09,9.76,0.06,16.99
			c-6.03,7.24-16.33,1.31-22.91,14.47c-6.03,12.06,5.97,13.27,5.97,13.27s10.91,2.41,9.71,12.06"/>
		<path class="st12" d="M938.19,1550.59c0,0,1.27,7.22-4.72,10.9s-10.81-2.2-10.81-2.2"/>
		<path class="st12" d="M970.75,1532.5c0,0,1.27,7.22-4.72,10.9s-10.81-2.2-10.81-2.2"/>
		<path class="st12" d="M1003.32,1514.41c0,0,1.27,7.22-4.72,10.9c-6,3.67-10.81-2.2-10.81-2.2"/>
		<path class="st12" d="M1032.26,1496.31c0,0,1.27,7.22-4.72,10.9s-10.81-2.2-10.81-2.2"/>
		<path class="st12" d="M1064.82,1478.22c0,0,1.27,7.22-4.72,10.9s-10.81-2.2-10.81-2.2"/>
		<path class="st12" d="M1094.97,1461.34c0,0,1.27,7.22-4.72,10.9s-10.81-2.2-10.81-2.2"/>
		<path class="st12" d="M1126.33,1442.04c0,0,1.27,7.22-4.72,10.9c-6,3.67-10.81-2.2-10.81-2.2"/>
		<path class="st12" d="M1157.69,1423.95c0,0,1.27,7.22-4.72,10.9s-10.81-2.2-10.81-2.2"/>
		<g>
			<path class="st9" d="M898.27,1559.74c3.3-1.3,6.05-1.2,6.05-1.2c-0.35-2.3,0.94-3.42,0.94-3.42c3.27,2.37,3.62,4.68,3.62,4.68
				l-1.51,5.47c0,0-1.48,1.8-5.5,2.17c0,0-0.54-1.62,0.94-3.42C902.81,1564.02,900.44,1562.55,898.27,1559.74"/>
		</g>
		<g>
			<path class="st9" d="M880.17,1592.31c3.3-1.3,6.05-1.2,6.05-1.2c-0.35-2.3,0.94-3.42,0.94-3.42c3.27,2.37,3.62,4.68,3.62,4.68
				l-1.51,5.47c0,0-1.48,1.8-5.5,2.17c0,0-0.54-1.62,0.94-3.42C884.72,1596.58,882.35,1595.11,880.17,1592.31"/>
		</g>
		<g>
			<path class="st9" d="M951.77,1529.96c3.12,1.69,4.82,3.86,4.82,3.86c1.54-1.75,3.22-1.48,3.22-1.48
				c0.29,4.03-1.24,5.78-1.24,5.78l-5.16,2.38c0,0-2.33,0.03-5.2-2.81c0,0,0.89-1.45,3.22-1.48
				C951.43,1536.19,951.02,1533.43,951.77,1529.96"/>
		</g>
		<g>
			<path class="st9" d="M985.17,1533.59c-1.44-3.25-1.45-6-1.45-6c-2.29,0.44-3.46-0.8-3.46-0.8c2.24-3.37,4.52-3.81,4.52-3.81
				l5.53,1.28c0,0,1.86,1.4,2.39,5.41c0,0-1.6,0.6-3.46-0.8C989.26,1528.87,987.89,1531.3,985.17,1533.59"/>
		</g>
		<g>
			<path class="st9" d="M1016.53,1517.47c-3.23-1.47-5.07-3.52-5.07-3.52c-1.42,1.85-3.12,1.7-3.12,1.7c-0.57-4,0.85-5.85,0.85-5.85
				l4.98-2.72c0,0,2.32-0.19,5.38,2.45c0,0-0.79,1.51-3.12,1.7C1016.45,1511.23,1017.04,1513.96,1016.53,1517.47"/>
		</g>
		<g>
			<path class="st9" d="M1096.13,1478.88c-3.23-1.47-5.07-3.52-5.07-3.52c-1.42,1.85-3.12,1.7-3.12,1.7c-0.57-4,0.85-5.85,0.85-5.85
				l4.98-2.72c0,0,2.32-0.19,5.38,2.45c0,0-0.79,1.51-3.12,1.7C1096.04,1472.64,1096.64,1475.37,1096.13,1478.88"/>
		</g>
		<g>
			<path class="st9" d="M1055.03,1469.38c3.28-1.36,6.03-1.3,6.03-1.3c-0.39-2.3,0.88-3.44,0.88-3.44c3.31,2.31,3.7,4.61,3.7,4.61
				l-1.41,5.5c0,0-1.44,1.83-5.46,2.26c0,0-0.56-1.61,0.88-3.44C1059.65,1473.57,1057.25,1472.14,1055.03,1469.38"/>
		</g>
		<g>
			<path class="st9" d="M1149.1,1416.31c3.28-1.36,6.03-1.3,6.03-1.3c-0.39-2.3,0.88-3.44,0.88-3.44c3.31,2.31,3.7,4.61,3.7,4.61
				l-1.41,5.5c0,0-1.44,1.83-5.46,2.26c0,0-0.56-1.61,0.88-3.44C1153.72,1420.51,1151.32,1419.08,1149.1,1416.31"/>
		</g>
		<g>
			<path class="st9" d="M1117.74,1431.99c3.28-1.36,6.03-1.3,6.03-1.3c-0.39-2.3,0.88-3.44,0.88-3.44c3.31,2.31,3.7,4.61,3.7,4.61
				l-1.41,5.5c0,0-1.44,1.83-5.46,2.26c0,0-0.56-1.61,0.88-3.44C1122.36,1436.18,1119.96,1434.76,1117.74,1431.99"/>
		</g>
		<g>
			<path class="st9" d="M1095.25,1439.52c3.14,1.66,4.85,3.82,4.85,3.82c1.52-1.76,3.21-1.51,3.21-1.51c0.33,4.03-1.2,5.79-1.2,5.79
				l-5.14,2.42c0,0-2.33,0.05-5.23-2.77c0,0,0.88-1.46,3.21-1.51C1094.96,1445.76,1094.53,1442.99,1095.25,1439.52"/>
		</g>
		<circle class="st9" cx="919.11" cy="1563.89" r="1.81"/>
		<circle class="st9" cx="922.73" cy="1562.69" r="1.81"/>
		<circle class="st9" cx="921.52" cy="1565.1" r="1.81"/>
		<circle class="st9" cx="920.32" cy="1567.51" r="1.81"/>
		<circle class="st9" cx="925.14" cy="1565.1" r="1.81"/>
		<circle class="st9" cx="926.35" cy="1562.69" r="1.81"/>
		<circle class="st9" cx="923.93" cy="1569.92" r="1.81"/>
		<circle class="st9" cx="923.93" cy="1567.51" r="1.81"/>
		<circle class="st9" cx="921.52" cy="1569.92" r="1.81"/>
		<circle class="st9" cx="922.73" cy="1572.33" r="1.81"/>
		<circle class="st9" cx="991.47" cy="1527.71" r="1.81"/>
		<circle class="st9" cx="995.09" cy="1526.5" r="1.81"/>
		<circle class="st9" cx="993.89" cy="1528.92" r="1.81"/>
		<circle class="st9" cx="992.68" cy="1531.33" r="1.81"/>
		<circle class="st9" cx="997.5" cy="1528.92" r="1.81"/>
		<circle class="st9" cx="998.71" cy="1526.5" r="1.81"/>
		<circle class="st9" cx="996.3" cy="1533.74" r="1.81"/>
		<circle class="st9" cx="996.3" cy="1531.33" r="1.81"/>
		<circle class="st9" cx="993.89" cy="1533.74" r="1.81"/>
		<circle class="st9" cx="995.09" cy="1536.15" r="1.81"/>
		<circle class="st9" cx="1104.84" cy="1452.93" r="1.81"/>
		<circle class="st9" cx="1108.46" cy="1451.73" r="1.81"/>
		<circle class="st9" cx="1107.25" cy="1454.14" r="1.81"/>
		<circle class="st9" cx="1106.05" cy="1456.55" r="1.81"/>
		<circle class="st9" cx="1110.87" cy="1454.14" r="1.81"/>
		<circle class="st9" cx="1112.08" cy="1451.73" r="1.81"/>
		<circle class="st9" cx="1109.67" cy="1458.97" r="1.81"/>
		<circle class="st9" cx="1109.67" cy="1456.55" r="1.81"/>
		<circle class="st9" cx="1107.25" cy="1458.97" r="1.81"/>
		<circle class="st9" cx="1108.46" cy="1461.38" r="1.81"/>
	</g>
	<g>
		<line class="st10" x1="1060.94" y1="1387.17" x2="779.93" y2="1549.98"/>
		<line class="st11" x1="788.31" y1="1545.14" x2="788.31" y2="1597.02"/>
		<line class="st11" x1="854.65" y1="1506.54" x2="854.65" y2="1558.42"/>
		<line class="st11" x1="920.98" y1="1467.95" x2="920.98" y2="1519.83"/>
		<line class="st11" x1="987.31" y1="1429.36" x2="987.31" y2="1481.24"/>
		<line class="st11" x1="1053.64" y1="1390.76" x2="1053.64" y2="1442.64"/>
		<path class="st12" d="M785.96,1595.81c0,0,8.44,0,8.44-7.24c0-7.24-6.09-7.04-6.09-7.04"/>
		<path class="st12" d="M787.17,1566.87c0,0,7.24,0,7.24-7.24c0-7.24-6.09-7.04-6.09-7.04"/>
		<path class="st12" d="M787.17,1567.07c0,0-8.44,0-8.44,7.24c0,7.24,6.09,7.04,6.09,7.04"/>
		<path class="st12" d="M787.17,1552.39c0,0-8.44-4.82-3.62-9.65c4.82-4.82,8.12,0.25,9.65,4.82c1.21,3.62,18.09,4.82,10.85-10.85"
			/>
		<path class="st12" d="M804.05,1535.51c0,0-1.21-7.24,4.82-10.85s10.79,2.3,10.79,2.3"/>
		<path class="st12" d="M835.41,1517.42c0,0-1.21-7.24,4.82-10.85c6.03-3.62,10.79,2.3,10.79,2.3"/>
		<path class="st12" d="M866.76,1499.33c0,0-1.21-7.24,4.82-10.85c6.03-3.62,10.79,2.3,10.79,2.3"/>
		<path class="st12" d="M898.12,1481.24c0,0-1.21-7.24,4.82-10.85s10.79,2.3,10.79,2.3"/>
		<path class="st12" d="M929.48,1463.15c0,0-1.21-7.24,4.82-10.85s10.79,2.3,10.79,2.3"/>
		<path class="st12" d="M960.84,1445.06c0,0-1.21-7.24,4.82-10.85c6.03-3.62,10.79,2.3,10.79,2.3"/>
		<path class="st12" d="M992.19,1426.97c0,0-1.21-7.24,4.82-10.85s10.79,2.3,10.79,2.3"/>
		<path class="st12" d="M1023.55,1408.87c0,0-1.21-7.24,4.82-10.85c6.03-3.62,10.79,2.3,10.79,2.3"/>
		<path class="st12" d="M1054.91,1390.78c0,0-1.21-7.24,4.82-10.85c6.03-3.62,10.79,2.3,10.79,2.3s6.09,9.76,0.06,16.99
			c-6.03,7.24-16.33,1.31-22.91,14.47c-6.03,12.06,5.97,13.27,5.97,13.27s10.91,2.41,9.71,12.06"/>
		<path class="st12" d="M835.19,1518.59c0,0,1.27,7.22-4.72,10.9s-10.81-2.2-10.81-2.2"/>
		<path class="st12" d="M867.75,1500.5c0,0,1.27,7.22-4.72,10.9s-10.81-2.2-10.81-2.2"/>
		<path class="st12" d="M900.32,1482.41c0,0,1.27,7.22-4.72,10.9c-6,3.67-10.81-2.2-10.81-2.2"/>
		<path class="st12" d="M929.26,1464.31c0,0,1.27,7.22-4.72,10.9s-10.81-2.2-10.81-2.2"/>
		<path class="st12" d="M961.82,1446.22c0,0,1.27,7.22-4.72,10.9c-6,3.67-10.81-2.2-10.81-2.2"/>
		<path class="st12" d="M991.97,1429.34c0,0,1.27,7.22-4.72,10.9s-10.81-2.2-10.81-2.2"/>
		<path class="st12" d="M1023.33,1410.04c0,0,1.27,7.22-4.72,10.9c-6,3.67-10.81-2.2-10.81-2.2"/>
		<path class="st12" d="M1054.69,1391.95c0,0,1.27,7.22-4.72,10.9s-10.81-2.2-10.81-2.2"/>
		<g>
			<path class="st9" d="M795.27,1527.74c3.3-1.3,6.05-1.2,6.05-1.2c-0.35-2.3,0.94-3.42,0.94-3.42c3.27,2.37,3.62,4.68,3.62,4.68
				l-1.51,5.47c0,0-1.48,1.8-5.5,2.17c0,0-0.54-1.62,0.94-3.42C799.81,1532.02,797.44,1530.55,795.27,1527.74"/>
		</g>
		<g>
			<path class="st9" d="M777.17,1560.31c3.3-1.3,6.05-1.2,6.05-1.2c-0.35-2.3,0.94-3.42,0.94-3.42c3.27,2.37,3.62,4.68,3.62,4.68
				l-1.51,5.47c0,0-1.48,1.8-5.5,2.17c0,0-0.54-1.62,0.94-3.42C781.72,1564.58,779.35,1563.11,777.17,1560.31"/>
		</g>
		<g>
			<path class="st9" d="M848.77,1497.96c3.12,1.69,4.82,3.86,4.82,3.86c1.54-1.75,3.22-1.48,3.22-1.48
				c0.29,4.03-1.24,5.78-1.24,5.78l-5.16,2.38c0,0-2.33,0.03-5.2-2.81c0,0,0.89-1.45,3.22-1.48
				C848.43,1504.19,848.02,1501.43,848.77,1497.96"/>
		</g>
		<g>
			<path class="st9" d="M882.17,1501.59c-1.44-3.25-1.45-6-1.45-6c-2.29,0.44-3.46-0.8-3.46-0.8c2.24-3.37,4.52-3.81,4.52-3.81
				l5.53,1.28c0,0,1.86,1.4,2.39,5.41c0,0-1.6,0.6-3.46-0.8C886.26,1496.87,884.89,1499.3,882.17,1501.59"/>
		</g>
		<g>
			<path class="st9" d="M913.53,1485.47c-3.23-1.47-5.07-3.52-5.07-3.52c-1.42,1.85-3.12,1.7-3.12,1.7c-0.57-4,0.85-5.85,0.85-5.85
				l4.98-2.72c0,0,2.32-0.19,5.38,2.45c0,0-0.79,1.51-3.12,1.7C913.45,1479.23,914.04,1481.96,913.53,1485.47"/>
		</g>
		<g>
			<path class="st9" d="M993.13,1446.88c-3.23-1.47-5.07-3.52-5.07-3.52c-1.42,1.85-3.12,1.7-3.12,1.7c-0.57-4,0.85-5.85,0.85-5.85
				l4.98-2.72c0,0,2.32-0.19,5.38,2.45c0,0-0.79,1.51-3.12,1.7C993.04,1440.64,993.64,1443.37,993.13,1446.88"/>
		</g>
		<g>
			<path class="st9" d="M952.03,1437.38c3.28-1.36,6.03-1.3,6.03-1.3c-0.39-2.3,0.88-3.44,0.88-3.44c3.31,2.31,3.7,4.61,3.7,4.61
				l-1.41,5.5c0,0-1.44,1.83-5.46,2.26c0,0-0.56-1.61,0.88-3.44C956.65,1441.57,954.25,1440.14,952.03,1437.38"/>
		</g>
		<g>
			<path class="st9" d="M1046.1,1384.31c3.28-1.36,6.03-1.3,6.03-1.3c-0.39-2.3,0.88-3.44,0.88-3.44c3.31,2.31,3.7,4.61,3.7,4.61
				l-1.41,5.5c0,0-1.44,1.83-5.46,2.26c0,0-0.56-1.61,0.88-3.44C1050.72,1388.51,1048.32,1387.08,1046.1,1384.31"/>
		</g>
		<g>
			<path class="st9" d="M1014.74,1399.99c3.28-1.36,6.03-1.3,6.03-1.3c-0.39-2.3,0.88-3.44,0.88-3.44c3.31,2.31,3.7,4.61,3.7,4.61
				l-1.41,5.5c0,0-1.44,1.83-5.46,2.26c0,0-0.56-1.61,0.88-3.44C1019.36,1404.18,1016.96,1402.76,1014.74,1399.99"/>
		</g>
		<g>
			<path class="st9" d="M992.25,1407.52c3.14,1.66,4.85,3.82,4.85,3.82c1.52-1.76,3.21-1.51,3.21-1.51c0.33,4.03-1.2,5.79-1.2,5.79
				l-5.14,2.42c0,0-2.33,0.05-5.23-2.77c0,0,0.88-1.46,3.21-1.51C991.96,1413.76,991.53,1410.99,992.25,1407.52"/>
		</g>
		<circle class="st9" cx="816.11" cy="1531.89" r="1.81"/>
		<circle class="st9" cx="819.73" cy="1530.69" r="1.81"/>
		<circle class="st9" cx="818.52" cy="1533.1" r="1.81"/>
		<circle class="st9" cx="817.32" cy="1535.51" r="1.81"/>
		<circle class="st9" cx="822.14" cy="1533.1" r="1.81"/>
		<circle class="st9" cx="823.35" cy="1530.69" r="1.81"/>
		<circle class="st9" cx="820.93" cy="1537.92" r="1.81"/>
		<circle class="st9" cx="820.93" cy="1535.51" r="1.81"/>
		<circle class="st9" cx="818.52" cy="1537.92" r="1.81"/>
		<circle class="st9" cx="819.73" cy="1540.33" r="1.81"/>
		<circle class="st9" cx="888.47" cy="1495.71" r="1.81"/>
		<circle class="st9" cx="892.09" cy="1494.5" r="1.81"/>
		<circle class="st9" cx="890.89" cy="1496.92" r="1.81"/>
		<circle class="st9" cx="889.68" cy="1499.33" r="1.81"/>
		<circle class="st9" cx="894.5" cy="1496.92" r="1.81"/>
		<circle class="st9" cx="895.71" cy="1494.5" r="1.81"/>
		<circle class="st9" cx="893.3" cy="1501.74" r="1.81"/>
		<circle class="st9" cx="893.3" cy="1499.33" r="1.81"/>
		<circle class="st9" cx="890.89" cy="1501.74" r="1.81"/>
		<circle class="st9" cx="892.09" cy="1504.15" r="1.81"/>
		<circle class="st9" cx="1001.84" cy="1420.93" r="1.81"/>
		<circle class="st9" cx="1005.46" cy="1419.73" r="1.81"/>
		<circle class="st9" cx="1004.25" cy="1422.14" r="1.81"/>
		<circle class="st9" cx="1003.05" cy="1424.55" r="1.81"/>
		<circle class="st9" cx="1007.87" cy="1422.14" r="1.81"/>
		<circle class="st9" cx="1009.08" cy="1419.73" r="1.81"/>
		<circle class="st9" cx="1006.67" cy="1426.97" r="1.81"/>
		<circle class="st9" cx="1006.67" cy="1424.55" r="1.81"/>
		<circle class="st9" cx="1004.25" cy="1426.97" r="1.81"/>
		<circle class="st9" cx="1005.46" cy="1429.38" r="1.81"/>
	</g>
	<g>
		<line class="st10" x1="1025.94" y1="1325.17" x2="744.93" y2="1487.98"/>
		<line class="st11" x1="753.31" y1="1483.14" x2="753.31" y2="1535.02"/>
		<line class="st11" x1="819.65" y1="1444.54" x2="819.65" y2="1496.42"/>
		<line class="st11" x1="885.98" y1="1405.95" x2="885.98" y2="1457.83"/>
		<line class="st11" x1="952.31" y1="1367.36" x2="952.31" y2="1419.24"/>
		<line class="st11" x1="1018.64" y1="1328.76" x2="1018.64" y2="1380.64"/>
		<path class="st12" d="M750.96,1533.81c0,0,8.44,0,8.44-7.24c0-7.24-6.09-7.04-6.09-7.04"/>
		<path class="st12" d="M752.17,1504.87c0,0,7.24,0,7.24-7.24c0-7.24-6.09-7.04-6.09-7.04"/>
		<path class="st12" d="M752.17,1505.07c0,0-8.44,0-8.44,7.24c0,7.24,6.09,7.04,6.09,7.04"/>
		<path class="st12" d="M752.17,1490.39c0,0-8.44-4.82-3.62-9.65c4.82-4.82,8.12,0.25,9.65,4.82c1.21,3.62,18.09,4.82,10.85-10.85"
			/>
		<path class="st12" d="M769.05,1473.51c0,0-1.21-7.24,4.82-10.85s10.79,2.3,10.79,2.3"/>
		<path class="st12" d="M800.41,1455.42c0,0-1.21-7.24,4.82-10.85c6.03-3.62,10.79,2.3,10.79,2.3"/>
		<path class="st12" d="M831.76,1437.33c0,0-1.21-7.24,4.82-10.85c6.03-3.62,10.79,2.3,10.79,2.3"/>
		<path class="st12" d="M863.12,1419.24c0,0-1.21-7.24,4.82-10.85s10.79,2.3,10.79,2.3"/>
		<path class="st12" d="M894.48,1401.15c0,0-1.21-7.24,4.82-10.85s10.79,2.3,10.79,2.3"/>
		<path class="st12" d="M925.84,1383.06c0,0-1.21-7.24,4.82-10.85c6.03-3.62,10.79,2.3,10.79,2.3"/>
		<path class="st12" d="M957.19,1364.97c0,0-1.21-7.24,4.82-10.85s10.79,2.3,10.79,2.3"/>
		<path class="st12" d="M988.55,1346.87c0,0-1.21-7.24,4.82-10.85s10.79,2.3,10.79,2.3"/>
		<path class="st12" d="M1019.91,1328.78c0,0-1.21-7.24,4.82-10.85c6.03-3.62,10.79,2.3,10.79,2.3s6.09,9.76,0.06,16.99
			c-6.03,7.24-16.33,1.31-22.91,14.47c-6.03,12.06,5.97,13.27,5.97,13.27s10.91,2.41,9.71,12.06"/>
		<path class="st12" d="M800.19,1456.59c0,0,1.27,7.22-4.72,10.9s-10.81-2.2-10.81-2.2"/>
		<path class="st12" d="M832.75,1438.5c0,0,1.27,7.22-4.72,10.9s-10.81-2.2-10.81-2.2"/>
		<path class="st12" d="M865.32,1420.41c0,0,1.27,7.22-4.72,10.9c-6,3.67-10.81-2.2-10.81-2.2"/>
		<path class="st12" d="M894.26,1402.31c0,0,1.27,7.22-4.72,10.9s-10.81-2.2-10.81-2.2"/>
		<path class="st12" d="M926.82,1384.22c0,0,1.27,7.22-4.72,10.9c-6,3.67-10.81-2.2-10.81-2.2"/>
		<path class="st12" d="M956.97,1367.34c0,0,1.27,7.22-4.72,10.9s-10.81-2.2-10.81-2.2"/>
		<path class="st12" d="M988.33,1348.04c0,0,1.27,7.22-4.72,10.9c-6,3.67-10.81-2.2-10.81-2.2"/>
		<path class="st12" d="M1019.69,1329.95c0,0,1.27,7.22-4.72,10.9s-10.81-2.2-10.81-2.2"/>
		<g>
			<path class="st9" d="M760.27,1465.74c3.3-1.3,6.05-1.2,6.05-1.2c-0.35-2.3,0.94-3.42,0.94-3.42c3.27,2.37,3.62,4.68,3.62,4.68
				l-1.51,5.47c0,0-1.48,1.8-5.5,2.17c0,0-0.54-1.62,0.94-3.42C764.81,1470.02,762.44,1468.55,760.27,1465.74"/>
		</g>
		<g>
			<path class="st9" d="M742.17,1498.31c3.3-1.3,6.05-1.2,6.05-1.2c-0.35-2.3,0.94-3.42,0.94-3.42c3.27,2.37,3.62,4.68,3.62,4.68
				l-1.51,5.47c0,0-1.48,1.8-5.5,2.17c0,0-0.54-1.62,0.94-3.42C746.72,1502.58,744.35,1501.11,742.17,1498.31"/>
		</g>
		<g>
			<path class="st9" d="M813.77,1435.96c3.12,1.69,4.82,3.86,4.82,3.86c1.54-1.75,3.22-1.48,3.22-1.48
				c0.29,4.03-1.24,5.78-1.24,5.78l-5.16,2.38c0,0-2.33,0.03-5.2-2.81c0,0,0.89-1.45,3.22-1.48
				C813.43,1442.19,813.02,1439.43,813.77,1435.96"/>
		</g>
		<g>
			<path class="st9" d="M847.17,1439.59c-1.44-3.25-1.45-6-1.45-6c-2.29,0.44-3.46-0.8-3.46-0.8c2.24-3.37,4.52-3.81,4.52-3.81
				l5.53,1.28c0,0,1.86,1.4,2.39,5.41c0,0-1.6,0.6-3.46-0.8C851.26,1434.87,849.89,1437.3,847.17,1439.59"/>
		</g>
		<g>
			<path class="st9" d="M878.53,1423.47c-3.23-1.47-5.07-3.52-5.07-3.52c-1.42,1.85-3.12,1.7-3.12,1.7c-0.57-4,0.85-5.85,0.85-5.85
				l4.98-2.72c0,0,2.32-0.19,5.38,2.45c0,0-0.79,1.51-3.12,1.7C878.45,1417.23,879.04,1419.96,878.53,1423.47"/>
		</g>
		<g>
			<path class="st9" d="M958.13,1384.88c-3.23-1.47-5.07-3.52-5.07-3.52c-1.42,1.85-3.12,1.7-3.12,1.7c-0.57-4,0.85-5.85,0.85-5.85
				l4.98-2.72c0,0,2.32-0.19,5.38,2.45c0,0-0.79,1.51-3.12,1.7C958.04,1378.64,958.64,1381.37,958.13,1384.88"/>
		</g>
		<g>
			<path class="st9" d="M917.03,1375.38c3.28-1.36,6.03-1.3,6.03-1.3c-0.39-2.3,0.88-3.44,0.88-3.44c3.31,2.31,3.7,4.61,3.7,4.61
				l-1.41,5.5c0,0-1.44,1.83-5.46,2.26c0,0-0.56-1.61,0.88-3.44C921.65,1379.57,919.25,1378.14,917.03,1375.38"/>
		</g>
		<g>
			<path class="st9" d="M1011.1,1322.31c3.28-1.36,6.03-1.3,6.03-1.3c-0.39-2.3,0.88-3.44,0.88-3.44c3.31,2.31,3.7,4.61,3.7,4.61
				l-1.41,5.5c0,0-1.44,1.83-5.46,2.26c0,0-0.56-1.61,0.88-3.44C1015.72,1326.51,1013.32,1325.08,1011.1,1322.31"/>
		</g>
		<g>
			<path class="st9" d="M979.74,1337.99c3.28-1.36,6.03-1.3,6.03-1.3c-0.39-2.3,0.88-3.44,0.88-3.44c3.31,2.31,3.7,4.61,3.7,4.61
				l-1.41,5.5c0,0-1.44,1.83-5.46,2.26c0,0-0.56-1.61,0.88-3.44C984.36,1342.18,981.96,1340.76,979.74,1337.99"/>
		</g>
		<g>
			<path class="st9" d="M957.25,1345.52c3.14,1.66,4.85,3.82,4.85,3.82c1.52-1.76,3.21-1.51,3.21-1.51c0.33,4.03-1.2,5.79-1.2,5.79
				l-5.14,2.42c0,0-2.33,0.05-5.23-2.77c0,0,0.88-1.46,3.21-1.51C956.96,1351.76,956.53,1348.99,957.25,1345.52"/>
		</g>
		<circle class="st9" cx="781.11" cy="1469.89" r="1.81"/>
		<circle class="st9" cx="784.73" cy="1468.69" r="1.81"/>
		<circle class="st9" cx="783.52" cy="1471.1" r="1.81"/>
		<circle class="st9" cx="782.32" cy="1473.51" r="1.81"/>
		<circle class="st9" cx="787.14" cy="1471.1" r="1.81"/>
		<circle class="st9" cx="788.35" cy="1468.69" r="1.81"/>
		<circle class="st9" cx="785.93" cy="1475.92" r="1.81"/>
		<circle class="st9" cx="785.93" cy="1473.51" r="1.81"/>
		<circle class="st9" cx="783.52" cy="1475.92" r="1.81"/>
		<circle class="st9" cx="784.73" cy="1478.33" r="1.81"/>
		<circle class="st9" cx="853.47" cy="1433.71" r="1.81"/>
		<circle class="st9" cx="857.09" cy="1432.5" r="1.81"/>
		<circle class="st9" cx="855.89" cy="1434.92" r="1.81"/>
		<circle class="st9" cx="854.68" cy="1437.33" r="1.81"/>
		<circle class="st9" cx="859.5" cy="1434.92" r="1.81"/>
		<circle class="st9" cx="860.71" cy="1432.5" r="1.81"/>
		<circle class="st9" cx="858.3" cy="1439.74" r="1.81"/>
		<circle class="st9" cx="858.3" cy="1437.33" r="1.81"/>
		<circle class="st9" cx="855.89" cy="1439.74" r="1.81"/>
		<circle class="st9" cx="857.09" cy="1442.15" r="1.81"/>
		<circle class="st9" cx="966.84" cy="1358.93" r="1.81"/>
		<circle class="st9" cx="970.46" cy="1357.73" r="1.81"/>
		<circle class="st9" cx="969.25" cy="1360.14" r="1.81"/>
		<circle class="st9" cx="968.05" cy="1362.55" r="1.81"/>
		<circle class="st9" cx="972.87" cy="1360.14" r="1.81"/>
		<circle class="st9" cx="974.08" cy="1357.73" r="1.81"/>
		<circle class="st9" cx="971.67" cy="1364.97" r="1.81"/>
		<circle class="st9" cx="971.67" cy="1362.55" r="1.81"/>
		<circle class="st9" cx="969.25" cy="1364.97" r="1.81"/>
		<circle class="st9" cx="970.46" cy="1367.38" r="1.81"/>
	</g>
	<polyline class="st6" points="1119.75,1402.37 1185.25,1439.87 1185.25,1573.87 1073.75,1638.37 839.75,1638.37 734.75,1577.37 
		734.75,1478.37 936.25,1362.87 1051.25,1362.87 1093.75,1387.37 	"/>
</g>
<g>
	<g>
		<g>
			<g>
				<path class="st7" d="M322.27,1226.42l3.48,1.05c11.74,3.53,15.99,8.01,18.8,19.97l0.64,2.72"/>
				<path class="st7" d="M335.47,1213.67l3.48,1.05c11.74,3.53,15.99,8.01,18.8,19.97l0.64,2.72"/>
				<path class="st7" d="M348.66,1200.93l3.48,1.05c11.74,3.53,15.99,8.01,18.8,19.97l0.64,2.72"/>
				<path class="st7" d="M361.85,1188.19l3.48,1.05c11.74,3.53,15.99,8.01,18.8,19.97l0.64,2.72"/>
			</g>
			<g>
				<path class="st7" d="M373.73,1176.71l3.48,1.05c11.74,3.53,15.99,8.01,18.8,19.97l0.64,2.72"/>
				<path class="st7" d="M386.92,1163.97l3.48,1.05c11.74,3.53,15.99,8.01,18.8,19.97l0.64,2.72"/>
				<path class="st7" d="M400.11,1151.22l3.48,1.05c11.74,3.53,15.99,8.01,18.8,19.97l0.64,2.72"/>
				<path class="st7" d="M413.31,1138.48l3.48,1.05c11.74,3.53,15.99,8.01,18.8,19.97l0.64,2.72"/>
			</g>
			<g>
				<path class="st7" d="M425.19,1127l3.48,1.05c11.74,3.53,15.99,8.01,18.8,19.97l0.64,2.72"/>
				<path class="st7" d="M438.38,1114.26l3.48,1.05c11.74,3.53,15.99,8.01,18.8,19.97l0.64,2.72"/>
				<path class="st7" d="M451.57,1101.51l3.48,1.05c11.74,3.53,15.99,8.01,18.8,19.97l0.64,2.72"/>
				<path class="st7" d="M464.76,1088.77l3.48,1.05c11.74,3.53,15.99,8.01,18.8,19.97l0.64,2.72"/>
			</g>
			<g>
				<path class="st7" d="M476.64,1077.29l3.48,1.05c11.74,3.53,15.99,8.01,18.8,19.97l0.64,2.72"/>
				<path class="st7" d="M489.83,1064.55l3.48,1.05c11.74,3.53,15.99,8.01,18.8,19.97l0.64,2.72"/>
				<path class="st7" d="M503.02,1051.81l3.48,1.05c11.74,3.53,15.99,8.01,18.8,19.97l0.64,2.72"/>
				<path class="st7" d="M516.22,1039.06l3.48,1.05c11.74,3.53,15.99,8.01,18.8,19.97l0.64,2.72"/>
			</g>
		</g>
	</g>
</g>
<g>
	<g>
		<g>
			<g>
				<path class="st7" d="M1069.63,1346.33l0.77-3.63c2.6-12.23,6.87-16.69,19.05-19.74l2.77-0.69"/>
				<path class="st7" d="M1055.19,1332.77l0.77-3.63c2.6-12.23,6.87-16.69,19.05-19.74l2.77-0.69"/>
				<path class="st7" d="M1040.74,1319.21l0.77-3.63c2.6-12.23,6.87-16.69,19.05-19.74l2.77-0.69"/>
				<path class="st7" d="M1026.3,1305.65l0.77-3.63c2.6-12.23,6.87-16.69,19.05-19.74l2.77-0.69"/>
			</g>
			<g>
				<path class="st7" d="M1013.29,1293.44l0.77-3.63c2.6-12.23,6.87-16.69,19.05-19.74l2.77-0.69"/>
				<path class="st7" d="M998.84,1279.87l0.77-3.63c2.6-12.23,6.87-16.69,19.05-19.74l2.77-0.69"/>
				<path class="st7" d="M984.39,1266.31l0.77-3.63c2.6-12.23,6.87-16.69,19.05-19.74l2.77-0.69"/>
				<path class="st7" d="M969.95,1252.75l0.77-3.63c2.6-12.23,6.87-16.69,19.05-19.74l2.77-0.69"/>
			</g>
			<g>
				<path class="st7" d="M956.94,1240.54l0.77-3.63c2.6-12.23,6.87-16.69,19.05-19.74l2.77-0.69"/>
				<path class="st7" d="M942.49,1226.98l0.77-3.63c2.6-12.23,6.87-16.69,19.05-19.74l2.77-0.69"/>
				<path class="st7" d="M928.05,1213.42l0.77-3.63c2.6-12.23,6.87-16.69,19.05-19.74l2.77-0.69"/>
				<path class="st7" d="M913.6,1199.86l0.77-3.63c2.6-12.23,6.87-16.69,19.05-19.74l2.77-0.69"/>
			</g>
			<g>
				<path class="st7" d="M900.59,1187.64l0.77-3.63c2.6-12.23,6.87-16.69,19.05-19.74l2.77-0.69"/>
				<path class="st7" d="M886.15,1174.08l0.77-3.63c2.6-12.23,6.87-16.69,19.05-19.74l2.77-0.69"/>
				<path class="st7" d="M871.7,1160.52l0.77-3.63c2.6-12.23,6.87-16.69,19.05-19.74l2.77-0.69"/>
				<path class="st7" d="M857.25,1146.96l0.77-3.63c2.6-12.23,6.87-16.69,19.05-19.74l2.77-0.69"/>
			</g>
			<g>
				<path class="st7" d="M844.24,1134.75l0.77-3.63c2.6-12.23,6.87-16.69,19.05-19.74l2.77-0.69"/>
				<path class="st7" d="M829.8,1121.19l0.77-3.63c2.6-12.23,6.87-16.69,19.05-19.74l2.77-0.69"/>
				<path class="st7" d="M815.35,1107.63l0.77-3.63c2.6-12.23,6.87-16.69,19.05-19.74l2.77-0.69"/>
				<path class="st7" d="M800.91,1094.06l0.77-3.63c2.6-12.23,6.87-16.69,19.05-19.74l2.77-0.69"/>
			</g>
			<g>
				<path class="st7" d="M787.9,1081.85l0.77-3.63c2.6-12.23,6.87-16.69,19.05-19.74l2.77-0.69"/>
				<path class="st7" d="M773.45,1068.29l0.77-3.63c2.6-12.23,6.87-16.69,19.05-19.74l2.77-0.69"/>
				<path class="st7" d="M759,1054.73l0.77-3.63c2.6-12.23,6.87-16.69,19.05-19.74l2.77-0.69"/>
				<path class="st7" d="M744.56,1041.17l0.77-3.63c2.6-12.23,6.87-16.69,19.05-19.74l2.77-0.69"/>
			</g>
		</g>
	</g>
</g>
<g>
	<g>
		<g>
			<g>
				<path class="st7" d="M443.56,471.73l-2.12,3.07c-7.15,10.34-12.83,12.75-25.28,10.64l-2.83-0.48"/>
				<path class="st7" d="M451.66,490.25l-2.12,3.07c-7.15,10.34-12.83,12.75-25.28,10.64l-2.83-0.48"/>
				<path class="st7" d="M459.77,508.77l-2.12,3.07c-7.15,10.34-12.83,12.75-25.28,10.64l-2.83-0.48"/>
				<path class="st7" d="M467.87,527.29l-2.12,3.07c-7.15,10.34-12.83,12.75-25.28,10.64l-2.83-0.48"/>
			</g>
			<g>
				<path class="st7" d="M475.17,543.97l-2.12,3.07c-7.15,10.34-12.83,12.75-25.28,10.64l-2.83-0.48"/>
				<path class="st7" d="M483.27,562.49l-2.12,3.07c-7.15,10.34-12.83,12.75-25.28,10.64l-2.83-0.48"/>
				<path class="st7" d="M491.37,581.01l-2.12,3.07c-7.15,10.34-12.83,12.75-25.28,10.64l-2.83-0.48"/>
				<path class="st7" d="M499.48,599.53l-2.12,3.07c-7.15,10.34-12.83,12.75-25.28,10.64l-2.83-0.48"/>
			</g>
			<g>
				<path class="st7" d="M506.77,616.21l-2.12,3.07c-7.15,10.34-12.83,12.75-25.28,10.64l-2.83-0.48"/>
				<path class="st7" d="M514.88,634.73l-2.12,3.07c-7.15,10.34-12.83,12.75-25.28,10.64l-2.83-0.48"/>
				<path class="st7" d="M522.98,653.25l-2.12,3.07c-7.15,10.34-12.83,12.75-25.28,10.64l-2.83-0.48"/>
				<path class="st7" d="M531.08,671.77l-2.12,3.07c-7.15,10.34-12.83,12.75-25.28,10.64l-2.83-0.48"/>
			</g>
			<g>
				<path class="st7" d="M538.38,688.45l-2.12,3.07c-7.15,10.34-12.83,12.75-25.28,10.64l-2.83-0.48"/>
				<path class="st7" d="M546.48,706.97l-2.12,3.07c-7.15,10.34-12.83,12.75-25.28,10.64l-2.83-0.48"/>
				<path class="st7" d="M554.59,725.49l-2.12,3.07c-7.15,10.34-12.83,12.75-25.28,10.64l-2.83-0.48"/>
				<path class="st7" d="M562.69,744.01l-2.12,3.07c-7.15,10.34-12.83,12.75-25.28,10.64l-2.83-0.48"/>
			</g>
			<g>
				<path class="st7" d="M569.99,760.69l-2.12,3.07c-7.15,10.34-12.83,12.75-25.28,10.64l-2.83-0.48"/>
				<path class="st7" d="M578.09,779.21l-2.12,3.07c-7.15,10.34-12.83,12.75-25.28,10.64l-2.83-0.48"/>
				<path class="st7" d="M586.19,797.73l-2.12,3.07c-7.15,10.34-12.83,12.75-25.28,10.64l-2.83-0.48"/>
				<path class="st7" d="M594.3,816.25l-2.12,3.07c-7.15,10.34-12.83,12.75-25.28,10.64l-2.83-0.48"/>
			</g>
		</g>
	</g>
</g>
</svg>
