<?xml version="1.0" encoding="utf-8"?>
<!-- Generator: Adobe Illustrator 26.0.3, SVG Export Plug-In . SVG Version: 6.00 Build 0)  -->
<svg version="1.1" id="Livello_1" xmlns="http://www.w3.org/2000/svg" xmlns:xlink="http://www.w3.org/1999/xlink" x="0px" y="0px"
	 viewBox="0 0 1920 1344" style="enable-background:new 0 0 1920 1344;" xml:space="preserve">
<style type="text/css">
	.st0{fill:#2C2E2F;}
	.st1{display:none;}
	.st2{display:inline;fill:none;stroke:#3FA9F5;stroke-miterlimit:10;}
	.st3{fill:#D48A35;}
	.st4{fill:none;stroke:#C98340;stroke-width:3;stroke-miterlimit:10;}
	.st5{fill:none;stroke:#D48A35;stroke-width:1.5;stroke-miterlimit:10;}
	.st6{fill:none;stroke:#D48A35;stroke-miterlimit:10;}
	.st7{fill:#D48A35;stroke:#D48A35;stroke-width:1.5;stroke-miterlimit:10;}
	.st8{fill:#FFFFFF;stroke:#D48A35;stroke-width:1.5;stroke-miterlimit:10;}
	.st9{fill:#2B2E2E;stroke:#FFFFFF;stroke-width:1.5;stroke-miterlimit:10;}
	.st10{fill:none;stroke:#FFFFFF;stroke-width:1.5;stroke-miterlimit:10;}
	.st11{fill:none;stroke:#FFFFFF;stroke-width:4;stroke-miterlimit:10;}
	.st12{fill:#FFFFFF;stroke:#FFFFFF;stroke-width:1.5;stroke-miterlimit:10;}
	.st13{fill:none;stroke:#FFFFFF;stroke-width:3;stroke-linecap:round;stroke-miterlimit:10;}
	.st14{fill:none;stroke:#FFFFFF;stroke-width:3;stroke-miterlimit:10;}
	.st15{fill:none;stroke:#FFFFFF;stroke-width:1.5;stroke-linecap:round;stroke-miterlimit:10;}
</style>
<rect class="st0" width="1920" height="1344"/>
<g class="st1">
	<line class="st2" x1="-1627.12" y1="1121" x2="378.5" y2="-37.5"/>
	<line class="st2" x1="-1473.12" y1="1121" x2="532.5" y2="-37.5"/>
	<line class="st2" x1="-1319.12" y1="1121" x2="686.5" y2="-37.5"/>
	<line class="st2" x1="-1165.12" y1="1121" x2="840.5" y2="-37.5"/>
	<line class="st2" x1="-1011.12" y1="1121" x2="994.5" y2="-37.5"/>
	<line class="st2" x1="-857.12" y1="1121" x2="1148.5" y2="-37.5"/>
	<line class="st2" x1="-703.12" y1="1121" x2="1302.5" y2="-37.5"/>
	<line class="st2" x1="-549.12" y1="1121" x2="1456.5" y2="-37.5"/>
	<line class="st2" x1="-395.12" y1="1121" x2="1610.5" y2="-37.5"/>
	<line class="st2" x1="-241.12" y1="1121" x2="1764.5" y2="-37.5"/>
	<line class="st2" x1="-87.12" y1="1121" x2="1918.5" y2="-37.5"/>
	<line class="st2" x1="66.88" y1="1121" x2="2072.5" y2="-37.5"/>
	<line class="st2" x1="220.88" y1="1121" x2="2226.5" y2="-37.5"/>
	<line class="st2" x1="374.88" y1="1121" x2="2380.5" y2="-37.5"/>
	<line class="st2" x1="528.88" y1="1121" x2="2534.5" y2="-37.5"/>
	<line class="st2" x1="682.88" y1="1121" x2="2688.5" y2="-37.5"/>
	<line class="st2" x1="836.88" y1="1121" x2="2842.5" y2="-37.5"/>
	<line class="st2" x1="990.88" y1="1121" x2="2996.5" y2="-37.5"/>
	<line class="st2" x1="1144.88" y1="1121" x2="3150.5" y2="-37.5"/>
	<line class="st2" x1="1298.88" y1="1121" x2="3304.5" y2="-37.5"/>
	<line class="st2" x1="1452.88" y1="1121" x2="3458.5" y2="-37.5"/>
	<line class="st2" x1="1606.88" y1="1121" x2="3612.5" y2="-37.5"/>
	<line class="st2" x1="1760.88" y1="1121" x2="3766.5" y2="-37.5"/>
	<line class="st2" x1="-1551.12" y1="1121" x2="454.5" y2="-37.5"/>
	<line class="st2" x1="-1397.12" y1="1121" x2="608.5" y2="-37.5"/>
	<line class="st2" x1="-1243.12" y1="1121" x2="762.5" y2="-37.5"/>
	<line class="st2" x1="-1089.12" y1="1121" x2="916.5" y2="-37.5"/>
	<line class="st2" x1="-935.12" y1="1121" x2="1070.5" y2="-37.5"/>
	<line class="st2" x1="-781.12" y1="1121" x2="1224.5" y2="-37.5"/>
	<line class="st2" x1="-627.12" y1="1121" x2="1378.5" y2="-37.5"/>
	<line class="st2" x1="-473.12" y1="1121" x2="1532.5" y2="-37.5"/>
	<line class="st2" x1="-319.12" y1="1121" x2="1686.5" y2="-37.5"/>
	<line class="st2" x1="-165.12" y1="1121" x2="1840.5" y2="-37.5"/>
	<line class="st2" x1="-11.12" y1="1121" x2="1994.5" y2="-37.5"/>
	<line class="st2" x1="142.88" y1="1121" x2="2148.5" y2="-37.5"/>
	<line class="st2" x1="296.88" y1="1121" x2="2302.5" y2="-37.5"/>
	<line class="st2" x1="450.88" y1="1121" x2="2456.5" y2="-37.5"/>
	<line class="st2" x1="604.88" y1="1121" x2="2610.5" y2="-37.5"/>
	<line class="st2" x1="758.88" y1="1121" x2="2764.5" y2="-37.5"/>
	<line class="st2" x1="912.88" y1="1121" x2="2918.5" y2="-37.5"/>
	<line class="st2" x1="1066.88" y1="1121" x2="3072.5" y2="-37.5"/>
	<line class="st2" x1="1220.88" y1="1121" x2="3226.5" y2="-37.5"/>
	<line class="st2" x1="1374.88" y1="1121" x2="3380.5" y2="-37.5"/>
	<line class="st2" x1="1528.88" y1="1121" x2="3534.5" y2="-37.5"/>
	<line class="st2" x1="1682.88" y1="1121" x2="3688.5" y2="-37.5"/>
	<line class="st2" x1="1836.88" y1="1121" x2="3842.5" y2="-37.5"/>
	<line class="st2" x1="3756.5" y1="1122" x2="1750.88" y2="-36.5"/>
	<line class="st2" x1="3602.5" y1="1122" x2="1596.88" y2="-36.5"/>
	<line class="st2" x1="3448.5" y1="1122" x2="1442.88" y2="-36.5"/>
	<line class="st2" x1="3294.5" y1="1122" x2="1288.88" y2="-36.5"/>
	<line class="st2" x1="3140.5" y1="1122" x2="1134.88" y2="-36.5"/>
	<line class="st2" x1="2986.5" y1="1122" x2="980.88" y2="-36.5"/>
	<line class="st2" x1="2832.5" y1="1122" x2="826.88" y2="-36.5"/>
	<line class="st2" x1="2678.5" y1="1122" x2="672.88" y2="-36.5"/>
	<line class="st2" x1="2524.5" y1="1122" x2="518.88" y2="-36.5"/>
	<line class="st2" x1="2370.5" y1="1122" x2="364.88" y2="-36.5"/>
	<line class="st2" x1="2216.5" y1="1122" x2="210.88" y2="-36.5"/>
	<line class="st2" x1="2062.5" y1="1122" x2="56.88" y2="-36.5"/>
	<line class="st2" x1="1908.5" y1="1122" x2="-97.12" y2="-36.5"/>
	<line class="st2" x1="1754.5" y1="1122" x2="-251.12" y2="-36.5"/>
	<line class="st2" x1="1600.5" y1="1122" x2="-405.12" y2="-36.5"/>
	<line class="st2" x1="1446.5" y1="1122" x2="-559.12" y2="-36.5"/>
	<line class="st2" x1="1292.5" y1="1122" x2="-713.12" y2="-36.5"/>
	<line class="st2" x1="1138.5" y1="1122" x2="-867.12" y2="-36.5"/>
	<line class="st2" x1="984.5" y1="1122" x2="-1021.12" y2="-36.5"/>
	<line class="st2" x1="830.5" y1="1122" x2="-1175.12" y2="-36.5"/>
	<line class="st2" x1="676.5" y1="1122" x2="-1329.12" y2="-36.5"/>
	<line class="st2" x1="522.5" y1="1122" x2="-1483.12" y2="-36.5"/>
	<line class="st2" x1="368.5" y1="1122" x2="-1637.12" y2="-36.5"/>
	<line class="st2" x1="3680.5" y1="1122" x2="1674.88" y2="-36.5"/>
	<line class="st2" x1="3526.5" y1="1122" x2="1520.88" y2="-36.5"/>
	<line class="st2" x1="3372.5" y1="1122" x2="1366.88" y2="-36.5"/>
	<line class="st2" x1="3218.5" y1="1122" x2="1212.88" y2="-36.5"/>
	<line class="st2" x1="3064.5" y1="1122" x2="1058.88" y2="-36.5"/>
	<line class="st2" x1="2910.5" y1="1122" x2="904.88" y2="-36.5"/>
	<line class="st2" x1="2756.5" y1="1122" x2="750.88" y2="-36.5"/>
	<line class="st2" x1="2602.5" y1="1122" x2="596.88" y2="-36.5"/>
	<line class="st2" x1="2448.5" y1="1122" x2="442.88" y2="-36.5"/>
	<line class="st2" x1="2294.5" y1="1122" x2="288.88" y2="-36.5"/>
	<line class="st2" x1="2140.5" y1="1122" x2="134.88" y2="-36.5"/>
	<line class="st2" x1="1986.5" y1="1122" x2="-19.12" y2="-36.5"/>
	<line class="st2" x1="1832.5" y1="1122" x2="-173.12" y2="-36.5"/>
	<line class="st2" x1="1678.5" y1="1122" x2="-327.12" y2="-36.5"/>
	<line class="st2" x1="1524.5" y1="1122" x2="-481.12" y2="-36.5"/>
	<line class="st2" x1="1370.5" y1="1122" x2="-635.12" y2="-36.5"/>
	<line class="st2" x1="1216.5" y1="1122" x2="-789.12" y2="-36.5"/>
	<line class="st2" x1="1062.5" y1="1122" x2="-943.12" y2="-36.5"/>
	<line class="st2" x1="908.5" y1="1122" x2="-1097.12" y2="-36.5"/>
	<line class="st2" x1="754.5" y1="1122" x2="-1251.12" y2="-36.5"/>
	<line class="st2" x1="600.5" y1="1122" x2="-1405.12" y2="-36.5"/>
	<line class="st2" x1="446.5" y1="1122" x2="-1559.12" y2="-36.5"/>
	<line class="st2" x1="292.5" y1="1122" x2="-1713.12" y2="-36.5"/>
</g>
<g>
	<g>
		<path class="st3" d="M494.94,1248.62c-5.1,0-9.93-1.08-14.47-3.22c-4.55-2.15-8.58-5.1-12.08-8.85c-3.5-3.75-6.23-8.07-8.17-12.97
			c-1.95-4.9-2.93-10.15-2.93-15.75c0-7.5,1.65-14.25,4.95-20.25c3.3-6,7.8-10.75,13.5-14.25c5.7-3.5,12.05-5.25,19.05-5.25
			c6.5,0,12.35,1.53,17.55,4.58c5.2,3.05,9.1,7.33,11.7,12.82l-3,1.05c-2.5-4.8-6.15-8.57-10.95-11.33
			c-4.8-2.75-10.05-4.12-15.75-4.12c-6.3,0-12.03,1.63-17.18,4.88c-5.15,3.25-9.25,7.65-12.3,13.2c-3.05,5.55-4.58,11.77-4.58,18.67
			c0,6.8,1.55,13.08,4.65,18.83c3.1,5.75,7.25,10.35,12.45,13.8c5.2,3.45,10.9,5.17,17.1,5.17c4.1,0,8.1-0.77,12-2.33
			c3.9-1.55,7.27-3.57,10.12-6.08c2.85-2.5,4.67-5.15,5.48-7.95l3,0.9c-1.1,3.5-3.2,6.65-6.3,9.45c-3.1,2.8-6.73,5-10.88,6.6
			C503.77,1247.82,499.44,1248.62,494.94,1248.62z"/>
		<path class="st3" d="M653.34,1248.62c-5.1,0-9.9-1.05-14.4-3.15c-4.5-2.1-8.45-5.02-11.85-8.77c-3.4-3.75-6.05-8.05-7.95-12.9
			c-1.9-4.85-2.85-9.97-2.85-15.38c0-5.5,0.98-10.67,2.93-15.52c1.95-4.85,4.62-9.15,8.02-12.9c3.4-3.75,7.35-6.67,11.85-8.78
			c4.5-2.1,9.25-3.15,14.25-3.15c5,0,9.75,1.05,14.25,3.15c4.5,2.1,8.45,5.03,11.85,8.78c3.4,3.75,6.08,8.05,8.03,12.9
			c1.95,4.85,2.92,10.03,2.92,15.52c0,5.4-0.95,10.53-2.85,15.38c-1.9,4.85-4.57,9.15-8.02,12.9s-7.4,6.67-11.85,8.77
			C663.21,1247.58,658.44,1248.62,653.34,1248.62z M619.29,1208.72c0,6.7,1.52,12.85,4.58,18.45c3.05,5.6,7.15,10.08,12.3,13.42
			c5.15,3.35,10.82,5.03,17.02,5.03c6.2,0,11.9-1.7,17.1-5.1c5.2-3.4,9.35-7.95,12.45-13.65c3.1-5.7,4.65-11.9,4.65-18.6
			c0-6.7-1.55-12.88-4.65-18.53c-3.1-5.65-7.23-10.17-12.38-13.58c-5.15-3.4-10.83-5.1-17.02-5.1c-6.1,0-11.75,1.72-16.95,5.17
			c-5.2,3.45-9.35,8.03-12.45,13.72C620.84,1195.67,619.29,1201.93,619.29,1208.72z"/>
		<path class="st3" d="M848.63,1247.12h-3v-43.35c0-11.3-1.57-19.58-4.72-24.83c-3.15-5.25-8.23-7.88-15.23-7.88
			c-5,0-9.88,1.18-14.62,3.52c-4.75,2.35-8.88,5.55-12.38,9.6c-3.5,4.05-6,8.62-7.5,13.72v49.2h-3v-77.85h3v20.1
			c2.2-4.2,5.1-7.9,8.7-11.1c3.6-3.2,7.62-5.7,12.08-7.5c4.45-1.8,8.97-2.7,13.58-2.7c4,0,7.45,0.73,10.35,2.17
			c2.9,1.45,5.3,3.63,7.2,6.53c1.9,2.9,3.3,6.6,4.2,11.1c0.9,4.5,1.35,9.8,1.35,15.9V1247.12z"/>
		<path class="st3" d="M1011.68,1247.12h-3v-43.35c0-11.3-1.58-19.58-4.72-24.83c-3.15-5.25-8.23-7.88-15.23-7.88
			c-5,0-9.88,1.18-14.62,3.52c-4.75,2.35-8.88,5.55-12.38,9.6c-3.5,4.05-6,8.62-7.5,13.72v49.2h-3v-77.85h3v20.1
			c2.2-4.2,5.1-7.9,8.7-11.1c3.6-3.2,7.62-5.7,12.08-7.5c4.45-1.8,8.97-2.7,13.58-2.7c4,0,7.45,0.73,10.35,2.17
			c2.9,1.45,5.3,3.63,7.2,6.53c1.9,2.9,3.3,6.6,4.2,11.1c0.9,4.5,1.35,9.8,1.35,15.9V1247.12z"/>
		<path class="st3" d="M1146.07,1248.62c-5.1,0-9.93-1.08-14.48-3.22c-4.55-2.15-8.55-5.1-12-8.85s-6.15-8.1-8.1-13.05
			s-2.92-10.22-2.92-15.83c0-7.3,1.65-13.95,4.95-19.95c3.3-6,7.73-10.77,13.28-14.32c5.55-3.55,11.72-5.33,18.53-5.33
			c6.9,0,13.17,1.8,18.82,5.4c5.65,3.6,10.17,8.43,13.58,14.48c3.4,6.05,5.1,12.83,5.1,20.33c0,0.3,0,0.58,0,0.82
			c0,0.25,0,0.53,0,0.83h-71.25c0.5,6.7,2.35,12.75,5.55,18.15c3.2,5.4,7.35,9.67,12.45,12.83c5.1,3.15,10.65,4.72,16.65,4.72
			s11.6-1.52,16.8-4.58c5.2-3.05,8.9-6.97,11.1-11.77l2.85,0.75c-1.4,3.5-3.67,6.67-6.83,9.52c-3.15,2.85-6.82,5.08-11.02,6.67
			C1154.92,1247.82,1150.57,1248.62,1146.07,1248.62z M1111.57,1206.92h68.1c-0.4-7-2.15-13.17-5.25-18.52
			c-3.1-5.35-7.15-9.57-12.15-12.68c-5-3.1-10.6-4.65-16.8-4.65c-6.1,0-11.65,1.55-16.65,4.65c-5,3.1-9.03,7.35-12.08,12.75
			C1113.69,1193.88,1111.97,1200.03,1111.57,1206.92z"/>
		<path class="st3" d="M1310.91,1248.62c-5.1,0-9.93-1.08-14.47-3.22c-4.55-2.15-8.58-5.1-12.08-8.85
			c-3.5-3.75-6.22-8.07-8.17-12.97c-1.95-4.9-2.92-10.15-2.92-15.75c0-7.5,1.65-14.25,4.95-20.25c3.3-6,7.8-10.75,13.5-14.25
			c5.7-3.5,12.05-5.25,19.05-5.25c6.5,0,12.35,1.53,17.55,4.58c5.2,3.05,9.1,7.33,11.7,12.82l-3,1.05
			c-2.5-4.8-6.15-8.57-10.95-11.33c-4.8-2.75-10.05-4.12-15.75-4.12c-6.3,0-12.03,1.63-17.17,4.88c-5.15,3.25-9.25,7.65-12.3,13.2
			c-3.05,5.55-4.57,11.77-4.57,18.67c0,6.8,1.55,13.08,4.65,18.83c3.1,5.75,7.25,10.35,12.45,13.8c5.2,3.45,10.9,5.17,17.1,5.17
			c4.1,0,8.1-0.77,12-2.33c3.9-1.55,7.28-3.57,10.12-6.08c2.85-2.5,4.67-5.15,5.48-7.95l3,0.9c-1.1,3.5-3.2,6.65-6.3,9.45
			c-3.1,2.8-6.73,5-10.88,6.6C1319.74,1247.82,1315.41,1248.62,1310.91,1248.62z"/>
		<path class="st3" d="M1468.26,1244.28c-2.5,1.5-4.8,2.6-6.9,3.3s-4.55,1.05-7.35,1.05c-2.4,0-4.63-0.51-6.68-1.51
			c-2.05-1.01-3.7-2.42-4.95-4.24c-1.25-1.82-1.88-3.94-1.88-6.36v-64.23h-11.25v-3h11.25v-27.15h3v27.15h18.75v3h-18.75v64.26
			c0.2,2.93,1.35,5.18,3.45,6.75c2.1,1.57,4.45,2.35,7.05,2.35c3.5,0,6.45-0.6,8.85-1.8s3.65-1.85,3.75-1.95L1468.26,1244.28z"/>
	</g>
</g>
<g>
	<g>
		<g>
			<g>
				<path class="st4" d="M1645.83,218.48l-2.87-2.27c-9.69-7.65-11.92-13.4-9.84-25.6l0.47-2.77"/>
				<path class="st4" d="M1628.33,225.47l-2.87-2.27c-9.69-7.65-11.92-13.4-9.84-25.6l0.47-2.77"/>
				<path class="st4" d="M1610.83,232.47l-2.87-2.27c-9.69-7.65-11.92-13.4-9.84-25.6l0.47-2.77"/>
				<path class="st4" d="M1593.33,239.46l-2.87-2.27c-9.69-7.65-11.92-13.4-9.84-25.6l0.47-2.77"/>
			</g>
			<g>
				<path class="st4" d="M1577.57,245.76l-2.87-2.27c-9.69-7.65-11.92-13.4-9.84-25.6l0.47-2.77"/>
				<path class="st4" d="M1560.07,252.75l-2.87-2.27c-9.69-7.65-11.92-13.4-9.84-25.6l0.47-2.77"/>
				<path class="st4" d="M1542.57,259.74l-2.87-2.27c-9.69-7.65-11.92-13.4-9.84-25.6l0.47-2.77"/>
				<path class="st4" d="M1525.07,266.73l-2.87-2.27c-9.69-7.65-11.92-13.4-9.84-25.6l0.47-2.77"/>
			</g>
			<g>
				<path class="st4" d="M1509.3,273.03l-2.87-2.27c-9.69-7.65-11.92-13.4-9.84-25.6l0.47-2.77"/>
				<path class="st4" d="M1491.8,280.02l-2.87-2.27c-9.69-7.65-11.92-13.4-9.84-25.6l0.47-2.77"/>
				<path class="st4" d="M1474.3,287.01l-2.87-2.27c-9.69-7.65-11.92-13.4-9.84-25.6l0.47-2.77"/>
				<path class="st4" d="M1456.8,294l-2.87-2.27c-9.69-7.65-11.92-13.4-9.84-25.6l0.47-2.77"/>
			</g>
			<g>
				<path class="st4" d="M1441.04,300.3l-2.87-2.27c-9.69-7.65-11.92-13.4-9.84-25.6l0.47-2.77"/>
				<path class="st4" d="M1423.54,307.29l-2.87-2.27c-9.69-7.65-11.92-13.4-9.84-25.6l0.47-2.77"/>
				<path class="st4" d="M1406.04,314.28l-2.87-2.27c-9.69-7.65-11.92-13.4-9.84-25.6l0.47-2.77"/>
				<path class="st4" d="M1388.53,321.28l-2.87-2.27c-9.69-7.65-11.92-13.4-9.84-25.6l0.47-2.77"/>
			</g>
			<g>
				<path class="st4" d="M1372.77,327.57l-2.87-2.27c-9.69-7.65-11.92-13.4-9.84-25.6l0.47-2.77"/>
				<path class="st4" d="M1355.27,334.56l-2.87-2.27c-9.69-7.65-11.92-13.4-9.84-25.6l0.47-2.77"/>
				<path class="st4" d="M1337.77,341.56l-2.87-2.27c-9.69-7.65-11.92-13.4-9.84-25.6l0.47-2.77"/>
				<path class="st4" d="M1320.27,348.55l-2.87-2.27c-9.69-7.65-11.92-13.4-9.84-25.6l0.47-2.77"/>
			</g>
			<g>
				<path class="st4" d="M1304.51,354.85l-2.87-2.27c-9.69-7.65-11.92-13.4-9.84-25.6l0.47-2.77"/>
				<path class="st4" d="M1287.01,361.84l-2.87-2.27c-9.69-7.65-11.92-13.4-9.84-25.6l0.47-2.77"/>
				<path class="st4" d="M1269.5,368.83l-2.87-2.27c-9.69-7.65-11.92-13.4-9.84-25.6l0.47-2.77"/>
				<path class="st4" d="M1252,375.82l-2.87-2.27c-9.69-7.65-11.92-13.4-9.84-25.6l0.47-2.77"/>
			</g>
			<g>
				<path class="st4" d="M1236.24,382.12l-2.87-2.27c-9.69-7.65-11.92-13.4-9.84-25.6l0.47-2.77"/>
				<path class="st4" d="M1218.74,389.11l-2.87-2.27c-9.69-7.65-11.92-13.4-9.84-25.6l0.47-2.77"/>
				<path class="st4" d="M1201.24,396.1l-2.87-2.27c-9.69-7.65-11.92-13.4-9.84-25.6l0.47-2.77"/>
				<path class="st4" d="M1183.74,403.09l-2.87-2.27c-9.69-7.65-11.92-13.4-9.84-25.6l0.47-2.77"/>
			</g>
			<g>
				<path class="st4" d="M1167.98,409.39l-2.87-2.27c-9.69-7.65-11.92-13.4-9.84-25.6l0.47-2.77"/>
				<path class="st4" d="M1150.47,416.38l-2.87-2.27c-9.69-7.65-11.92-13.4-9.84-25.6l0.47-2.77"/>
				<path class="st4" d="M1132.97,423.37l-2.87-2.27c-9.69-7.65-11.92-13.4-9.84-25.6l0.47-2.77"/>
				<path class="st4" d="M1115.47,430.37l-2.87-2.27c-9.69-7.65-11.92-13.4-9.84-25.6l0.47-2.77"/>
			</g>
		</g>
	</g>
</g>
<g id="Casa_contadino">
	<polygon class="st5" points="970.67,568.5 1056.67,518.5 1056.67,415.5 970.67,425.5 	"/>
	<polyline class="st5" points="1041.48,527.56 1041.58,493.5 1024.67,503.25 1024.56,537.59 	"/>
	<polyline class="st5" points="970.67,568.5 936.67,548.5 936.67,475.5 885.67,447.5 885.67,378.5 970.67,425.5 	"/>
	<polyline class="st5" points="1041.67,527.5 1036.81,524.75 1036.95,496.17 	"/>
	<line class="st5" x1="1036.67" y1="524.5" x2="1024.56" y2="531.25"/>
	<polyline class="st5" points="930.48,552.56 930.58,512.5 890.67,536.25 890.56,575.59 	"/>
	<polyline class="st5" points="930.67,552.5 925.81,549.75 925.95,515.17 	"/>
	<line class="st6" x1="925.67" y1="549.5" x2="890.67" y2="570.5"/>
	<line class="st6" x1="925.67" y1="546.5" x2="890.67" y2="567.5"/>
	<line class="st6" x1="925.67" y1="543.5" x2="890.67" y2="564.5"/>
	<line class="st6" x1="925.67" y1="540.5" x2="890.67" y2="561.5"/>
	<line class="st6" x1="925.67" y1="537.5" x2="890.67" y2="558.5"/>
	<line class="st6" x1="925.67" y1="534.5" x2="890.67" y2="555.5"/>
	<line class="st6" x1="925.67" y1="531.5" x2="890.67" y2="552.5"/>
	<line class="st6" x1="925.67" y1="528.5" x2="890.67" y2="549.5"/>
	<line class="st6" x1="925.67" y1="525.5" x2="890.67" y2="546.5"/>
	<line class="st6" x1="925.67" y1="522.5" x2="890.67" y2="543.5"/>
	<line class="st6" x1="925.67" y1="519.5" x2="890.67" y2="540.5"/>
	<line class="st6" x1="925.67" y1="516.5" x2="890.67" y2="537.5"/>
	<polygon class="st5" points="1013.98,483.01 1040.98,467.16 1040.67,438.99 1013.67,454.84 	"/>
	<polyline class="st5" points="1040.92,467.09 1036.67,464.5 1036.67,441.39 	"/>
	<polyline class="st5" points="993.92,493.7 989.67,491.11 989.67,465 	"/>
	<line class="st5" x1="1036.67" y1="464.5" x2="1013.92" y2="477.62"/>
	<line class="st5" x1="989.67" y1="491.5" x2="982.67" y2="495.5"/>
	<polygon class="st7" points="1010.72,456.25 1043.57,437.37 1043.52,432.75 1010.67,451.63 	"/>
	<polygon class="st7" points="978.72,473.25 997.57,462.37 997.52,457.75 978.67,468.63 	"/>
	<line class="st8" x1="1024.51" y1="471.52" x2="1024.51" y2="448.41"/>
	<polyline class="st5" points="936.67,548.5 882.17,581 882.17,521 936.17,476 936.67,546.08 	"/>
	<polyline class="st5" points="882.67,521.5 835.67,494.5 835.67,555.5 881.67,581.5 	"/>
	<polyline class="st5" points="1056.67,415.5 971.67,368.5 885.67,378.5 	"/>
	<line class="st5" x1="885.67" y1="447.5" x2="835.67" y2="494.5"/>
	<polygon class="st5" points="982.4,500.58 993.69,494.15 993.95,464.42 982.65,470.85 	"/>
	<polyline class="st5" points="926.32,454.7 930.57,452.11 930.57,426 	"/>
	<line class="st5" x1="930.57" y1="452.5" x2="937.57" y2="456.5"/>
	<polygon class="st7" points="941.52,434.25 922.67,423.37 922.72,418.75 941.57,429.63 	"/>
	<polygon class="st5" points="937.84,461.58 926.55,455.15 926.29,425.42 937.59,431.85 	"/>
	<polyline class="st5" points="899.32,439.7 903.57,437.11 903.57,411 	"/>
	<line class="st5" x1="903.57" y1="437.5" x2="910.57" y2="441.5"/>
	<polygon class="st7" points="914.52,419.25 895.67,408.37 895.72,403.75 914.57,414.63 	"/>
	<polygon class="st5" points="910.84,446.58 899.55,440.15 899.29,410.42 910.59,416.85 	"/>
	<polygon class="st5" points="978.17,395.85 966.38,402.63 955.17,396.15 966.97,389.37 	"/>
	<polygon class="st3" points="973.6,395.91 966.49,400 959.74,396.09 966.85,392 	"/>
	<line class="st5" x1="978.67" y1="396" x2="978.67" y2="415"/>
	<polyline class="st5" points="954.67,396 954.67,410 954.67,409.5 966.38,415.63 978.67,414.5 	"/>
	<path class="st5" d="M1074.67,487.5v26c0,0-2,2-4,1v-25"/>
	<path class="st5" d="M1072.67,414.5c0,0,2,2,2,6s0,3,1,6s2,5,2,9s1,2,2,7s0,9,1,12s2,5,3,9s1,7-1,10c-2.77,4.16-3,8-5,10s-4,6-5,6
		s-5,0-6-2s-2-5-2-7s-1-1-1-3s-2-5-3-8s1-6,1-8s-1-5-1-8s-1-7,1-12s3-8,3-10s0-2,1-5s3-4,4-6S1069.67,412.5,1072.67,414.5z"/>
	<path class="st5" d="M1064.67,446.5c0,0-2,4,0,8s3,8,1,11"/>
	<path class="st5" d="M1078.67,457.5c0,0-1,3,1,6"/>
	<path class="st5" d="M1070.67,423.5c0,0-2,2-1,6s0,7-3,9"/>
</g>
<g id="Granaio">
	<polygon class="st9" points="1309,418.5 1411,477.5 1411,333.5 1400.01,252.49 1356,185.5 1329,216.5 1309,276.5 	"/>
	<polyline class="st10" points="1345.19,288.56 1345.1,254.5 1362,264.25 1362.11,298.59 	"/>
	<line class="st10" x1="1345.1" y1="288.5" x2="1362" y2="298.25"/>
	<polyline class="st10" points="1345,288.5 1349.86,285.75 1349.72,257.17 	"/>
	<line class="st10" x1="1350" y1="285.5" x2="1362.11" y2="292.25"/>
	<polyline class="st10" points="1329.19,430.56 1329.1,362.61 1385,395.36 1385,463 	"/>
	<path class="st10" d="M1346.17,439.83"/>
	<path class="st10" d="M1329.26,430.08"/>
	<polyline class="st10" points="1329,430.5 1333.86,427.75 1334,366 	"/>
	<line class="st10" x1="1334" y1="427.5" x2="1385" y2="456.5"/>
	<line class="st10" x1="1336.19" y1="366.76" x2="1385" y2="454"/>
	<line class="st10" x1="1334" y1="427.5" x2="1378" y2="391.5"/>
	<polyline class="st10" points="1534.81,405.56 1534.9,337.61 1479,370.36 1479,438 	"/>
	<polyline class="st10" points="1535,405.5 1530.14,402.75 1530,341 	"/>
	<line class="st10" x1="1530" y1="402.5" x2="1479" y2="431.5"/>
	<line class="st10" x1="1527.81" y1="341.76" x2="1479" y2="429"/>
	<line class="st10" x1="1530" y1="402.5" x2="1486" y2="366.5"/>
	<polyline class="st9" points="1411,334.5 1591,230.5 1591,373.5 1411,477.5 1411.01,334.49 	"/>
	<polyline class="st9" points="1400.01,252.49 1356,185.5 1525.01,84.49 1576.01,147.49 1594.01,228.49 1411.01,334.49 
		1400.01,252.49 1576.01,147.49 	"/>
	<path class="st10" d="M1594.01,228.49"/>
	<polyline class="st10" points="1653.88,210.43 1623,192.5 1586,192.5 	"/>
	<polyline class="st10" points="1309,285.5 1284,299.5 1284,441.5 1392,503.5 1547,503.5 1716,405.5 1716,246.5 1681.24,226.32 	"/>
	<g>
		<path class="st10" d="M1565,391.5c-0.75-0.37-1.19,0.05-1.87,0.55c-0.66,0.49-1.56,1.31-2.13,2.45c0,0-2,1-2,4c0,0-2,2-1,5
			c0,0-1,1-1,4c0,0-2,2,0,5c0,0-1,2,1,4c0,0,3,3,5,6l8-6c0,0,1-2,0-4c0,0,1-2,0-5c0,0,0-3-1-4c0,0,0-3-1-5c0,0-1-3-2-4
			C1567,394.5,1566.54,392.27,1565,391.5z"/>
		<path class="st10" d="M1557.02,415.07l-4.02-1.57l-4,1c0,0-8,9-9,11v3l2-3l8-3l5,1c0,0,4,10,6,12v2"/>
		<path class="st10" d="M1561,433.5v-8l2-3l8-6l7-2h3c0,0,3,2,4,5l-5-2l-3,1l-3,9c0,0-1,4-1,5s-2,3-2,3l-1,1l-5,1v4"/>
		<path class="st10" d="M1563,454.5v-8l3-6c0,0,6-6,9-6s5,0,5,0l4,2l1,4l-3-2h-4l-3,4v7l-2,4l-3,4l-5,4v27h-3l-2-2l1-28l-4-7l-2-4
			l-3-7l-5-3h-3l-5,3l2-3l4-5c0,0,3-1,4-1s4,0,4,0l4,2c0,0,5,4,6,8"/>
		<path class="st10" d="M1564,459.5l3-5l2-6l1-5c0,0,3-2,3-3s2-3,2-3"/>
		<polyline class="st10" points="1549,435.5 1555,440.5 1558,444.5 1563,453.75 		"/>
		<polyline class="st10" points="1564,435.5 1569,433.5 1570,431.5 1571,427.5 1572,424.5 1573,420.5 1577,417.5 		"/>
		<path class="st10" d="M1559,409.5c0,0-1,1,0,4"/>
		<path class="st10" d="M1569,406.5c0,0,1,4-1,6"/>
		<path class="st10" d="M1562,399.5c0,0-2,1-1,5"/>
		<path class="st10" d="M1565,397.5c0,0,2,0,2,3"/>
		<path class="st10" d="M1562,412.5c0,0-1,2,0,4"/>
	</g>
	<g>
		<path class="st10" d="M1628,261.5c-0.75-0.37-1.19,0.05-1.87,0.55c-0.66,0.49-1.56,1.31-2.13,2.45c0,0-2,1-2,4c0,0-2,2-1,5
			c0,0-1,1-1,4c0,0-2,2,0,5c0,0-1,2,1,4c0,0,3,3,5,6l8-6c0,0,1-2,0-4c0,0,1-2,0-5c0,0,0-3-1-4c0,0,0-3-1-5c0,0-1-3-2-4
			C1630,264.5,1629.54,262.27,1628,261.5z"/>
		<path class="st10" d="M1620.02,285.07l-4.02-1.57l-4,1c0,0-8,9-9,11v3l2-3l8-3l5,1c0,0,4,10,6,12v2"/>
		<path class="st10" d="M1624,303.5v-8l2-3l8-6l7-2h3c0,0,3,2,4,5l-5-2l-3,1l-3,9c0,0-1,4-1,5s-2,3-2,3l-1,1l-5,1v4"/>
		<path class="st10" d="M1626,324.5v-8l3-6c0,0,6-6,9-6s5,0,5,0l4,2l1,4l-3-2h-4l-3,4v7l-2,4l-3,4l-5,4v27h-3l-2-2l1-28l-4-7l-2-4
			l-3-7l-5-3h-3l-5,3l2-3l4-5c0,0,3-1,4-1s4,0,4,0l4,2c0,0,5,4,6,8"/>
		<path class="st10" d="M1627,329.5l3-5l2-6l1-5c0,0,3-2,3-3s2-3,2-3"/>
		<polyline class="st10" points="1612,305.5 1618,310.5 1621,314.5 1626,323.75 		"/>
		<polyline class="st10" points="1627,305.5 1632,303.5 1633,301.5 1634,297.5 1635,294.5 1636,290.5 1640,287.5 		"/>
		<path class="st10" d="M1622,279.5c0,0-1,1,0,4"/>
		<path class="st10" d="M1632,276.5c0,0,1,4-1,6"/>
		<path class="st10" d="M1625,269.5c0,0-2,1-1,5"/>
		<path class="st10" d="M1628,267.5c0,0,2,0,2,3"/>
		<path class="st10" d="M1625,282.5c0,0-1,2,0,4"/>
	</g>
	<g>
		<path class="st10" d="M1657,326.5c-0.75-0.37-1.19,0.05-1.87,0.55c-0.66,0.49-1.56,1.31-2.13,2.45c0,0-2,1-2,4c0,0-2,2-1,5
			c0,0-1,1-1,4c0,0-2,2,0,5c0,0-1,2,1,4c0,0,3,3,5,6l8-6c0,0,1-2,0-4c0,0,1-2,0-5c0,0,0-3-1-4c0,0,0-3-1-5c0,0-1-3-2-4
			C1659,329.5,1658.54,327.27,1657,326.5z"/>
		<path class="st10" d="M1649.02,350.07l-4.02-1.57l-4,1c0,0-8,9-9,11v3l2-3l8-3l5,1c0,0,4,10,6,12v2"/>
		<path class="st10" d="M1653,368.5v-8l2-3l8-6l7-2h3c0,0,3,2,4,5l-5-2l-3,1l-3,9c0,0-1,4-1,5s-2,3-2,3l-1,1l-5,1v4"/>
		<path class="st10" d="M1655,389.5v-8l3-6c0,0,6-6,9-6s5,0,5,0l4,2l1,4l-3-2h-4l-3,4v7l-2,4l-3,4l-5,4v27h-3l-2-2l1-28l-4-7l-2-4
			l-3-7l-5-3h-3l-5,3l2-3l4-5c0,0,3-1,4-1s4,0,4,0l4,2c0,0,5,4,6,8"/>
		<path class="st10" d="M1656,394.5l3-5l2-6l1-5c0,0,3-2,3-3s2-3,2-3"/>
		<polyline class="st10" points="1641,370.5 1647,375.5 1650,379.5 1655,388.75 		"/>
		<polyline class="st10" points="1656,370.5 1661,368.5 1662,366.5 1663,362.5 1664,359.5 1665,355.5 1669,352.5 		"/>
		<path class="st10" d="M1651,344.5c0,0-1,1,0,4"/>
		<path class="st10" d="M1661,341.5c0,0,1,4-1,6"/>
		<path class="st10" d="M1654,334.5c0,0-2,1-1,5"/>
		<path class="st10" d="M1657,332.5c0,0,2,0,2,3"/>
		<path class="st10" d="M1654,347.5c0,0-1,2,0,4"/>
	</g>
	<g>
		<path class="st10" d="M1693,259.5c-0.75-0.37-1.19,0.05-1.87,0.55c-0.66,0.49-1.56,1.31-2.13,2.45c0,0-2,1-2,4c0,0-2,2-1,5
			c0,0-1,1-1,4c0,0-2,2,0,5c0,0-1,2,1,4c0,0,3,3,5,6l8-6c0,0,1-2,0-4c0,0,1-2,0-5c0,0,0-3-1-4c0,0,0-3-1-5c0,0-1-3-2-4
			C1695,262.5,1694.54,260.27,1693,259.5z"/>
		<path class="st10" d="M1685.02,283.07l-4.02-1.57l-4,1c0,0-8,9-9,11v3l2-3l8-3l5,1c0,0,4,10,6,12v2"/>
		<path class="st10" d="M1689,301.5v-8l2-3l8-6l7-2h3c0,0,3,2,4,5l-5-2l-3,1l-3,9c0,0-1,4-1,5s-2,3-2,3l-1,1l-5,1v4"/>
		<path class="st10" d="M1691,322.5v-8l3-6c0,0,6-6,9-6s5,0,5,0l4,2l1,4l-3-2h-4l-3,4v7l-2,4l-3,4l-5,4v27h-3l-2-2l1-28l-4-7l-2-4
			l-3-7l-5-3h-3l-5,3l2-3l4-5c0,0,3-1,4-1s4,0,4,0l4,2c0,0,5,4,6,8"/>
		<path class="st10" d="M1692,327.5l3-5l2-6l1-5c0,0,3-2,3-3s2-3,2-3"/>
		<polyline class="st10" points="1677,303.5 1683,308.5 1686,312.5 1691,321.75 		"/>
		<polyline class="st10" points="1692,303.5 1697,301.5 1698,299.5 1699,295.5 1700,292.5 1701,288.5 1705,285.5 		"/>
		<path class="st10" d="M1687,277.5c0,0-1,1,0,4"/>
		<path class="st10" d="M1697,274.5c0,0,1,4-1,6"/>
		<path class="st10" d="M1690,267.5c0,0-2,1-1,5"/>
		<path class="st10" d="M1693,265.5c0,0,2,0,2,3"/>
		<path class="st10" d="M1690,280.5c0,0-1,2,0,4"/>
	</g>
	<polygon class="st5" points="1648.19,190.76 1667.26,202 1686.81,190.76 1667.26,180 	"/>
	<polygon class="st3" points="1654.5,190.84 1667.34,198.41 1680.5,190.84 1667.34,183.59 	"/>
	<polyline class="st5" points="1687,190.5 1686.81,199.76 1667.26,211 1648.19,199.76 1648,190.5 	"/>
	<path class="st5" d="M1680.5,203.48V238c0,0-1,9-13,9s-13-9-13-9v-34.52"/>
	<path class="st5" d="M1659.01,244.8v11.7l1.99,3l5,2c0,0,2,0,3,0s5-2,5-2l2-2v-13"/>
	<path class="st5" d="M1679,260.5c0,0-3.59-1.24-5,3c-1,3-1,5-5,5"/>
	<path class="st5" d="M1651,252.5c0,0,4,1,5,6c1,5,7,5,7,5"/>
	<path class="st5" d="M1679,251.5c0,0,1,5-3,6"/>
</g>
<g id="Silos">
	<line class="st10" x1="459" y1="597.5" x2="465" y2="732.5"/>
	<path class="st10" d="M400.13,827.42C368.76,826.29,343,810.6,343,794.5l6-195"/>
	<path class="st10" d="M401,750.5c1.44,0.05,2.03,0,3.5,0c26.83,0,49.58-8.8,57.5-20.99l34,28.99l-46,27L401,750.5"/>
	<polyline class="st10" points="401,750.5 399.25,827.5 439,851.5 496,817.5 488.7,762.79 	"/>
	<line class="st10" x1="439" y1="851.5" x2="437.38" y2="776.56"/>
	<path class="st10" d="M459,599.5c0,12.7-24.62,23-55,23s-55-10.3-55-23c0,0,3-60,55-60S459,599.5,459,599.5z"/>
	<polyline class="st10" points="409.19,833.56 409.1,799.5 426,809.25 426.11,843.59 	"/>
	<polyline class="st10" points="409,833.5 413.86,830.75 413.72,802.17 	"/>
	<line class="st10" x1="414" y1="830.5" x2="426.11" y2="837.25"/>
	<line class="st11" x1="339" y1="603.5" x2="336" y2="779.5"/>
	<line class="st11" x1="359.5" y1="617" x2="356.5" y2="793"/>
	<line class="st11" x1="338.26" y1="646.78" x2="358.5" y2="659"/>
	<line class="st11" x1="338.26" y1="661.78" x2="358.5" y2="674"/>
	<line class="st11" x1="338.26" y1="676.78" x2="358.5" y2="689"/>
	<line class="st11" x1="338.26" y1="691.78" x2="358.5" y2="704"/>
	<line class="st11" x1="338.26" y1="706.78" x2="358.5" y2="719"/>
	<line class="st11" x1="336.5" y1="721" x2="358.5" y2="734"/>
	<line class="st11" x1="336.5" y1="736" x2="358.5" y2="749"/>
	<line class="st11" x1="336.5" y1="751" x2="357.5" y2="763"/>
	<line class="st11" x1="336.5" y1="766" x2="356.5" y2="778"/>
	<line class="st11" x1="338.26" y1="631.78" x2="358.5" y2="644"/>
	<line class="st11" x1="338.26" y1="616.78" x2="358.5" y2="629"/>
	<path class="st10" d="M364,581.5l8-13c0,0,5,6,12.5,5.5v17.5C384.5,591.5,369,592.5,364,581.5z"/>
	<polygon class="st5" points="565.19,607.76 584.26,619 603.81,607.76 584.26,597 	"/>
	<polygon class="st3" points="571.5,607.84 584.34,615.41 597.5,607.84 584.34,600.59 	"/>
	<polyline class="st5" points="604,607.5 603.81,616.76 584.26,628 565.19,616.76 565,607.5 	"/>
	<path class="st5" d="M597.5,620.48V655c0,0-1,9-13,9s-13-9-13-9v-34.52"/>
	<path class="st5" d="M576.01,661.8v11.7l1.99,3l5,2c0,0,2,0,3,0s5-2,5-2l2-2v-13"/>
	<path class="st5" d="M596,677.5c0,0-3.59-1.24-5,3c-1,3-1,5-5,5"/>
	<path class="st5" d="M568,669.5c0,0,4,1,5,6s7,5,7,5"/>
	<polyline class="st10" points="460.18,623.98 527,623.98 571.5,648.65 	"/>
	<polyline class="st10" points="594.23,661.78 617,674.5 617,752.5 677,787.5 813,787.5 904,840.5 904,879.5 718,986.5 464,986.5 
		296,889.5 296,696.5 337.5,672.7 	"/>
	<path class="st10" d="M436.29,879.38c1.97-3.02,2.94-5.03,5.94-5.07s4.07,5.95,4.07,5.95s3.98-2.04,5.95-4.07
		c1.98-2.02,5-0.06,4.02,1.96c-0.98,2.01-0.93,6.01,0.1,9c1.03,2.99,1.09,7.99-1.88,11.02c-2.97,3.03-5.98,2.07-5.98,2.07
		s-0.99,1.01-3.98,2.04c-2.99,1.03-5,0.06-5,0.06c-6.98,2.08-10.06-4.89-10.06-4.89l-1.06-4.99c0,0-0.04-4-0.07-6
		c-0.02-2-3.04-3.97-3.04-3.97l-0.03-3c0,0,1.97-3.02,4.98-2.06s6-0.07,8.07,5.91c0,0,5-0.06,6.06,4.93
		c1.06,4.99,3.07,5.97,3.09,7.97"/>
	<path class="st10" d="M439.54,902.34c0,0-5.01-0.94-6.08-6.93"/>
	<path class="st10" d="M450.49,897.22c0,0,2.98-2.03,2.91-8.03"/>
	<path class="st10" d="M446.3,880.27c0,0-3.58-0.44-4.24,4.31"/>
	<path class="st10" d="M511.8,835.53c1.97-3.02,2.94-5.03,5.94-5.07c3-0.03,4.07,5.95,4.07,5.95s3.98-2.04,5.95-4.07
		c1.98-2.02,5-0.06,4.02,1.96s-0.93,6.01,0.1,9c1.03,2.99,1.09,7.99-1.88,11.02c-2.97,3.03-5.98,2.07-5.98,2.07
		s-0.99,1.01-3.98,2.04c-2.99,1.03-5,0.06-5,0.06c-6.98,2.08-10.06-4.89-10.06-4.89l-1.06-4.99c0,0-0.04-4-0.07-6
		c-0.02-2-3.04-3.97-3.04-3.97l-0.03-3c0,0,1.97-3.02,4.98-2.06s6-0.07,8.07,5.91c0,0,5-0.06,6.06,4.93s3.07,5.97,3.09,7.97"/>
	<path class="st10" d="M515.06,858.49c0,0-5.01-0.94-6.08-6.93"/>
	<path class="st10" d="M526,853.37c0,0,2.98-2.03,2.91-8.03"/>
	<path class="st10" d="M521.81,836.42c0,0-3.58-0.44-4.24,4.31"/>
	<path class="st10" d="M543.61,818.17c1.97-3.02,2.94-5.03,5.94-5.07s4.07,5.95,4.07,5.95s3.98-2.04,5.95-4.07
		c1.98-2.02,5-0.06,4.02,1.96c-0.98,2.01-0.93,6.01,0.1,9s1.09,7.99-1.88,11.02s-5.98,2.07-5.98,2.07s-0.99,1.01-3.98,2.04
		c-2.99,1.03-5,0.06-5,0.06c-6.98,2.08-10.06-4.89-10.06-4.89l-1.06-4.99c0,0-0.04-4-0.07-6c-0.02-2-3.04-3.97-3.04-3.97l-0.03-3
		c0,0,1.97-3.02,4.98-2.06c3.01,0.97,6-0.07,8.07,5.91c0,0,5-0.06,6.06,4.93s3.07,5.97,3.09,7.97"/>
	<path class="st10" d="M546.87,841.14c0,0-5.01-0.94-6.08-6.93"/>
	<path class="st10" d="M557.81,836.01c0,0,2.98-2.03,2.91-8.03"/>
	<path class="st10" d="M553.62,819.06c0,0-3.58-0.44-4.24,4.31"/>
	<path class="st10" d="M610.18,779.42c1.97-3.02,2.94-5.03,5.94-5.07c3-0.03,4.07,5.95,4.07,5.95s3.98-2.04,5.95-4.07
		c1.98-2.02,5-0.06,4.02,1.96c-0.98,2.01-0.93,6.01,0.1,9c1.03,2.99,1.09,7.99-1.88,11.02c-2.97,3.03-5.98,2.07-5.98,2.07
		s-0.99,1.01-3.98,2.04c-2.99,1.03-5,0.06-5,0.06c-6.98,2.08-10.06-4.89-10.06-4.89l-1.06-4.99c0,0-0.04-4-0.07-6
		c-0.02-2-3.04-3.97-3.04-3.97l-0.03-3c0,0,1.97-3.02,4.98-2.06c3.01,0.97,6-0.07,8.07,5.91c0,0,5-0.06,6.06,4.93
		s3.07,5.97,3.09,7.97"/>
	<path class="st10" d="M613.44,802.39c0,0-5.01-0.94-6.08-6.93"/>
	<path class="st10" d="M624.38,797.27c0,0,2.98-2.03,2.91-8.03"/>
	<path class="st10" d="M620.19,780.31c0,0-3.58-0.44-4.24,4.31"/>
	<path class="st10" d="M428.38,887.63l-9.11,5.3l-26.66,14.94l-8.32,5.21c-4.31,2.7-4.16,9.02,0.27,11.51l13.02,7.32
		c2.06,1.16,4.57,1.14,6.62-0.03L645,793.27c4.05-2.33,3.98-8.21-0.14-10.43l-15.16-8.2c-1.63-0.88-3.58-0.96-5.28-0.2l-5.37,2.39"
		/>
	<line class="st10" x1="445.38" y1="877.25" x2="503.89" y2="843.46"/>
	<line class="st10" x1="520.93" y1="833.5" x2="536" y2="824.5"/>
	<line class="st10" x1="602.24" y1="786.29" x2="552.34" y2="815.29"/>
	<path class="st10" d="M443.48,920.78c1.97-3.02,2.94-5.03,5.94-5.07c3-0.03,4.07,5.95,4.07,5.95s3.98-2.04,5.95-4.07
		c1.98-2.02,5-0.06,4.02,1.96c-0.98,2.01-0.93,6.01,0.1,9c1.03,2.99,1.09,7.99-1.88,11.02c-2.97,3.03-5.98,2.07-5.98,2.07
		s-0.99,1.01-3.98,2.04c-2.99,1.03-5,0.06-5,0.06c-6.98,2.08-10.06-4.89-10.06-4.89l-1.06-4.99c0,0-0.04-4-0.07-6
		c-0.02-2-3.04-3.97-3.04-3.97l-0.03-3c0,0,1.97-3.02,4.98-2.06c3.01,0.97,6-0.07,8.07,5.91c0,0,5-0.06,6.06,4.93
		s3.07,5.97,3.09,7.97"/>
	<path class="st10" d="M446.74,943.75c0,0-5.01-0.94-6.08-6.93"/>
	<path class="st10" d="M457.68,938.62c0,0,2.98-2.03,2.91-8.03"/>
	<path class="st10" d="M453.49,921.67c0,0-3.58-0.44-4.24,4.31"/>
	<path class="st10" d="M479.29,903.38c1.97-3.02,2.94-5.03,5.94-5.07s4.07,5.95,4.07,5.95s3.98-2.04,5.95-4.07
		c1.98-2.02,5-0.06,4.02,1.96c-0.98,2.01-0.93,6.01,0.1,9c1.03,2.99,1.09,7.99-1.88,11.02c-2.97,3.03-5.98,2.07-5.98,2.07
		s-0.99,1.01-3.98,2.04c-2.99,1.03-5,0.06-5,0.06c-6.98,2.08-10.06-4.89-10.06-4.89l-1.06-4.99c0,0-0.04-4-0.07-6
		c-0.02-2-3.04-3.97-3.04-3.97l-0.03-3c0,0,1.97-3.02,4.98-2.06s6-0.07,8.07,5.91c0,0,5-0.06,6.06,4.93
		c1.06,4.99,3.07,5.97,3.09,7.97"/>
	<path class="st10" d="M482.54,926.34c0,0-5.01-0.94-6.08-6.93"/>
	<path class="st10" d="M493.49,921.22c0,0,2.98-2.03,2.91-8.03"/>
	<path class="st10" d="M489.3,904.27c0,0-3.58-0.44-4.24,4.31"/>
	<path class="st10" d="M554.8,859.53c1.97-3.02,2.94-5.03,5.94-5.07c3-0.03,4.07,5.95,4.07,5.95s3.98-2.04,5.95-4.07
		c1.98-2.02,5-0.06,4.02,1.96s-0.93,6.01,0.1,9c1.03,2.99,1.09,7.99-1.88,11.02c-2.97,3.03-5.98,2.07-5.98,2.07
		s-0.99,1.01-3.98,2.04c-2.99,1.03-5,0.06-5,0.06c-6.98,2.08-10.06-4.89-10.06-4.89l-1.06-4.99c0,0-0.04-4-0.07-6
		c-0.02-2-3.04-3.97-3.04-3.97l-0.03-3c0,0,1.97-3.02,4.98-2.06c3.01,0.97,6-0.07,8.07,5.91c0,0,5-0.06,6.06,4.93
		s3.07,5.97,3.09,7.97"/>
	<path class="st10" d="M558.06,882.49c0,0-5.01-0.94-6.08-6.93"/>
	<path class="st10" d="M569,877.37c0,0,2.98-2.03,2.91-8.03"/>
	<path class="st10" d="M564.81,860.42c0,0-3.58-0.44-4.24,4.31"/>
	<path class="st10" d="M586.61,842.17c1.97-3.02,2.94-5.03,5.94-5.07s4.07,5.95,4.07,5.95s3.98-2.04,5.95-4.07
		c1.98-2.02,5-0.06,4.02,1.96c-0.98,2.01-0.93,6.01,0.1,9s1.09,7.99-1.88,11.02s-5.98,2.07-5.98,2.07s-0.99,1.01-3.98,2.04
		c-2.99,1.03-5,0.06-5,0.06c-6.98,2.08-10.06-4.89-10.06-4.89l-1.06-4.99c0,0-0.04-4-0.07-6c-0.02-2-3.04-3.97-3.04-3.97l-0.03-3
		c0,0,1.97-3.02,4.98-2.06c3.01,0.97,6-0.07,8.07,5.91c0,0,5-0.06,6.06,4.93s3.07,5.97,3.09,7.97"/>
	<path class="st10" d="M589.87,865.14c0,0-5.01-0.94-6.08-6.93"/>
	<path class="st10" d="M600.81,860.01c0,0,2.98-2.03,2.91-8.03"/>
	<path class="st10" d="M596.62,843.06c0,0-3.58-0.44-4.24,4.31"/>
	<path class="st10" d="M653.18,803.42c1.97-3.02,2.94-5.03,5.94-5.07c3-0.03,4.07,5.95,4.07,5.95s3.98-2.04,5.95-4.07
		c1.98-2.02,5-0.06,4.02,1.96c-0.98,2.01-0.93,6.01,0.1,9c1.03,2.99,1.09,7.99-1.88,11.02c-2.97,3.03-5.98,2.07-5.98,2.07
		s-0.99,1.01-3.98,2.04c-2.99,1.03-5,0.06-5,0.06c-6.98,2.08-10.06-4.89-10.06-4.89l-1.06-4.99c0,0-0.04-4-0.07-6
		c-0.02-2-3.04-3.97-3.04-3.97l-0.03-3c0,0,1.97-3.02,4.98-2.06c3.01,0.97,6-0.07,8.07,5.91c0,0,5-0.06,6.06,4.93
		s3.07,5.97,3.09,7.97"/>
	<path class="st10" d="M656.44,826.39c0,0-5.01-0.94-6.08-6.93"/>
	<path class="st10" d="M667.38,821.27c0,0,2.98-2.03,2.91-8.03"/>
	<path class="st10" d="M435.6,931.87l-8.32,5.21c-4.31,2.7-4.16,9.02,0.27,11.51l13.02,7.32c2.06,1.16,4.57,1.14,6.62-0.03
		L688,817.27c4.05-2.33,3.98-8.21-0.14-10.43l-15.16-8.2c-1.63-0.88-3.58-0.96-5.28-0.2l-5.37,2.39"/>
	<line class="st10" x1="462.27" y1="916.93" x2="471.38" y2="911.63"/>
	<line class="st10" x1="488.38" y1="901.25" x2="546.89" y2="867.46"/>
	<line class="st10" x1="563.93" y1="857.5" x2="579" y2="848.5"/>
	<line class="st10" x1="645.24" y1="810.29" x2="595.34" y2="839.29"/>
	<path class="st10" d="M485.48,944.78c1.97-3.02,2.94-5.03,5.94-5.07c3-0.03,4.07,5.95,4.07,5.95s3.98-2.04,5.95-4.07
		c1.98-2.02,5-0.06,4.02,1.96c-0.98,2.01-0.93,6.01,0.1,9c1.03,2.99,1.09,7.99-1.88,11.02c-2.97,3.03-5.98,2.07-5.98,2.07
		s-0.99,1.01-3.98,2.04c-2.99,1.03-5,0.06-5,0.06c-6.98,2.08-10.06-4.89-10.06-4.89l-1.06-4.99c0,0-0.04-4-0.07-6
		c-0.02-2-3.04-3.97-3.04-3.97l-0.03-3c0,0,1.97-3.02,4.98-2.06c3.01,0.97,6-0.07,8.07,5.91c0,0,5-0.06,6.06,4.93
		s3.07,5.97,3.09,7.97"/>
	<path class="st10" d="M488.74,967.75c0,0-5.01-0.94-6.08-6.93"/>
	<path class="st10" d="M499.68,962.62c0,0,2.98-2.03,2.91-8.03"/>
	<path class="st10" d="M495.49,945.67c0,0-3.58-0.44-4.24,4.31"/>
	<path class="st10" d="M521.29,927.38c1.97-3.02,2.94-5.03,5.94-5.07s4.07,5.95,4.07,5.95s3.98-2.04,5.95-4.07s5-0.06,4.02,1.96
		c-0.98,2.01-0.93,6.01,0.1,9c1.03,2.99,1.09,7.99-1.88,11.02c-2.97,3.03-5.98,2.07-5.98,2.07s-0.99,1.01-3.98,2.04s-5,0.06-5,0.06
		c-6.98,2.08-10.06-4.89-10.06-4.89l-1.06-4.99c0,0-0.04-4-0.07-6c-0.02-2-3.04-3.97-3.04-3.97l-0.03-3c0,0,1.97-3.02,4.98-2.06
		c3.01,0.97,6-0.07,8.07,5.91c0,0,5-0.06,6.06,4.93c1.06,4.99,3.07,5.97,3.09,7.97"/>
	<path class="st10" d="M524.54,950.34c0,0-5.01-0.94-6.08-6.93"/>
	<path class="st10" d="M535.49,945.22c0,0,2.98-2.03,2.91-8.03"/>
	<path class="st10" d="M531.3,928.27c0,0-3.58-0.44-4.24,4.31"/>
	<path class="st10" d="M596.8,883.53c1.97-3.02,2.94-5.03,5.94-5.07c3-0.03,4.07,5.95,4.07,5.95s3.98-2.04,5.95-4.07
		c1.98-2.02,5-0.06,4.02,1.96s-0.93,6.01,0.1,9c1.03,2.99,1.09,7.99-1.88,11.02c-2.97,3.03-5.98,2.07-5.98,2.07
		s-0.99,1.01-3.98,2.04c-2.99,1.03-5,0.06-5,0.06c-6.98,2.08-10.06-4.89-10.06-4.89l-1.06-4.99c0,0-0.04-4-0.07-6
		c-0.02-2-3.04-3.97-3.04-3.97l-0.03-3c0,0,1.97-3.02,4.98-2.06c3.01,0.97,6-0.07,8.07,5.91c0,0,5-0.06,6.06,4.93
		s3.07,5.97,3.09,7.97"/>
	<path class="st10" d="M600.06,906.49c0,0-5.01-0.94-6.08-6.93"/>
	<path class="st10" d="M611,901.37c0,0,2.98-2.03,2.91-8.03"/>
	<path class="st10" d="M606.81,884.42c0,0-3.58-0.44-4.24,4.31"/>
	<path class="st10" d="M695.18,827.42c1.97-3.02,2.94-5.03,5.94-5.07c3-0.03,4.07,5.95,4.07,5.95s3.98-2.04,5.95-4.07
		c1.98-2.02,5-0.06,4.02,1.96c-0.98,2.01-0.93,6.01,0.1,9c1.03,2.99,1.09,7.99-1.88,11.02c-2.97,3.03-5.98,2.07-5.98,2.07
		s-0.99,1.01-3.98,2.04c-2.99,1.03-5,0.06-5,0.06c-6.98,2.08-10.06-4.89-10.06-4.89l-1.06-4.99c0,0-0.04-4-0.07-6
		c-0.02-2-3.04-3.97-3.04-3.97l-0.03-3c0,0,1.97-3.02,4.98-2.06c3.01,0.97,6-0.07,8.07,5.91c0,0,5-0.06,6.06,4.93
		s3.07,5.97,3.09,7.97"/>
	<path class="st10" d="M698.44,850.39c0,0-5.01-0.94-6.08-6.93"/>
	<path class="st10" d="M709.38,845.27c0,0,2.98-2.03,2.91-8.03"/>
	<path class="st10" d="M477.6,955.87l-8.32,5.21c-4.31,2.7-4.16,9.02,0.27,11.51l13.02,7.32c2.06,1.16,4.57,1.14,6.62-0.03
		L730,841.27c4.05-2.33,3.98-8.21-0.14-10.43l-15.16-8.2c-1.63-0.88-3.58-0.96-5.28-0.2l-5.37,2.39"/>
	<line class="st10" x1="504.27" y1="940.93" x2="513.38" y2="935.63"/>
	<line class="st10" x1="530.38" y1="925.25" x2="588.89" y2="891.46"/>
	<path class="st10" d="M605.93,881.5"/>
	<polyline class="st10" points="687.24,834.29 637.34,863.29 606,881.5 	"/>
	<path class="st10" d="M581.48,936.78c1.97-3.02,2.94-5.03,5.94-5.07c3-0.03,4.07,5.95,4.07,5.95s3.98-2.04,5.95-4.07
		c1.98-2.02,5-0.06,4.02,1.96c-0.98,2.01-0.93,6.01,0.1,9c1.03,2.99,1.09,7.99-1.88,11.02c-2.97,3.03-5.98,2.07-5.98,2.07
		s-0.99,1.01-3.98,2.04c-2.99,1.03-5,0.06-5,0.06c-6.98,2.08-10.06-4.89-10.06-4.89l-1.06-4.99c0,0-0.04-4-0.07-6
		c-0.02-2-3.04-3.97-3.04-3.97l-0.03-3c0,0,1.97-3.02,4.98-2.06c3.01,0.97,6-0.07,8.07,5.91c0,0,5-0.06,6.06,4.93
		s3.07,5.97,3.09,7.97"/>
	<path class="st10" d="M584.74,959.75c0,0-5.01-0.94-6.08-6.93"/>
	<path class="st10" d="M595.68,954.62c0,0,2.98-2.03,2.91-8.03"/>
	<path class="st10" d="M591.49,937.67c0,0-3.58-0.44-4.24,4.31"/>
	<path class="st10" d="M617.29,919.38c1.97-3.02,2.94-5.03,5.94-5.07s4.07,5.95,4.07,5.95s3.98-2.04,5.95-4.07s5-0.06,4.02,1.96
		c-0.98,2.01-0.93,6.01,0.1,9c1.03,2.99,1.09,7.99-1.88,11.02c-2.97,3.03-5.98,2.07-5.98,2.07s-0.99,1.01-3.98,2.04s-5,0.06-5,0.06
		c-6.98,2.08-10.06-4.89-10.06-4.89l-1.06-4.99c0,0-0.04-4-0.07-6c-0.02-2-3.04-3.97-3.04-3.97l-0.03-3c0,0,1.97-3.02,4.98-2.06
		c3.01,0.97,6-0.07,8.07,5.91c0,0,5-0.06,6.06,4.93c1.06,4.99,3.07,5.97,3.09,7.97"/>
	<path class="st10" d="M620.54,942.34c0,0-5.01-0.94-6.08-6.93"/>
	<path class="st10" d="M631.49,937.22c0,0,2.98-2.03,2.91-8.03"/>
	<path class="st10" d="M627.3,920.27c0,0-3.58-0.44-4.24,4.31"/>
	<path class="st10" d="M692.8,875.53c1.97-3.02,2.94-5.03,5.94-5.07c3-0.03,4.07,5.95,4.07,5.95s3.98-2.04,5.95-4.07
		c1.98-2.02,5-0.06,4.02,1.96s-0.93,6.01,0.1,9c1.03,2.99,1.09,7.99-1.88,11.02c-2.97,3.03-5.98,2.07-5.98,2.07
		s-0.99,1.01-3.98,2.04c-2.99,1.03-5,0.06-5,0.06c-6.98,2.08-10.06-4.89-10.06-4.89l-1.06-4.99c0,0-0.04-4-0.07-6
		c-0.02-2-3.04-3.97-3.04-3.97l-0.03-3c0,0,1.97-3.02,4.98-2.06c3.01,0.97,6-0.07,8.07,5.91c0,0,5-0.06,6.06,4.93
		s3.07,5.97,3.09,7.97"/>
	<path class="st10" d="M696.06,898.49c0,0-5.01-0.94-6.08-6.93"/>
	<path class="st10" d="M707,893.37c0,0,2.98-2.03,2.91-8.03"/>
	<path class="st10" d="M702.81,876.42c0,0-3.58-0.44-4.24,4.31"/>
	<path class="st10" d="M724.61,858.17c1.97-3.02,2.94-5.03,5.94-5.07s4.07,5.95,4.07,5.95s3.98-2.04,5.95-4.07
		c1.98-2.02,5-0.06,4.02,1.96c-0.98,2.01-0.93,6.01,0.1,9s1.09,7.99-1.88,11.02s-5.98,2.07-5.98,2.07s-0.99,1.01-3.98,2.04
		c-2.99,1.03-5,0.06-5,0.06c-6.98,2.08-10.06-4.89-10.06-4.89l-1.06-4.99c0,0-0.04-4-0.07-6c-0.02-2-3.04-3.97-3.04-3.97l-0.03-3
		c0,0,1.97-3.02,4.98-2.06c3.01,0.97,6-0.07,8.07,5.91c0,0,5-0.06,6.06,4.93s3.07,5.97,3.09,7.97"/>
	<path class="st10" d="M727.87,881.14c0,0-5.01-0.94-6.08-6.93"/>
	<path class="st10" d="M738.81,876.01c0,0,2.98-2.03,2.91-8.03"/>
	<path class="st10" d="M734.62,859.06c0,0-3.58-0.44-4.24,4.31"/>
	<path class="st10" d="M791.18,819.42c1.97-3.02,2.94-5.03,5.94-5.07c3-0.03,4.07,5.95,4.07,5.95s3.98-2.04,5.95-4.07
		c1.98-2.02,5-0.06,4.02,1.96c-0.98,2.01-0.93,6.01,0.1,9c1.03,2.99,1.09,7.99-1.88,11.02c-2.97,3.03-5.98,2.07-5.98,2.07
		s-0.99,1.01-3.98,2.04c-2.99,1.03-5,0.06-5,0.06c-6.98,2.08-10.06-4.89-10.06-4.89l-1.06-4.99c0,0-0.04-4-0.07-6
		c-0.02-2-3.04-3.97-3.04-3.97l-0.03-3c0,0,1.97-3.02,4.98-2.06c3.01,0.97,6-0.07,8.07,5.91c0,0,5-0.06,6.06,4.93
		s3.07,5.97,3.09,7.97"/>
	<path class="st10" d="M794.44,842.39c0,0-5.01-0.94-6.08-6.93"/>
	<path class="st10" d="M805.38,837.27c0,0,2.98-2.03,2.91-8.03"/>
	<path class="st10" d="M573.6,947.87l-8.32,5.21c-4.31,2.7-4.16,9.02,0.27,11.51l13.02,7.32c2.06,1.16,4.57,1.14,6.62-0.03
		L826,833.27c4.05-2.33,3.98-8.21-0.14-10.43l-15.16-8.2c-1.63-0.88-3.58-0.96-5.28-0.2l-5.37,2.39"/>
	<line class="st10" x1="600.27" y1="932.93" x2="609.38" y2="927.63"/>
	<line class="st10" x1="626.38" y1="917.25" x2="684.89" y2="883.46"/>
	<line class="st10" x1="701.93" y1="873.5" x2="717" y2="864.5"/>
	<line class="st10" x1="783.24" y1="826.29" x2="733.34" y2="855.29"/>
	<path class="st10" d="M639.48,946.78c1.97-3.02,2.94-5.03,5.94-5.07c3-0.03,4.07,5.95,4.07,5.95s3.98-2.04,5.95-4.07
		c1.98-2.02,5-0.06,4.02,1.96c-0.98,2.01-0.93,6.01,0.1,9c1.03,2.99,1.09,7.99-1.88,11.02c-2.97,3.03-5.98,2.07-5.98,2.07
		s-0.99,1.01-3.98,2.04c-2.99,1.03-5,0.06-5,0.06c-6.98,2.08-10.06-4.89-10.06-4.89l-1.06-4.99c0,0-0.04-4-0.07-6
		c-0.02-2-3.04-3.97-3.04-3.97l-0.03-3c0,0,1.97-3.02,4.98-2.06c3.01,0.97,6-0.07,8.07,5.91c0,0,5-0.06,6.06,4.93
		s3.07,5.97,3.09,7.97"/>
	<path class="st10" d="M642.74,969.75c0,0-5.01-0.94-6.08-6.93"/>
	<path class="st10" d="M653.68,964.62c0,0,2.98-2.03,2.91-8.03"/>
	<path class="st10" d="M649.49,947.67c0,0-3.58-0.44-4.24,4.31"/>
	<path class="st10" d="M675.29,929.38c1.97-3.02,2.94-5.03,5.94-5.07s4.07,5.95,4.07,5.95s3.98-2.04,5.95-4.07s5-0.06,4.02,1.96
		c-0.98,2.01-0.93,6.01,0.1,9c1.03,2.99,1.09,7.99-1.88,11.02c-2.97,3.03-5.98,2.07-5.98,2.07s-0.99,1.01-3.98,2.04s-5,0.06-5,0.06
		c-6.98,2.08-10.06-4.89-10.06-4.89l-1.06-4.99c0,0-0.04-4-0.07-6c-0.02-2-3.04-3.97-3.04-3.97l-0.03-3c0,0,1.97-3.02,4.98-2.06
		c3.01,0.97,6-0.07,8.07,5.91c0,0,5-0.06,6.06,4.93c1.06,4.99,3.07,5.97,3.09,7.97"/>
	<path class="st10" d="M678.54,952.34c0,0-5.01-0.94-6.08-6.93"/>
	<path class="st10" d="M689.49,947.22c0,0,2.98-2.03,2.91-8.03"/>
	<path class="st10" d="M685.3,930.27c0,0-3.58-0.44-4.24,4.31"/>
	<path class="st10" d="M750.8,885.53c1.97-3.02,2.94-5.03,5.94-5.07c3-0.03,4.07,5.95,4.07,5.95s3.98-2.04,5.95-4.07
		c1.98-2.02,5-0.06,4.02,1.96s-0.93,6.01,0.1,9c1.03,2.99,1.09,7.99-1.88,11.02c-2.97,3.03-5.98,2.07-5.98,2.07
		s-0.99,1.01-3.98,2.04c-2.99,1.03-5,0.06-5,0.06c-6.98,2.08-10.06-4.89-10.06-4.89l-1.06-4.99c0,0-0.04-4-0.07-6
		c-0.02-2-3.04-3.97-3.04-3.97l-0.03-3c0,0,1.97-3.02,4.98-2.06c3.01,0.97,6-0.07,8.07,5.91c0,0,5-0.06,6.06,4.93
		s3.07,5.97,3.09,7.97"/>
	<path class="st10" d="M754.06,908.49c0,0-5.01-0.94-6.08-6.93"/>
	<path class="st10" d="M765,903.37c0,0,2.98-2.03,2.91-8.03"/>
	<path class="st10" d="M760.81,886.42c0,0-3.58-0.44-4.24,4.31"/>
	<path class="st10" d="M782.61,868.17c1.97-3.02,2.94-5.03,5.94-5.07s4.07,5.95,4.07,5.95s3.98-2.04,5.95-4.07
		c1.98-2.02,5-0.06,4.02,1.96c-0.98,2.01-0.93,6.01,0.1,9s1.09,7.99-1.88,11.02s-5.98,2.07-5.98,2.07s-0.99,1.01-3.98,2.04
		c-2.99,1.03-5,0.06-5,0.06c-6.98,2.08-10.06-4.89-10.06-4.89l-1.06-4.99c0,0-0.04-4-0.07-6c-0.02-2-3.04-3.97-3.04-3.97l-0.03-3
		c0,0,1.97-3.02,4.98-2.06c3.01,0.97,6-0.07,8.07,5.91c0,0,5-0.06,6.06,4.93s3.07,5.97,3.09,7.97"/>
	<path class="st10" d="M785.87,891.14c0,0-5.01-0.94-6.08-6.93"/>
	<path class="st10" d="M796.81,886.01c0,0,2.98-2.03,2.91-8.03"/>
	<path class="st10" d="M792.62,869.06c0,0-3.58-0.44-4.24,4.31"/>
	<line class="st10" x1="658.27" y1="942.93" x2="667.38" y2="937.63"/>
	<line class="st10" x1="684.38" y1="927.25" x2="742.89" y2="893.46"/>
	<line class="st10" x1="759.93" y1="883.5" x2="775" y2="874.5"/>
	<path class="st10" d="M631.6,957.87l-8.32,5.21c-4.31,2.7-4.16,9.02,0.27,11.51l13.02,7.32c2.06,1.16,4.57,1.14,6.62-0.03
		L884,843.27c4.05-2.33,3.98-8.21-0.14-10.43l-15.16-8.2c-1.63-0.88-3.58-0.96-5.28-0.2L858,827.5l-66.66,37.79"/>
</g>
<g id="Balle_di_fieno">
	<polygon class="st5" points="498.69,253.26 517.76,264.5 537.31,253.26 517.76,242.5 	"/>
	<polygon class="st3" points="505,253.34 517.84,260.91 531,253.34 517.84,246.09 	"/>
	<polyline class="st5" points="537.5,253 537.31,262.26 517.76,273.5 498.69,262.26 498.5,253 	"/>
	<path class="st5" d="M531,265.98v34.52c0,0-1,9-13,9s-13-9-13-9v-34.52"/>
	<path class="st5" d="M509.51,307.3V319l1.99,3l5,2c0,0,2,0,3,0s5-2,5-2l2-2v-13"/>
	<path class="st5" d="M529.5,323c0,0-3.59-1.24-5,3c-1,3-1,5-5,5"/>
	<path class="st5" d="M501.5,315c0,0,4,1,5,6s7,5,7,5"/>
	<path class="st10" d="M230.5,152l-2-10l-2,13l-4,1h-3l-2-4l-2,8l-4,6l-5,2l-3-1l-3,4l-4-2l-2-2l-2,4l-2,3h-3l-2,5l-2-7l-5,17l-3,5
		l-2,8l2,12l-2,13v24v19c0,0,2,14,1,24s2,23,2,23h10l-2,3h5l5,3h2v4h5v2l3,2h3h7l3,2h-4v3h11l-5,4h8v3l6,2h6l8,1l-6,3l6,1v3h6l3,5
		l-2,4h13l-2,3h7l-2,3h11l-1,3l3,3v2l5,2l13-6v-5l14-3l-1-3l13-3l4-2l2-10l6-1l18-2l8-5l9-4l-1-5v-5l7-1v-3h4l2-2h4l7-3l9-2l6-4
		l-5-4l6-1l8-2l9-7l16-1l-3-4l5-2v-6l16-1v-3l9-3l-1-7l1-32l2-11l-3-9l1-19l2-14l-3,5c0,0,0-15,0-16s5-31,5-31l-2,5l-2-6l-7-3l-3,3
		l-10-6l-2-7l-2,2l-2-4v6l-9-5l-2-4l-4-3h-6v-8l-4,4l-3-1l-5-2v-6l-3,2l-7-1l-2,1l-2-5l-4,2l-5,3l-6-4l-1-3l-3,4l-4,1h-8l-4,2l-1-5
		l-1-8l-4,11l-8,1l-7-2l-2-3l-3,5h-6l-2-1l-7-3l-1,5l-5-6l-4,4h-4l-6-1l-2-1l-5,7l-6,3l-1-8l-6,10l-3,3l-4,5l-6-7v7l-4,2l-3,3l-7-7
		l-1,7l-3,5l-3,5l-1-6l-3,7l-5,4l-1,3l-2-4l-2,4l-2,2"/>
	<path class="st10" d="M175.5,269l3,4l2-1l2,14l2-7l2,2l2,19l3-21l1,2l4-7v5l2,22v-16h3l1-2l2,14l4-11v8l3,4h3c0,0,2,25,2,26
		s2-18,2-18l2-9l3,2v3l2,16l1-19l2,8l2-3l2-2v-2l1,6l4-4l1-3l2,4v34l3-28l2,3v2l3-6l2,4v8l4-3l1,6l4-8l1,11l4-6l5,3l1-7l2,12l2-12
		l2,21l2-13l1,5l2,2l1,9l3-9l2,4h3c0,0-2,19-2,33"/>
	<line class="st10" x1="255.5" y1="330" x2="254.5" y2="353"/>
	<line class="st10" x1="268.5" y1="348" x2="268.5" y2="362"/>
	<line class="st10" x1="202.5" y1="302" x2="202.5" y2="317"/>
	<path class="st10" d="M331.7,355c0,0-1.2-17,0.8-23"/>
	<path class="st10" d="M308.5,359c0,0-1-13,0-25"/>
	<path class="st10" d="M293.5,336c0,0,8-8,8-12s0-3,0-3l2,7l3-3l2,1l6-6h3h1l5-5l7-2l17-13l2-3l3,1l4-1l4-3l1-4l5,3l3-4l2-1v-4l7,1
		l4-1l3,1c0,0,4-2,5-3s2-2,2-2l4,1l4-5l2-5l4-3h6l8-12v7c0,0,6-7,7-8s4-2,4-2l4-2h3l3-6l4,4l7-10v-3"/>
	<polyline class="st10" points="475.5,225 468.5,235 463.5,241 461.5,241 456.5,245 	"/>
	<polyline class="st10" points="178.5,235 186.5,234 179.5,241 185.5,240 184.5,242 200.5,235 182.5,249 194.5,245 203.5,240 
		195.5,252 211.5,243 200.5,253 194.5,257 	"/>
	<path class="st10" d="M197.5,261c0,0,13-7,20-11c0,0-7,8-10,14"/>
	<path class="st10" d="M216.5,261c0,0,10-7,19-9c0,0-15,11-19,17"/>
	<path class="st10" d="M222.5,267l22-7l-17,12l24-5c0,0-8,8-12,13"/>
	<path class="st10" d="M424.29,299.83c0,0-0.79-13.83,0.21-22.83"/>
	<path class="st10" d="M420.5,263c0,0,0,12-3,19"/>
	<path class="st10" d="M444.5,290c0,0,1-11,3-20"/>
	<path class="st10" d="M452.5,245c0,0-2,10-2,28"/>
	<path class="st10" d="M469.5,240c0,0,0,14-2,24"/>
	<path class="st10" d="M381.33,320c0,0,0.17-12,1.17-20"/>
	<path class="st10" d="M372.5,288c0,0-2,17-1,32"/>
	<path class="st10" d="M367.5,331c0,0,0-6,0-15"/>
	<path class="st10" d="M352.5,302c0,0,1,12-2,25"/>
	<path class="st10" d="M349.5,300c0,0,1,9-1,21"/>
	<path class="st10" d="M319.5,322c0,0-1,8-1,16"/>
	<polyline class="st10" points="173.5,234.11 163.5,240 163.5,314 340.5,417 626.5,417 676.5,388 676.5,343 613.5,307 537,307 
		530.18,303.09 	"/>
	<polyline class="st10" points="475.5,183 484.5,188 484.5,277 505,288.9 	"/>
	<path class="st10" d="M460.67,364.51c-1.28,17.46-12,31.89-26.05,37.23c-4.32,1.64-8.96,2.43-13.74,2.17
		c-20.31-1.07-35.42-20.44-33.75-43.27c1.22-16.64,11.01-30.53,24.11-36.42c0.57-0.26,1.14-0.5,1.73-0.72
		c4.39-1.7,9.1-2.52,13.96-2.26C447.23,322.31,462.34,341.68,460.67,364.51z"/>
	<g>
		<path class="st12" d="M439,400.5l2-2c14.22-5.4,22.64-20.01,23.86-36.7c0.84-11.54-2.75-22.77-9.85-30.83
			c-6.06-6.87-14.21-10.91-22.95-11.37c-4.61-0.24-9.17,0.5-13.55,2.19c-0.56,0.22-1.12,0.45-1.68,0.7l3.17-2.99
			c0.58-0.26,0.4,0.23,1,0c4.65-1.8,6.27-2.16,11.16-1.9c9.28,0.49,17.93,4.77,24.35,12.05c7.46,8.46,11.23,20.23,10.35,32.3
			C465.58,379.4,453.94,394.82,439,400.5z"/>
	</g>
	<g>
		<path class="st12" d="M453,393.5h-1c14.22-5.4,24.1-20.3,25.32-36.99c0.84-11.54-2.75-22.77-9.85-30.83
			c-6.06-6.87-14.21-10.91-22.95-11.37c-4.61-0.24-9.17,0.5-13.55,2.19c-0.56,0.22-3.41,0.75-3.96,1l3-2
			c0.58-0.26-0.36-0.63,0.24-0.86c4.65-1.8,9.48-2.59,14.38-2.33c9.28,0.49,17.93,4.77,24.35,12.05
			c7.46,8.46,11.23,20.23,10.35,32.3C478.04,374.12,467.94,387.82,453,393.5z"/>
	</g>
	<path class="st10" d="M411.96,323.8l23.02-10.59c3.91-1.3,8.43-1.89,12.69-1.67c20.31,1.07,35.42,20.44,33.75,43.27
		c-1.22,16.69-11.47,30.78-24.62,36.64l-21.46,9.99"/>
	<path class="st10" d="M434,333.5c0,0-13.12-5.91-24,2c-11,8-11.5,22.5-11.5,22.5"/>
	<path class="st10" d="M416.5,344c0,0-10,4-12,15s3,19,3,19"/>
	<path class="st10" d="M397.14,372.82c0,0,0.59,13.02,14.72,21.36"/>
	<path class="st10" d="M427.5,346c0,0,16,1,11,20"/>
	<path class="st10" d="M446.5,351c0,0,4,8-1,16"/>
	<path class="st10" d="M451.5,368c0,0,0,3-1,6"/>
	<path class="st10" d="M414.5,357c0,0-6.26,4.49-3,11c3,6,7,5,9,5"/>
	<path class="st10" d="M423.5,363c0,0,4-2,2-5s-5-2-6,1c-0.95,2.85-1,8,6,9"/>
	<line class="st10" x1="456.5" y1="338" x2="472.5" y2="329"/>
	<line class="st10" x1="434.5" y1="322" x2="450.5" y2="313"/>
	<line class="st10" x1="462.11" y1="349.68" x2="471.39" y2="343.82"/>
	<line class="st10" x1="450.11" y1="322.68" x2="459.39" y2="316.82"/>
	<line class="st10" x1="470.11" y1="357.68" x2="479.39" y2="351.82"/>
	<line class="st10" x1="459.11" y1="377.68" x2="468.39" y2="371.82"/>
	<path class="st10" d="M613.67,372.51c-1.28,17.46-12,31.89-26.05,37.23c-4.32,1.64-8.96,2.43-13.74,2.17
		c-20.31-1.07-35.42-20.44-33.75-43.27c1.22-16.64,11.01-30.53,24.11-36.42c0.57-0.26,1.14-0.5,1.73-0.72
		c4.39-1.7,9.1-2.52,13.96-2.26C600.23,330.31,615.34,349.68,613.67,372.51z"/>
	<g>
		<path class="st12" d="M593.16,408.03L592,407.5c14.22-5.4,24.64-21.01,25.86-37.7c0.84-11.54-2.75-22.77-9.85-30.83
			c-6.06-6.87-14.21-10.91-22.95-11.37c-4.61-0.24-9.17,0.5-13.55,2.19c-0.56,0.22-1.12,0.45-1.68,0.7L569,329.5
			c0.58-0.26,1.4-0.77,2-1c4.65-1.8,9.27-3.16,14.16-2.9c9.28,0.49,17.93,4.77,24.35,12.05c7.46,8.46,11.23,20.23,10.35,32.3
			C618.58,387.4,608.1,402.36,593.16,408.03z"/>
	</g>
	<g>
		<path class="st12" d="M605,402.5l-1-1c14.22-5.4,25.1-20.3,26.32-36.99c0.84-11.54-2.75-22.77-9.85-30.83
			c-6.06-6.87-14.21-10.91-22.95-11.37c-4.61-0.24-13.13,1.49-17.51,3.19c-0.56,0.22,1.55-1.25,1-1l0,0
			c0.58-0.26,1.64-1.63,2.24-1.86c4.65-1.8,9.48-2.59,14.38-2.33c9.28,0.49,17.93,4.77,24.35,12.05
			c7.46,8.46,11.23,20.23,10.35,32.3C631.04,382.12,619.94,396.82,605,402.5z"/>
	</g>
	<path class="st10" d="M564.96,331.8l23.02-10.59c3.91-1.3,8.43-1.89,12.69-1.67c20.31,1.07,35.42,20.44,33.75,43.27
		c-1.22,16.69-11.47,30.78-24.62,36.64l-21.46,9.99"/>
	<path class="st10" d="M587,341.5c0,0-13.12-5.91-24,2c-11,8-11.5,22.5-11.5,22.5"/>
	<path class="st10" d="M564.85,356.9c0,0-7.84,7.38-5.68,18.35c2.16,10.97,9.74,16.59,9.74,16.59"/>
	<path class="st10" d="M568.98,404.92c0,0,12.49,3.73,25.02-6.86"/>
	<path class="st10" d="M580.5,354c0,0,16,1,11,20"/>
	<path class="st10" d="M596.68,351.61c0,0,6.58,6.06,4.74,15.32"/>
	<path class="st10" d="M600.87,382.09c0,0-0.37,2.98-1.74,5.83"/>
	<path class="st10" d="M570.43,382.09c0,0,3.71,6.75,10.56,4.3c6.32-2.26,5.8-6.35,6.04-8.34"/>
	<path class="st10" d="M575.91,371.35c0,0,4.46,0.29,4.25-3.31c-0.21-3.6-3.31-4.25-5.69-2.16c-2.25,1.98-4.9,6.4,0.64,10.8"/>
	<line class="st10" x1="611.5" y1="354" x2="627.5" y2="345"/>
	<line class="st10" x1="601.7" y1="337.33" x2="617.3" y2="327.67"/>
	<line class="st10" x1="615.11" y1="338.68" x2="624.39" y2="332.82"/>
	<line class="st10" x1="592.11" y1="329.68" x2="601.39" y2="323.82"/>
	<line class="st10" x1="621.11" y1="365.68" x2="630.39" y2="359.82"/>
	<line class="st10" x1="612.11" y1="385.68" x2="621.39" y2="379.82"/>
	<path class="st10" d="M190.5,207c0,0,8-4,19-7c0,0-11,9-16,14c0,0,21-8,23-7"/>
	<path class="st10" d="M204.5,222l-2,5c0,0,26-12,31-15c0,0-15,13-17,16"/>
	<line class="st10" x1="245.5" y1="232" x2="251.5" y2="228"/>
	<path class="st10" d="M262.5,241c0,0,10-5,17-7l-9,8l13-6l-19,17c0,0,24-7,36-13c0,0-17,13-24,20"/>
	<path class="st10" d="M293.5,272c0,0,13-7,25-9c0,0-8,4-15,14c0,0,18-6,26-7s9-1,9-1s-5,4-10,13"/>
	<path class="st10" d="M334.5,288c0,0,9-5,16-11"/>
	<path class="st10" d="M194.5,178l8-1c0,0-5,7-8,12c0,0,11-6,17-10s9-5,9-5l-4,5l12-5c0,0-6,4-12,13c0,0,8-6,14-8c0,0-8,9-14,17"/>
	<path class="st10" d="M228.5,200c0,0,13-9,20-11c0,0-6,4-7,7l7-4c0,0-9,10-12,15"/>
	<path class="st10" d="M243.5,207c0,0,17-8,26-15c0,0-6,11-15,18c0,0,14-7,25-12c0,0-2,6-7,9"/>
	<path class="st10" d="M305.5,214c0,0-2,7-8,11c0,0,6-3,13-8c0,0-5,8-13,15c0,0,6-5,15-7l-4,3c0,0,5,0,11-1c0,0-10,4-11,7"/>
	<path class="st10" d="M325.5,236c0,0-5,6-9,8l11-4l-4,4l15-4c0,0-7,9-13,12c0,0,14-8,27-10c0,0-9,6-14,11c0,0,6,1,11-1l-4,3
		c0,0,9,0,20-5"/>
	<path class="st10" d="M373.5,253c0,0-5,9-15,13"/>
	<path class="st10" d="M371.5,261c0,0,9-3,16-4l-6,4l6-2l-10,10h5l-8,8c0,0,11-4,21-10c0,0-2,6-8,10"/>
	<path class="st10" d="M245.5,150l-5,6l8-3c0,0-4,8-10,11l15-4c0,0,2,2-8,8"/>
	<path class="st10" d="M262.5,164c0,0,2,2,11-2c0,0-3,9-11,13"/>
	<path class="st10" d="M281.5,175c0,0,4,0,9-2c0,0-5,8-14,12"/>
	<path class="st10" d="M290.5,179l7-2l-4,4h4l-4,2c0,0,9,1,15-3c0,0-4,9-15,14c0,0,14-3,22-9c0,0-2,9-9,13"/>
	<path class="st10" d="M318.5,198c0,0,6-2,16-8"/>
	<path class="st10" d="M365.5,224l10-4l6-3c0,0-4,13-14,18"/>
	<path class="st10" d="M375.5,236c0,0,2-3,9-8"/>
	<path class="st10" d="M391.5,230c0,0-5-1-12,5"/>
	<path class="st10" d="M401.5,232c0,0,2,6-7,10c0,0,8-1,14-5"/>
	<path class="st10" d="M405.5,242c0,0-2,6-7,8"/>
	<path class="st10" d="M423.5,242c0,0-7,7-15,13"/>
	<path class="st10" d="M255.5,140c0,0,20-8,38-12c0,0-11,4-19,12"/>
	<path class="st10" d="M286.5,140c0,0,11-5,22-6c0,0-8,3-17,13c0,0,8,0,15-3s5-3,13-4c0,0-5,3-11,10"/>
	<path class="st10" d="M311.5,152c0,0,4-5,12-7"/>
	<path class="st10" d="M313.5,161c0,0,13-1,25-7s16-6,16-6s-9,4-16,11l10-3l-6,5c0,0,8,2,15-2c0,0,1,2-6,6"/>
	<path class="st10" d="M369.5,160c0,0-2,6-12,10c0,0,9,1,14-2c0,0-5,7-15,9"/>
	<path class="st10" d="M362.5,179c0,0,11,0,17-6c0,0-2,5-8,8"/>
	<path class="st10" d="M369.5,187c0,0,7-1,15-4c0,0,0,1-5,4c0,0,12-5,22-6c0,0-11,3-18,11"/>
	<path class="st10" d="M390.5,194c0,0,6-7,23-11c0,0-7,5-17,15"/>
	<path class="st10" d="M401.5,201c0,0,8-9,25-11c0,0-7,4-13,10"/>
	<path class="st10" d="M431.5,198c0,0-3-1-8,5"/>
	<path class="st10" d="M335.5,132c0,0,3,3,9,0s12-7,21-7c0,0-10,3-15,11"/>
	<path class="st10" d="M356.5,136c0,0,11-5,23-6c0,0-4,0-9,6"/>
	<path class="st10" d="M379.5,137c0,0-7,5-8,5"/>
	<path class="st10" d="M379.5,142c0,0-5,4-10,6c0,0,11-1,23-6s19-5,19-5s-11,4-19,11"/>
	<path class="st10" d="M401.5,162c0,0,0,5,10,3s9-4,20-6c0,0-10,6-14,14"/>
	<path class="st10" d="M434.5,177c0,0,6,1,16-4c0,0-4,8-16,14"/>
	<path class="st10" d="M444.5,187c0,0,12-2,20-6"/>
</g>
<g>
	<g>
		<g>
			<g>
				<path class="st4" d="M566.92,255.99l0.15,3.61c0.5,12.16-2.28,17.68-12.41,24.46l-2.3,1.54"/>
				<path class="st4" d="M582.89,263.84l0.15,3.61c0.5,12.16-2.28,17.68-12.41,24.46l-2.3,1.54"/>
				<path class="st4" d="M598.86,271.7l0.15,3.61c0.5,12.16-2.28,17.68-12.41,24.46l-2.3,1.54"/>
				<path class="st4" d="M614.83,279.55l0.15,3.61c0.5,12.16-2.28,17.68-12.41,24.46l-2.3,1.54"/>
			</g>
			<g>
				<path class="st4" d="M629.22,286.63l0.15,3.61c0.5,12.16-2.28,17.68-12.41,24.46l-2.3,1.54"/>
				<path class="st4" d="M645.19,294.49l0.15,3.61c0.5,12.16-2.28,17.68-12.41,24.46l-2.3,1.54"/>
				<path class="st4" d="M661.16,302.34l0.15,3.61c0.5,12.16-2.28,17.68-12.41,24.46l-2.3,1.54"/>
				<path class="st4" d="M677.13,310.2l0.15,3.61c0.5,12.16-2.28,17.68-12.41,24.46l-2.3,1.54"/>
			</g>
			<g>
				<path class="st4" d="M691.51,317.27l0.15,3.61c0.5,12.16-2.28,17.68-12.41,24.46l-2.3,1.54"/>
				<path class="st4" d="M707.48,325.13l0.15,3.61c0.5,12.16-2.28,17.68-12.41,24.46l-2.3,1.54"/>
				<path class="st4" d="M723.46,332.98l0.15,3.61c0.5,12.16-2.28,17.68-12.41,24.46l-2.3,1.54"/>
				<path class="st4" d="M739.43,340.84l0.15,3.61c0.5,12.16-2.28,17.68-12.41,24.46l-2.3,1.54"/>
			</g>
			<g>
				<path class="st4" d="M753.81,347.92l0.15,3.61c0.5,12.16-2.28,17.68-12.41,24.46l-2.3,1.54"/>
				<path class="st4" d="M769.78,355.77l0.15,3.61c0.5,12.16-2.28,17.68-12.41,24.46l-2.3,1.54"/>
				<path class="st4" d="M785.75,363.63l0.15,3.61c0.5,12.16-2.28,17.68-12.41,24.46l-2.3,1.54"/>
				<path class="st4" d="M801.72,371.48l0.15,3.61c0.5,12.16-2.28,17.68-12.41,24.46l-2.3,1.54"/>
			</g>
			<g>
				<path class="st4" d="M816.11,378.56l0.15,3.61c0.5,12.16-2.28,17.68-12.41,24.46l-2.3,1.54"/>
				<path class="st4" d="M832.08,386.42l0.15,3.61c0.5,12.16-2.28,17.68-12.41,24.46l-2.3,1.54"/>
				<path class="st4" d="M848.05,394.27l0.15,3.61c0.5,12.16-2.28,17.68-12.41,24.46l-2.3,1.54"/>
				<path class="st4" d="M864.02,402.13l0.15,3.61c0.5,12.16-2.28,17.68-12.41,24.46l-2.3,1.54"/>
			</g>
		</g>
	</g>
</g>
<g>
	<g>
		<g>
			<g>
				<path class="st4" d="M606.79,588.85l2.96,2.25c9.97,7.58,12.17,13.35,9.65,25.68l-0.57,2.8"/>
				<path class="st4" d="M625.37,581.57l2.96,2.25c9.97,7.58,12.17,13.35,9.65,25.68l-0.57,2.8"/>
				<path class="st4" d="M643.95,574.28l2.96,2.25c9.97,7.58,12.17,13.35,9.65,25.68l-0.57,2.8"/>
				<path class="st4" d="M662.53,567l2.96,2.25c9.97,7.58,12.17,13.35,9.65,25.68l-0.57,2.8"/>
			</g>
			<g>
				<path class="st4" d="M679.26,560.44l2.96,2.25c9.97,7.58,12.17,13.35,9.65,25.68l-0.57,2.8"/>
				<path class="st4" d="M697.84,553.16l2.96,2.25c9.97,7.58,12.17,13.35,9.65,25.68l-0.57,2.8"/>
				<path class="st4" d="M716.42,545.88l2.96,2.25c9.97,7.58,12.17,13.35,9.65,25.68l-0.57,2.8"/>
				<path class="st4" d="M735,538.6l2.96,2.25c9.97,7.58,12.17,13.35,9.65,25.68l-0.57,2.8"/>
			</g>
			<g>
				<path class="st4" d="M751.73,532.04l2.96,2.25c9.97,7.58,12.17,13.35,9.65,25.68l-0.57,2.8"/>
				<path class="st4" d="M770.31,524.76l2.96,2.25c9.97,7.58,12.17,13.35,9.65,25.68l-0.57,2.8"/>
				<path class="st4" d="M788.89,517.48l2.96,2.25c9.97,7.58,12.17,13.35,9.65,25.68l-0.57,2.8"/>
				<path class="st4" d="M807.47,510.19l2.96,2.25c9.97,7.58,12.17,13.35,9.65,25.68l-0.57,2.8"/>
			</g>
		</g>
	</g>
</g>
<g>
	<g>
		<g>
			<g>
				<path class="st4" d="M1432.07,706.49l-0.44-3.69c-1.48-12.44,1.15-18.03,11.76-24.78l2.41-1.53"/>
				<path class="st4" d="M1413.91,698.18l-0.44-3.69c-1.48-12.44,1.15-18.03,11.76-24.78l2.41-1.53"/>
				<path class="st4" d="M1395.76,689.86l-0.44-3.69c-1.48-12.44,1.15-18.03,11.76-24.78l2.41-1.53"/>
				<path class="st4" d="M1377.6,681.55l-0.44-3.69c-1.48-12.44,1.15-18.03,11.76-24.78l2.41-1.53"/>
			</g>
			<g>
				<path class="st4" d="M1361.24,674.06l-0.44-3.69c-1.48-12.44,1.15-18.03,11.76-24.78l2.41-1.53"/>
				<path class="st4" d="M1343.08,665.75l-0.44-3.69c-1.48-12.44,1.15-18.03,11.76-24.78l2.41-1.53"/>
				<path class="st4" d="M1324.92,657.44l-0.44-3.69c-1.48-12.44,1.15-18.03,11.76-24.78l2.41-1.53"/>
				<path class="st4" d="M1306.76,649.12l-0.44-3.69c-1.48-12.44,1.15-18.03,11.76-24.78l2.41-1.53"/>
			</g>
			<g>
				<path class="st4" d="M1290.41,641.64l-0.44-3.69c-1.48-12.44,1.15-18.03,11.76-24.78l2.41-1.53"/>
				<path class="st4" d="M1272.25,633.32l-0.44-3.69c-1.48-12.44,1.15-18.03,11.76-24.78l2.41-1.53"/>
				<path class="st4" d="M1254.09,625.01l-0.44-3.69c-1.48-12.44,1.15-18.03,11.76-24.78l2.41-1.53"/>
				<path class="st4" d="M1235.93,616.7l-0.44-3.69c-1.48-12.44,1.15-18.03,11.76-24.78l2.41-1.53"/>
			</g>
			<g>
				<path class="st4" d="M1219.58,609.21l-0.44-3.69c-1.48-12.44,1.15-18.03,11.76-24.78l2.41-1.53"/>
				<path class="st4" d="M1201.42,600.9l-0.44-3.69c-1.48-12.44,1.15-18.03,11.76-24.78l2.41-1.53"/>
				<path class="st4" d="M1183.26,592.59l-0.44-3.69c-1.48-12.44,1.15-18.03,11.76-24.78l2.41-1.53"/>
				<path class="st4" d="M1165.1,584.27l-0.44-3.69c-1.48-12.44,1.15-18.03,11.76-24.78l2.41-1.53"/>
			</g>
			<g>
				<path class="st4" d="M1148.74,576.79l-0.44-3.69c-1.48-12.44,1.15-18.03,11.76-24.78l2.41-1.53"/>
				<path class="st4" d="M1130.58,568.47l-0.44-3.69c-1.48-12.44,1.15-18.03,11.76-24.78l2.41-1.53"/>
				<path class="st4" d="M1112.43,560.16l-0.44-3.69c-1.48-12.44,1.15-18.03,11.76-24.78l2.41-1.53"/>
				<path class="st4" d="M1094.27,551.85l-0.44-3.69c-1.48-12.44,1.15-18.03,11.76-24.78l2.41-1.53"/>
			</g>
		</g>
	</g>
</g>
<g id="Vitigno">
	<polygon class="st5" points="1447.94,695.76 1467.01,707 1486.56,695.76 1467.01,685 	"/>
	<polygon class="st3" points="1454.25,695.84 1467.09,703.41 1480.25,695.84 1467.09,688.59 	"/>
	<polyline class="st5" points="1486.75,695.5 1486.56,704.76 1467.01,716 1447.94,704.76 1447.75,695.5 	"/>
	<path class="st5" d="M1480.25,708.48V743c0,0-1,9-13,9s-13-9-13-9v-34.52"/>
	<path class="st5" d="M1458.76,749.8v11.7l1.99,3l5,2c0,0,2,0,3,0s5-2,5-2l2-2v-13"/>
	<path class="st5" d="M1478.75,765.5c0,0-3.59-1.24-5,3c-1,3-1,5-5,5"/>
	<path class="st5" d="M1450.75,757.5c0,0,4,1,5,6s7,5,7,5"/>
	<g>
		<line class="st13" x1="1523.94" y1="762.29" x2="1242.93" y2="925.11"/>
		<line class="st14" x1="1251.31" y1="920.26" x2="1251.31" y2="972.14"/>
		<line class="st14" x1="1317.65" y1="881.67" x2="1317.65" y2="933.55"/>
		<line class="st14" x1="1383.98" y1="843.08" x2="1383.98" y2="894.96"/>
		<line class="st14" x1="1450.31" y1="804.48" x2="1450.31" y2="856.36"/>
		<line class="st14" x1="1516.64" y1="765.89" x2="1516.64" y2="817.77"/>
		<path class="st15" d="M1248.96,970.94c0,0,8.44,0,8.44-7.24s-6.09-7.04-6.09-7.04"/>
		<path class="st15" d="M1250.17,941.99c0,0,7.24,0,7.24-7.24s-6.09-7.04-6.09-7.04"/>
		<path class="st15" d="M1250.17,942.19c0,0-8.44,0-8.44,7.24s6.09,7.04,6.09,7.04"/>
		<path class="st15" d="M1250.17,927.52c0,0-8.44-4.82-3.62-9.65c4.82-4.82,8.12,0.25,9.65,4.82c1.21,3.62,18.09,4.82,10.85-10.85"
			/>
		<path class="st15" d="M1267.05,910.64c0,0-1.21-7.24,4.82-10.85c6.03-3.62,10.79,2.3,10.79,2.3"/>
		<path class="st15" d="M1298.41,892.55c0,0-1.21-7.24,4.82-10.85c6.03-3.62,10.79,2.3,10.79,2.3"/>
		<path class="st15" d="M1329.76,874.45c0,0-1.21-7.24,4.82-10.85c6.03-3.62,10.79,2.3,10.79,2.3"/>
		<path class="st15" d="M1361.12,856.36c0,0-1.21-7.24,4.82-10.85c6.03-3.62,10.79,2.3,10.79,2.3"/>
		<path class="st15" d="M1392.48,838.27c0,0-1.21-7.24,4.82-10.85c6.03-3.62,10.79,2.3,10.79,2.3"/>
		<path class="st15" d="M1423.84,820.18c0,0-1.21-7.24,4.82-10.85c6.03-3.62,10.79,2.3,10.79,2.3"/>
		<path class="st15" d="M1455.19,802.09c0,0-1.21-7.24,4.82-10.85c6.03-3.62,10.79,2.3,10.79,2.3"/>
		<path class="st15" d="M1486.55,784c0,0-1.21-7.24,4.82-10.85c6.03-3.62,10.79,2.3,10.79,2.3"/>
		<path class="st15" d="M1517.91,765.91c0,0-1.21-7.24,4.82-10.85c6.03-3.62,10.79,2.3,10.79,2.3s6.09,9.76,0.06,16.99
			c-6.03,7.24-16.33,1.31-22.91,14.47c-6.03,12.06,5.97,13.27,5.97,13.27s10.91,2.41,9.71,12.06"/>
		<path class="st15" d="M1298.19,893.71c0,0,1.27,7.22-4.72,10.9s-10.81-2.2-10.81-2.2"/>
		<path class="st15" d="M1330.75,875.62c0,0,1.27,7.22-4.72,10.9c-6,3.67-10.81-2.2-10.81-2.2"/>
		<path class="st15" d="M1363.32,857.53c0,0,1.27,7.22-4.72,10.9s-10.81-2.2-10.81-2.2"/>
		<path class="st15" d="M1392.26,839.44c0,0,1.27,7.22-4.72,10.9c-6,3.67-10.81-2.2-10.81-2.2"/>
		<path class="st15" d="M1424.82,821.35c0,0,1.27,7.22-4.72,10.9s-10.81-2.2-10.81-2.2"/>
		<path class="st15" d="M1454.97,804.47c0,0,1.27,7.22-4.72,10.9c-6,3.67-10.81-2.2-10.81-2.2"/>
		<path class="st15" d="M1486.33,785.17c0,0,1.27,7.22-4.72,10.9c-6,3.67-10.81-2.2-10.81-2.2"/>
		<path class="st15" d="M1517.69,767.08c0,0,1.27,7.22-4.72,10.9s-10.81-2.2-10.81-2.2"/>
		<g>
			<path class="st12" d="M1258.27,902.87c3.3-1.3,6.05-1.2,6.05-1.2c-0.35-2.3,0.94-3.42,0.94-3.42c3.27,2.37,3.62,4.68,3.62,4.68
				l-1.51,5.47c0,0-1.48,1.8-5.5,2.17c0,0-0.54-1.62,0.94-3.42C1262.81,907.15,1260.44,905.67,1258.27,902.87"/>
		</g>
		<g>
			<path class="st12" d="M1240.17,935.43c3.3-1.3,6.05-1.2,6.05-1.2c-0.35-2.3,0.94-3.42,0.94-3.42c3.27,2.37,3.62,4.68,3.62,4.68
				l-1.51,5.47c0,0-1.48,1.8-5.5,2.17c0,0-0.54-1.62,0.94-3.42C1244.72,939.71,1242.35,938.24,1240.17,935.43"/>
		</g>
		<g>
			<path class="st12" d="M1311.77,873.08c3.12,1.69,4.82,3.86,4.82,3.86c1.54-1.75,3.22-1.48,3.22-1.48
				c0.29,4.03-1.24,5.78-1.24,5.78l-5.16,2.38c0,0-2.33,0.03-5.2-2.81c0,0,0.89-1.45,3.22-1.48
				C1311.43,879.32,1311.02,876.55,1311.77,873.08"/>
		</g>
		<g>
			<path class="st12" d="M1345.17,876.72c-1.44-3.25-1.45-6-1.45-6c-2.29,0.44-3.46-0.8-3.46-0.8c2.24-3.37,4.52-3.81,4.52-3.81
				l5.53,1.28c0,0,1.86,1.4,2.39,5.41c0,0-1.6,0.6-3.46-0.8C1349.26,872,1347.89,874.43,1345.17,876.72"/>
		</g>
		<g>
			<path class="st12" d="M1376.53,860.6c-3.23-1.47-5.07-3.52-5.07-3.52c-1.42,1.85-3.12,1.7-3.12,1.7c-0.57-4,0.85-5.85,0.85-5.85
				l4.98-2.72c0,0,2.32-0.19,5.38,2.45c0,0-0.79,1.51-3.12,1.7C1376.45,854.36,1377.04,857.09,1376.53,860.6"/>
		</g>
		<g>
			<path class="st12" d="M1456.13,822.01c-3.23-1.47-5.07-3.52-5.07-3.52c-1.42,1.85-3.12,1.7-3.12,1.7c-0.57-4,0.85-5.85,0.85-5.85
				l4.98-2.72c0,0,2.32-0.19,5.38,2.45c0,0-0.79,1.51-3.12,1.7C1456.04,815.76,1456.64,818.49,1456.13,822.01"/>
		</g>
		<g>
			<path class="st12" d="M1415.03,812.5c3.28-1.36,6.03-1.3,6.03-1.3c-0.39-2.3,0.88-3.44,0.88-3.44c3.31,2.31,3.7,4.61,3.7,4.61
				l-1.41,5.5c0,0-1.44,1.83-5.46,2.26c0,0-0.56-1.61,0.88-3.44C1419.65,816.7,1417.25,815.27,1415.03,812.5"/>
		</g>
		<g>
			<path class="st12" d="M1509.1,759.44c3.28-1.36,6.03-1.3,6.03-1.3c-0.39-2.3,0.88-3.44,0.88-3.44c3.31,2.31,3.7,4.61,3.7,4.61
				l-1.41,5.5c0,0-1.44,1.83-5.46,2.26c0,0-0.56-1.61,0.88-3.44C1513.72,763.63,1511.32,762.2,1509.1,759.44"/>
		</g>
		<g>
			<path class="st12" d="M1477.74,775.12c3.28-1.36,6.03-1.3,6.03-1.3c-0.39-2.3,0.88-3.44,0.88-3.44c3.31,2.31,3.7,4.61,3.7,4.61
				l-1.41,5.5c0,0-1.44,1.83-5.46,2.26c0,0-0.56-1.61,0.88-3.44C1482.36,779.31,1479.96,777.88,1477.74,775.12"/>
		</g>
		<g>
			<path class="st12" d="M1455.25,782.65c3.14,1.66,4.85,3.82,4.85,3.82c1.52-1.76,3.21-1.51,3.21-1.51c0.33,4.03-1.2,5.79-1.2,5.79
				l-5.14,2.42c0,0-2.33,0.05-5.23-2.77c0,0,0.88-1.46,3.21-1.51C1454.96,788.88,1454.53,786.12,1455.25,782.65"/>
		</g>
		<circle class="st12" cx="1279.11" cy="907.02" r="1.81"/>
		<circle class="st12" cx="1282.73" cy="905.81" r="1.81"/>
		<circle class="st12" cx="1281.52" cy="908.22" r="1.81"/>
		<circle class="st12" cx="1280.32" cy="910.64" r="1.81"/>
		<circle class="st12" cx="1285.14" cy="908.22" r="1.81"/>
		<circle class="st12" cx="1286.35" cy="905.81" r="1.81"/>
		<circle class="st12" cx="1283.93" cy="913.05" r="1.81"/>
		<circle class="st12" cx="1283.93" cy="910.64" r="1.81"/>
		<circle class="st12" cx="1281.52" cy="913.05" r="1.81"/>
		<circle class="st12" cx="1282.73" cy="915.46" r="1.81"/>
		<circle class="st12" cx="1351.47" cy="870.84" r="1.81"/>
		<circle class="st12" cx="1355.09" cy="869.63" r="1.81"/>
		<circle class="st12" cx="1353.89" cy="872.04" r="1.81"/>
		<circle class="st12" cx="1352.68" cy="874.45" r="1.81"/>
		<circle class="st12" cx="1357.5" cy="872.04" r="1.81"/>
		<circle class="st12" cx="1358.71" cy="869.63" r="1.81"/>
		<circle class="st12" cx="1356.3" cy="876.87" r="1.81"/>
		<circle class="st12" cx="1356.3" cy="874.45" r="1.81"/>
		<circle class="st12" cx="1353.89" cy="876.87" r="1.81"/>
		<circle class="st12" cx="1355.09" cy="879.28" r="1.81"/>
		<circle class="st12" cx="1464.84" cy="796.06" r="1.81"/>
		<circle class="st12" cx="1468.46" cy="794.86" r="1.81"/>
		<circle class="st12" cx="1467.25" cy="797.27" r="1.81"/>
		<circle class="st12" cx="1466.05" cy="799.68" r="1.81"/>
		<circle class="st12" cx="1470.87" cy="797.27" r="1.81"/>
		<circle class="st12" cx="1472.08" cy="794.86" r="1.81"/>
		<circle class="st12" cx="1469.67" cy="802.09" r="1.81"/>
		<circle class="st12" cx="1469.67" cy="799.68" r="1.81"/>
		<circle class="st12" cx="1467.25" cy="802.09" r="1.81"/>
		<circle class="st12" cx="1468.46" cy="804.5" r="1.81"/>
	</g>
	<g>
		<line class="st13" x1="1420.94" y1="730.29" x2="1139.93" y2="893.11"/>
		<line class="st14" x1="1148.31" y1="888.26" x2="1148.31" y2="940.14"/>
		<line class="st14" x1="1214.65" y1="849.67" x2="1214.65" y2="901.55"/>
		<line class="st14" x1="1280.98" y1="811.08" x2="1280.98" y2="862.96"/>
		<line class="st14" x1="1347.31" y1="772.48" x2="1347.31" y2="824.36"/>
		<line class="st14" x1="1413.64" y1="733.89" x2="1413.64" y2="785.77"/>
		<path class="st15" d="M1145.96,938.94c0,0,8.44,0,8.44-7.24s-6.09-7.04-6.09-7.04"/>
		<path class="st15" d="M1147.17,909.99c0,0,7.24,0,7.24-7.24s-6.09-7.04-6.09-7.04"/>
		<path class="st15" d="M1147.17,910.19c0,0-8.44,0-8.44,7.24s6.09,7.04,6.09,7.04"/>
		<path class="st15" d="M1147.17,895.52c0,0-8.44-4.82-3.62-9.65c4.82-4.82,8.12,0.25,9.65,4.82c1.21,3.62,18.09,4.82,10.85-10.85"
			/>
		<path class="st15" d="M1164.05,878.64c0,0-1.21-7.24,4.82-10.85c6.03-3.62,10.79,2.3,10.79,2.3"/>
		<path class="st15" d="M1195.41,860.55c0,0-1.21-7.24,4.82-10.85c6.03-3.62,10.79,2.3,10.79,2.3"/>
		<path class="st15" d="M1226.76,842.45c0,0-1.21-7.24,4.82-10.85c6.03-3.62,10.79,2.3,10.79,2.3"/>
		<path class="st15" d="M1258.12,824.36c0,0-1.21-7.24,4.82-10.85c6.03-3.62,10.79,2.3,10.79,2.3"/>
		<path class="st15" d="M1289.48,806.27c0,0-1.21-7.24,4.82-10.85c6.03-3.62,10.79,2.3,10.79,2.3"/>
		<path class="st15" d="M1320.84,788.18c0,0-1.21-7.24,4.82-10.85c6.03-3.62,10.79,2.3,10.79,2.3"/>
		<path class="st15" d="M1352.19,770.09c0,0-1.21-7.24,4.82-10.85c6.03-3.62,10.79,2.3,10.79,2.3"/>
		<path class="st15" d="M1383.55,752c0,0-1.21-7.24,4.82-10.85c6.03-3.62,10.79,2.3,10.79,2.3"/>
		<path class="st15" d="M1414.91,733.91c0,0-1.21-7.24,4.82-10.85c6.03-3.62,10.79,2.3,10.79,2.3s6.09,9.76,0.06,16.99
			c-6.03,7.24-16.33,1.31-22.91,14.47c-6.03,12.06,5.97,13.27,5.97,13.27s10.91,2.41,9.71,12.06"/>
		<path class="st15" d="M1195.19,861.71c0,0,1.27,7.22-4.72,10.9s-10.81-2.2-10.81-2.2"/>
		<path class="st15" d="M1227.75,843.62c0,0,1.27,7.22-4.72,10.9c-6,3.67-10.81-2.2-10.81-2.2"/>
		<path class="st15" d="M1260.32,825.53c0,0,1.27,7.22-4.72,10.9s-10.81-2.2-10.81-2.2"/>
		<path class="st15" d="M1289.26,807.44c0,0,1.27,7.22-4.72,10.9c-6,3.67-10.81-2.2-10.81-2.2"/>
		<path class="st15" d="M1321.82,789.35c0,0,1.27,7.22-4.72,10.9s-10.81-2.2-10.81-2.2"/>
		<path class="st15" d="M1351.97,772.47c0,0,1.27,7.22-4.72,10.9c-6,3.67-10.81-2.2-10.81-2.2"/>
		<path class="st15" d="M1383.33,753.17c0,0,1.27,7.22-4.72,10.9c-6,3.67-10.81-2.2-10.81-2.2"/>
		<path class="st15" d="M1414.69,735.08c0,0,1.27,7.22-4.72,10.9s-10.81-2.2-10.81-2.2"/>
		<g>
			<path class="st12" d="M1155.27,870.87c3.3-1.3,6.05-1.2,6.05-1.2c-0.35-2.3,0.94-3.42,0.94-3.42c3.27,2.37,3.62,4.68,3.62,4.68
				l-1.51,5.47c0,0-1.48,1.8-5.5,2.17c0,0-0.54-1.62,0.94-3.42C1159.81,875.15,1157.44,873.67,1155.27,870.87"/>
		</g>
		<g>
			<path class="st12" d="M1137.17,903.43c3.3-1.3,6.05-1.2,6.05-1.2c-0.35-2.3,0.94-3.42,0.94-3.42c3.27,2.37,3.62,4.68,3.62,4.68
				l-1.51,5.47c0,0-1.48,1.8-5.5,2.17c0,0-0.54-1.62,0.94-3.42C1141.72,907.71,1139.35,906.24,1137.17,903.43"/>
		</g>
		<g>
			<path class="st12" d="M1208.77,841.08c3.12,1.69,4.82,3.86,4.82,3.86c1.54-1.75,3.22-1.48,3.22-1.48
				c0.29,4.03-1.24,5.78-1.24,5.78l-5.16,2.38c0,0-2.33,0.03-5.2-2.81c0,0,0.89-1.45,3.22-1.48
				C1208.43,847.32,1208.02,844.55,1208.77,841.08"/>
		</g>
		<g>
			<path class="st12" d="M1242.17,844.72c-1.44-3.25-1.45-6-1.45-6c-2.29,0.44-3.46-0.8-3.46-0.8c2.24-3.37,4.52-3.81,4.52-3.81
				l5.53,1.28c0,0,1.86,1.4,2.39,5.41c0,0-1.6,0.6-3.46-0.8C1246.26,840,1244.89,842.43,1242.17,844.72"/>
		</g>
		<g>
			<path class="st12" d="M1273.53,828.6c-3.23-1.47-5.07-3.52-5.07-3.52c-1.42,1.85-3.12,1.7-3.12,1.7c-0.57-4,0.85-5.85,0.85-5.85
				l4.98-2.72c0,0,2.32-0.19,5.38,2.45c0,0-0.79,1.51-3.12,1.7C1273.45,822.36,1274.04,825.09,1273.53,828.6"/>
		</g>
		<g>
			<path class="st12" d="M1353.13,790.01c-3.23-1.47-5.07-3.52-5.07-3.52c-1.42,1.85-3.12,1.7-3.12,1.7c-0.57-4,0.85-5.85,0.85-5.85
				l4.98-2.72c0,0,2.32-0.19,5.38,2.45c0,0-0.79,1.51-3.12,1.7C1353.04,783.76,1353.64,786.49,1353.13,790.01"/>
		</g>
		<g>
			<path class="st12" d="M1312.03,780.5c3.28-1.36,6.03-1.3,6.03-1.3c-0.39-2.3,0.88-3.44,0.88-3.44c3.31,2.31,3.7,4.61,3.7,4.61
				l-1.41,5.5c0,0-1.44,1.83-5.46,2.26c0,0-0.56-1.61,0.88-3.44C1316.65,784.7,1314.25,783.27,1312.03,780.5"/>
		</g>
		<g>
			<path class="st12" d="M1406.1,727.44c3.28-1.36,6.03-1.3,6.03-1.3c-0.39-2.3,0.88-3.44,0.88-3.44c3.31,2.31,3.7,4.61,3.7,4.61
				l-1.41,5.5c0,0-1.44,1.83-5.46,2.26c0,0-0.56-1.61,0.88-3.44C1410.72,731.63,1408.32,730.2,1406.1,727.44"/>
		</g>
		<g>
			<path class="st12" d="M1374.74,743.12c3.28-1.36,6.03-1.3,6.03-1.3c-0.39-2.3,0.88-3.44,0.88-3.44c3.31,2.31,3.7,4.61,3.7,4.61
				l-1.41,5.5c0,0-1.44,1.83-5.46,2.26c0,0-0.56-1.61,0.88-3.44C1379.36,747.31,1376.96,745.88,1374.74,743.12"/>
		</g>
		<g>
			<path class="st12" d="M1352.25,750.65c3.14,1.66,4.85,3.82,4.85,3.82c1.52-1.76,3.21-1.51,3.21-1.51c0.33,4.03-1.2,5.79-1.2,5.79
				l-5.14,2.42c0,0-2.33,0.05-5.23-2.77c0,0,0.88-1.46,3.21-1.51C1351.96,756.88,1351.53,754.12,1352.25,750.65"/>
		</g>
		<circle class="st12" cx="1176.11" cy="875.02" r="1.81"/>
		<circle class="st12" cx="1179.73" cy="873.81" r="1.81"/>
		<circle class="st12" cx="1178.52" cy="876.22" r="1.81"/>
		<circle class="st12" cx="1177.32" cy="878.64" r="1.81"/>
		<circle class="st12" cx="1182.14" cy="876.22" r="1.81"/>
		<circle class="st12" cx="1183.35" cy="873.81" r="1.81"/>
		<circle class="st12" cx="1180.93" cy="881.05" r="1.81"/>
		<circle class="st12" cx="1180.93" cy="878.64" r="1.81"/>
		<circle class="st12" cx="1178.52" cy="881.05" r="1.81"/>
		<circle class="st12" cx="1179.73" cy="883.46" r="1.81"/>
		<circle class="st12" cx="1248.47" cy="838.84" r="1.81"/>
		<circle class="st12" cx="1252.09" cy="837.63" r="1.81"/>
		<circle class="st12" cx="1250.89" cy="840.04" r="1.81"/>
		<circle class="st12" cx="1249.68" cy="842.45" r="1.81"/>
		<circle class="st12" cx="1254.5" cy="840.04" r="1.81"/>
		<circle class="st12" cx="1255.71" cy="837.63" r="1.81"/>
		<circle class="st12" cx="1253.3" cy="844.87" r="1.81"/>
		<circle class="st12" cx="1253.3" cy="842.45" r="1.81"/>
		<circle class="st12" cx="1250.89" cy="844.87" r="1.81"/>
		<circle class="st12" cx="1252.09" cy="847.28" r="1.81"/>
		<circle class="st12" cx="1361.84" cy="764.06" r="1.81"/>
		<circle class="st12" cx="1365.46" cy="762.86" r="1.81"/>
		<circle class="st12" cx="1364.25" cy="765.27" r="1.81"/>
		<circle class="st12" cx="1363.05" cy="767.68" r="1.81"/>
		<circle class="st12" cx="1367.87" cy="765.27" r="1.81"/>
		<circle class="st12" cx="1369.08" cy="762.86" r="1.81"/>
		<circle class="st12" cx="1366.67" cy="770.09" r="1.81"/>
		<circle class="st12" cx="1366.67" cy="767.68" r="1.81"/>
		<circle class="st12" cx="1364.25" cy="770.09" r="1.81"/>
		<circle class="st12" cx="1365.46" cy="772.5" r="1.81"/>
	</g>
	<g>
		<line class="st13" x1="1385.94" y1="668.29" x2="1104.93" y2="831.11"/>
		<line class="st14" x1="1113.31" y1="826.26" x2="1113.31" y2="878.14"/>
		<line class="st14" x1="1179.65" y1="787.67" x2="1179.65" y2="839.55"/>
		<line class="st14" x1="1245.98" y1="749.08" x2="1245.98" y2="800.96"/>
		<line class="st14" x1="1312.31" y1="710.48" x2="1312.31" y2="762.36"/>
		<line class="st14" x1="1378.64" y1="671.89" x2="1378.64" y2="723.77"/>
		<path class="st15" d="M1110.96,876.94c0,0,8.44,0,8.44-7.24s-6.09-7.04-6.09-7.04"/>
		<path class="st15" d="M1112.17,847.99c0,0,7.24,0,7.24-7.24s-6.09-7.04-6.09-7.04"/>
		<path class="st15" d="M1112.17,848.19c0,0-8.44,0-8.44,7.24s6.09,7.04,6.09,7.04"/>
		<path class="st15" d="M1112.17,833.52c0,0-8.44-4.82-3.62-9.65c4.82-4.82,8.12,0.25,9.65,4.82c1.21,3.62,18.09,4.82,10.85-10.85"
			/>
		<path class="st15" d="M1129.05,816.64c0,0-1.21-7.24,4.82-10.85c6.03-3.62,10.79,2.3,10.79,2.3"/>
		<path class="st15" d="M1160.41,798.55c0,0-1.21-7.24,4.82-10.85c6.03-3.62,10.79,2.3,10.79,2.3"/>
		<path class="st15" d="M1191.76,780.45c0,0-1.21-7.24,4.82-10.85c6.03-3.62,10.79,2.3,10.79,2.3"/>
		<path class="st15" d="M1223.12,762.36c0,0-1.21-7.24,4.82-10.85c6.03-3.62,10.79,2.3,10.79,2.3"/>
		<path class="st15" d="M1254.48,744.27c0,0-1.21-7.24,4.82-10.85c6.03-3.62,10.79,2.3,10.79,2.3"/>
		<path class="st15" d="M1285.84,726.18c0,0-1.21-7.24,4.82-10.85c6.03-3.62,10.79,2.3,10.79,2.3"/>
		<path class="st15" d="M1317.19,708.09c0,0-1.21-7.24,4.82-10.85c6.03-3.62,10.79,2.3,10.79,2.3"/>
		<path class="st15" d="M1348.55,690c0,0-1.21-7.24,4.82-10.85c6.03-3.62,10.79,2.3,10.79,2.3"/>
		<path class="st15" d="M1379.91,671.91c0,0-1.21-7.24,4.82-10.85c6.03-3.62,10.79,2.3,10.79,2.3s6.09,9.76,0.06,16.99
			c-6.03,7.24-16.33,1.31-22.91,14.47c-6.03,12.06,5.97,13.27,5.97,13.27s10.91,2.41,9.71,12.06"/>
		<path class="st15" d="M1160.19,799.71c0,0,1.27,7.22-4.72,10.9s-10.81-2.2-10.81-2.2"/>
		<path class="st15" d="M1192.75,781.62c0,0,1.27,7.22-4.72,10.9c-6,3.67-10.81-2.2-10.81-2.2"/>
		<path class="st15" d="M1225.32,763.53c0,0,1.27,7.22-4.72,10.9s-10.81-2.2-10.81-2.2"/>
		<path class="st15" d="M1254.26,745.44c0,0,1.27,7.22-4.72,10.9c-6,3.67-10.81-2.2-10.81-2.2"/>
		<path class="st15" d="M1286.82,727.35c0,0,1.27,7.22-4.72,10.9s-10.81-2.2-10.81-2.2"/>
		<path class="st15" d="M1316.97,710.47c0,0,1.27,7.22-4.72,10.9c-6,3.67-10.81-2.2-10.81-2.2"/>
		<path class="st15" d="M1348.33,691.17c0,0,1.27,7.22-4.72,10.9c-6,3.67-10.81-2.2-10.81-2.2"/>
		<path class="st15" d="M1379.69,673.08c0,0,1.27,7.22-4.72,10.9s-10.81-2.2-10.81-2.2"/>
		<g>
			<path class="st12" d="M1120.27,808.87c3.3-1.3,6.05-1.2,6.05-1.2c-0.35-2.3,0.94-3.42,0.94-3.42c3.27,2.37,3.62,4.68,3.62,4.68
				l-1.51,5.47c0,0-1.48,1.8-5.5,2.17c0,0-0.54-1.62,0.94-3.42C1124.81,813.15,1122.44,811.67,1120.27,808.87"/>
		</g>
		<g>
			<path class="st12" d="M1102.17,841.43c3.3-1.3,6.05-1.2,6.05-1.2c-0.35-2.3,0.94-3.42,0.94-3.42c3.27,2.37,3.62,4.68,3.62,4.68
				l-1.51,5.47c0,0-1.48,1.8-5.5,2.17c0,0-0.54-1.62,0.94-3.42C1106.72,845.71,1104.35,844.24,1102.17,841.43"/>
		</g>
		<g>
			<path class="st12" d="M1173.77,779.08c3.12,1.69,4.82,3.86,4.82,3.86c1.54-1.75,3.22-1.48,3.22-1.48
				c0.29,4.03-1.24,5.78-1.24,5.78l-5.16,2.38c0,0-2.33,0.03-5.2-2.81c0,0,0.89-1.45,3.22-1.48
				C1173.43,785.32,1173.02,782.55,1173.77,779.08"/>
		</g>
		<g>
			<path class="st12" d="M1207.17,782.72c-1.44-3.25-1.45-6-1.45-6c-2.29,0.44-3.46-0.8-3.46-0.8c2.24-3.37,4.52-3.81,4.52-3.81
				l5.53,1.28c0,0,1.86,1.4,2.39,5.41c0,0-1.6,0.6-3.46-0.8C1211.26,778,1209.89,780.43,1207.17,782.72"/>
		</g>
		<g>
			<path class="st12" d="M1238.53,766.6c-3.23-1.47-5.07-3.52-5.07-3.52c-1.42,1.85-3.12,1.7-3.12,1.7c-0.57-4,0.85-5.85,0.85-5.85
				l4.98-2.72c0,0,2.32-0.19,5.38,2.45c0,0-0.79,1.51-3.12,1.7C1238.45,760.36,1239.04,763.09,1238.53,766.6"/>
		</g>
		<g>
			<path class="st12" d="M1318.13,728.01c-3.23-1.47-5.07-3.52-5.07-3.52c-1.42,1.85-3.12,1.7-3.12,1.7c-0.57-4,0.85-5.85,0.85-5.85
				l4.98-2.72c0,0,2.32-0.19,5.38,2.45c0,0-0.79,1.51-3.12,1.7C1318.04,721.76,1318.64,724.49,1318.13,728.01"/>
		</g>
		<g>
			<path class="st12" d="M1277.03,718.5c3.28-1.36,6.03-1.3,6.03-1.3c-0.39-2.3,0.88-3.44,0.88-3.44c3.31,2.31,3.7,4.61,3.7,4.61
				l-1.41,5.5c0,0-1.44,1.83-5.46,2.26c0,0-0.56-1.61,0.88-3.44C1281.65,722.7,1279.25,721.27,1277.03,718.5"/>
		</g>
		<g>
			<path class="st12" d="M1371.1,665.44c3.28-1.36,6.03-1.3,6.03-1.3c-0.39-2.3,0.88-3.44,0.88-3.44c3.31,2.31,3.7,4.61,3.7,4.61
				l-1.41,5.5c0,0-1.44,1.83-5.46,2.26c0,0-0.56-1.61,0.88-3.44C1375.72,669.63,1373.32,668.2,1371.1,665.44"/>
		</g>
		<g>
			<path class="st12" d="M1339.74,681.12c3.28-1.36,6.03-1.3,6.03-1.3c-0.39-2.3,0.88-3.44,0.88-3.44c3.31,2.31,3.7,4.61,3.7,4.61
				l-1.41,5.5c0,0-1.44,1.83-5.46,2.26c0,0-0.56-1.61,0.88-3.44C1344.36,685.31,1341.96,683.88,1339.74,681.12"/>
		</g>
		<g>
			<path class="st12" d="M1317.25,688.65c3.14,1.66,4.85,3.82,4.85,3.82c1.52-1.76,3.21-1.51,3.21-1.51c0.33,4.03-1.2,5.79-1.2,5.79
				l-5.14,2.42c0,0-2.33,0.05-5.23-2.77c0,0,0.88-1.46,3.21-1.51C1316.96,694.88,1316.53,692.12,1317.25,688.65"/>
		</g>
		<circle class="st12" cx="1141.11" cy="813.02" r="1.81"/>
		<circle class="st12" cx="1144.73" cy="811.81" r="1.81"/>
		<circle class="st12" cx="1143.52" cy="814.22" r="1.81"/>
		<circle class="st12" cx="1142.32" cy="816.64" r="1.81"/>
		<circle class="st12" cx="1147.14" cy="814.22" r="1.81"/>
		<circle class="st12" cx="1148.35" cy="811.81" r="1.81"/>
		<circle class="st12" cx="1145.93" cy="819.05" r="1.81"/>
		<circle class="st12" cx="1145.93" cy="816.64" r="1.81"/>
		<circle class="st12" cx="1143.52" cy="819.05" r="1.81"/>
		<circle class="st12" cx="1144.73" cy="821.46" r="1.81"/>
		<circle class="st12" cx="1213.47" cy="776.84" r="1.81"/>
		<circle class="st12" cx="1217.09" cy="775.63" r="1.81"/>
		<circle class="st12" cx="1215.89" cy="778.04" r="1.81"/>
		<circle class="st12" cx="1214.68" cy="780.45" r="1.81"/>
		<circle class="st12" cx="1219.5" cy="778.04" r="1.81"/>
		<circle class="st12" cx="1220.71" cy="775.63" r="1.81"/>
		<circle class="st12" cx="1218.3" cy="782.87" r="1.81"/>
		<circle class="st12" cx="1218.3" cy="780.45" r="1.81"/>
		<circle class="st12" cx="1215.89" cy="782.87" r="1.81"/>
		<circle class="st12" cx="1217.09" cy="785.28" r="1.81"/>
		<circle class="st12" cx="1326.84" cy="702.06" r="1.81"/>
		<circle class="st12" cx="1330.46" cy="700.86" r="1.81"/>
		<circle class="st12" cx="1329.25" cy="703.27" r="1.81"/>
		<circle class="st12" cx="1328.05" cy="705.68" r="1.81"/>
		<circle class="st12" cx="1332.87" cy="703.27" r="1.81"/>
		<circle class="st12" cx="1334.08" cy="700.86" r="1.81"/>
		<circle class="st12" cx="1331.67" cy="708.09" r="1.81"/>
		<circle class="st12" cx="1331.67" cy="705.68" r="1.81"/>
		<circle class="st12" cx="1329.25" cy="708.09" r="1.81"/>
		<circle class="st12" cx="1330.46" cy="710.5" r="1.81"/>
	</g>
	<polyline class="st10" points="1479.75,745.5 1545.25,783 1545.25,917 1433.75,981.5 1199.75,981.5 1094.75,920.5 1094.75,821.5 
		1296.25,706 1411.25,706 1453.75,730.5 	"/>
</g>
</svg>
