<svg id="Livello_1" data-name="Livello 1" xmlns="http://www.w3.org/2000/svg" xmlns:xlink="http://www.w3.org/1999/xlink" viewBox="0 0 501.25 780.41"><defs><style>.cls-1,.cls-4,.cls-5{stroke-miterlimit:10;stroke-width:1.25px;}.cls-1,.cls-2{fill:url(#Sfumatura_senza_nome_2);}.cls-1,.cls-5{stroke:url(#Sfumatura_senza_nome_2-2);}.cls-3{clip-path:url(#clip-path);}.cls-4{fill:url(#Sfumatura_senza_nome_2-4);stroke:url(#Sfumatura_senza_nome_2-5);}.cls-5{fill:none;}</style><linearGradient id="Sfumatura_senza_nome_2" x1="710" y1="540.03" x2="1210" y2="540.03" gradientUnits="userSpaceOnUse"><stop offset="0" stop-color="#d48a35"/><stop offset="0.25" stop-color="#b5913d"/><stop offset="0.56" stop-color="#959845"/><stop offset="0.82" stop-color="#819c4a"/><stop offset="1" stop-color="#7a9e4c"/></linearGradient><linearGradient id="Sfumatura_senza_nome_2-2" x1="960" y1="930.2" x2="960" y2="149.8" xlink:href="#Sfumatura_senza_nome_2"/><clipPath id="clip-path" transform="translate(-709.38 -149.8)"><path id="SVGID" class="cls-1" d="M791.82,525.9a8.91,8.91,0,1,1,8.94,8.85,8.9,8.9,0,0,1-8.94-8.85m318,0a8.88,8.88,0,1,1,8.88,8.85,8.84,8.84,0,0,1-8.88-8.85m-233.2-78.52a8.88,8.88,0,1,1,8.87,8.85,8.9,8.9,0,0,1-8.87-8.85m153.29,0a8.88,8.88,0,1,1,8.88,8.85,8.9,8.9,0,0,1-8.88-8.85m-79.39-90.93a8.88,8.88,0,1,1,8.88,8.91,8.88,8.88,0,0,1-8.88-8.91M728,565.86C728,421.42,864.19,249.3,960.13,170c95.68,79.35,231.92,260.57,231.92,395.91,0,139.16-105.64,199.8-223,242.82V762.55L1045,716.16c0-.06.07-.06.07-.06l79.45-48.56a8.9,8.9,0,0,0,4.28-7.63V550.65a26.86,26.86,0,1,0-18,.77V654.88L1049,692.68V472.13a26.85,26.85,0,1,0-18,.83V703.62l-62,37.93V381.46a26.87,26.87,0,1,0-18,.38V741.55L894.53,707V472.51a26.83,26.83,0,1,0-18,0V696L809.2,654.88V551.23a26.91,26.91,0,1,0-18-.39V659.91a8.9,8.9,0,0,0,4.28,7.63l85,51.86L951,762.55v46.13c-117.4-43-223-103.66-223-242.82M956.42,152C857.8,230.21,710,414.1,710,565.86c0,152.59,115,216.48,241,261.91v92.84a9,9,0,0,0,18,0V827.77c126-45.43,241-109.32,241-261.91,0-145.08-141.42-335.65-246.61-413.92l-3.52-1.46Z"/></clipPath><linearGradient id="Sfumatura_senza_nome_2-4" x1="623.94" y1="821.58" x2="630.31" y2="821.58" gradientTransform="matrix(0, -78.92, -78.92, 0, 65093.67, 49923.02)" xlink:href="#Sfumatura_senza_nome_2"/><linearGradient id="Sfumatura_senza_nome_2-5" x1="250.62" y1="780.41" x2="250.62" y2="0.06" xlink:href="#Sfumatura_senza_nome_2"/></defs><path id="SVGID-2" data-name="SVGID" class="cls-2" d="M791.82,525.9a8.91,8.91,0,1,1,8.94,8.85,8.9,8.9,0,0,1-8.94-8.85m318,0a8.88,8.88,0,1,1,8.88,8.85,8.84,8.84,0,0,1-8.88-8.85m-233.2-78.52a8.88,8.88,0,1,1,8.87,8.85,8.9,8.9,0,0,1-8.87-8.85m153.29,0a8.88,8.88,0,1,1,8.88,8.85,8.9,8.9,0,0,1-8.88-8.85m-79.39-90.93a8.88,8.88,0,1,1,8.88,8.91,8.88,8.88,0,0,1-8.88-8.91M728,565.86C728,421.42,864.19,249.3,960.13,170c95.68,79.35,231.92,260.57,231.92,395.91,0,139.16-105.64,199.8-223,242.82V762.55L1045,716.16c0-.06.07-.06.07-.06l79.45-48.56a8.9,8.9,0,0,0,4.28-7.63V550.65a26.86,26.86,0,1,0-18,.77V654.88L1049,692.68V472.13a26.85,26.85,0,1,0-18,.83V703.62l-62,37.93V381.46a26.87,26.87,0,1,0-18,.38V741.55L894.53,707V472.51a26.83,26.83,0,1,0-18,0V696L809.2,654.88V551.23a26.91,26.91,0,1,0-18-.39V659.91a8.9,8.9,0,0,0,4.28,7.63l85,51.86L951,762.55v46.13c-117.4-43-223-103.66-223-242.82M956.42,152C857.8,230.21,710,414.1,710,565.86c0,152.59,115,216.48,241,261.91v92.84a9,9,0,0,0,18,0V827.77c126-45.43,241-109.32,241-261.91,0-145.08-141.42-335.65-246.61-413.92l-3.52-1.46Z" transform="translate(-709.38 -149.8)"/><g class="cls-3"><rect class="cls-4" x="0.63" y="0.68" width="500" height="779.1"/></g><path id="SVGID-3" data-name="SVGID" class="cls-5" d="M791.82,525.9a8.91,8.91,0,1,1,8.94,8.85,8.9,8.9,0,0,1-8.94-8.85m318,0a8.88,8.88,0,1,1,8.88,8.85,8.84,8.84,0,0,1-8.88-8.85m-233.2-78.52a8.88,8.88,0,1,1,8.87,8.85,8.9,8.9,0,0,1-8.87-8.85m153.29,0a8.88,8.88,0,1,1,8.88,8.85,8.9,8.9,0,0,1-8.88-8.85m-79.39-90.93a8.88,8.88,0,1,1,8.88,8.91,8.88,8.88,0,0,1-8.88-8.91M728,565.86C728,421.42,864.19,249.3,960.13,170c95.68,79.35,231.92,260.57,231.92,395.91,0,139.16-105.64,199.8-223,242.82V762.55L1045,716.16c0-.06.07-.06.07-.06l79.45-48.56a8.9,8.9,0,0,0,4.28-7.63V550.65a26.86,26.86,0,1,0-18,.77V654.88L1049,692.68V472.13a26.85,26.85,0,1,0-18,.83V703.62l-62,37.93V381.46a26.87,26.87,0,1,0-18,.38V741.55L894.53,707V472.51a26.83,26.83,0,1,0-18,0V696L809.2,654.88V551.23a26.91,26.91,0,1,0-18-.39V659.91a8.9,8.9,0,0,0,4.28,7.63l85,51.86L951,762.55v46.13c-117.4-43-223-103.66-223-242.82M956.42,152C857.8,230.21,710,414.1,710,565.86c0,152.59,115,216.48,241,261.91v92.84a9,9,0,0,0,18,0V827.77c126-45.43,241-109.32,241-261.91,0-145.08-141.42-335.65-246.61-413.92l-3.52-1.46Z" transform="translate(-709.38 -149.8)"/></svg>