<?xml version="1.0" encoding="utf-8"?>
<!-- Generator: Adobe Illustrator 26.0.3, SVG Export Plug-In . SVG Version: 6.00 Build 0)  -->
<svg version="1.1" id="Layer_1" xmlns="http://www.w3.org/2000/svg" xmlns:xlink="http://www.w3.org/1999/xlink" x="0px" y="0px"
	 viewBox="0 0 900 653.85" style="enable-background:new 0 0 900 653.85;" xml:space="preserve">
<style type="text/css">
	.st0{fill:#2B2E2E;}
	.st1{fill:#D48A35;}
	.st2{fill:none;stroke:#D48A35;stroke-width:2;stroke-miterlimit:10;}
	.st3{fill:#2C2E2F;}
	.st4{fill:none;stroke:#D48A35;stroke-width:10;stroke-miterlimit:10;}
	.st5{fill:none;stroke:#D48A35;stroke-width:3;stroke-miterlimit:10;}
	.st6{fill:#D48A35;stroke:#D48A35;stroke-width:3;stroke-miterlimit:10;}
</style>
<rect y="-3.08" class="st0" width="900" height="660"/>
<g>
	<path class="st1" d="M755.63,227.09c-18.86-8.84-16.36-5.67-22.19-27.23c-12.68-8.29-15.41-7.14-29.61-4.34
		c0,0-10.48,16.17-10.48,16.17c-24.99,1.18-21.49,21.44,12.29,26.88C725.14,242.06,764.96,243.95,755.63,227.09z"/>
	<path class="st2" d="M695.72,235.04c0.88,7.7,0.89,29.15,12.05,28.92c15.56-3.69,20.28-11.08,24.22-26"/>
	<path class="st2" d="M728.28,249.4c-2.99,16.89,10.3,21.82,22.08,30.53c0,0,6.49,27.57,8.22,34.9c0.25,1.08,0.99,1.98,2,2.43
		c6.09,2.75,4.95,5.06,4.63,10.84c-0.07,1.27-0.71,2.45-1.73,3.21c-4.7,3.48-12.36,8.45-18.34,10.37c-1.95,0.63-4.02-0.57-4.46-2.57
		c-2.31-10.52-3.68-31.64-4.22-39.82"/>
	<path class="st2" d="M758.1,334.96c-2.69,10.27-4.98,68.25-15.07,60.45c-2.49-1.93,0.25-19.23-3.9-11.23
		c-1.34,4.88-2.95,2.68-3.14-2.49c0-7.22,2.07-13.12,8.07-16c0,0,1.01-24.27,1.01-24.27"/>
	<path class="st2" d="M749.45,389.79c-0.6,23.15-4.48,70.67-5.38,93.47c-5.69,2.73-19.29-10.02-23.51-12.58
		c-1.38-15.93-5.4-61.08-7.25-76.31"/>
	<path class="st2" d="M691.56,356.56c0.92,25.36,5.24,79.72,12.83,103.63c2.51,1.32,14.28,7.52,16.07,9.48"/>
	<path class="st2" d="M689.65,300.22l-1.38,53.6c15.85,15,35.23,12.23,55.01,12.23"/>
	<path class="st2" d="M701.4,261.69c-8.05-0.02-14.85,16.84-17.88,22.06"/>
	<g>
		<path class="st1" d="M738.09,270.62c-9.27,0.72-12.29,10.13-13.77,18.03c-1.57,8.39-2.03,17.02-2.46,25.62
			c-0.74,17.24-1.06,34.53-2.04,51.78c0,0-2-0.11-2-0.11c0.89-17.23,1.2-34.49,1.98-51.77c1.11-12.6,0.22-45.42,18.22-45.17
			C738.02,269,738.09,270.62,738.09,270.62L738.09,270.62z"/>
	</g>
	<path class="st2" d="M743.01,483.64c-3.1,0.95-11.44,4.25-13.24,7.2c-7.26,3.29-16.77,9.4-26.25,8.18
		c-1.66-0.21-3.51-3.13-1.29-5.55c5.33-5.8,17.41-18.24,18.32-22.79"/>
	<path class="st2" d="M705.77,460.95"/>
	<path class="st2" d="M714.75,479.7c-2.93-0.87-7.35,0.1-10.3,1.62c-0.6,0.31-1.26,0.46-1.93,0.43c-2.91-0.14-14.9,5.22-20.45,4.08
		c-0.41-0.09-0.8-0.14-1.13-0.33c-3.46-2.01-2.7-4.58,0.62-6.69c4.04-2.57,19.96-11.95,24.2-17.86"/>
	<path class="st2" d="M672.77,321.07"/>
	<path class="st2" d="M732.03,266.77l-24.6,11.67c-5.5-4.81-7.41-8.68-7.65-16"/>
	<path class="st2" d="M689.65,314.19"/>
	<path class="st2" d="M670.85,300.24"/>
	<path class="st2" d="M662.46,322.89l1.98,7.3c0.71,1.24,2.14,2.61,3.75-0.37"/>
	<path class="st2" d="M689.25,317.61c-2.94,1.67-4.38,3.46-4.38,3.46s-4.52,6.58-6.51,9.86c-1,1.64-2.51,3.49-4.98,3.72
		c0,0-6.16,2.87-8.93-4.47"/>
	<path class="st2" d="M668.2,329.81c2.94-2.57,2.66-29.58,2.66-29.58s-0.24-1.9,0.95-3.78c1.8-2.87,9.34-9.6,9.34-9.6
		c2.38-3.1,2.38-3.1,2.38-3.1"/>
	<path class="st2" d="M668.55,297.61c0,0,1.73-0.77,3.24-1.16"/>
	<polygon class="st3" points="734.9,266.89 738.62,270.01 738.62,266.24 	"/>
	<path class="st2" d="M658.7,282.14c-1.12-3.73,2-9.47-2.12-10.04c0,0,0.32-1.35,0.91-2.33c0.95-1.56-0.65-2.83-1.58-2.99
		c-1.46-0.25-3.14-0.8-2.01-1.75c1.32-1.12,0.69-2.88,0.56-3.46c-0.08-0.39-1.42-1.64-2.48-1.32c-2.12,0.65-3.74,1.14-5.27,1.6
		c-0.44,0.13-0.8,0.43-1.02,0.84l-5.89,11.03c-0.28,0.53-0.27,1.17,0.04,1.69c2.18,3.65,7.1,12.72,10.08,13.98"/>
	<path class="st2" d="M665.33,315.19"/>
	<path class="st2" d="M642.41,268.83l-6.75-14.04c-1.31-2.94,1.05-6.2,4.26-5.87l9.45,0.99c1.49,0.16,2.78,1.09,3.39,2.46
		l11.52,25.85c0.66,1.47,0.61,4.48-5.57,2.57"/>
	<path class="st2" d="M658.7,282.14c5.46,18.74-4.48-0.48,11.38,17.22"/>
	<path class="st2" d="M668.47,326.4c-13.06-3.77-15.55-26.23-18.55-37.02"/>
</g>
<g>
	<path class="st1" d="M145.17,227.09c18.86-8.84,16.36-5.67,22.19-27.23c12.68-8.29,15.41-7.14,29.61-4.34
		c0,0,10.48,16.17,10.48,16.17c24.99,1.18,21.49,21.44-12.29,26.88C175.65,242.06,135.84,243.95,145.17,227.09z"/>
	<path class="st2" d="M205.08,235.04c-0.88,7.7-0.89,29.15-12.05,28.92c-15.56-3.69-20.28-11.08-24.22-26"/>
	<path class="st2" d="M172.52,249.4c2.99,16.89-10.3,21.82-22.08,30.53c0,0-6.49,27.57-8.22,34.9c-0.25,1.08-0.99,1.98-2,2.43
		c-6.09,2.75-4.95,5.06-4.63,10.84c0.07,1.27,0.71,2.45,1.73,3.21c4.7,3.48,12.36,8.45,18.34,10.37c1.95,0.63,4.02-0.57,4.46-2.57
		c2.31-10.52,3.68-31.64,4.22-39.82"/>
	<path class="st2" d="M142.7,334.96c2.69,10.27,4.98,68.25,15.07,60.45c2.49-1.93-0.25-19.23,3.9-11.23
		c1.34,4.88,2.95,2.68,3.14-2.49c0-7.22-2.07-13.12-8.07-16c0,0-1.01-24.27-1.01-24.27"/>
	<path class="st2" d="M151.35,389.79c0.6,23.15,4.48,70.67,5.38,93.47c5.69,2.73,19.29-10.02,23.51-12.58
		c1.38-15.93,5.4-61.08,7.25-76.31"/>
	<path class="st2" d="M209.23,356.56c-0.92,25.36-5.24,79.72-12.83,103.63c-2.51,1.32-14.28,7.52-16.07,9.48"/>
	<path class="st2" d="M211.15,300.22l1.38,53.6c-15.85,15-35.23,12.23-55.01,12.23"/>
	<path class="st2" d="M199.4,261.69c8.05-0.02,14.85,16.84,17.88,22.06"/>
	<g>
		<path class="st1" d="M162.78,269c17.99-0.27,17.11,32.57,18.22,45.17c0.78,17.28,1.09,34.54,1.98,51.77c0,0-2,0.11-2,0.11
			c-0.97-17.24-1.3-34.53-2.04-51.78c-0.44-8.6-0.9-17.23-2.46-25.62c-1.48-7.9-4.5-17.32-13.77-18.03
			C162.71,270.62,162.78,269,162.78,269L162.78,269z"/>
	</g>
	<path class="st2" d="M157.79,483.64c3.1,0.95,11.44,4.25,13.24,7.2c7.26,3.29,16.77,9.4,26.25,8.18c1.66-0.21,3.51-3.13,1.29-5.55
		c-5.33-5.8-17.41-18.24-18.32-22.79"/>
	<path class="st2" d="M195.03,460.95"/>
	<path class="st2" d="M186.05,479.7c2.93-0.87,7.35,0.1,10.3,1.62c0.6,0.31,1.26,0.46,1.93,0.43c2.91-0.14,14.9,5.22,20.45,4.08
		c0.41-0.09,0.8-0.14,1.13-0.33c3.46-2.01,2.7-4.58-0.62-6.69c-4.04-2.57-19.96-11.95-24.2-17.86"/>
	<path class="st2" d="M228.03,321.07"/>
	<path class="st2" d="M168.77,266.77l24.6,11.67c5.5-4.81,7.41-8.68,7.65-16"/>
	<path class="st2" d="M211.15,314.19"/>
	<path class="st2" d="M229.95,300.24"/>
	<path class="st2" d="M238.33,322.89l-1.98,7.3c-0.71,1.24-2.14,2.61-3.75-0.37"/>
	<path class="st2" d="M211.54,317.61c2.94,1.67,4.38,3.46,4.38,3.46s4.52,6.58,6.51,9.86c1,1.64,2.51,3.49,4.98,3.72
		c0,0,6.16,2.87,8.93-4.47"/>
	<path class="st2" d="M232.6,329.81c-2.94-2.57-2.66-29.58-2.66-29.58s0.24-1.9-0.95-3.78c-1.8-2.87-9.34-9.6-9.34-9.6
		c-2.38-3.1-2.38-3.1-2.38-3.1"/>
	<path class="st2" d="M232.24,297.61c0,0-1.73-0.77-3.24-1.16"/>
	<polygon class="st3" points="165.9,266.89 162.18,270.01 162.18,266.24 	"/>
	<path class="st2" d="M242.1,282.14c1.12-3.73-2-9.47,2.12-10.04c0,0-0.32-1.35-0.91-2.33c-0.95-1.56,0.65-2.83,1.58-2.99
		c1.46-0.25,3.14-0.8,2.01-1.75c-1.32-1.12-0.69-2.88-0.56-3.46c0.08-0.39,1.42-1.64,2.48-1.32c2.12,0.65,3.74,1.14,5.27,1.6
		c0.44,0.13,0.8,0.43,1.02,0.84l5.89,11.03c0.28,0.53,0.27,1.17-0.04,1.69c-2.18,3.65-7.1,12.72-10.08,13.98"/>
	<path class="st2" d="M235.47,315.19"/>
	<path class="st2" d="M258.39,268.83l6.75-14.04c1.31-2.94-1.05-6.2-4.26-5.87l-9.45,0.99c-1.49,0.16-2.78,1.09-3.39,2.46
		l-11.52,25.85c-0.66,1.47-0.61,4.48,5.57,2.57"/>
	<path class="st2" d="M242.1,282.14c-5.46,18.74,4.48-0.48-11.38,17.22"/>
	<path class="st2" d="M232.33,326.4c13.06-3.77,15.55-26.23,18.55-37.02"/>
</g>
<g>
	<path class="st4" d="M494.92,565.98h-89.04c-16.83,0-30.48-13.65-30.48-30.48V296.47c0-16.83,13.65-30.48,30.48-30.48h89.04
		c16.83,0,30.48,13.65,30.48,30.48V535.5C525.4,552.34,511.75,565.98,494.92,565.98z"/>
	<path class="st5" d="M476.11,322.36l-13.14,19.11c6.76,4.04,11.31,11.42,11.31,19.87h23.16
		C497.43,344.98,488.93,330.6,476.11,322.36z"/>
	<path class="st6" d="M451.12,315.03c-25.58,0-46.31,20.73-46.31,46.31h23.16c0-12.79,10.37-23.16,23.16-23.16
		c4.34,0,8.38,1.21,11.85,3.29l13.14-19.11C468.9,317.73,460.33,315.03,451.12,315.03z"/>
	<path class="st5" d="M449.67,404.91c-14.83,0-28.08,6.76-36.84,17.37h73.69C477.76,411.67,464.51,404.91,449.67,404.91z"/>
	<path class="st6" d="M486.52,422.28h-73.69c-12.08,14.63-15.62,36.58-2.96,58.21c2.89,4.94,7.02,9.07,11.96,11.97
		c37.31,21.87,75.61-4.49,75.61-39.79C497.43,441.12,493.34,430.54,486.52,422.28z"/>
	<line class="st5" x1="407.7" y1="533.86" x2="407.7" y2="567.15"/>
	<line class="st5" x1="429.41" y1="534.59" x2="429.41" y2="567.87"/>
	<line class="st5" x1="454.01" y1="534.59" x2="454.01" y2="567.87"/>
	<line class="st5" x1="478.62" y1="534.59" x2="478.62" y2="567.87"/>
	<polyline class="st5" points="410.84,567.15 435.2,543.99 449.67,554.12 454.01,548.34 465.59,559.91 491.64,533.86 	"/>
	<path class="st6" d="M479.2,281.52h-57.6c-4.27,0-7.72-3.46-7.72-7.72v-2.28c0-3.73,3.02-6.76,6.76-6.76h59.53
		c3.73,0,6.76,3.02,6.76,6.76v2.28C486.92,278.06,483.46,281.52,479.2,281.52z"/>
</g>
<g>
	<path class="st1" d="M528.12,232.11c-0.69-0.45-0.92-1.08-0.91-1.89c0.04-2.32,0.01-4.65,0.01-7.03c-1.05-0.17-2.08-0.3-3.08-0.52
		c-7.4-1.59-11.46-6.43-13.19-13.55c-0.78-3.23-0.51-6.52-0.54-9.79c-0.01-0.85,0.57-1.39,1.32-1.4c0.78-0.01,1.33,0.56,1.35,1.46
		c0.03,1.16,0.04,2.33-0.01,3.49c-0.03,0.66,0.15,0.91,0.85,1c3.76,0.5,7.24,1.77,10.14,4.28c1.11,0.96,2.06,2.13,3.08,3.21
		c0-2.25,0-4.55,0-6.85c-1.44-0.28-2.9-0.53-4.34-0.86c-0.69-0.16-1.36-0.43-2.02-0.69c-0.93-0.37-1.29-1.05-1.01-1.79
		c0.29-0.75,1.01-0.98,1.94-0.72c1.52,0.42,3.04,0.79,4.57,1.16c0.25,0.06,0.52,0.04,0.78,0.06c-0.27-6.98-4.78-12.68-13.84-13.89
		c0.15,0.87,0.25,1.71,0.46,2.52c0.66,2.61,1.76,4.99,3.6,7c0.1,0.11,0.19,0.23,0.28,0.35c0.54,0.73,0.5,1.49-0.11,1.98
		c-0.59,0.47-1.32,0.4-1.91-0.24c-1.52-1.63-2.7-3.48-3.52-5.55c-1.12-2.8-1.67-5.7-1.62-8.72c0.02-1.43-0.01-2.86,0.01-4.29
		c0.01-0.98,0.53-1.59,1.31-1.62c0.82-0.03,1.36,0.61,1.37,1.64c0.01,1.37,0,2.74,0,4.18c5.71,0.74,10.63,2.86,14.08,7.91
		c0-2.52,0-4.83,0-7.18c-1.01-0.16-2-0.29-2.99-0.48c-7.29-1.42-11.69-6.73-13.25-13.6c-0.73-3.22-0.49-6.46-0.52-9.7
		c-0.01-0.9,0.58-1.46,1.36-1.44c0.78,0.01,1.28,0.58,1.31,1.5c0.02,0.71,0,1.43,0.01,2.15c0,0.68,0,1.37,0,2.14
		c5.69,0.75,10.62,2.86,14.13,7.97c0-1.16,0.07-2.05-0.03-2.92c-0.04-0.36-0.4-0.7-0.66-1.01c-3.1-3.62-4.76-7.74-4.3-12.57
		c0.37-3.8,1.98-7.08,4.35-10.01c0.47-0.57,0.68-1.13,0.65-1.86c-0.05-1.16,0.02-2.33-0.02-3.49c-0.03-0.82,0.21-1.45,0.91-1.89
		c0.3,0,0.6,0,0.89,0c0.76,0.45,0.93,1.14,0.91,1.98c-0.04,1.37-0.3,2.83,0.07,4.09c0.37,1.25,1.41,2.29,2.14,3.43
		c4.14,6.41,3.76,14.14-1.19,19.8c-1.17,1.34-1.01,2.67-1.02,4.4c1.71-2.47,3.73-4.29,6.2-5.58c2.45-1.28,5.09-1.99,7.9-2.31
		c0-1.4-0.01-2.74,0-4.07c0.01-1.13,0.48-1.74,1.34-1.74c0.86,0,1.36,0.61,1.34,1.74c-0.04,2.53,0.14,5.1-0.22,7.58
		c-0.7,4.8-2.53,9.11-6.49,12.24c-2.68,2.12-5.77,3.16-9.12,3.51c-0.29,0.03-0.58,0.07-0.92,0.11c0,2.36,0,4.67,0,7.18
		c3.44-4.98,8.33-7.13,14.08-7.86c0-1.47-0.02-2.9,0.01-4.32c0.02-0.98,0.69-1.62,1.5-1.48c0.66,0.11,1.12,0.53,1.14,1.19
		c0.17,4.99,0.2,9.96-2.11,14.6c-2.7,5.43-7.11,8.4-13.06,9.21c-0.5,0.07-1,0.13-1.55,0.21c0,2.32,0,4.63,0,7.16
		c3.45-4.99,8.35-7.14,14.07-7.86c0-1.4-0.01-2.74,0-4.07c0.01-1.12,0.5-1.74,1.35-1.73c0.85,0.01,1.35,0.62,1.33,1.76
		c-0.04,2.53,0.14,5.1-0.22,7.58c-0.68,4.74-2.49,9-6.35,12.13c-2.6,2.11-5.62,3.18-8.91,3.58c-0.3,0.04-0.59,0.06-0.89,0.1
		c-0.12,0.02-0.23,0.06-0.43,0.12c0,2.33-0.02,4.68,0.01,7.03c0.01,0.82-0.21,1.45-0.91,1.89
		C528.72,232.11,528.42,232.11,528.12,232.11z M543.82,187.79c-9.27,1.2-13.63,7.34-13.71,13.84
		C538.31,201.26,543.16,195.16,543.82,187.79z M527.11,220.32c-0.44-8.9-7.44-13.34-13.81-13.68
		C514.17,214.38,519.2,220.03,527.11,220.32z M543.85,206.56c-7.77,0.74-13.65,6.07-13.73,13.76
		C538.07,220.01,543.01,214.21,543.85,206.56z M527.1,182.89c-0.41-8.85-7.44-13.36-13.8-13.67
		C514.17,177.07,519.35,182.64,527.1,182.89z M543.85,169.16c-7.53,0.63-13.61,5.84-13.75,13.71
		C537.6,182.67,542.92,177.29,543.85,169.16z M528.56,168.52c5.45-6.06,4.43-13.49-0.02-18.84
		C523.95,155.49,523.33,162.61,528.56,168.52z"/>
	<path class="st1" d="M572.67,140.52c0.7,0.44,0.94,1.06,0.92,1.88c-0.05,1.4-0.3,2.88,0.07,4.18c0.35,1.24,1.4,2.29,2.09,3.44
		c2.53,4.2,3.61,8.66,2.27,13.51c-0.66,2.39-1.85,4.53-3.49,6.37c-0.78,0.87-1.15,1.74-1,2.88c0.05,0.38,0.01,0.76,0.01,1.33
		c0.23-0.25,0.35-0.35,0.45-0.48c3.11-4.31,7.5-6.38,12.61-7.15c0.8-0.12,1.14-0.33,1.08-1.19c-0.08-1.13-0.03-2.26-0.01-3.4
		c0.02-0.79,0.41-1.3,1.23-1.38c0.77-0.07,1.39,0.42,1.42,1.28c0.17,4.93,0.16,9.84-2.09,14.43c-2.8,5.72-7.49,8.69-13.73,9.34
		c-0.76,0.08-1,0.28-0.98,1.06c0.06,1.99,0.02,3.99,0.02,6.3c1.74-2.47,3.73-4.27,6.17-5.56c2.45-1.29,5.09-1.99,7.94-2.34
		c0-1.3-0.01-2.57,0-3.84c0-0.36-0.08-0.81,0.1-1.05c0.3-0.39,0.76-0.84,1.19-0.88c0.38-0.04,0.83,0.42,1.22,0.7
		c0.11,0.08,0.15,0.33,0.16,0.5c0.24,5.56,0.09,11.05-2.92,16c-2.77,4.56-6.92,7-12.14,7.74c-0.53,0.08-1.06,0.14-1.66,0.21
		c0,2.31,0,4.62,0,7.02c0.12-0.1,0.22-0.16,0.27-0.24c3.15-4.46,7.65-6.56,12.89-7.32c0.75-0.11,0.93-0.38,0.9-1.07
		c-0.05-1.16-0.02-2.32,0-3.49c0.01-0.79,0.4-1.3,1.22-1.39c0.76-0.08,1.4,0.42,1.43,1.27c0.16,4.99,0.26,9.99-2.17,14.58
		c-0.73,1.38-1.68,2.67-2.62,3.92c-0.79,1.05-1.56,1.19-2.26,0.6c-0.69-0.58-0.62-1.34,0.22-2.33c2.31-2.72,3.65-5.87,3.97-9.36
		c-6.62,0.43-13.36,4.92-13.84,13.93c1.55-0.36,3.04-0.69,4.52-1.04c0.37-0.09,0.72-0.29,1.09-0.4c0.82-0.23,1.47,0.1,1.73,0.83
		c0.24,0.68-0.03,1.4-0.81,1.64c-1.76,0.54-3.55,0.96-5.33,1.41c-0.37,0.09-0.76,0.1-1.27,0.16c0,0.61,0,1.19,0,1.77
		c0,1.7-0.03,3.4,0.01,5.1c0.02,0.85-0.15,1.58-0.88,2.1c-0.3,0-0.6,0-0.89,0c-0.74-0.41-0.96-1.04-0.95-1.86
		c0.04-2.32,0.01-4.65,0.01-7.06c-1.08-0.18-2.12-0.33-3.16-0.54c-7.13-1.42-11.52-6.64-13.1-13.43c-0.76-3.27-0.5-6.58-0.54-9.88
		c-0.01-0.87,0.53-1.4,1.28-1.42c0.76-0.02,1.28,0.48,1.37,1.35c0.04,0.35,0.02,0.71,0.02,1.07c0,1.1,0,2.2,0,3.39
		c2.78,0.34,5.43,1.02,7.87,2.31c2.45,1.3,4.52,3.06,6.19,5.62c0-2.6,0-4.89,0-7.15c-1.58-0.32-3.15-0.53-4.65-0.98
		c-5.86-1.76-9.46-5.82-11.11-11.58c-0.61-2.12-0.75-4.38-0.96-6.6c-0.14-1.51-0.04-3.04-0.03-4.56c0.01-1,0.5-1.59,1.29-1.62
		c0.81-0.03,1.37,0.61,1.39,1.63c0.02,1.07,0.01,2.15,0.01,3.22c0,0.29,0,0.59,0,0.96c5.68,0.74,10.59,2.84,14.12,7.69
		c0-0.39,0-0.77,0-1.16c0-1.67-0.04-3.34,0.02-5.01c0.02-0.72-0.24-0.89-0.91-0.96c-3.65-0.34-6.97-1.52-9.76-3.96
		c-3.24-2.83-5.12-6.46-5.7-10.64c-0.42-3.02-0.34-6.11-0.43-9.17c-0.02-0.8,0.56-1.29,1.3-1.3c0.79,0,1.33,0.53,1.35,1.46
		c0.04,1.4,0.01,2.8,0.01,4.32c5.67,0.76,10.61,2.84,14.05,7.91c0.14-1.78,0.2-3.18-1.07-4.48c-1.57-1.6-2.55-3.65-3.26-5.79
		c-0.3-0.93,0-1.68,0.75-1.92c0.78-0.26,1.44,0.09,1.78,1.05c0.71,2.02,1.73,3.84,3.16,5.44c4.99-5.25,5.04-12.82,0.01-18.86
		c-1.8,2.37-3.1,4.94-3.56,7.89c-0.02,0.15-0.03,0.3-0.06,0.44c-0.19,0.89-0.81,1.4-1.54,1.28c-0.77-0.12-1.3-0.76-1.08-1.65
		c0.46-1.87,0.89-3.78,1.66-5.52c0.73-1.64,1.92-3.07,2.86-4.61c0.23-0.38,0.42-0.85,0.45-1.28c0.06-1.22,0.05-2.44,0.01-3.67
		c-0.03-0.84,0.15-1.53,0.9-1.99C572.08,140.52,572.37,140.52,572.67,140.52z M587.47,169.15c-8.02,0.73-13.64,6.24-13.78,13.74
		C580.83,182.66,586.41,177.77,587.47,169.15z M570.69,201.63c-0.33-8.41-6.76-13.22-13.79-13.74
		C557.78,195.83,562.89,201.26,570.69,201.63z M570.74,182.91c-0.29-3.97-1.61-7.38-4.6-9.99c-2.63-2.3-5.77-3.39-9.24-3.84
		C557.77,177.01,562.83,182.56,570.74,182.91z M587.47,187.81c-8.54,1-13.54,6.51-13.81,13.8
		C580.83,201.38,586.44,196.46,587.47,187.81z M570.69,220.32c-0.34-8.5-6.96-13.28-13.78-13.69
		C557.76,214.44,562.87,220.02,570.69,220.32z"/>
</g>
<g>
	<path class="st1" d="M353.14,144.77c6.64,2.04,10.08,7.01,11.99,13.28c1.67,5.46,1.64,11.04,0.75,16.62
		c-1.03,6.44-3.23,12.47-6.51,18.11c-0.08,0.14-0.14,0.28-0.28,0.57c1.22-0.23,2.33-0.43,3.43-0.64c4.38-0.83,8.8-1.1,13.24-0.84
		c3.23,0.19,6.01,1.53,8.13,3.9c5.51,6.13,7.4,13.17,4.79,21.16c-0.59,1.81-1.62,3.41-2.93,4.93c-0.6-0.51-1.19-1-1.75-1.48
		c0.01-0.11-0.01-0.17,0.02-0.21c3.52-4.36,4.1-9.28,2.68-14.54c-0.91-3.37-2.48-6.39-5.14-8.74c-2.61-2.31-5.65-3.23-9.03-2.28
		c-6.4,1.8-11.07,5.76-13.5,11.96c-2.76,7.08,1.51,15.47,8.98,17.99c4.94,1.67,9.53,0.86,13.73-2.23c0.17-0.13,0.34-0.26,0.59-0.44
		c0.51,0.6,1.01,1.19,1.56,1.82c-2.09,1.79-4.42,2.98-7.03,3.61c-3.75,0.91-7.41,0.59-10.94-0.98c-5.65-2.51-10.86-5.69-15.22-10.15
		c-1.9-1.95-3.5-4.11-4.77-6.67c-0.32,0.26-0.6,0.49-0.87,0.73c-3.64,3.15-7.62,5.78-11.97,7.84c-1.16,0.55-2,1.33-2.62,2.43
		c-0.37,0.66-0.78,1.3-1.24,1.9c-1.1,1.42-2.56,1.86-4.26,1.35c-2.9-0.88-5.24-2.62-7.26-4.85c-1.82-2.01-3.69-5.23-4.48-7.74
		c0.71-0.27,1.43-0.54,2.18-0.83c0.42,0.9,0.78,1.77,1.21,2.6c1.87,3.67,4.45,6.63,8.35,8.25c1.43,0.6,1.95,0.44,2.77-0.86
		c0.33-0.53,0.64-1.07,0.96-1.59c0.73-1.18,1.69-2.08,2.97-2.67c1.02-0.47,2-1.02,3.18-1.62c-3.38-0.88-6.54-1.73-9.33-3.7
		c0.55-0.66,1.05-1.26,1.53-1.84c3.09,1.89,6.44,2.79,9.88,3.43c0.74,0.14,1.37,0.02,2.04-0.44c6.37-4.4,11.43-10.04,15.77-16.39
		c0.31-0.45,0.08-0.68-0.16-0.97c-1.84-2.19-4.02-4-6.31-5.69c-0.32-0.24-0.65-0.47-1-0.72c0.46-0.67,0.88-1.3,1.39-2.05
		c1.37,1.08,2.74,2.07,4.02,3.17c1.29,1.11,2.48,2.33,3.76,3.54c0.06-0.07,0.17-0.18,0.25-0.3c4.8-7.97,7.49-16.56,7.32-25.93
		c-0.09-4.65-1.02-9.12-3.5-13.16c-1.52-2.47-3.54-4.42-6.16-5.71c-1.98-0.98-3.15-0.81-4.47,0.93c-1.63,2.15-3.67,3.68-6.12,4.77
		c-1.78,0.78-3.46,1.76-5.19,2.66c-0.18,0.1-0.35,0.22-0.64,0.4c3.05,1.13,5.67,2.72,8.01,4.95c-0.54,0.58-1.06,1.15-1.53,1.66
		c-1.42-0.98-2.72-2.05-4.18-2.85c-1.46-0.8-3.05-1.36-4.61-1.94c-0.32-0.12-0.84,0.05-1.16,0.26c-7.76,4.99-13.36,11.8-16.96,20.26
		c-0.8,1.88-1.44,3.84-2.09,5.78c-0.14,0.41-0.09,0.97,0.08,1.38c1.02,2.53,2.8,4.49,4.92,6.12c1.54,1.18,3.21,2.19,4.82,3.28
		c0.24,0.16,0.5,0.29,0.8,0.47c-0.39,0.73-0.75,1.38-1.14,2.12c-4.08-2.25-7.84-4.81-10.58-8.87c-0.99,4.86-1.15,9.59-0.54,14.37
		c-0.27,0.06-0.48,0.13-0.69,0.16c-0.53,0.08-1.07,0.14-1.72,0.22c-0.12-1.22-0.31-2.39-0.34-3.56
		c-0.35-15.04,4.62-27.98,15.41-38.56c4.15-4.07,9.14-6.96,14.31-9.54c0.48-0.24,0.96-0.51,1.45-0.71c2.36-0.99,4.42-2.35,5.92-4.49
		c0.79-1.13,1.95-1.83,3.28-2.24C351.95,144.77,352.54,144.77,353.14,144.77z M352.99,210.08c-0.24,1.36-0.47,2.6-0.66,3.85
		c-0.03,0.23,0.05,0.58,0.21,0.72c1.68,1.51,3.38,2.99,5.07,4.48c0.06-0.06,0.13-0.12,0.19-0.18c-0.11-0.23-0.21-0.47-0.32-0.7
		c-1.29-2.71-1.92-5.56-1.65-8.56c0.37-4.07,2.19-7.51,4.92-10.43c1.55-1.66,3.36-3.08,4.97-4.55c0.12,0.02,0.04-0.01-0.03,0
		c-2.73,0.5-5.47,0.99-8.2,1.52c-0.24,0.05-0.48,0.32-0.64,0.54c-1.31,1.75-2.54,3.57-3.92,5.27c-1.62,1.99-3.36,3.88-5.14,5.92
		c0.69,1.2,1.43,2.48,2.25,3.9c0.32-1,0.56-1.76,0.83-2.59C351.66,209.57,352.36,209.84,352.99,210.08z"/>
	<path class="st1" d="M339.12,203.53c-2.58-0.4-4.93-1.11-7.21-2.41c0.46-0.69,0.89-1.33,1.23-1.86c2.07,0.68,4.05,1.34,6.16,2.04
		C339.26,201.89,339.19,202.65,339.12,203.53z"/>
	<path class="st1" d="M338.65,182.38c-1.9-1.22-3.71-2.37-5.63-3.6c0.23-0.59,0.5-1.3,0.81-2.12c2.31,1.01,4.3,2.39,6.31,3.96
		C339.61,181.24,339.11,181.83,338.65,182.38z"/>
	<path class="st1" d="M355.09,169.54c-0.71,0.61-1.28,1.1-1.85,1.59c-1.31-1.2-2.59-2.38-3.94-3.62c0.43-0.58,0.9-1.19,1.46-1.95
		C352.2,166.89,353.6,168.17,355.09,169.54z"/>
	<path class="st1" d="M378.46,199.2c0.81,0,1.55,0,2.34,0c0,0.78,0,1.52,0,2.33c-0.77,0-1.53,0-2.34,0
		C378.46,200.77,378.46,200.02,378.46,199.2z"/>
	<path class="st1" d="M380.9,204.06c0.8,0,1.54,0,2.33,0c0,0.78,0,1.52,0,2.33c-0.76,0-1.52,0-2.33,0
		C380.9,205.64,380.9,204.9,380.9,204.06z"/>
	<path class="st1" d="M357.68,155.95c-0.8,0-1.54,0-2.32,0c0-0.8,0-1.56,0-2.35c0.8,0,1.53,0,2.32,0
		C357.68,154.38,357.68,155.12,357.68,155.95z"/>
	<path class="st1" d="M360.12,158.49c0,0.77,0,1.51,0,2.31c-0.77,0-1.53,0-2.34,0c0-0.76,0-1.5,0-2.31
		C358.55,158.49,359.31,158.49,360.12,158.49z"/>
	<path class="st1" d="M314.14,205.88c0.2,0.8,0.38,1.5,0.57,2.27c-0.77,0.22-1.5,0.44-2.33,0.68c-0.21-0.82-0.39-1.57-0.61-2.43
		C312.56,206.23,313.3,206.06,314.14,205.88z"/>
</g>
<g>
	<path class="st1" d="M474.28,85.77c2.03,0.42,4.04,1.01,6.09,1.22c2.55,0.25,4.19,1.42,5.03,3.83c0.3,0.87,0.74,1.69,1.07,2.55
		c0.26,0.69-0.03,1.34-0.63,1.57c-0.63,0.24-1.24-0.03-1.56-0.7c-0.57-1.22-1.14-2.43-1.68-3.66c-0.26-0.59-0.68-0.87-1.31-0.96
		c-0.86-0.12-1.71-0.29-2.55-0.5c-0.6-0.15-0.98,0.04-1.36,0.48c-1.17,1.34-2.14,2.81-2.81,4.46c-0.22,0.54-0.65,0.95-1.21,0.78
		c-0.41-0.12-0.8-0.52-1.05-0.9c-0.13-0.19-0.02-0.64,0.12-0.89c0.74-1.33,1.52-2.64,2.29-3.96c0.12-0.2,0.27-0.37,0.42-0.57
		c-0.96-0.42-1.78-0.49-2.54,0.34c-1.33,1.46-2.79,2.8-4.04,4.32c-1.22,1.47-1.71,3.3-1.97,5.18c-0.04,0.26-0.04,0.53-0.01,0.79
		c0.08,0.79,0.3,1.52,1.1,1.88c0.75,0.34,1.35-0.09,1.86-0.53c0.61-0.53,1.16-1.15,1.67-1.78c0.39-0.48,0.78-0.88,1.45-0.73
		c0.72,0.16,0.86,0.75,0.97,1.38c0.13,0.7,0.24,1.41,0.5,2.06c0.57,1.44,1.42,1.6,2.5,0.52c1.35-1.35,1.99-3.01,2.08-4.91
		c0.05-1.22,0.43-1.77,1.23-1.75c0.8,0.02,1.24,0.61,1.13,1.81c-0.09,0.99-0.3,1.98-0.54,2.94c-0.27,1.08,0.78,3.44,1.79,3.86
		c0.62,0.26,1.55-0.05,1.9-0.88c0.44-1.05,0.64-2.2,0.94-3.31c0.05-0.17,0.01-0.37,0.04-0.55c0.09-0.69,0.57-1.11,1.23-1.07
		c0.69,0.05,1.13,0.46,1.1,1.11c-0.1,2.21-0.36,4.38-2.01,6.08c-0.13,0.14-0.27,0.43-0.21,0.57c1.69,3.96,1.1,7.86-0.07,11.83
		c-3.18,10.73-8.27,20.4-15.87,28.65c-9.5,10.32-21.19,16.84-34.83,19.89c-1.02,0.23-2.05,0.43-3.07,0.64c-1.05,0-2.11,0-3.16,0
		c-0.74-0.15-1.49-0.28-2.22-0.47c-0.67-0.17-1.03-0.77-0.9-1.37c0.13-0.63,0.7-1.08,1.35-0.92c3.22,0.81,6.31,0.14,9.41-0.72
		c5.59-1.55,11.09-3.33,16.14-6.25c11.77-6.81,20.5-16.47,26.46-28.66c2.33-4.77,4.15-9.74,5.29-14.94c0.5-2.28,0.2-4.52-0.7-6.66
		c-0.11-0.26-0.43-0.44-0.8-0.8c-0.35,1.4-0.61,2.52-0.9,3.63c-2.03,7.89-5.15,15.32-9.5,22.21c-0.14,0.22-0.27,0.46-0.45,0.65
		c-0.44,0.46-0.97,0.55-1.5,0.2c-0.52-0.35-0.69-0.85-0.43-1.45c0.09-0.22,0.22-0.42,0.35-0.62c4.87-7.7,8.11-16.05,10.02-24.94
		c0.07-0.31-0.06-0.7-0.21-1c-0.26-0.51-0.62-0.97-0.87-1.37c-0.87,0.51-1.76,1.01-2.61,1.55c-0.18,0.11-0.29,0.41-0.33,0.65
		c-1.8,10.3-6.14,19.38-13.02,27.25c-2.42,2.77-5.09,5.27-8.01,7.5c-0.81,0.62-1.46,0.63-1.94,0.04c-0.51-0.62-0.34-1.27,0.51-1.93
		c8.5-6.62,14.62-14.97,18.04-25.21c0.9-2.69,1.42-5.5,2.09-8.26c0.04-0.18-0.04-0.45-0.16-0.61c-0.59-0.79-1.21-1.56-1.87-2.4
		c-0.94,0.71-2.02,1.57-3.47,1.53c-1.47-0.04-2.5-0.84-3.33-2.08c-1.77,1.2-3.08,2.78-3.98,4.68c-0.45,0.95-0.76,1.96-1.13,2.95
		c-0.33,0.88-0.9,1.23-1.6,0.97c-0.69-0.25-0.9-0.89-0.63-1.77c1.12-3.79,3.11-6.96,6.48-9.16c0.16-0.11,0.31-0.37,0.32-0.56
		c0.35-4.22,2.47-7.5,5.53-10.25c1.03-0.92,2.2-1.68,3.31-2.51C473.43,85.77,473.86,85.77,474.28,85.77z"/>
	<path class="st1" d="M415.97,147.3c4.82-5.24,11.01-6.93,17.66-7.54c0.45-0.04,0.89-0.07,1.34-0.09c0.8-0.02,1.33,0.41,1.37,1.11
		c0.04,0.7-0.41,1.2-1.22,1.25c-3.2,0.17-6.33,0.65-9.36,1.71c-2.33,0.81-4.52,1.89-6.39,3.53c-1.74,1.53-2.94,3.38-3.17,5.74
		c-0.04,0.46,0.05,1.01,0.27,1.42c1.32,2.41,3.5,3.57,6.11,4.02c3.93,0.68,7.76,0.04,11.53-1.07c1.17-0.34,1.83-0.18,2.06,0.58
		c0.24,0.79-0.18,1.37-1.32,1.69c-4.06,1.14-8.16,1.89-12.39,1.18c-0.85-0.14-1.68-0.38-2.63-0.47c0.71,0.57,1.43,1.13,2.13,1.72
		c0.54,0.45,0.62,1.11,0.25,1.62c-0.37,0.51-1.02,0.63-1.62,0.29c-0.09-0.05-0.18-0.12-0.26-0.17c-5.36-3.69-8.08-10.59-6.7-17.03
		c1.41-6.59,6.65-11.68,13.14-12.91c12.31-2.32,21.66-8.88,27.92-19.78c0.13-0.23,0.25-0.47,0.41-0.68
		c0.41-0.53,0.94-0.69,1.53-0.36c0.6,0.33,0.72,0.88,0.51,1.5c-0.07,0.22-0.21,0.42-0.33,0.63c-6.51,11.38-16.23,18.33-29.03,20.92
		c-5.81,1.18-9.67,4.49-11.54,10.12C416.14,146.55,416.08,146.88,415.97,147.3z"/>
	<path class="st1" d="M468.77,136.13c-0.21,0.43-0.29,0.75-0.48,0.98c-6.37,8.2-13.94,14.91-23.6,19.02
		c-0.29,0.12-0.58,0.26-0.89,0.33c-0.62,0.14-1.08-0.11-1.34-0.69c-0.25-0.56-0.06-1.03,0.4-1.4c0.12-0.1,0.27-0.16,0.42-0.22
		c7.79-3.18,14.21-8.25,19.79-14.46c1.18-1.31,2.26-2.71,3.39-4.07c0.37-0.45,0.85-0.72,1.38-0.44
		C468.2,135.39,468.45,135.8,468.77,136.13z"/>
</g>
</svg>
