<svg id="Livello_1" data-name="Livello 1" xmlns="http://www.w3.org/2000/svg" xmlns:xlink="http://www.w3.org/1999/xlink" viewBox="0 0 176 232"><defs><style>.cls-1,.cls-3{fill:none;}.cls-2{fill:#2b2e2e;}.cls-3{stroke:#2b2e2e;stroke-miterlimit:10;}.cls-4{clip-path:url(#clip-path);}.cls-5{fill:url(#Sfumatura_senza_nome_2);}.cls-6{fill:#d48a35;}</style><clipPath id="clip-path" transform="translate(-209.43 -125.21)"><path class="cls-1" d="M271.6,219.68a1.4,1.4,0,1,1,1.4,1.39,1.4,1.4,0,0,1-1.4-1.39m49.79,0a1.39,1.39,0,1,1,1.39,1.39,1.39,1.39,0,0,1-1.39-1.39m-36.51-12.34a1.39,1.39,0,1,1,1.39,1.39,1.4,1.4,0,0,1-1.39-1.39m24,0a1.39,1.39,0,1,1,1.39,1.39,1.4,1.4,0,0,1-1.39-1.39m-12.43-14.29a1.39,1.39,0,1,1,1.39,1.4,1.39,1.39,0,0,1-1.39-1.4M261.6,226c0-22.7,21.33-49.75,36.35-62.22,15,12.47,36.31,40.95,36.31,62.22,0,21.87-16.54,31.4-34.92,38.16v-7.25l11.89-7.29a0,0,0,0,1,0,0l12.44-7.63a1.4,1.4,0,0,0,.67-1.2V223.57a4.21,4.21,0,1,0-2.81.12V240l-9.68,5.94V211.23a4.2,4.2,0,1,0-2.81.13v36.25l-9.71,6V197a4.21,4.21,0,1,0-2.82.06v56.53l-8.84-5.43V211.29a4.2,4.2,0,1,0-2.82,0v35.12L274.32,240V223.66a4.21,4.21,0,1,0-2.81-.06v17.14a1.4,1.4,0,0,0,.67,1.2l13.3,8.15,11,6.78v7.25c-18.38-6.76-34.92-16.29-34.92-38.16m35.77-65c-15.44,12.29-38.58,41.19-38.58,65s18,34,37.73,41.16v14.59a1.41,1.41,0,0,0,2.82,0V267.12c19.73-7.14,37.73-17.18,37.73-41.16,0-22.8-22.14-52.75-38.61-65.05l-.55-.23Z"/></clipPath><linearGradient id="Sfumatura_senza_nome_2" x1="1.77" y1="563.04" x2="2.77" y2="563.04" gradientTransform="matrix(0, -78.92, -78.92, 0, 44526.14, 281.78)" gradientUnits="userSpaceOnUse"><stop offset="0" stop-color="#d48a35"/><stop offset="0.25" stop-color="#b5913d"/><stop offset="0.56" stop-color="#959845"/><stop offset="0.82" stop-color="#819c4a"/><stop offset="1" stop-color="#7a9e4c"/></linearGradient></defs><path class="cls-2" d="M230.76,356.71H364.1a20.83,20.83,0,0,0,20.83-20.83V146.54a20.84,20.84,0,0,0-20.83-20.83H230.76a20.83,20.83,0,0,0-20.83,20.83V335.88a20.82,20.82,0,0,0,20.83,20.83" transform="translate(-209.43 -125.21)"/><rect class="cls-3" x="0.5" y="0.5" width="175" height="231" rx="20.83"/><g class="cls-4"><rect class="cls-5" x="49.36" y="35.47" width="78.28" height="122.44"/></g><path class="cls-3" d="M298.46,160.91l-.55-.23-.54.24c-15.44,12.29-38.58,41.19-38.58,65s18,34,37.73,41.16v14.59a1.41,1.41,0,0,0,2.82,0V267.12c19.73-7.14,37.73-17.18,37.73-41.16C337.07,203.16,314.93,173.21,298.46,160.91Zm-.62,33.54a1.4,1.4,0,1,1,1.39-1.4A1.4,1.4,0,0,1,297.84,194.45Zm1.5,69.67v-7.25l11.89-7.29a0,0,0,0,1,0,0l12.44-7.63a1.4,1.4,0,0,0,.67-1.2V223.57a4.21,4.21,0,1,0-2.81.12V240l-9.68,5.94V211.23a4.2,4.2,0,1,0-2.81.13v36.25l-9.71,6V197a4.21,4.21,0,1,0-2.82.06v56.53l-8.84-5.43V211.29a4.2,4.2,0,1,0-2.82,0v35.12L274.32,240V223.66a4.21,4.21,0,1,0-2.81-.06v17.14a1.4,1.4,0,0,0,.67,1.2l13.3,8.15,11,6.78v7.25c-18.38-6.76-34.92-16.29-34.92-38.16,0-22.7,21.33-49.75,36.35-62.22,15,12.47,36.31,40.95,36.31,62.22C334.26,247.83,317.72,257.36,299.34,264.12Zm9.54-56.78a1.39,1.39,0,1,1,1.39,1.39A1.4,1.4,0,0,1,308.88,207.34Zm13.9,13.73a1.39,1.39,0,1,1,1.39-1.39A1.39,1.39,0,0,1,322.78,221.07Zm-35.12-13.73a1.39,1.39,0,1,1-1.39-1.4A1.39,1.39,0,0,1,287.66,207.34ZM273,221.07a1.39,1.39,0,1,1,1.39-1.39A1.4,1.4,0,0,1,273,221.07Z" transform="translate(-209.43 -125.21)"/><path class="cls-6" d="M261.47,315.93a4.56,4.56,0,0,1-1.58-.28,3.48,3.48,0,0,1-1.28-.84l.44-.81a3.62,3.62,0,0,0,1.17.78,3.13,3.13,0,0,0,1.2.24,2.14,2.14,0,0,0,1.14-.27A.83.83,0,0,0,263,314a.68.68,0,0,0-.23-.56,1.88,1.88,0,0,0-.65-.3l-1-.28a6.67,6.67,0,0,1-1.19-.44,1.7,1.7,0,0,1-.72-.58A1.42,1.42,0,0,1,259,311a1.71,1.71,0,0,1,.34-1.09,2,2,0,0,1,.93-.68,3.52,3.52,0,0,1,1.34-.23,3.75,3.75,0,0,1,1.37.23,3.09,3.09,0,0,1,1,.69l-.52.79a2.72,2.72,0,0,0-.88-.62,2.88,2.88,0,0,0-1.08-.2,2.61,2.61,0,0,0-.69.09,1.16,1.16,0,0,0-.56.29.79.79,0,0,0-.22.6.73.73,0,0,0,.17.51,1.36,1.36,0,0,0,.52.32l.84.28c.51.15,1,.29,1.33.44a2.2,2.2,0,0,1,.88.57,1.37,1.37,0,0,1,.31,1,1.74,1.74,0,0,1-.72,1.49A3.18,3.18,0,0,1,261.47,315.93Z" transform="translate(-209.43 -125.21)"/><path class="cls-6" d="M278,315.8v-1a2.71,2.71,0,0,1-1.11.88,3.77,3.77,0,0,1-1.41.28,2.49,2.49,0,0,1-1.16-.28,2.15,2.15,0,0,1-.82-.76,2,2,0,0,1-.3-1.07,1.65,1.65,0,0,1,.25-.92,1.87,1.87,0,0,1,.66-.65,3,3,0,0,1,.92-.39,4.46,4.46,0,0,1,1-.12,5.44,5.44,0,0,1,1.14.11,3.69,3.69,0,0,1,.76.23v-.54a1.75,1.75,0,0,0-.47-1.28,1.79,1.79,0,0,0-1.33-.48,2.87,2.87,0,0,0-1.05.2,4.74,4.74,0,0,0-1.1.59l-.38-.74a6.41,6.41,0,0,1,1.25-.64,4,4,0,0,1,1.39-.24,3.32,3.32,0,0,1,1.55.33,2.26,2.26,0,0,1,1,1,3.08,3.08,0,0,1,.32,1.43v4.14Zm-.29-1.55a.78.78,0,0,0,.25-.51v-1a4.31,4.31,0,0,0-.87-.24,5.1,5.1,0,0,0-.86-.08,3.14,3.14,0,0,0-.68.07,2.48,2.48,0,0,0-.63.23,1.31,1.31,0,0,0-.46.41,1,1,0,0,0-.17.59,1.18,1.18,0,0,0,.21.7,1.4,1.4,0,0,0,.55.47,1.63,1.63,0,0,0,.73.17,3.08,3.08,0,0,0,.72-.09,2.75,2.75,0,0,0,.69-.27A1.55,1.55,0,0,0,277.68,314.25Z" transform="translate(-209.43 -125.21)"/><path class="cls-6" d="M292.57,315.5l-.39.17a3.62,3.62,0,0,1-.58.18,3,3,0,0,1-.68.08,1.92,1.92,0,0,1-.77-.15,1.28,1.28,0,0,1-.56-.47,1.42,1.42,0,0,1-.21-.8V310h-.92v-.9h.92v-2.26h1.15v2.26h1.52v.9h-1.52v4.21a.72.72,0,0,0,.24.54.79.79,0,0,0,.52.17,1.81,1.81,0,0,0,.63-.11l.37-.17Z" transform="translate(-209.43 -125.21)"/><path class="cls-6" d="M306.65,315.8v-1.39a3,3,0,0,1-.67.82,3.22,3.22,0,0,1-.92.52,3.08,3.08,0,0,1-1,.18,2.52,2.52,0,0,1-1.09-.22,1.68,1.68,0,0,1-.68-.61,2.58,2.58,0,0,1-.36-.9,5.62,5.62,0,0,1-.11-1.1v-4.05h1.15v3.82a4.18,4.18,0,0,0,.12,1,1.28,1.28,0,0,0,1.37,1,1.91,1.91,0,0,0,.91-.22,2.59,2.59,0,0,0,.76-.6,2.81,2.81,0,0,0,.52-.84v-4.23h1.14v6.75Z" transform="translate(-209.43 -125.21)"/><path class="cls-6" d="M321.4,310a2.82,2.82,0,0,0-1.51.44,2.27,2.27,0,0,0-.93,1.16v4.19h-1.15v-6.75h1.07v1.53a3.13,3.13,0,0,1,.93-1.13A2.26,2.26,0,0,1,321,309h.38Z" transform="translate(-209.43 -125.21)"/><path class="cls-6" d="M336.64,315.8h-1.15V312a2.87,2.87,0,0,0-.33-1.56,1.14,1.14,0,0,0-1-.5,2.13,2.13,0,0,0-.93.23,3.1,3.1,0,0,0-.82.63,2.51,2.51,0,0,0-.51.9v4.07h-1.14v-6.75h1v1.46a2.79,2.79,0,0,1,.7-.83,3.32,3.32,0,0,1,2.12-.73,2.06,2.06,0,0,1,1,.21,1.6,1.6,0,0,1,.62.59,2.67,2.67,0,0,1,.33.9,6.48,6.48,0,0,1,.1,1.12Z" transform="translate(-209.43 -125.21)"/></svg>